%TF.GenerationSoftware,KiCad,Pcbnew,(5.1.6)-1*%
%TF.CreationDate,2020-12-15T22:49:58+02:00*%
%TF.ProjectId,macropad,6d616372-6f70-4616-942e-6b696361645f,rev?*%
%TF.SameCoordinates,Original*%
%TF.FileFunction,Soldermask,Top*%
%TF.FilePolarity,Negative*%
%FSLAX46Y46*%
G04 Gerber Fmt 4.6, Leading zero omitted, Abs format (unit mm)*
G04 Created by KiCad (PCBNEW (5.1.6)-1) date 2020-12-15 22:49:58*
%MOMM*%
%LPD*%
G01*
G04 APERTURE LIST*
%ADD10R,1.800000X1.800000*%
%ADD11O,1.800000X1.800000*%
%ADD12C,1.300000*%
%ADD13C,1.800000*%
%ADD14C,2.100000*%
%ADD15C,1.850000*%
%ADD16C,2.350000*%
%ADD17C,4.087800*%
%ADD18C,0.900000*%
%ADD19C,5.500000*%
%ADD20C,0.800000*%
%ADD21C,4.500000*%
%ADD22O,1.000000X2.500000*%
%ADD23O,1.000000X1.800000*%
%ADD24C,1.090600*%
%ADD25C,2.474900*%
%ADD26R,1.000000X0.900000*%
%ADD27R,0.750000X1.160000*%
%ADD28R,1.800000X2.200000*%
G04 APERTURE END LIST*
D10*
%TO.C,J3*%
X81900000Y-74050000D03*
D11*
X81900000Y-71510000D03*
X81900000Y-68970000D03*
X81900000Y-66430000D03*
X81900000Y-63890000D03*
X81900000Y-61350000D03*
X81900000Y-58810000D03*
X81900000Y-56270000D03*
X81900000Y-53730000D03*
X81900000Y-51190000D03*
X81900000Y-48650000D03*
X81900000Y-46110000D03*
%TD*%
D12*
%TO.C,SW2*%
X104480000Y-96600000D03*
D13*
X115200000Y-92400000D03*
X104200000Y-92400000D03*
D14*
X109700000Y-86500000D03*
X114700000Y-88600000D03*
D15*
X114780000Y-92400000D03*
X104620000Y-92400000D03*
D16*
X107200000Y-88400000D03*
D17*
X109700000Y-92400000D03*
G36*
G01*
X105105296Y-90734566D02*
X105105297Y-90734566D01*
G75*
G02*
X105015434Y-89075297I784703J874566D01*
G01*
X106325424Y-87615289D01*
G75*
G02*
X107984693Y-87525426I874566J-784703D01*
G01*
X107984693Y-87525426D01*
G75*
G02*
X108074556Y-89184695I-784703J-874566D01*
G01*
X106764566Y-90644703D01*
G75*
G02*
X105105297Y-90734566I-874566J784703D01*
G01*
G37*
D16*
X112240000Y-87320000D03*
G36*
G01*
X112120082Y-89072279D02*
X112120082Y-89072279D01*
G75*
G02*
X111027721Y-87820082I79918J1172279D01*
G01*
X111067263Y-87240050D01*
G75*
G02*
X112319460Y-86147689I1172279J-79918D01*
G01*
X112319460Y-86147689D01*
G75*
G02*
X113411821Y-87399886I-79918J-1172279D01*
G01*
X113372279Y-87979918D01*
G75*
G02*
X112120082Y-89072279I-1172279J79918D01*
G01*
G37*
%TD*%
D18*
%TO.C,H9*%
X158781891Y-177118109D03*
X157350000Y-176525000D03*
X155918109Y-177118109D03*
X155325000Y-178550000D03*
X155918109Y-179981891D03*
X157350000Y-180575000D03*
X158781891Y-179981891D03*
X159375000Y-178550000D03*
D19*
X157350000Y-178550000D03*
%TD*%
D20*
%TO.C,H4*%
X156066726Y-77533274D03*
X154900000Y-77050000D03*
X153733274Y-77533274D03*
X153250000Y-78700000D03*
X153733274Y-79866726D03*
X154900000Y-80350000D03*
X156066726Y-79866726D03*
X156550000Y-78700000D03*
D21*
X154900000Y-78700000D03*
%TD*%
D20*
%TO.C,H3*%
X85066726Y-77533274D03*
X83900000Y-77050000D03*
X82733274Y-77533274D03*
X82250000Y-78700000D03*
X82733274Y-79866726D03*
X83900000Y-80350000D03*
X85066726Y-79866726D03*
X85550000Y-78700000D03*
D21*
X83900000Y-78700000D03*
%TD*%
D20*
%TO.C,H2*%
X156066726Y-40533274D03*
X154900000Y-40050000D03*
X153733274Y-40533274D03*
X153250000Y-41700000D03*
X153733274Y-42866726D03*
X154900000Y-43350000D03*
X156066726Y-42866726D03*
X156550000Y-41700000D03*
D21*
X154900000Y-41700000D03*
%TD*%
D20*
%TO.C,H1*%
X85066726Y-40533274D03*
X83900000Y-40050000D03*
X82733274Y-40533274D03*
X82250000Y-41700000D03*
X82733274Y-42866726D03*
X83900000Y-43350000D03*
X85066726Y-42866726D03*
X85550000Y-41700000D03*
D21*
X83900000Y-41700000D03*
%TD*%
%TO.C,FB1*%
G36*
G01*
X139428262Y-54365000D02*
X138471738Y-54365000D01*
G75*
G02*
X138200000Y-54093262I0J271738D01*
G01*
X138200000Y-53386738D01*
G75*
G02*
X138471738Y-53115000I271738J0D01*
G01*
X139428262Y-53115000D01*
G75*
G02*
X139700000Y-53386738I0J-271738D01*
G01*
X139700000Y-54093262D01*
G75*
G02*
X139428262Y-54365000I-271738J0D01*
G01*
G37*
G36*
G01*
X139428262Y-52315000D02*
X138471738Y-52315000D01*
G75*
G02*
X138200000Y-52043262I0J271738D01*
G01*
X138200000Y-51336738D01*
G75*
G02*
X138471738Y-51065000I271738J0D01*
G01*
X139428262Y-51065000D01*
G75*
G02*
X139700000Y-51336738I0J-271738D01*
G01*
X139700000Y-52043262D01*
G75*
G02*
X139428262Y-52315000I-271738J0D01*
G01*
G37*
%TD*%
D19*
%TO.C,H5*%
X81400000Y-102000000D03*
D18*
X83425000Y-102000000D03*
X82831891Y-103431891D03*
X81400000Y-104025000D03*
X79968109Y-103431891D03*
X79375000Y-102000000D03*
X79968109Y-100568109D03*
X81400000Y-99975000D03*
X82831891Y-100568109D03*
%TD*%
D19*
%TO.C,H6*%
X157400000Y-102000000D03*
D18*
X159425000Y-102000000D03*
X158831891Y-103431891D03*
X157400000Y-104025000D03*
X155968109Y-103431891D03*
X155375000Y-102000000D03*
X155968109Y-100568109D03*
X157400000Y-99975000D03*
X158831891Y-100568109D03*
%TD*%
%TO.C,H7*%
X120781891Y-119943109D03*
X119350000Y-119350000D03*
X117918109Y-119943109D03*
X117325000Y-121375000D03*
X117918109Y-122806891D03*
X119350000Y-123400000D03*
X120781891Y-122806891D03*
X121375000Y-121375000D03*
D19*
X119350000Y-121375000D03*
%TD*%
D18*
%TO.C,H8*%
X82706891Y-177168109D03*
X81275000Y-176575000D03*
X79843109Y-177168109D03*
X79250000Y-178600000D03*
X79843109Y-180031891D03*
X81275000Y-180625000D03*
X82706891Y-180031891D03*
X83300000Y-178600000D03*
D19*
X81275000Y-178600000D03*
%TD*%
D20*
%TO.C,J1*%
X122300000Y-43800000D03*
X121450000Y-43800000D03*
X120600000Y-43800000D03*
X119750000Y-43800000D03*
X118900000Y-43800000D03*
X118050000Y-43800000D03*
X117200000Y-43800000D03*
X116350000Y-43800000D03*
X121450000Y-42450000D03*
X119750000Y-42450000D03*
X120600000Y-42450000D03*
X122300000Y-42450000D03*
X118050000Y-42450000D03*
X117200000Y-42450000D03*
X116350000Y-42450000D03*
X118900000Y-42450000D03*
D22*
X123650000Y-42820000D03*
X115000000Y-42820000D03*
D23*
X123650000Y-39440000D03*
X115000000Y-39440000D03*
%TD*%
D24*
%TO.C,J2*%
X128134000Y-72560000D03*
X130166000Y-72560000D03*
X129150000Y-64940000D03*
D25*
X126610000Y-64940000D03*
X131690000Y-64940000D03*
X131690000Y-70655000D03*
X126610000Y-70655000D03*
%TD*%
%TO.C,LED1*%
G36*
G01*
X141830000Y-59022500D02*
X141830000Y-59547500D01*
G75*
G02*
X141567500Y-59810000I-262500J0D01*
G01*
X140942500Y-59810000D01*
G75*
G02*
X140680000Y-59547500I0J262500D01*
G01*
X140680000Y-59022500D01*
G75*
G02*
X140942500Y-58760000I262500J0D01*
G01*
X141567500Y-58760000D01*
G75*
G02*
X141830000Y-59022500I0J-262500D01*
G01*
G37*
G36*
G01*
X140080000Y-59022500D02*
X140080000Y-59547500D01*
G75*
G02*
X139817500Y-59810000I-262500J0D01*
G01*
X139192500Y-59810000D01*
G75*
G02*
X138930000Y-59547500I0J262500D01*
G01*
X138930000Y-59022500D01*
G75*
G02*
X139192500Y-58760000I262500J0D01*
G01*
X139817500Y-58760000D01*
G75*
G02*
X140080000Y-59022500I0J-262500D01*
G01*
G37*
%TD*%
%TO.C,SW1*%
G36*
G01*
X92820082Y-89072279D02*
X92820082Y-89072279D01*
G75*
G02*
X91727721Y-87820082I79918J1172279D01*
G01*
X91767263Y-87240050D01*
G75*
G02*
X93019460Y-86147689I1172279J-79918D01*
G01*
X93019460Y-86147689D01*
G75*
G02*
X94111821Y-87399886I-79918J-1172279D01*
G01*
X94072279Y-87979918D01*
G75*
G02*
X92820082Y-89072279I-1172279J79918D01*
G01*
G37*
D16*
X92940000Y-87320000D03*
G36*
G01*
X85805296Y-90734566D02*
X85805297Y-90734566D01*
G75*
G02*
X85715434Y-89075297I784703J874566D01*
G01*
X87025424Y-87615289D01*
G75*
G02*
X88684693Y-87525426I874566J-784703D01*
G01*
X88684693Y-87525426D01*
G75*
G02*
X88774556Y-89184695I-784703J-874566D01*
G01*
X87464566Y-90644703D01*
G75*
G02*
X85805297Y-90734566I-874566J784703D01*
G01*
G37*
D17*
X90400000Y-92400000D03*
D16*
X87900000Y-88400000D03*
D15*
X85320000Y-92400000D03*
X95480000Y-92400000D03*
D14*
X95400000Y-88600000D03*
X90400000Y-86500000D03*
D13*
X84900000Y-92400000D03*
X95900000Y-92400000D03*
D12*
X85180000Y-96600000D03*
%TD*%
%TO.C,SW3*%
X123780000Y-96600000D03*
D13*
X134500000Y-92400000D03*
X123500000Y-92400000D03*
D14*
X129000000Y-86500000D03*
X134000000Y-88600000D03*
D15*
X134080000Y-92400000D03*
X123920000Y-92400000D03*
D16*
X126500000Y-88400000D03*
D17*
X129000000Y-92400000D03*
G36*
G01*
X124405296Y-90734566D02*
X124405297Y-90734566D01*
G75*
G02*
X124315434Y-89075297I784703J874566D01*
G01*
X125625424Y-87615289D01*
G75*
G02*
X127284693Y-87525426I874566J-784703D01*
G01*
X127284693Y-87525426D01*
G75*
G02*
X127374556Y-89184695I-784703J-874566D01*
G01*
X126064566Y-90644703D01*
G75*
G02*
X124405297Y-90734566I-874566J784703D01*
G01*
G37*
D16*
X131540000Y-87320000D03*
G36*
G01*
X131420082Y-89072279D02*
X131420082Y-89072279D01*
G75*
G02*
X130327721Y-87820082I79918J1172279D01*
G01*
X130367263Y-87240050D01*
G75*
G02*
X131619460Y-86147689I1172279J-79918D01*
G01*
X131619460Y-86147689D01*
G75*
G02*
X132711821Y-87399886I-79918J-1172279D01*
G01*
X132672279Y-87979918D01*
G75*
G02*
X131420082Y-89072279I-1172279J79918D01*
G01*
G37*
%TD*%
%TO.C,SW4*%
G36*
G01*
X150720082Y-89072279D02*
X150720082Y-89072279D01*
G75*
G02*
X149627721Y-87820082I79918J1172279D01*
G01*
X149667263Y-87240050D01*
G75*
G02*
X150919460Y-86147689I1172279J-79918D01*
G01*
X150919460Y-86147689D01*
G75*
G02*
X152011821Y-87399886I-79918J-1172279D01*
G01*
X151972279Y-87979918D01*
G75*
G02*
X150720082Y-89072279I-1172279J79918D01*
G01*
G37*
X150840000Y-87320000D03*
G36*
G01*
X143705296Y-90734566D02*
X143705297Y-90734566D01*
G75*
G02*
X143615434Y-89075297I784703J874566D01*
G01*
X144925424Y-87615289D01*
G75*
G02*
X146584693Y-87525426I874566J-784703D01*
G01*
X146584693Y-87525426D01*
G75*
G02*
X146674556Y-89184695I-784703J-874566D01*
G01*
X145364566Y-90644703D01*
G75*
G02*
X143705297Y-90734566I-874566J784703D01*
G01*
G37*
D17*
X148300000Y-92400000D03*
D16*
X145800000Y-88400000D03*
D15*
X143220000Y-92400000D03*
X153380000Y-92400000D03*
D14*
X153300000Y-88600000D03*
X148300000Y-86500000D03*
D13*
X142800000Y-92400000D03*
X153800000Y-92400000D03*
D12*
X143080000Y-96600000D03*
%TD*%
%TO.C,SW5*%
X85180000Y-115900000D03*
D13*
X95900000Y-111700000D03*
X84900000Y-111700000D03*
D14*
X90400000Y-105800000D03*
X95400000Y-107900000D03*
D15*
X95480000Y-111700000D03*
X85320000Y-111700000D03*
D16*
X87900000Y-107700000D03*
D17*
X90400000Y-111700000D03*
G36*
G01*
X85805296Y-110034566D02*
X85805297Y-110034566D01*
G75*
G02*
X85715434Y-108375297I784703J874566D01*
G01*
X87025424Y-106915289D01*
G75*
G02*
X88684693Y-106825426I874566J-784703D01*
G01*
X88684693Y-106825426D01*
G75*
G02*
X88774556Y-108484695I-784703J-874566D01*
G01*
X87464566Y-109944703D01*
G75*
G02*
X85805297Y-110034566I-874566J784703D01*
G01*
G37*
D16*
X92940000Y-106620000D03*
G36*
G01*
X92820082Y-108372279D02*
X92820082Y-108372279D01*
G75*
G02*
X91727721Y-107120082I79918J1172279D01*
G01*
X91767263Y-106540050D01*
G75*
G02*
X93019460Y-105447689I1172279J-79918D01*
G01*
X93019460Y-105447689D01*
G75*
G02*
X94111821Y-106699886I-79918J-1172279D01*
G01*
X94072279Y-107279918D01*
G75*
G02*
X92820082Y-108372279I-1172279J79918D01*
G01*
G37*
%TD*%
%TO.C,SW6*%
G36*
G01*
X112120082Y-108372279D02*
X112120082Y-108372279D01*
G75*
G02*
X111027721Y-107120082I79918J1172279D01*
G01*
X111067263Y-106540050D01*
G75*
G02*
X112319460Y-105447689I1172279J-79918D01*
G01*
X112319460Y-105447689D01*
G75*
G02*
X113411821Y-106699886I-79918J-1172279D01*
G01*
X113372279Y-107279918D01*
G75*
G02*
X112120082Y-108372279I-1172279J79918D01*
G01*
G37*
X112240000Y-106620000D03*
G36*
G01*
X105105296Y-110034566D02*
X105105297Y-110034566D01*
G75*
G02*
X105015434Y-108375297I784703J874566D01*
G01*
X106325424Y-106915289D01*
G75*
G02*
X107984693Y-106825426I874566J-784703D01*
G01*
X107984693Y-106825426D01*
G75*
G02*
X108074556Y-108484695I-784703J-874566D01*
G01*
X106764566Y-109944703D01*
G75*
G02*
X105105297Y-110034566I-874566J784703D01*
G01*
G37*
D17*
X109700000Y-111700000D03*
D16*
X107200000Y-107700000D03*
D15*
X104620000Y-111700000D03*
X114780000Y-111700000D03*
D14*
X114700000Y-107900000D03*
X109700000Y-105800000D03*
D13*
X104200000Y-111700000D03*
X115200000Y-111700000D03*
D12*
X104480000Y-115900000D03*
%TD*%
%TO.C,SW7*%
G36*
G01*
X131420082Y-108372279D02*
X131420082Y-108372279D01*
G75*
G02*
X130327721Y-107120082I79918J1172279D01*
G01*
X130367263Y-106540050D01*
G75*
G02*
X131619460Y-105447689I1172279J-79918D01*
G01*
X131619460Y-105447689D01*
G75*
G02*
X132711821Y-106699886I-79918J-1172279D01*
G01*
X132672279Y-107279918D01*
G75*
G02*
X131420082Y-108372279I-1172279J79918D01*
G01*
G37*
D16*
X131540000Y-106620000D03*
G36*
G01*
X124405296Y-110034566D02*
X124405297Y-110034566D01*
G75*
G02*
X124315434Y-108375297I784703J874566D01*
G01*
X125625424Y-106915289D01*
G75*
G02*
X127284693Y-106825426I874566J-784703D01*
G01*
X127284693Y-106825426D01*
G75*
G02*
X127374556Y-108484695I-784703J-874566D01*
G01*
X126064566Y-109944703D01*
G75*
G02*
X124405297Y-110034566I-874566J784703D01*
G01*
G37*
D17*
X129000000Y-111700000D03*
D16*
X126500000Y-107700000D03*
D15*
X123920000Y-111700000D03*
X134080000Y-111700000D03*
D14*
X134000000Y-107900000D03*
X129000000Y-105800000D03*
D13*
X123500000Y-111700000D03*
X134500000Y-111700000D03*
D12*
X123780000Y-115900000D03*
%TD*%
%TO.C,SW8*%
X143080000Y-115900000D03*
D13*
X153800000Y-111700000D03*
X142800000Y-111700000D03*
D14*
X148300000Y-105800000D03*
X153300000Y-107900000D03*
D15*
X153380000Y-111700000D03*
X143220000Y-111700000D03*
D16*
X145800000Y-107700000D03*
D17*
X148300000Y-111700000D03*
G36*
G01*
X143705296Y-110034566D02*
X143705297Y-110034566D01*
G75*
G02*
X143615434Y-108375297I784703J874566D01*
G01*
X144925424Y-106915289D01*
G75*
G02*
X146584693Y-106825426I874566J-784703D01*
G01*
X146584693Y-106825426D01*
G75*
G02*
X146674556Y-108484695I-784703J-874566D01*
G01*
X145364566Y-109944703D01*
G75*
G02*
X143705297Y-110034566I-874566J784703D01*
G01*
G37*
D16*
X150840000Y-106620000D03*
G36*
G01*
X150720082Y-108372279D02*
X150720082Y-108372279D01*
G75*
G02*
X149627721Y-107120082I79918J1172279D01*
G01*
X149667263Y-106540050D01*
G75*
G02*
X150919460Y-105447689I1172279J-79918D01*
G01*
X150919460Y-105447689D01*
G75*
G02*
X152011821Y-106699886I-79918J-1172279D01*
G01*
X151972279Y-107279918D01*
G75*
G02*
X150720082Y-108372279I-1172279J79918D01*
G01*
G37*
%TD*%
D12*
%TO.C,SW9*%
X85180000Y-135200000D03*
D13*
X95900000Y-131000000D03*
X84900000Y-131000000D03*
D14*
X90400000Y-125100000D03*
X95400000Y-127200000D03*
D15*
X95480000Y-131000000D03*
X85320000Y-131000000D03*
D16*
X87900000Y-127000000D03*
D17*
X90400000Y-131000000D03*
G36*
G01*
X85805296Y-129334566D02*
X85805297Y-129334566D01*
G75*
G02*
X85715434Y-127675297I784703J874566D01*
G01*
X87025424Y-126215289D01*
G75*
G02*
X88684693Y-126125426I874566J-784703D01*
G01*
X88684693Y-126125426D01*
G75*
G02*
X88774556Y-127784695I-784703J-874566D01*
G01*
X87464566Y-129244703D01*
G75*
G02*
X85805297Y-129334566I-874566J784703D01*
G01*
G37*
D16*
X92940000Y-125920000D03*
G36*
G01*
X92820082Y-127672279D02*
X92820082Y-127672279D01*
G75*
G02*
X91727721Y-126420082I79918J1172279D01*
G01*
X91767263Y-125840050D01*
G75*
G02*
X93019460Y-124747689I1172279J-79918D01*
G01*
X93019460Y-124747689D01*
G75*
G02*
X94111821Y-125999886I-79918J-1172279D01*
G01*
X94072279Y-126579918D01*
G75*
G02*
X92820082Y-127672279I-1172279J79918D01*
G01*
G37*
%TD*%
D12*
%TO.C,SW10*%
X104480000Y-135200000D03*
D13*
X115200000Y-131000000D03*
X104200000Y-131000000D03*
D14*
X109700000Y-125100000D03*
X114700000Y-127200000D03*
D15*
X114780000Y-131000000D03*
X104620000Y-131000000D03*
D16*
X107200000Y-127000000D03*
D17*
X109700000Y-131000000D03*
G36*
G01*
X105105296Y-129334566D02*
X105105297Y-129334566D01*
G75*
G02*
X105015434Y-127675297I784703J874566D01*
G01*
X106325424Y-126215289D01*
G75*
G02*
X107984693Y-126125426I874566J-784703D01*
G01*
X107984693Y-126125426D01*
G75*
G02*
X108074556Y-127784695I-784703J-874566D01*
G01*
X106764566Y-129244703D01*
G75*
G02*
X105105297Y-129334566I-874566J784703D01*
G01*
G37*
D16*
X112240000Y-125920000D03*
G36*
G01*
X112120082Y-127672279D02*
X112120082Y-127672279D01*
G75*
G02*
X111027721Y-126420082I79918J1172279D01*
G01*
X111067263Y-125840050D01*
G75*
G02*
X112319460Y-124747689I1172279J-79918D01*
G01*
X112319460Y-124747689D01*
G75*
G02*
X113411821Y-125999886I-79918J-1172279D01*
G01*
X113372279Y-126579918D01*
G75*
G02*
X112120082Y-127672279I-1172279J79918D01*
G01*
G37*
%TD*%
D12*
%TO.C,SW11*%
X123780000Y-135200000D03*
D13*
X134500000Y-131000000D03*
X123500000Y-131000000D03*
D14*
X129000000Y-125100000D03*
X134000000Y-127200000D03*
D15*
X134080000Y-131000000D03*
X123920000Y-131000000D03*
D16*
X126500000Y-127000000D03*
D17*
X129000000Y-131000000D03*
G36*
G01*
X124405296Y-129334566D02*
X124405297Y-129334566D01*
G75*
G02*
X124315434Y-127675297I784703J874566D01*
G01*
X125625424Y-126215289D01*
G75*
G02*
X127284693Y-126125426I874566J-784703D01*
G01*
X127284693Y-126125426D01*
G75*
G02*
X127374556Y-127784695I-784703J-874566D01*
G01*
X126064566Y-129244703D01*
G75*
G02*
X124405297Y-129334566I-874566J784703D01*
G01*
G37*
D16*
X131540000Y-125920000D03*
G36*
G01*
X131420082Y-127672279D02*
X131420082Y-127672279D01*
G75*
G02*
X130327721Y-126420082I79918J1172279D01*
G01*
X130367263Y-125840050D01*
G75*
G02*
X131619460Y-124747689I1172279J-79918D01*
G01*
X131619460Y-124747689D01*
G75*
G02*
X132711821Y-125999886I-79918J-1172279D01*
G01*
X132672279Y-126579918D01*
G75*
G02*
X131420082Y-127672279I-1172279J79918D01*
G01*
G37*
%TD*%
%TO.C,SW12*%
G36*
G01*
X150720082Y-127672279D02*
X150720082Y-127672279D01*
G75*
G02*
X149627721Y-126420082I79918J1172279D01*
G01*
X149667263Y-125840050D01*
G75*
G02*
X150919460Y-124747689I1172279J-79918D01*
G01*
X150919460Y-124747689D01*
G75*
G02*
X152011821Y-125999886I-79918J-1172279D01*
G01*
X151972279Y-126579918D01*
G75*
G02*
X150720082Y-127672279I-1172279J79918D01*
G01*
G37*
X150840000Y-125920000D03*
G36*
G01*
X143705296Y-129334566D02*
X143705297Y-129334566D01*
G75*
G02*
X143615434Y-127675297I784703J874566D01*
G01*
X144925424Y-126215289D01*
G75*
G02*
X146584693Y-126125426I874566J-784703D01*
G01*
X146584693Y-126125426D01*
G75*
G02*
X146674556Y-127784695I-784703J-874566D01*
G01*
X145364566Y-129244703D01*
G75*
G02*
X143705297Y-129334566I-874566J784703D01*
G01*
G37*
D17*
X148300000Y-131000000D03*
D16*
X145800000Y-127000000D03*
D15*
X143220000Y-131000000D03*
X153380000Y-131000000D03*
D14*
X153300000Y-127200000D03*
X148300000Y-125100000D03*
D13*
X142800000Y-131000000D03*
X153800000Y-131000000D03*
D12*
X143080000Y-135200000D03*
%TD*%
%TO.C,SW13*%
G36*
G01*
X92820082Y-146972279D02*
X92820082Y-146972279D01*
G75*
G02*
X91727721Y-145720082I79918J1172279D01*
G01*
X91767263Y-145140050D01*
G75*
G02*
X93019460Y-144047689I1172279J-79918D01*
G01*
X93019460Y-144047689D01*
G75*
G02*
X94111821Y-145299886I-79918J-1172279D01*
G01*
X94072279Y-145879918D01*
G75*
G02*
X92820082Y-146972279I-1172279J79918D01*
G01*
G37*
D16*
X92940000Y-145220000D03*
G36*
G01*
X85805296Y-148634566D02*
X85805297Y-148634566D01*
G75*
G02*
X85715434Y-146975297I784703J874566D01*
G01*
X87025424Y-145515289D01*
G75*
G02*
X88684693Y-145425426I874566J-784703D01*
G01*
X88684693Y-145425426D01*
G75*
G02*
X88774556Y-147084695I-784703J-874566D01*
G01*
X87464566Y-148544703D01*
G75*
G02*
X85805297Y-148634566I-874566J784703D01*
G01*
G37*
D17*
X90400000Y-150300000D03*
D16*
X87900000Y-146300000D03*
D15*
X85320000Y-150300000D03*
X95480000Y-150300000D03*
D14*
X95400000Y-146500000D03*
X90400000Y-144400000D03*
D13*
X84900000Y-150300000D03*
X95900000Y-150300000D03*
D12*
X85180000Y-154500000D03*
%TD*%
%TO.C,SW14*%
G36*
G01*
X112120082Y-146972279D02*
X112120082Y-146972279D01*
G75*
G02*
X111027721Y-145720082I79918J1172279D01*
G01*
X111067263Y-145140050D01*
G75*
G02*
X112319460Y-144047689I1172279J-79918D01*
G01*
X112319460Y-144047689D01*
G75*
G02*
X113411821Y-145299886I-79918J-1172279D01*
G01*
X113372279Y-145879918D01*
G75*
G02*
X112120082Y-146972279I-1172279J79918D01*
G01*
G37*
D16*
X112240000Y-145220000D03*
G36*
G01*
X105105296Y-148634566D02*
X105105297Y-148634566D01*
G75*
G02*
X105015434Y-146975297I784703J874566D01*
G01*
X106325424Y-145515289D01*
G75*
G02*
X107984693Y-145425426I874566J-784703D01*
G01*
X107984693Y-145425426D01*
G75*
G02*
X108074556Y-147084695I-784703J-874566D01*
G01*
X106764566Y-148544703D01*
G75*
G02*
X105105297Y-148634566I-874566J784703D01*
G01*
G37*
D17*
X109700000Y-150300000D03*
D16*
X107200000Y-146300000D03*
D15*
X104620000Y-150300000D03*
X114780000Y-150300000D03*
D14*
X114700000Y-146500000D03*
X109700000Y-144400000D03*
D13*
X104200000Y-150300000D03*
X115200000Y-150300000D03*
D12*
X104480000Y-154500000D03*
%TD*%
%TO.C,SW15*%
G36*
G01*
X131420082Y-146972279D02*
X131420082Y-146972279D01*
G75*
G02*
X130327721Y-145720082I79918J1172279D01*
G01*
X130367263Y-145140050D01*
G75*
G02*
X131619460Y-144047689I1172279J-79918D01*
G01*
X131619460Y-144047689D01*
G75*
G02*
X132711821Y-145299886I-79918J-1172279D01*
G01*
X132672279Y-145879918D01*
G75*
G02*
X131420082Y-146972279I-1172279J79918D01*
G01*
G37*
D16*
X131540000Y-145220000D03*
G36*
G01*
X124405296Y-148634566D02*
X124405297Y-148634566D01*
G75*
G02*
X124315434Y-146975297I784703J874566D01*
G01*
X125625424Y-145515289D01*
G75*
G02*
X127284693Y-145425426I874566J-784703D01*
G01*
X127284693Y-145425426D01*
G75*
G02*
X127374556Y-147084695I-784703J-874566D01*
G01*
X126064566Y-148544703D01*
G75*
G02*
X124405297Y-148634566I-874566J784703D01*
G01*
G37*
D17*
X129000000Y-150300000D03*
D16*
X126500000Y-146300000D03*
D15*
X123920000Y-150300000D03*
X134080000Y-150300000D03*
D14*
X134000000Y-146500000D03*
X129000000Y-144400000D03*
D13*
X123500000Y-150300000D03*
X134500000Y-150300000D03*
D12*
X123780000Y-154500000D03*
%TD*%
%TO.C,SW16*%
G36*
G01*
X150720082Y-146972279D02*
X150720082Y-146972279D01*
G75*
G02*
X149627721Y-145720082I79918J1172279D01*
G01*
X149667263Y-145140050D01*
G75*
G02*
X150919460Y-144047689I1172279J-79918D01*
G01*
X150919460Y-144047689D01*
G75*
G02*
X152011821Y-145299886I-79918J-1172279D01*
G01*
X151972279Y-145879918D01*
G75*
G02*
X150720082Y-146972279I-1172279J79918D01*
G01*
G37*
D16*
X150840000Y-145220000D03*
G36*
G01*
X143705296Y-148634566D02*
X143705297Y-148634566D01*
G75*
G02*
X143615434Y-146975297I784703J874566D01*
G01*
X144925424Y-145515289D01*
G75*
G02*
X146584693Y-145425426I874566J-784703D01*
G01*
X146584693Y-145425426D01*
G75*
G02*
X146674556Y-147084695I-784703J-874566D01*
G01*
X145364566Y-148544703D01*
G75*
G02*
X143705297Y-148634566I-874566J784703D01*
G01*
G37*
D17*
X148300000Y-150300000D03*
D16*
X145800000Y-146300000D03*
D15*
X143220000Y-150300000D03*
X153380000Y-150300000D03*
D14*
X153300000Y-146500000D03*
X148300000Y-144400000D03*
D13*
X142800000Y-150300000D03*
X153800000Y-150300000D03*
D12*
X143080000Y-154500000D03*
%TD*%
%TO.C,SW17*%
X85180000Y-173700000D03*
D13*
X95900000Y-169500000D03*
X84900000Y-169500000D03*
D14*
X90400000Y-163600000D03*
X95400000Y-165700000D03*
D15*
X95480000Y-169500000D03*
X85320000Y-169500000D03*
D16*
X87900000Y-165500000D03*
D17*
X90400000Y-169500000D03*
G36*
G01*
X85805296Y-167834566D02*
X85805297Y-167834566D01*
G75*
G02*
X85715434Y-166175297I784703J874566D01*
G01*
X87025424Y-164715289D01*
G75*
G02*
X88684693Y-164625426I874566J-784703D01*
G01*
X88684693Y-164625426D01*
G75*
G02*
X88774556Y-166284695I-784703J-874566D01*
G01*
X87464566Y-167744703D01*
G75*
G02*
X85805297Y-167834566I-874566J784703D01*
G01*
G37*
D16*
X92940000Y-164420000D03*
G36*
G01*
X92820082Y-166172279D02*
X92820082Y-166172279D01*
G75*
G02*
X91727721Y-164920082I79918J1172279D01*
G01*
X91767263Y-164340050D01*
G75*
G02*
X93019460Y-163247689I1172279J-79918D01*
G01*
X93019460Y-163247689D01*
G75*
G02*
X94111821Y-164499886I-79918J-1172279D01*
G01*
X94072279Y-165079918D01*
G75*
G02*
X92820082Y-166172279I-1172279J79918D01*
G01*
G37*
%TD*%
D12*
%TO.C,SW18*%
X104480000Y-173700000D03*
D13*
X115200000Y-169500000D03*
X104200000Y-169500000D03*
D14*
X109700000Y-163600000D03*
X114700000Y-165700000D03*
D15*
X114780000Y-169500000D03*
X104620000Y-169500000D03*
D16*
X107200000Y-165500000D03*
D17*
X109700000Y-169500000D03*
G36*
G01*
X105105296Y-167834566D02*
X105105297Y-167834566D01*
G75*
G02*
X105015434Y-166175297I784703J874566D01*
G01*
X106325424Y-164715289D01*
G75*
G02*
X107984693Y-164625426I874566J-784703D01*
G01*
X107984693Y-164625426D01*
G75*
G02*
X108074556Y-166284695I-784703J-874566D01*
G01*
X106764566Y-167744703D01*
G75*
G02*
X105105297Y-167834566I-874566J784703D01*
G01*
G37*
D16*
X112240000Y-164420000D03*
G36*
G01*
X112120082Y-166172279D02*
X112120082Y-166172279D01*
G75*
G02*
X111027721Y-164920082I79918J1172279D01*
G01*
X111067263Y-164340050D01*
G75*
G02*
X112319460Y-163247689I1172279J-79918D01*
G01*
X112319460Y-163247689D01*
G75*
G02*
X113411821Y-164499886I-79918J-1172279D01*
G01*
X113372279Y-165079918D01*
G75*
G02*
X112120082Y-166172279I-1172279J79918D01*
G01*
G37*
%TD*%
D12*
%TO.C,SW19*%
X123780000Y-173700000D03*
D13*
X134500000Y-169500000D03*
X123500000Y-169500000D03*
D14*
X129000000Y-163600000D03*
X134000000Y-165700000D03*
D15*
X134080000Y-169500000D03*
X123920000Y-169500000D03*
D16*
X126500000Y-165500000D03*
D17*
X129000000Y-169500000D03*
G36*
G01*
X124405296Y-167834566D02*
X124405297Y-167834566D01*
G75*
G02*
X124315434Y-166175297I784703J874566D01*
G01*
X125625424Y-164715289D01*
G75*
G02*
X127284693Y-164625426I874566J-784703D01*
G01*
X127284693Y-164625426D01*
G75*
G02*
X127374556Y-166284695I-784703J-874566D01*
G01*
X126064566Y-167744703D01*
G75*
G02*
X124405297Y-167834566I-874566J784703D01*
G01*
G37*
D16*
X131540000Y-164420000D03*
G36*
G01*
X131420082Y-166172279D02*
X131420082Y-166172279D01*
G75*
G02*
X130327721Y-164920082I79918J1172279D01*
G01*
X130367263Y-164340050D01*
G75*
G02*
X131619460Y-163247689I1172279J-79918D01*
G01*
X131619460Y-163247689D01*
G75*
G02*
X132711821Y-164499886I-79918J-1172279D01*
G01*
X132672279Y-165079918D01*
G75*
G02*
X131420082Y-166172279I-1172279J79918D01*
G01*
G37*
%TD*%
%TO.C,SW20*%
G36*
G01*
X150720082Y-166172279D02*
X150720082Y-166172279D01*
G75*
G02*
X149627721Y-164920082I79918J1172279D01*
G01*
X149667263Y-164340050D01*
G75*
G02*
X150919460Y-163247689I1172279J-79918D01*
G01*
X150919460Y-163247689D01*
G75*
G02*
X152011821Y-164499886I-79918J-1172279D01*
G01*
X151972279Y-165079918D01*
G75*
G02*
X150720082Y-166172279I-1172279J79918D01*
G01*
G37*
X150840000Y-164420000D03*
G36*
G01*
X143705296Y-167834566D02*
X143705297Y-167834566D01*
G75*
G02*
X143615434Y-166175297I784703J874566D01*
G01*
X144925424Y-164715289D01*
G75*
G02*
X146584693Y-164625426I874566J-784703D01*
G01*
X146584693Y-164625426D01*
G75*
G02*
X146674556Y-166284695I-784703J-874566D01*
G01*
X145364566Y-167744703D01*
G75*
G02*
X143705297Y-167834566I-874566J784703D01*
G01*
G37*
D17*
X148300000Y-169500000D03*
D16*
X145800000Y-165500000D03*
D15*
X143220000Y-169500000D03*
X153380000Y-169500000D03*
D14*
X153300000Y-165700000D03*
X148300000Y-163600000D03*
D13*
X142800000Y-169500000D03*
X153800000Y-169500000D03*
D12*
X143080000Y-173700000D03*
%TD*%
D26*
%TO.C,U1*%
X134980000Y-56360000D03*
X134980000Y-58260000D03*
X136980000Y-57310000D03*
%TD*%
D27*
%TO.C,U2*%
X120280000Y-47680000D03*
X119330000Y-47680000D03*
X118380000Y-47680000D03*
X118380000Y-49880000D03*
X120280000Y-49880000D03*
X119330000Y-49880000D03*
%TD*%
%TO.C,U3*%
G36*
G01*
X101050000Y-60100000D02*
X101050000Y-59900000D01*
G75*
G02*
X101150000Y-59800000I100000J0D01*
G01*
X102600000Y-59800000D01*
G75*
G02*
X102700000Y-59900000I0J-100000D01*
G01*
X102700000Y-60100000D01*
G75*
G02*
X102600000Y-60200000I-100000J0D01*
G01*
X101150000Y-60200000D01*
G75*
G02*
X101050000Y-60100000I0J100000D01*
G01*
G37*
G36*
G01*
X101050000Y-60600000D02*
X101050000Y-60400000D01*
G75*
G02*
X101150000Y-60300000I100000J0D01*
G01*
X102600000Y-60300000D01*
G75*
G02*
X102700000Y-60400000I0J-100000D01*
G01*
X102700000Y-60600000D01*
G75*
G02*
X102600000Y-60700000I-100000J0D01*
G01*
X101150000Y-60700000D01*
G75*
G02*
X101050000Y-60600000I0J100000D01*
G01*
G37*
G36*
G01*
X101050000Y-61100000D02*
X101050000Y-60900000D01*
G75*
G02*
X101150000Y-60800000I100000J0D01*
G01*
X102600000Y-60800000D01*
G75*
G02*
X102700000Y-60900000I0J-100000D01*
G01*
X102700000Y-61100000D01*
G75*
G02*
X102600000Y-61200000I-100000J0D01*
G01*
X101150000Y-61200000D01*
G75*
G02*
X101050000Y-61100000I0J100000D01*
G01*
G37*
G36*
G01*
X101050000Y-61600000D02*
X101050000Y-61400000D01*
G75*
G02*
X101150000Y-61300000I100000J0D01*
G01*
X102600000Y-61300000D01*
G75*
G02*
X102700000Y-61400000I0J-100000D01*
G01*
X102700000Y-61600000D01*
G75*
G02*
X102600000Y-61700000I-100000J0D01*
G01*
X101150000Y-61700000D01*
G75*
G02*
X101050000Y-61600000I0J100000D01*
G01*
G37*
G36*
G01*
X101050000Y-62100000D02*
X101050000Y-61900000D01*
G75*
G02*
X101150000Y-61800000I100000J0D01*
G01*
X102600000Y-61800000D01*
G75*
G02*
X102700000Y-61900000I0J-100000D01*
G01*
X102700000Y-62100000D01*
G75*
G02*
X102600000Y-62200000I-100000J0D01*
G01*
X101150000Y-62200000D01*
G75*
G02*
X101050000Y-62100000I0J100000D01*
G01*
G37*
G36*
G01*
X101050000Y-62600000D02*
X101050000Y-62400000D01*
G75*
G02*
X101150000Y-62300000I100000J0D01*
G01*
X102600000Y-62300000D01*
G75*
G02*
X102700000Y-62400000I0J-100000D01*
G01*
X102700000Y-62600000D01*
G75*
G02*
X102600000Y-62700000I-100000J0D01*
G01*
X101150000Y-62700000D01*
G75*
G02*
X101050000Y-62600000I0J100000D01*
G01*
G37*
G36*
G01*
X101050000Y-63100000D02*
X101050000Y-62900000D01*
G75*
G02*
X101150000Y-62800000I100000J0D01*
G01*
X102600000Y-62800000D01*
G75*
G02*
X102700000Y-62900000I0J-100000D01*
G01*
X102700000Y-63100000D01*
G75*
G02*
X102600000Y-63200000I-100000J0D01*
G01*
X101150000Y-63200000D01*
G75*
G02*
X101050000Y-63100000I0J100000D01*
G01*
G37*
G36*
G01*
X101050000Y-63600000D02*
X101050000Y-63400000D01*
G75*
G02*
X101150000Y-63300000I100000J0D01*
G01*
X102600000Y-63300000D01*
G75*
G02*
X102700000Y-63400000I0J-100000D01*
G01*
X102700000Y-63600000D01*
G75*
G02*
X102600000Y-63700000I-100000J0D01*
G01*
X101150000Y-63700000D01*
G75*
G02*
X101050000Y-63600000I0J100000D01*
G01*
G37*
G36*
G01*
X101050000Y-64100000D02*
X101050000Y-63900000D01*
G75*
G02*
X101150000Y-63800000I100000J0D01*
G01*
X102600000Y-63800000D01*
G75*
G02*
X102700000Y-63900000I0J-100000D01*
G01*
X102700000Y-64100000D01*
G75*
G02*
X102600000Y-64200000I-100000J0D01*
G01*
X101150000Y-64200000D01*
G75*
G02*
X101050000Y-64100000I0J100000D01*
G01*
G37*
G36*
G01*
X101050000Y-64600000D02*
X101050000Y-64400000D01*
G75*
G02*
X101150000Y-64300000I100000J0D01*
G01*
X102600000Y-64300000D01*
G75*
G02*
X102700000Y-64400000I0J-100000D01*
G01*
X102700000Y-64600000D01*
G75*
G02*
X102600000Y-64700000I-100000J0D01*
G01*
X101150000Y-64700000D01*
G75*
G02*
X101050000Y-64600000I0J100000D01*
G01*
G37*
G36*
G01*
X101050000Y-65100000D02*
X101050000Y-64900000D01*
G75*
G02*
X101150000Y-64800000I100000J0D01*
G01*
X102600000Y-64800000D01*
G75*
G02*
X102700000Y-64900000I0J-100000D01*
G01*
X102700000Y-65100000D01*
G75*
G02*
X102600000Y-65200000I-100000J0D01*
G01*
X101150000Y-65200000D01*
G75*
G02*
X101050000Y-65100000I0J100000D01*
G01*
G37*
G36*
G01*
X101050000Y-65600000D02*
X101050000Y-65400000D01*
G75*
G02*
X101150000Y-65300000I100000J0D01*
G01*
X102600000Y-65300000D01*
G75*
G02*
X102700000Y-65400000I0J-100000D01*
G01*
X102700000Y-65600000D01*
G75*
G02*
X102600000Y-65700000I-100000J0D01*
G01*
X101150000Y-65700000D01*
G75*
G02*
X101050000Y-65600000I0J100000D01*
G01*
G37*
G36*
G01*
X101050000Y-66100000D02*
X101050000Y-65900000D01*
G75*
G02*
X101150000Y-65800000I100000J0D01*
G01*
X102600000Y-65800000D01*
G75*
G02*
X102700000Y-65900000I0J-100000D01*
G01*
X102700000Y-66100000D01*
G75*
G02*
X102600000Y-66200000I-100000J0D01*
G01*
X101150000Y-66200000D01*
G75*
G02*
X101050000Y-66100000I0J100000D01*
G01*
G37*
G36*
G01*
X101050000Y-66600000D02*
X101050000Y-66400000D01*
G75*
G02*
X101150000Y-66300000I100000J0D01*
G01*
X102600000Y-66300000D01*
G75*
G02*
X102700000Y-66400000I0J-100000D01*
G01*
X102700000Y-66600000D01*
G75*
G02*
X102600000Y-66700000I-100000J0D01*
G01*
X101150000Y-66700000D01*
G75*
G02*
X101050000Y-66600000I0J100000D01*
G01*
G37*
G36*
G01*
X101050000Y-67100000D02*
X101050000Y-66900000D01*
G75*
G02*
X101150000Y-66800000I100000J0D01*
G01*
X102600000Y-66800000D01*
G75*
G02*
X102700000Y-66900000I0J-100000D01*
G01*
X102700000Y-67100000D01*
G75*
G02*
X102600000Y-67200000I-100000J0D01*
G01*
X101150000Y-67200000D01*
G75*
G02*
X101050000Y-67100000I0J100000D01*
G01*
G37*
G36*
G01*
X101050000Y-67600000D02*
X101050000Y-67400000D01*
G75*
G02*
X101150000Y-67300000I100000J0D01*
G01*
X102600000Y-67300000D01*
G75*
G02*
X102700000Y-67400000I0J-100000D01*
G01*
X102700000Y-67600000D01*
G75*
G02*
X102600000Y-67700000I-100000J0D01*
G01*
X101150000Y-67700000D01*
G75*
G02*
X101050000Y-67600000I0J100000D01*
G01*
G37*
G36*
G01*
X103600000Y-70150000D02*
X103600000Y-68700000D01*
G75*
G02*
X103700000Y-68600000I100000J0D01*
G01*
X103900000Y-68600000D01*
G75*
G02*
X104000000Y-68700000I0J-100000D01*
G01*
X104000000Y-70150000D01*
G75*
G02*
X103900000Y-70250000I-100000J0D01*
G01*
X103700000Y-70250000D01*
G75*
G02*
X103600000Y-70150000I0J100000D01*
G01*
G37*
G36*
G01*
X104100000Y-70150000D02*
X104100000Y-68700000D01*
G75*
G02*
X104200000Y-68600000I100000J0D01*
G01*
X104400000Y-68600000D01*
G75*
G02*
X104500000Y-68700000I0J-100000D01*
G01*
X104500000Y-70150000D01*
G75*
G02*
X104400000Y-70250000I-100000J0D01*
G01*
X104200000Y-70250000D01*
G75*
G02*
X104100000Y-70150000I0J100000D01*
G01*
G37*
G36*
G01*
X104600000Y-70150000D02*
X104600000Y-68700000D01*
G75*
G02*
X104700000Y-68600000I100000J0D01*
G01*
X104900000Y-68600000D01*
G75*
G02*
X105000000Y-68700000I0J-100000D01*
G01*
X105000000Y-70150000D01*
G75*
G02*
X104900000Y-70250000I-100000J0D01*
G01*
X104700000Y-70250000D01*
G75*
G02*
X104600000Y-70150000I0J100000D01*
G01*
G37*
G36*
G01*
X105100000Y-70150000D02*
X105100000Y-68700000D01*
G75*
G02*
X105200000Y-68600000I100000J0D01*
G01*
X105400000Y-68600000D01*
G75*
G02*
X105500000Y-68700000I0J-100000D01*
G01*
X105500000Y-70150000D01*
G75*
G02*
X105400000Y-70250000I-100000J0D01*
G01*
X105200000Y-70250000D01*
G75*
G02*
X105100000Y-70150000I0J100000D01*
G01*
G37*
G36*
G01*
X105600000Y-70150000D02*
X105600000Y-68700000D01*
G75*
G02*
X105700000Y-68600000I100000J0D01*
G01*
X105900000Y-68600000D01*
G75*
G02*
X106000000Y-68700000I0J-100000D01*
G01*
X106000000Y-70150000D01*
G75*
G02*
X105900000Y-70250000I-100000J0D01*
G01*
X105700000Y-70250000D01*
G75*
G02*
X105600000Y-70150000I0J100000D01*
G01*
G37*
G36*
G01*
X106100000Y-70150000D02*
X106100000Y-68700000D01*
G75*
G02*
X106200000Y-68600000I100000J0D01*
G01*
X106400000Y-68600000D01*
G75*
G02*
X106500000Y-68700000I0J-100000D01*
G01*
X106500000Y-70150000D01*
G75*
G02*
X106400000Y-70250000I-100000J0D01*
G01*
X106200000Y-70250000D01*
G75*
G02*
X106100000Y-70150000I0J100000D01*
G01*
G37*
G36*
G01*
X106600000Y-70150000D02*
X106600000Y-68700000D01*
G75*
G02*
X106700000Y-68600000I100000J0D01*
G01*
X106900000Y-68600000D01*
G75*
G02*
X107000000Y-68700000I0J-100000D01*
G01*
X107000000Y-70150000D01*
G75*
G02*
X106900000Y-70250000I-100000J0D01*
G01*
X106700000Y-70250000D01*
G75*
G02*
X106600000Y-70150000I0J100000D01*
G01*
G37*
G36*
G01*
X107100000Y-70150000D02*
X107100000Y-68700000D01*
G75*
G02*
X107200000Y-68600000I100000J0D01*
G01*
X107400000Y-68600000D01*
G75*
G02*
X107500000Y-68700000I0J-100000D01*
G01*
X107500000Y-70150000D01*
G75*
G02*
X107400000Y-70250000I-100000J0D01*
G01*
X107200000Y-70250000D01*
G75*
G02*
X107100000Y-70150000I0J100000D01*
G01*
G37*
G36*
G01*
X107600000Y-70150000D02*
X107600000Y-68700000D01*
G75*
G02*
X107700000Y-68600000I100000J0D01*
G01*
X107900000Y-68600000D01*
G75*
G02*
X108000000Y-68700000I0J-100000D01*
G01*
X108000000Y-70150000D01*
G75*
G02*
X107900000Y-70250000I-100000J0D01*
G01*
X107700000Y-70250000D01*
G75*
G02*
X107600000Y-70150000I0J100000D01*
G01*
G37*
G36*
G01*
X108100000Y-70150000D02*
X108100000Y-68700000D01*
G75*
G02*
X108200000Y-68600000I100000J0D01*
G01*
X108400000Y-68600000D01*
G75*
G02*
X108500000Y-68700000I0J-100000D01*
G01*
X108500000Y-70150000D01*
G75*
G02*
X108400000Y-70250000I-100000J0D01*
G01*
X108200000Y-70250000D01*
G75*
G02*
X108100000Y-70150000I0J100000D01*
G01*
G37*
G36*
G01*
X108600000Y-70150000D02*
X108600000Y-68700000D01*
G75*
G02*
X108700000Y-68600000I100000J0D01*
G01*
X108900000Y-68600000D01*
G75*
G02*
X109000000Y-68700000I0J-100000D01*
G01*
X109000000Y-70150000D01*
G75*
G02*
X108900000Y-70250000I-100000J0D01*
G01*
X108700000Y-70250000D01*
G75*
G02*
X108600000Y-70150000I0J100000D01*
G01*
G37*
G36*
G01*
X109100000Y-70150000D02*
X109100000Y-68700000D01*
G75*
G02*
X109200000Y-68600000I100000J0D01*
G01*
X109400000Y-68600000D01*
G75*
G02*
X109500000Y-68700000I0J-100000D01*
G01*
X109500000Y-70150000D01*
G75*
G02*
X109400000Y-70250000I-100000J0D01*
G01*
X109200000Y-70250000D01*
G75*
G02*
X109100000Y-70150000I0J100000D01*
G01*
G37*
G36*
G01*
X109600000Y-70150000D02*
X109600000Y-68700000D01*
G75*
G02*
X109700000Y-68600000I100000J0D01*
G01*
X109900000Y-68600000D01*
G75*
G02*
X110000000Y-68700000I0J-100000D01*
G01*
X110000000Y-70150000D01*
G75*
G02*
X109900000Y-70250000I-100000J0D01*
G01*
X109700000Y-70250000D01*
G75*
G02*
X109600000Y-70150000I0J100000D01*
G01*
G37*
G36*
G01*
X110100000Y-70150000D02*
X110100000Y-68700000D01*
G75*
G02*
X110200000Y-68600000I100000J0D01*
G01*
X110400000Y-68600000D01*
G75*
G02*
X110500000Y-68700000I0J-100000D01*
G01*
X110500000Y-70150000D01*
G75*
G02*
X110400000Y-70250000I-100000J0D01*
G01*
X110200000Y-70250000D01*
G75*
G02*
X110100000Y-70150000I0J100000D01*
G01*
G37*
G36*
G01*
X110600000Y-70150000D02*
X110600000Y-68700000D01*
G75*
G02*
X110700000Y-68600000I100000J0D01*
G01*
X110900000Y-68600000D01*
G75*
G02*
X111000000Y-68700000I0J-100000D01*
G01*
X111000000Y-70150000D01*
G75*
G02*
X110900000Y-70250000I-100000J0D01*
G01*
X110700000Y-70250000D01*
G75*
G02*
X110600000Y-70150000I0J100000D01*
G01*
G37*
G36*
G01*
X111100000Y-70150000D02*
X111100000Y-68700000D01*
G75*
G02*
X111200000Y-68600000I100000J0D01*
G01*
X111400000Y-68600000D01*
G75*
G02*
X111500000Y-68700000I0J-100000D01*
G01*
X111500000Y-70150000D01*
G75*
G02*
X111400000Y-70250000I-100000J0D01*
G01*
X111200000Y-70250000D01*
G75*
G02*
X111100000Y-70150000I0J100000D01*
G01*
G37*
G36*
G01*
X112400000Y-67600000D02*
X112400000Y-67400000D01*
G75*
G02*
X112500000Y-67300000I100000J0D01*
G01*
X113950000Y-67300000D01*
G75*
G02*
X114050000Y-67400000I0J-100000D01*
G01*
X114050000Y-67600000D01*
G75*
G02*
X113950000Y-67700000I-100000J0D01*
G01*
X112500000Y-67700000D01*
G75*
G02*
X112400000Y-67600000I0J100000D01*
G01*
G37*
G36*
G01*
X112400000Y-67100000D02*
X112400000Y-66900000D01*
G75*
G02*
X112500000Y-66800000I100000J0D01*
G01*
X113950000Y-66800000D01*
G75*
G02*
X114050000Y-66900000I0J-100000D01*
G01*
X114050000Y-67100000D01*
G75*
G02*
X113950000Y-67200000I-100000J0D01*
G01*
X112500000Y-67200000D01*
G75*
G02*
X112400000Y-67100000I0J100000D01*
G01*
G37*
G36*
G01*
X112400000Y-66600000D02*
X112400000Y-66400000D01*
G75*
G02*
X112500000Y-66300000I100000J0D01*
G01*
X113950000Y-66300000D01*
G75*
G02*
X114050000Y-66400000I0J-100000D01*
G01*
X114050000Y-66600000D01*
G75*
G02*
X113950000Y-66700000I-100000J0D01*
G01*
X112500000Y-66700000D01*
G75*
G02*
X112400000Y-66600000I0J100000D01*
G01*
G37*
G36*
G01*
X112400000Y-66100000D02*
X112400000Y-65900000D01*
G75*
G02*
X112500000Y-65800000I100000J0D01*
G01*
X113950000Y-65800000D01*
G75*
G02*
X114050000Y-65900000I0J-100000D01*
G01*
X114050000Y-66100000D01*
G75*
G02*
X113950000Y-66200000I-100000J0D01*
G01*
X112500000Y-66200000D01*
G75*
G02*
X112400000Y-66100000I0J100000D01*
G01*
G37*
G36*
G01*
X112400000Y-65600000D02*
X112400000Y-65400000D01*
G75*
G02*
X112500000Y-65300000I100000J0D01*
G01*
X113950000Y-65300000D01*
G75*
G02*
X114050000Y-65400000I0J-100000D01*
G01*
X114050000Y-65600000D01*
G75*
G02*
X113950000Y-65700000I-100000J0D01*
G01*
X112500000Y-65700000D01*
G75*
G02*
X112400000Y-65600000I0J100000D01*
G01*
G37*
G36*
G01*
X112400000Y-65100000D02*
X112400000Y-64900000D01*
G75*
G02*
X112500000Y-64800000I100000J0D01*
G01*
X113950000Y-64800000D01*
G75*
G02*
X114050000Y-64900000I0J-100000D01*
G01*
X114050000Y-65100000D01*
G75*
G02*
X113950000Y-65200000I-100000J0D01*
G01*
X112500000Y-65200000D01*
G75*
G02*
X112400000Y-65100000I0J100000D01*
G01*
G37*
G36*
G01*
X112400000Y-64600000D02*
X112400000Y-64400000D01*
G75*
G02*
X112500000Y-64300000I100000J0D01*
G01*
X113950000Y-64300000D01*
G75*
G02*
X114050000Y-64400000I0J-100000D01*
G01*
X114050000Y-64600000D01*
G75*
G02*
X113950000Y-64700000I-100000J0D01*
G01*
X112500000Y-64700000D01*
G75*
G02*
X112400000Y-64600000I0J100000D01*
G01*
G37*
G36*
G01*
X112400000Y-64100000D02*
X112400000Y-63900000D01*
G75*
G02*
X112500000Y-63800000I100000J0D01*
G01*
X113950000Y-63800000D01*
G75*
G02*
X114050000Y-63900000I0J-100000D01*
G01*
X114050000Y-64100000D01*
G75*
G02*
X113950000Y-64200000I-100000J0D01*
G01*
X112500000Y-64200000D01*
G75*
G02*
X112400000Y-64100000I0J100000D01*
G01*
G37*
G36*
G01*
X112400000Y-63600000D02*
X112400000Y-63400000D01*
G75*
G02*
X112500000Y-63300000I100000J0D01*
G01*
X113950000Y-63300000D01*
G75*
G02*
X114050000Y-63400000I0J-100000D01*
G01*
X114050000Y-63600000D01*
G75*
G02*
X113950000Y-63700000I-100000J0D01*
G01*
X112500000Y-63700000D01*
G75*
G02*
X112400000Y-63600000I0J100000D01*
G01*
G37*
G36*
G01*
X112400000Y-63100000D02*
X112400000Y-62900000D01*
G75*
G02*
X112500000Y-62800000I100000J0D01*
G01*
X113950000Y-62800000D01*
G75*
G02*
X114050000Y-62900000I0J-100000D01*
G01*
X114050000Y-63100000D01*
G75*
G02*
X113950000Y-63200000I-100000J0D01*
G01*
X112500000Y-63200000D01*
G75*
G02*
X112400000Y-63100000I0J100000D01*
G01*
G37*
G36*
G01*
X112400000Y-62600000D02*
X112400000Y-62400000D01*
G75*
G02*
X112500000Y-62300000I100000J0D01*
G01*
X113950000Y-62300000D01*
G75*
G02*
X114050000Y-62400000I0J-100000D01*
G01*
X114050000Y-62600000D01*
G75*
G02*
X113950000Y-62700000I-100000J0D01*
G01*
X112500000Y-62700000D01*
G75*
G02*
X112400000Y-62600000I0J100000D01*
G01*
G37*
G36*
G01*
X112400000Y-62100000D02*
X112400000Y-61900000D01*
G75*
G02*
X112500000Y-61800000I100000J0D01*
G01*
X113950000Y-61800000D01*
G75*
G02*
X114050000Y-61900000I0J-100000D01*
G01*
X114050000Y-62100000D01*
G75*
G02*
X113950000Y-62200000I-100000J0D01*
G01*
X112500000Y-62200000D01*
G75*
G02*
X112400000Y-62100000I0J100000D01*
G01*
G37*
G36*
G01*
X112400000Y-61600000D02*
X112400000Y-61400000D01*
G75*
G02*
X112500000Y-61300000I100000J0D01*
G01*
X113950000Y-61300000D01*
G75*
G02*
X114050000Y-61400000I0J-100000D01*
G01*
X114050000Y-61600000D01*
G75*
G02*
X113950000Y-61700000I-100000J0D01*
G01*
X112500000Y-61700000D01*
G75*
G02*
X112400000Y-61600000I0J100000D01*
G01*
G37*
G36*
G01*
X112400000Y-61100000D02*
X112400000Y-60900000D01*
G75*
G02*
X112500000Y-60800000I100000J0D01*
G01*
X113950000Y-60800000D01*
G75*
G02*
X114050000Y-60900000I0J-100000D01*
G01*
X114050000Y-61100000D01*
G75*
G02*
X113950000Y-61200000I-100000J0D01*
G01*
X112500000Y-61200000D01*
G75*
G02*
X112400000Y-61100000I0J100000D01*
G01*
G37*
G36*
G01*
X112400000Y-60600000D02*
X112400000Y-60400000D01*
G75*
G02*
X112500000Y-60300000I100000J0D01*
G01*
X113950000Y-60300000D01*
G75*
G02*
X114050000Y-60400000I0J-100000D01*
G01*
X114050000Y-60600000D01*
G75*
G02*
X113950000Y-60700000I-100000J0D01*
G01*
X112500000Y-60700000D01*
G75*
G02*
X112400000Y-60600000I0J100000D01*
G01*
G37*
G36*
G01*
X112400000Y-60100000D02*
X112400000Y-59900000D01*
G75*
G02*
X112500000Y-59800000I100000J0D01*
G01*
X113950000Y-59800000D01*
G75*
G02*
X114050000Y-59900000I0J-100000D01*
G01*
X114050000Y-60100000D01*
G75*
G02*
X113950000Y-60200000I-100000J0D01*
G01*
X112500000Y-60200000D01*
G75*
G02*
X112400000Y-60100000I0J100000D01*
G01*
G37*
G36*
G01*
X111100000Y-58800000D02*
X111100000Y-57350000D01*
G75*
G02*
X111200000Y-57250000I100000J0D01*
G01*
X111400000Y-57250000D01*
G75*
G02*
X111500000Y-57350000I0J-100000D01*
G01*
X111500000Y-58800000D01*
G75*
G02*
X111400000Y-58900000I-100000J0D01*
G01*
X111200000Y-58900000D01*
G75*
G02*
X111100000Y-58800000I0J100000D01*
G01*
G37*
G36*
G01*
X110600000Y-58800000D02*
X110600000Y-57350000D01*
G75*
G02*
X110700000Y-57250000I100000J0D01*
G01*
X110900000Y-57250000D01*
G75*
G02*
X111000000Y-57350000I0J-100000D01*
G01*
X111000000Y-58800000D01*
G75*
G02*
X110900000Y-58900000I-100000J0D01*
G01*
X110700000Y-58900000D01*
G75*
G02*
X110600000Y-58800000I0J100000D01*
G01*
G37*
G36*
G01*
X110100000Y-58800000D02*
X110100000Y-57350000D01*
G75*
G02*
X110200000Y-57250000I100000J0D01*
G01*
X110400000Y-57250000D01*
G75*
G02*
X110500000Y-57350000I0J-100000D01*
G01*
X110500000Y-58800000D01*
G75*
G02*
X110400000Y-58900000I-100000J0D01*
G01*
X110200000Y-58900000D01*
G75*
G02*
X110100000Y-58800000I0J100000D01*
G01*
G37*
G36*
G01*
X109600000Y-58800000D02*
X109600000Y-57350000D01*
G75*
G02*
X109700000Y-57250000I100000J0D01*
G01*
X109900000Y-57250000D01*
G75*
G02*
X110000000Y-57350000I0J-100000D01*
G01*
X110000000Y-58800000D01*
G75*
G02*
X109900000Y-58900000I-100000J0D01*
G01*
X109700000Y-58900000D01*
G75*
G02*
X109600000Y-58800000I0J100000D01*
G01*
G37*
G36*
G01*
X109100000Y-58800000D02*
X109100000Y-57350000D01*
G75*
G02*
X109200000Y-57250000I100000J0D01*
G01*
X109400000Y-57250000D01*
G75*
G02*
X109500000Y-57350000I0J-100000D01*
G01*
X109500000Y-58800000D01*
G75*
G02*
X109400000Y-58900000I-100000J0D01*
G01*
X109200000Y-58900000D01*
G75*
G02*
X109100000Y-58800000I0J100000D01*
G01*
G37*
G36*
G01*
X108600000Y-58800000D02*
X108600000Y-57350000D01*
G75*
G02*
X108700000Y-57250000I100000J0D01*
G01*
X108900000Y-57250000D01*
G75*
G02*
X109000000Y-57350000I0J-100000D01*
G01*
X109000000Y-58800000D01*
G75*
G02*
X108900000Y-58900000I-100000J0D01*
G01*
X108700000Y-58900000D01*
G75*
G02*
X108600000Y-58800000I0J100000D01*
G01*
G37*
G36*
G01*
X108100000Y-58800000D02*
X108100000Y-57350000D01*
G75*
G02*
X108200000Y-57250000I100000J0D01*
G01*
X108400000Y-57250000D01*
G75*
G02*
X108500000Y-57350000I0J-100000D01*
G01*
X108500000Y-58800000D01*
G75*
G02*
X108400000Y-58900000I-100000J0D01*
G01*
X108200000Y-58900000D01*
G75*
G02*
X108100000Y-58800000I0J100000D01*
G01*
G37*
G36*
G01*
X107600000Y-58800000D02*
X107600000Y-57350000D01*
G75*
G02*
X107700000Y-57250000I100000J0D01*
G01*
X107900000Y-57250000D01*
G75*
G02*
X108000000Y-57350000I0J-100000D01*
G01*
X108000000Y-58800000D01*
G75*
G02*
X107900000Y-58900000I-100000J0D01*
G01*
X107700000Y-58900000D01*
G75*
G02*
X107600000Y-58800000I0J100000D01*
G01*
G37*
G36*
G01*
X107100000Y-58800000D02*
X107100000Y-57350000D01*
G75*
G02*
X107200000Y-57250000I100000J0D01*
G01*
X107400000Y-57250000D01*
G75*
G02*
X107500000Y-57350000I0J-100000D01*
G01*
X107500000Y-58800000D01*
G75*
G02*
X107400000Y-58900000I-100000J0D01*
G01*
X107200000Y-58900000D01*
G75*
G02*
X107100000Y-58800000I0J100000D01*
G01*
G37*
G36*
G01*
X106600000Y-58800000D02*
X106600000Y-57350000D01*
G75*
G02*
X106700000Y-57250000I100000J0D01*
G01*
X106900000Y-57250000D01*
G75*
G02*
X107000000Y-57350000I0J-100000D01*
G01*
X107000000Y-58800000D01*
G75*
G02*
X106900000Y-58900000I-100000J0D01*
G01*
X106700000Y-58900000D01*
G75*
G02*
X106600000Y-58800000I0J100000D01*
G01*
G37*
G36*
G01*
X106100000Y-58800000D02*
X106100000Y-57350000D01*
G75*
G02*
X106200000Y-57250000I100000J0D01*
G01*
X106400000Y-57250000D01*
G75*
G02*
X106500000Y-57350000I0J-100000D01*
G01*
X106500000Y-58800000D01*
G75*
G02*
X106400000Y-58900000I-100000J0D01*
G01*
X106200000Y-58900000D01*
G75*
G02*
X106100000Y-58800000I0J100000D01*
G01*
G37*
G36*
G01*
X105600000Y-58800000D02*
X105600000Y-57350000D01*
G75*
G02*
X105700000Y-57250000I100000J0D01*
G01*
X105900000Y-57250000D01*
G75*
G02*
X106000000Y-57350000I0J-100000D01*
G01*
X106000000Y-58800000D01*
G75*
G02*
X105900000Y-58900000I-100000J0D01*
G01*
X105700000Y-58900000D01*
G75*
G02*
X105600000Y-58800000I0J100000D01*
G01*
G37*
G36*
G01*
X105100000Y-58800000D02*
X105100000Y-57350000D01*
G75*
G02*
X105200000Y-57250000I100000J0D01*
G01*
X105400000Y-57250000D01*
G75*
G02*
X105500000Y-57350000I0J-100000D01*
G01*
X105500000Y-58800000D01*
G75*
G02*
X105400000Y-58900000I-100000J0D01*
G01*
X105200000Y-58900000D01*
G75*
G02*
X105100000Y-58800000I0J100000D01*
G01*
G37*
G36*
G01*
X104600000Y-58800000D02*
X104600000Y-57350000D01*
G75*
G02*
X104700000Y-57250000I100000J0D01*
G01*
X104900000Y-57250000D01*
G75*
G02*
X105000000Y-57350000I0J-100000D01*
G01*
X105000000Y-58800000D01*
G75*
G02*
X104900000Y-58900000I-100000J0D01*
G01*
X104700000Y-58900000D01*
G75*
G02*
X104600000Y-58800000I0J100000D01*
G01*
G37*
G36*
G01*
X104100000Y-58800000D02*
X104100000Y-57350000D01*
G75*
G02*
X104200000Y-57250000I100000J0D01*
G01*
X104400000Y-57250000D01*
G75*
G02*
X104500000Y-57350000I0J-100000D01*
G01*
X104500000Y-58800000D01*
G75*
G02*
X104400000Y-58900000I-100000J0D01*
G01*
X104200000Y-58900000D01*
G75*
G02*
X104100000Y-58800000I0J100000D01*
G01*
G37*
G36*
G01*
X103600000Y-58800000D02*
X103600000Y-57350000D01*
G75*
G02*
X103700000Y-57250000I100000J0D01*
G01*
X103900000Y-57250000D01*
G75*
G02*
X104000000Y-57350000I0J-100000D01*
G01*
X104000000Y-58800000D01*
G75*
G02*
X103900000Y-58900000I-100000J0D01*
G01*
X103700000Y-58900000D01*
G75*
G02*
X103600000Y-58800000I0J100000D01*
G01*
G37*
%TD*%
D28*
%TO.C,Y1*%
X93350000Y-60300000D03*
X93350000Y-66200000D03*
X96050000Y-66200000D03*
X96050000Y-60300000D03*
%TD*%
%TO.C,C1*%
G36*
G01*
X135580000Y-54147500D02*
X135580000Y-54672500D01*
G75*
G02*
X135317500Y-54935000I-262500J0D01*
G01*
X134692500Y-54935000D01*
G75*
G02*
X134430000Y-54672500I0J262500D01*
G01*
X134430000Y-54147500D01*
G75*
G02*
X134692500Y-53885000I262500J0D01*
G01*
X135317500Y-53885000D01*
G75*
G02*
X135580000Y-54147500I0J-262500D01*
G01*
G37*
G36*
G01*
X137330000Y-54147500D02*
X137330000Y-54672500D01*
G75*
G02*
X137067500Y-54935000I-262500J0D01*
G01*
X136442500Y-54935000D01*
G75*
G02*
X136180000Y-54672500I0J262500D01*
G01*
X136180000Y-54147500D01*
G75*
G02*
X136442500Y-53885000I262500J0D01*
G01*
X137067500Y-53885000D01*
G75*
G02*
X137330000Y-54147500I0J-262500D01*
G01*
G37*
%TD*%
%TO.C,C2*%
G36*
G01*
X134517500Y-59630000D02*
X135042500Y-59630000D01*
G75*
G02*
X135305000Y-59892500I0J-262500D01*
G01*
X135305000Y-60517500D01*
G75*
G02*
X135042500Y-60780000I-262500J0D01*
G01*
X134517500Y-60780000D01*
G75*
G02*
X134255000Y-60517500I0J262500D01*
G01*
X134255000Y-59892500D01*
G75*
G02*
X134517500Y-59630000I262500J0D01*
G01*
G37*
G36*
G01*
X134517500Y-61380000D02*
X135042500Y-61380000D01*
G75*
G02*
X135305000Y-61642500I0J-262500D01*
G01*
X135305000Y-62267500D01*
G75*
G02*
X135042500Y-62530000I-262500J0D01*
G01*
X134517500Y-62530000D01*
G75*
G02*
X134255000Y-62267500I0J262500D01*
G01*
X134255000Y-61642500D01*
G75*
G02*
X134517500Y-61380000I262500J0D01*
G01*
G37*
%TD*%
%TO.C,C3*%
G36*
G01*
X113800000Y-73182500D02*
X113800000Y-73707500D01*
G75*
G02*
X113537500Y-73970000I-262500J0D01*
G01*
X112912500Y-73970000D01*
G75*
G02*
X112650000Y-73707500I0J262500D01*
G01*
X112650000Y-73182500D01*
G75*
G02*
X112912500Y-72920000I262500J0D01*
G01*
X113537500Y-72920000D01*
G75*
G02*
X113800000Y-73182500I0J-262500D01*
G01*
G37*
G36*
G01*
X112050000Y-73182500D02*
X112050000Y-73707500D01*
G75*
G02*
X111787500Y-73970000I-262500J0D01*
G01*
X111162500Y-73970000D01*
G75*
G02*
X110900000Y-73707500I0J262500D01*
G01*
X110900000Y-73182500D01*
G75*
G02*
X111162500Y-72920000I262500J0D01*
G01*
X111787500Y-72920000D01*
G75*
G02*
X112050000Y-73182500I0J-262500D01*
G01*
G37*
%TD*%
%TO.C,C4*%
G36*
G01*
X103425000Y-56312500D02*
X103425000Y-55787500D01*
G75*
G02*
X103687500Y-55525000I262500J0D01*
G01*
X104312500Y-55525000D01*
G75*
G02*
X104575000Y-55787500I0J-262500D01*
G01*
X104575000Y-56312500D01*
G75*
G02*
X104312500Y-56575000I-262500J0D01*
G01*
X103687500Y-56575000D01*
G75*
G02*
X103425000Y-56312500I0J262500D01*
G01*
G37*
G36*
G01*
X101675000Y-56312500D02*
X101675000Y-55787500D01*
G75*
G02*
X101937500Y-55525000I262500J0D01*
G01*
X102562500Y-55525000D01*
G75*
G02*
X102825000Y-55787500I0J-262500D01*
G01*
X102825000Y-56312500D01*
G75*
G02*
X102562500Y-56575000I-262500J0D01*
G01*
X101937500Y-56575000D01*
G75*
G02*
X101675000Y-56312500I0J262500D01*
G01*
G37*
%TD*%
%TO.C,C5*%
G36*
G01*
X115187500Y-57825000D02*
X115712500Y-57825000D01*
G75*
G02*
X115975000Y-58087500I0J-262500D01*
G01*
X115975000Y-58712500D01*
G75*
G02*
X115712500Y-58975000I-262500J0D01*
G01*
X115187500Y-58975000D01*
G75*
G02*
X114925000Y-58712500I0J262500D01*
G01*
X114925000Y-58087500D01*
G75*
G02*
X115187500Y-57825000I262500J0D01*
G01*
G37*
G36*
G01*
X115187500Y-59575000D02*
X115712500Y-59575000D01*
G75*
G02*
X115975000Y-59837500I0J-262500D01*
G01*
X115975000Y-60462500D01*
G75*
G02*
X115712500Y-60725000I-262500J0D01*
G01*
X115187500Y-60725000D01*
G75*
G02*
X114925000Y-60462500I0J262500D01*
G01*
X114925000Y-59837500D01*
G75*
G02*
X115187500Y-59575000I262500J0D01*
G01*
G37*
%TD*%
%TO.C,C6*%
G36*
G01*
X112065000Y-71537500D02*
X112065000Y-72062500D01*
G75*
G02*
X111802500Y-72325000I-262500J0D01*
G01*
X111177500Y-72325000D01*
G75*
G02*
X110915000Y-72062500I0J262500D01*
G01*
X110915000Y-71537500D01*
G75*
G02*
X111177500Y-71275000I262500J0D01*
G01*
X111802500Y-71275000D01*
G75*
G02*
X112065000Y-71537500I0J-262500D01*
G01*
G37*
G36*
G01*
X113815000Y-71537500D02*
X113815000Y-72062500D01*
G75*
G02*
X113552500Y-72325000I-262500J0D01*
G01*
X112927500Y-72325000D01*
G75*
G02*
X112665000Y-72062500I0J262500D01*
G01*
X112665000Y-71537500D01*
G75*
G02*
X112927500Y-71275000I262500J0D01*
G01*
X113552500Y-71275000D01*
G75*
G02*
X113815000Y-71537500I0J-262500D01*
G01*
G37*
%TD*%
%TO.C,C7*%
G36*
G01*
X105350000Y-71412500D02*
X105350000Y-71937500D01*
G75*
G02*
X105087500Y-72200000I-262500J0D01*
G01*
X104462500Y-72200000D01*
G75*
G02*
X104200000Y-71937500I0J262500D01*
G01*
X104200000Y-71412500D01*
G75*
G02*
X104462500Y-71150000I262500J0D01*
G01*
X105087500Y-71150000D01*
G75*
G02*
X105350000Y-71412500I0J-262500D01*
G01*
G37*
G36*
G01*
X103600000Y-71412500D02*
X103600000Y-71937500D01*
G75*
G02*
X103337500Y-72200000I-262500J0D01*
G01*
X102712500Y-72200000D01*
G75*
G02*
X102450000Y-71937500I0J262500D01*
G01*
X102450000Y-71412500D01*
G75*
G02*
X102712500Y-71150000I262500J0D01*
G01*
X103337500Y-71150000D01*
G75*
G02*
X103600000Y-71412500I0J-262500D01*
G01*
G37*
%TD*%
%TO.C,C8*%
G36*
G01*
X94985000Y-58262500D02*
X94985000Y-57737500D01*
G75*
G02*
X95247500Y-57475000I262500J0D01*
G01*
X95872500Y-57475000D01*
G75*
G02*
X96135000Y-57737500I0J-262500D01*
G01*
X96135000Y-58262500D01*
G75*
G02*
X95872500Y-58525000I-262500J0D01*
G01*
X95247500Y-58525000D01*
G75*
G02*
X94985000Y-58262500I0J262500D01*
G01*
G37*
G36*
G01*
X93235000Y-58262500D02*
X93235000Y-57737500D01*
G75*
G02*
X93497500Y-57475000I262500J0D01*
G01*
X94122500Y-57475000D01*
G75*
G02*
X94385000Y-57737500I0J-262500D01*
G01*
X94385000Y-58262500D01*
G75*
G02*
X94122500Y-58525000I-262500J0D01*
G01*
X93497500Y-58525000D01*
G75*
G02*
X93235000Y-58262500I0J262500D01*
G01*
G37*
%TD*%
%TO.C,C9*%
G36*
G01*
X96165000Y-68337500D02*
X96165000Y-68862500D01*
G75*
G02*
X95902500Y-69125000I-262500J0D01*
G01*
X95277500Y-69125000D01*
G75*
G02*
X95015000Y-68862500I0J262500D01*
G01*
X95015000Y-68337500D01*
G75*
G02*
X95277500Y-68075000I262500J0D01*
G01*
X95902500Y-68075000D01*
G75*
G02*
X96165000Y-68337500I0J-262500D01*
G01*
G37*
G36*
G01*
X94415000Y-68337500D02*
X94415000Y-68862500D01*
G75*
G02*
X94152500Y-69125000I-262500J0D01*
G01*
X93527500Y-69125000D01*
G75*
G02*
X93265000Y-68862500I0J262500D01*
G01*
X93265000Y-68337500D01*
G75*
G02*
X93527500Y-68075000I262500J0D01*
G01*
X94152500Y-68075000D01*
G75*
G02*
X94415000Y-68337500I0J-262500D01*
G01*
G37*
%TD*%
%TO.C,R1*%
G36*
G01*
X141805000Y-60622500D02*
X141805000Y-61147500D01*
G75*
G02*
X141542500Y-61410000I-262500J0D01*
G01*
X140917500Y-61410000D01*
G75*
G02*
X140655000Y-61147500I0J262500D01*
G01*
X140655000Y-60622500D01*
G75*
G02*
X140917500Y-60360000I262500J0D01*
G01*
X141542500Y-60360000D01*
G75*
G02*
X141805000Y-60622500I0J-262500D01*
G01*
G37*
G36*
G01*
X140055000Y-60622500D02*
X140055000Y-61147500D01*
G75*
G02*
X139792500Y-61410000I-262500J0D01*
G01*
X139167500Y-61410000D01*
G75*
G02*
X138905000Y-61147500I0J262500D01*
G01*
X138905000Y-60622500D01*
G75*
G02*
X139167500Y-60360000I262500J0D01*
G01*
X139792500Y-60360000D01*
G75*
G02*
X140055000Y-60622500I0J-262500D01*
G01*
G37*
%TD*%
%TO.C,R2*%
G36*
G01*
X111592500Y-43025000D02*
X111067500Y-43025000D01*
G75*
G02*
X110805000Y-42762500I0J262500D01*
G01*
X110805000Y-42137500D01*
G75*
G02*
X111067500Y-41875000I262500J0D01*
G01*
X111592500Y-41875000D01*
G75*
G02*
X111855000Y-42137500I0J-262500D01*
G01*
X111855000Y-42762500D01*
G75*
G02*
X111592500Y-43025000I-262500J0D01*
G01*
G37*
G36*
G01*
X111592500Y-41275000D02*
X111067500Y-41275000D01*
G75*
G02*
X110805000Y-41012500I0J262500D01*
G01*
X110805000Y-40387500D01*
G75*
G02*
X111067500Y-40125000I262500J0D01*
G01*
X111592500Y-40125000D01*
G75*
G02*
X111855000Y-40387500I0J-262500D01*
G01*
X111855000Y-41012500D01*
G75*
G02*
X111592500Y-41275000I-262500J0D01*
G01*
G37*
%TD*%
%TO.C,R3*%
G36*
G01*
X122565000Y-50947500D02*
X122565000Y-51472500D01*
G75*
G02*
X122302500Y-51735000I-262500J0D01*
G01*
X121677500Y-51735000D01*
G75*
G02*
X121415000Y-51472500I0J262500D01*
G01*
X121415000Y-50947500D01*
G75*
G02*
X121677500Y-50685000I262500J0D01*
G01*
X122302500Y-50685000D01*
G75*
G02*
X122565000Y-50947500I0J-262500D01*
G01*
G37*
G36*
G01*
X124315000Y-50947500D02*
X124315000Y-51472500D01*
G75*
G02*
X124052500Y-51735000I-262500J0D01*
G01*
X123427500Y-51735000D01*
G75*
G02*
X123165000Y-51472500I0J262500D01*
G01*
X123165000Y-50947500D01*
G75*
G02*
X123427500Y-50685000I262500J0D01*
G01*
X124052500Y-50685000D01*
G75*
G02*
X124315000Y-50947500I0J-262500D01*
G01*
G37*
%TD*%
%TO.C,R4*%
G36*
G01*
X112635000Y-38892500D02*
X112635000Y-39287500D01*
G75*
G02*
X112462500Y-39460000I-172500J0D01*
G01*
X112117500Y-39460000D01*
G75*
G02*
X111945000Y-39287500I0J172500D01*
G01*
X111945000Y-38892500D01*
G75*
G02*
X112117500Y-38720000I172500J0D01*
G01*
X112462500Y-38720000D01*
G75*
G02*
X112635000Y-38892500I0J-172500D01*
G01*
G37*
G36*
G01*
X113605000Y-38892500D02*
X113605000Y-39287500D01*
G75*
G02*
X113432500Y-39460000I-172500J0D01*
G01*
X113087500Y-39460000D01*
G75*
G02*
X112915000Y-39287500I0J172500D01*
G01*
X112915000Y-38892500D01*
G75*
G02*
X113087500Y-38720000I172500J0D01*
G01*
X113432500Y-38720000D01*
G75*
G02*
X113605000Y-38892500I0J-172500D01*
G01*
G37*
%TD*%
%TO.C,R5*%
G36*
G01*
X125837500Y-42955000D02*
X125442500Y-42955000D01*
G75*
G02*
X125270000Y-42782500I0J172500D01*
G01*
X125270000Y-42437500D01*
G75*
G02*
X125442500Y-42265000I172500J0D01*
G01*
X125837500Y-42265000D01*
G75*
G02*
X126010000Y-42437500I0J-172500D01*
G01*
X126010000Y-42782500D01*
G75*
G02*
X125837500Y-42955000I-172500J0D01*
G01*
G37*
G36*
G01*
X125837500Y-41985000D02*
X125442500Y-41985000D01*
G75*
G02*
X125270000Y-41812500I0J172500D01*
G01*
X125270000Y-41467500D01*
G75*
G02*
X125442500Y-41295000I172500J0D01*
G01*
X125837500Y-41295000D01*
G75*
G02*
X126010000Y-41467500I0J-172500D01*
G01*
X126010000Y-41812500D01*
G75*
G02*
X125837500Y-41985000I-172500J0D01*
G01*
G37*
%TD*%
M02*
