%TF.GenerationSoftware,KiCad,Pcbnew,(5.1.6)-1*%
%TF.CreationDate,2020-12-15T22:49:57+02:00*%
%TF.ProjectId,macropad,6d616372-6f70-4616-942e-6b696361645f,rev?*%
%TF.SameCoordinates,Original*%
%TF.FileFunction,Copper,L1,Top*%
%TF.FilePolarity,Positive*%
%FSLAX46Y46*%
G04 Gerber Fmt 4.6, Leading zero omitted, Abs format (unit mm)*
G04 Created by KiCad (PCBNEW (5.1.6)-1) date 2020-12-15 22:49:57*
%MOMM*%
%LPD*%
G01*
G04 APERTURE LIST*
%TA.AperFunction,ComponentPad*%
%ADD10R,1.700000X1.700000*%
%TD*%
%TA.AperFunction,ComponentPad*%
%ADD11O,1.700000X1.700000*%
%TD*%
%TA.AperFunction,ComponentPad*%
%ADD12C,2.000000*%
%TD*%
%TA.AperFunction,ComponentPad*%
%ADD13C,2.250000*%
%TD*%
%TA.AperFunction,ComponentPad*%
%ADD14C,0.800000*%
%TD*%
%TA.AperFunction,ComponentPad*%
%ADD15C,5.400000*%
%TD*%
%TA.AperFunction,ComponentPad*%
%ADD16C,0.700000*%
%TD*%
%TA.AperFunction,ComponentPad*%
%ADD17C,4.400000*%
%TD*%
%TA.AperFunction,ComponentPad*%
%ADD18O,0.900000X2.400000*%
%TD*%
%TA.AperFunction,ComponentPad*%
%ADD19O,0.900000X1.700000*%
%TD*%
%TA.AperFunction,SMDPad,CuDef*%
%ADD20R,0.900000X0.800000*%
%TD*%
%TA.AperFunction,SMDPad,CuDef*%
%ADD21R,0.650000X1.060000*%
%TD*%
%TA.AperFunction,SMDPad,CuDef*%
%ADD22R,1.700000X2.100000*%
%TD*%
%TA.AperFunction,ViaPad*%
%ADD23C,0.800000*%
%TD*%
%TA.AperFunction,Conductor*%
%ADD24C,0.300000*%
%TD*%
%TA.AperFunction,Conductor*%
%ADD25C,0.500000*%
%TD*%
%TA.AperFunction,Conductor*%
%ADD26C,0.750000*%
%TD*%
%TA.AperFunction,Conductor*%
%ADD27C,1.000000*%
%TD*%
%TA.AperFunction,Conductor*%
%ADD28C,0.250000*%
%TD*%
%TA.AperFunction,Conductor*%
%ADD29C,0.400000*%
%TD*%
%TA.AperFunction,Conductor*%
%ADD30C,0.260000*%
%TD*%
G04 APERTURE END LIST*
D10*
%TO.P,J3,1*%
%TO.N,GND*%
X81900000Y-74050000D03*
D11*
%TO.P,J3,2*%
%TO.N,LCD_LED*%
X81900000Y-71510000D03*
%TO.P,J3,3*%
%TO.N,+3V3*%
X81900000Y-68970000D03*
%TO.P,J3,4*%
%TO.N,TS_IQR*%
X81900000Y-66430000D03*
%TO.P,J3,5*%
%TO.N,TS_BSY*%
X81900000Y-63890000D03*
%TO.P,J3,6*%
%TO.N,TS_CS*%
X81900000Y-61350000D03*
%TO.P,J3,7*%
%TO.N,SPI_MISO*%
X81900000Y-58810000D03*
%TO.P,J3,8*%
%TO.N,SPI_MOSI*%
X81900000Y-56270000D03*
%TO.P,J3,9*%
%TO.N,SPI_SCK*%
X81900000Y-53730000D03*
%TO.P,J3,10*%
%TO.N,LCD_CS*%
X81900000Y-51190000D03*
%TO.P,J3,11*%
%TO.N,LCD_DC*%
X81900000Y-48650000D03*
%TO.P,J3,12*%
%TO.N,LCD_RST*%
X81900000Y-46110000D03*
%TD*%
D12*
%TO.P,SW2,2*%
%TO.N,Col2*%
X109700000Y-86500000D03*
%TO.P,SW2,1*%
%TO.N,Net-(D2-Pad2)*%
X114700000Y-88600000D03*
D13*
%TO.P,SW2,2*%
%TO.N,Col2*%
X107200000Y-88400000D03*
%TA.AperFunction,ComponentPad*%
G36*
G01*
X105138688Y-90697351D02*
X105138688Y-90697350D01*
G75*
G02*
X105052650Y-89108688I751312J837350D01*
G01*
X106362640Y-87648680D01*
G75*
G02*
X107951302Y-87562642I837350J-751312D01*
G01*
X107951302Y-87562642D01*
G75*
G02*
X108037340Y-89151304I-751312J-837350D01*
G01*
X106727350Y-90611312D01*
G75*
G02*
X105138688Y-90697350I-837350J751312D01*
G01*
G37*
%TD.AperFunction*%
%TO.P,SW2,1*%
%TO.N,Net-(D2-Pad2)*%
X112240000Y-87320000D03*
%TA.AperFunction,ComponentPad*%
G36*
G01*
X112123483Y-89022395D02*
X112123483Y-89022395D01*
G75*
G02*
X111077605Y-87823483I76517J1122395D01*
G01*
X111117147Y-87243451D01*
G75*
G02*
X112316059Y-86197573I1122395J-76517D01*
G01*
X112316059Y-86197573D01*
G75*
G02*
X113361937Y-87396485I-76517J-1122395D01*
G01*
X113322395Y-87976517D01*
G75*
G02*
X112123483Y-89022395I-1122395J76517D01*
G01*
G37*
%TD.AperFunction*%
%TD*%
D14*
%TO.P,H9,1*%
%TO.N,GND*%
X158781891Y-177118109D03*
X157350000Y-176525000D03*
X155918109Y-177118109D03*
X155325000Y-178550000D03*
X155918109Y-179981891D03*
X157350000Y-180575000D03*
X158781891Y-179981891D03*
X159375000Y-178550000D03*
D15*
X157350000Y-178550000D03*
%TD*%
D16*
%TO.P,H4,1*%
%TO.N,GND*%
X156066726Y-77533274D03*
X154900000Y-77050000D03*
X153733274Y-77533274D03*
X153250000Y-78700000D03*
X153733274Y-79866726D03*
X154900000Y-80350000D03*
X156066726Y-79866726D03*
X156550000Y-78700000D03*
D17*
X154900000Y-78700000D03*
%TD*%
D16*
%TO.P,H3,1*%
%TO.N,GND*%
X85066726Y-77533274D03*
X83900000Y-77050000D03*
X82733274Y-77533274D03*
X82250000Y-78700000D03*
X82733274Y-79866726D03*
X83900000Y-80350000D03*
X85066726Y-79866726D03*
X85550000Y-78700000D03*
D17*
X83900000Y-78700000D03*
%TD*%
D16*
%TO.P,H2,1*%
%TO.N,GND*%
X156066726Y-40533274D03*
X154900000Y-40050000D03*
X153733274Y-40533274D03*
X153250000Y-41700000D03*
X153733274Y-42866726D03*
X154900000Y-43350000D03*
X156066726Y-42866726D03*
X156550000Y-41700000D03*
D17*
X154900000Y-41700000D03*
%TD*%
D16*
%TO.P,H1,1*%
%TO.N,GND*%
X85066726Y-40533274D03*
X83900000Y-40050000D03*
X82733274Y-40533274D03*
X82250000Y-41700000D03*
X82733274Y-42866726D03*
X83900000Y-43350000D03*
X85066726Y-42866726D03*
X85550000Y-41700000D03*
D17*
X83900000Y-41700000D03*
%TD*%
%TO.P,FB1,1*%
%TO.N,Net-(C1-Pad1)*%
%TA.AperFunction,SMDPad,CuDef*%
G36*
G01*
X139400001Y-54315000D02*
X138499999Y-54315000D01*
G75*
G02*
X138250000Y-54065001I0J249999D01*
G01*
X138250000Y-53414999D01*
G75*
G02*
X138499999Y-53165000I249999J0D01*
G01*
X139400001Y-53165000D01*
G75*
G02*
X139650000Y-53414999I0J-249999D01*
G01*
X139650000Y-54065001D01*
G75*
G02*
X139400001Y-54315000I-249999J0D01*
G01*
G37*
%TD.AperFunction*%
%TO.P,FB1,2*%
%TO.N,+5V*%
%TA.AperFunction,SMDPad,CuDef*%
G36*
G01*
X139400001Y-52265000D02*
X138499999Y-52265000D01*
G75*
G02*
X138250000Y-52015001I0J249999D01*
G01*
X138250000Y-51364999D01*
G75*
G02*
X138499999Y-51115000I249999J0D01*
G01*
X139400001Y-51115000D01*
G75*
G02*
X139650000Y-51364999I0J-249999D01*
G01*
X139650000Y-52015001D01*
G75*
G02*
X139400001Y-52265000I-249999J0D01*
G01*
G37*
%TD.AperFunction*%
%TD*%
D15*
%TO.P,H5,1*%
%TO.N,GND*%
X81400000Y-102000000D03*
D14*
X83425000Y-102000000D03*
X82831891Y-103431891D03*
X81400000Y-104025000D03*
X79968109Y-103431891D03*
X79375000Y-102000000D03*
X79968109Y-100568109D03*
X81400000Y-99975000D03*
X82831891Y-100568109D03*
%TD*%
D15*
%TO.P,H6,1*%
%TO.N,GND*%
X157400000Y-102000000D03*
D14*
X159425000Y-102000000D03*
X158831891Y-103431891D03*
X157400000Y-104025000D03*
X155968109Y-103431891D03*
X155375000Y-102000000D03*
X155968109Y-100568109D03*
X157400000Y-99975000D03*
X158831891Y-100568109D03*
%TD*%
%TO.P,H7,1*%
%TO.N,GND*%
X120781891Y-119943109D03*
X119350000Y-119350000D03*
X117918109Y-119943109D03*
X117325000Y-121375000D03*
X117918109Y-122806891D03*
X119350000Y-123400000D03*
X120781891Y-122806891D03*
X121375000Y-121375000D03*
D15*
X119350000Y-121375000D03*
%TD*%
D14*
%TO.P,H8,1*%
%TO.N,GND*%
X82706891Y-177168109D03*
X81275000Y-176575000D03*
X79843109Y-177168109D03*
X79250000Y-178600000D03*
X79843109Y-180031891D03*
X81275000Y-180625000D03*
X82706891Y-180031891D03*
X83300000Y-178600000D03*
D15*
X81275000Y-178600000D03*
%TD*%
D16*
%TO.P,J1,A1*%
%TO.N,GND*%
X122300000Y-43800000D03*
%TO.P,J1,A4*%
%TO.N,+5V*%
X121450000Y-43800000D03*
%TO.P,J1,A5*%
%TO.N,Net-(J1-PadA5)*%
X120600000Y-43800000D03*
%TO.P,J1,A6*%
%TO.N,USB_D+*%
X119750000Y-43800000D03*
%TO.P,J1,A7*%
%TO.N,USB_D-*%
X118900000Y-43800000D03*
%TO.P,J1,A8*%
%TO.N,Net-(J1-PadA8)*%
X118050000Y-43800000D03*
%TO.P,J1,A9*%
%TO.N,+5V*%
X117200000Y-43800000D03*
%TO.P,J1,A12*%
%TO.N,GND*%
X116350000Y-43800000D03*
%TO.P,J1,B9*%
%TO.N,+5V*%
X121450000Y-42450000D03*
%TO.P,J1,B7*%
%TO.N,USB_D-*%
X119750000Y-42450000D03*
%TO.P,J1,B8*%
%TO.N,Net-(J1-PadB8)*%
X120600000Y-42450000D03*
%TO.P,J1,B12*%
%TO.N,GND*%
X122300000Y-42450000D03*
%TO.P,J1,B5*%
%TO.N,Net-(J1-PadB5)*%
X118050000Y-42450000D03*
%TO.P,J1,B4*%
%TO.N,+5V*%
X117200000Y-42450000D03*
%TO.P,J1,B1*%
%TO.N,GND*%
X116350000Y-42450000D03*
%TO.P,J1,B6*%
%TO.N,USB_D+*%
X118900000Y-42450000D03*
D18*
%TO.P,J1,S1*%
%TO.N,Net-(J1-PadS1)*%
X123650000Y-42820000D03*
X115000000Y-42820000D03*
D19*
X123650000Y-39440000D03*
X115000000Y-39440000D03*
%TD*%
%TO.P,LED1,1*%
%TO.N,Net-(LED1-Pad1)*%
%TA.AperFunction,SMDPad,CuDef*%
G36*
G01*
X141780000Y-59047500D02*
X141780000Y-59522500D01*
G75*
G02*
X141542500Y-59760000I-237500J0D01*
G01*
X140967500Y-59760000D01*
G75*
G02*
X140730000Y-59522500I0J237500D01*
G01*
X140730000Y-59047500D01*
G75*
G02*
X140967500Y-58810000I237500J0D01*
G01*
X141542500Y-58810000D01*
G75*
G02*
X141780000Y-59047500I0J-237500D01*
G01*
G37*
%TD.AperFunction*%
%TO.P,LED1,2*%
%TO.N,+3V3*%
%TA.AperFunction,SMDPad,CuDef*%
G36*
G01*
X140030000Y-59047500D02*
X140030000Y-59522500D01*
G75*
G02*
X139792500Y-59760000I-237500J0D01*
G01*
X139217500Y-59760000D01*
G75*
G02*
X138980000Y-59522500I0J237500D01*
G01*
X138980000Y-59047500D01*
G75*
G02*
X139217500Y-58810000I237500J0D01*
G01*
X139792500Y-58810000D01*
G75*
G02*
X140030000Y-59047500I0J-237500D01*
G01*
G37*
%TD.AperFunction*%
%TD*%
%TO.P,SW1,1*%
%TO.N,Net-(D1-Pad2)*%
%TA.AperFunction,ComponentPad*%
G36*
G01*
X92823483Y-89022395D02*
X92823483Y-89022395D01*
G75*
G02*
X91777605Y-87823483I76517J1122395D01*
G01*
X91817147Y-87243451D01*
G75*
G02*
X93016059Y-86197573I1122395J-76517D01*
G01*
X93016059Y-86197573D01*
G75*
G02*
X94061937Y-87396485I-76517J-1122395D01*
G01*
X94022395Y-87976517D01*
G75*
G02*
X92823483Y-89022395I-1122395J76517D01*
G01*
G37*
%TD.AperFunction*%
D13*
X92940000Y-87320000D03*
%TO.P,SW1,2*%
%TO.N,Col1*%
%TA.AperFunction,ComponentPad*%
G36*
G01*
X85838688Y-90697351D02*
X85838688Y-90697350D01*
G75*
G02*
X85752650Y-89108688I751312J837350D01*
G01*
X87062640Y-87648680D01*
G75*
G02*
X88651302Y-87562642I837350J-751312D01*
G01*
X88651302Y-87562642D01*
G75*
G02*
X88737340Y-89151304I-751312J-837350D01*
G01*
X87427350Y-90611312D01*
G75*
G02*
X85838688Y-90697350I-837350J751312D01*
G01*
G37*
%TD.AperFunction*%
X87900000Y-88400000D03*
D12*
%TO.P,SW1,1*%
%TO.N,Net-(D1-Pad2)*%
X95400000Y-88600000D03*
%TO.P,SW1,2*%
%TO.N,Col1*%
X90400000Y-86500000D03*
%TD*%
%TO.P,SW3,2*%
%TO.N,Col3*%
X129000000Y-86500000D03*
%TO.P,SW3,1*%
%TO.N,Net-(D3-Pad2)*%
X134000000Y-88600000D03*
D13*
%TO.P,SW3,2*%
%TO.N,Col3*%
X126500000Y-88400000D03*
%TA.AperFunction,ComponentPad*%
G36*
G01*
X124438688Y-90697351D02*
X124438688Y-90697350D01*
G75*
G02*
X124352650Y-89108688I751312J837350D01*
G01*
X125662640Y-87648680D01*
G75*
G02*
X127251302Y-87562642I837350J-751312D01*
G01*
X127251302Y-87562642D01*
G75*
G02*
X127337340Y-89151304I-751312J-837350D01*
G01*
X126027350Y-90611312D01*
G75*
G02*
X124438688Y-90697350I-837350J751312D01*
G01*
G37*
%TD.AperFunction*%
%TO.P,SW3,1*%
%TO.N,Net-(D3-Pad2)*%
X131540000Y-87320000D03*
%TA.AperFunction,ComponentPad*%
G36*
G01*
X131423483Y-89022395D02*
X131423483Y-89022395D01*
G75*
G02*
X130377605Y-87823483I76517J1122395D01*
G01*
X130417147Y-87243451D01*
G75*
G02*
X131616059Y-86197573I1122395J-76517D01*
G01*
X131616059Y-86197573D01*
G75*
G02*
X132661937Y-87396485I-76517J-1122395D01*
G01*
X132622395Y-87976517D01*
G75*
G02*
X131423483Y-89022395I-1122395J76517D01*
G01*
G37*
%TD.AperFunction*%
%TD*%
%TO.P,SW4,1*%
%TO.N,Net-(D4-Pad2)*%
%TA.AperFunction,ComponentPad*%
G36*
G01*
X150723483Y-89022395D02*
X150723483Y-89022395D01*
G75*
G02*
X149677605Y-87823483I76517J1122395D01*
G01*
X149717147Y-87243451D01*
G75*
G02*
X150916059Y-86197573I1122395J-76517D01*
G01*
X150916059Y-86197573D01*
G75*
G02*
X151961937Y-87396485I-76517J-1122395D01*
G01*
X151922395Y-87976517D01*
G75*
G02*
X150723483Y-89022395I-1122395J76517D01*
G01*
G37*
%TD.AperFunction*%
X150840000Y-87320000D03*
%TO.P,SW4,2*%
%TO.N,Col4*%
%TA.AperFunction,ComponentPad*%
G36*
G01*
X143738688Y-90697351D02*
X143738688Y-90697350D01*
G75*
G02*
X143652650Y-89108688I751312J837350D01*
G01*
X144962640Y-87648680D01*
G75*
G02*
X146551302Y-87562642I837350J-751312D01*
G01*
X146551302Y-87562642D01*
G75*
G02*
X146637340Y-89151304I-751312J-837350D01*
G01*
X145327350Y-90611312D01*
G75*
G02*
X143738688Y-90697350I-837350J751312D01*
G01*
G37*
%TD.AperFunction*%
X145800000Y-88400000D03*
D12*
%TO.P,SW4,1*%
%TO.N,Net-(D4-Pad2)*%
X153300000Y-88600000D03*
%TO.P,SW4,2*%
%TO.N,Col4*%
X148300000Y-86500000D03*
%TD*%
%TO.P,SW5,2*%
%TO.N,Col1*%
X90400000Y-105800000D03*
%TO.P,SW5,1*%
%TO.N,Net-(D5-Pad2)*%
X95400000Y-107900000D03*
D13*
%TO.P,SW5,2*%
%TO.N,Col1*%
X87900000Y-107700000D03*
%TA.AperFunction,ComponentPad*%
G36*
G01*
X85838688Y-109997351D02*
X85838688Y-109997350D01*
G75*
G02*
X85752650Y-108408688I751312J837350D01*
G01*
X87062640Y-106948680D01*
G75*
G02*
X88651302Y-106862642I837350J-751312D01*
G01*
X88651302Y-106862642D01*
G75*
G02*
X88737340Y-108451304I-751312J-837350D01*
G01*
X87427350Y-109911312D01*
G75*
G02*
X85838688Y-109997350I-837350J751312D01*
G01*
G37*
%TD.AperFunction*%
%TO.P,SW5,1*%
%TO.N,Net-(D5-Pad2)*%
X92940000Y-106620000D03*
%TA.AperFunction,ComponentPad*%
G36*
G01*
X92823483Y-108322395D02*
X92823483Y-108322395D01*
G75*
G02*
X91777605Y-107123483I76517J1122395D01*
G01*
X91817147Y-106543451D01*
G75*
G02*
X93016059Y-105497573I1122395J-76517D01*
G01*
X93016059Y-105497573D01*
G75*
G02*
X94061937Y-106696485I-76517J-1122395D01*
G01*
X94022395Y-107276517D01*
G75*
G02*
X92823483Y-108322395I-1122395J76517D01*
G01*
G37*
%TD.AperFunction*%
%TD*%
%TO.P,SW6,1*%
%TO.N,Net-(D6-Pad2)*%
%TA.AperFunction,ComponentPad*%
G36*
G01*
X112123483Y-108322395D02*
X112123483Y-108322395D01*
G75*
G02*
X111077605Y-107123483I76517J1122395D01*
G01*
X111117147Y-106543451D01*
G75*
G02*
X112316059Y-105497573I1122395J-76517D01*
G01*
X112316059Y-105497573D01*
G75*
G02*
X113361937Y-106696485I-76517J-1122395D01*
G01*
X113322395Y-107276517D01*
G75*
G02*
X112123483Y-108322395I-1122395J76517D01*
G01*
G37*
%TD.AperFunction*%
X112240000Y-106620000D03*
%TO.P,SW6,2*%
%TO.N,Col2*%
%TA.AperFunction,ComponentPad*%
G36*
G01*
X105138688Y-109997351D02*
X105138688Y-109997350D01*
G75*
G02*
X105052650Y-108408688I751312J837350D01*
G01*
X106362640Y-106948680D01*
G75*
G02*
X107951302Y-106862642I837350J-751312D01*
G01*
X107951302Y-106862642D01*
G75*
G02*
X108037340Y-108451304I-751312J-837350D01*
G01*
X106727350Y-109911312D01*
G75*
G02*
X105138688Y-109997350I-837350J751312D01*
G01*
G37*
%TD.AperFunction*%
X107200000Y-107700000D03*
D12*
%TO.P,SW6,1*%
%TO.N,Net-(D6-Pad2)*%
X114700000Y-107900000D03*
%TO.P,SW6,2*%
%TO.N,Col2*%
X109700000Y-105800000D03*
%TD*%
%TO.P,SW7,1*%
%TO.N,Net-(D7-Pad2)*%
%TA.AperFunction,ComponentPad*%
G36*
G01*
X131423483Y-108322395D02*
X131423483Y-108322395D01*
G75*
G02*
X130377605Y-107123483I76517J1122395D01*
G01*
X130417147Y-106543451D01*
G75*
G02*
X131616059Y-105497573I1122395J-76517D01*
G01*
X131616059Y-105497573D01*
G75*
G02*
X132661937Y-106696485I-76517J-1122395D01*
G01*
X132622395Y-107276517D01*
G75*
G02*
X131423483Y-108322395I-1122395J76517D01*
G01*
G37*
%TD.AperFunction*%
D13*
X131540000Y-106620000D03*
%TO.P,SW7,2*%
%TO.N,Col3*%
%TA.AperFunction,ComponentPad*%
G36*
G01*
X124438688Y-109997351D02*
X124438688Y-109997350D01*
G75*
G02*
X124352650Y-108408688I751312J837350D01*
G01*
X125662640Y-106948680D01*
G75*
G02*
X127251302Y-106862642I837350J-751312D01*
G01*
X127251302Y-106862642D01*
G75*
G02*
X127337340Y-108451304I-751312J-837350D01*
G01*
X126027350Y-109911312D01*
G75*
G02*
X124438688Y-109997350I-837350J751312D01*
G01*
G37*
%TD.AperFunction*%
X126500000Y-107700000D03*
D12*
%TO.P,SW7,1*%
%TO.N,Net-(D7-Pad2)*%
X134000000Y-107900000D03*
%TO.P,SW7,2*%
%TO.N,Col3*%
X129000000Y-105800000D03*
%TD*%
%TO.P,SW8,2*%
%TO.N,Col4*%
X148300000Y-105800000D03*
%TO.P,SW8,1*%
%TO.N,Net-(D8-Pad2)*%
X153300000Y-107900000D03*
D13*
%TO.P,SW8,2*%
%TO.N,Col4*%
X145800000Y-107700000D03*
%TA.AperFunction,ComponentPad*%
G36*
G01*
X143738688Y-109997351D02*
X143738688Y-109997350D01*
G75*
G02*
X143652650Y-108408688I751312J837350D01*
G01*
X144962640Y-106948680D01*
G75*
G02*
X146551302Y-106862642I837350J-751312D01*
G01*
X146551302Y-106862642D01*
G75*
G02*
X146637340Y-108451304I-751312J-837350D01*
G01*
X145327350Y-109911312D01*
G75*
G02*
X143738688Y-109997350I-837350J751312D01*
G01*
G37*
%TD.AperFunction*%
%TO.P,SW8,1*%
%TO.N,Net-(D8-Pad2)*%
X150840000Y-106620000D03*
%TA.AperFunction,ComponentPad*%
G36*
G01*
X150723483Y-108322395D02*
X150723483Y-108322395D01*
G75*
G02*
X149677605Y-107123483I76517J1122395D01*
G01*
X149717147Y-106543451D01*
G75*
G02*
X150916059Y-105497573I1122395J-76517D01*
G01*
X150916059Y-105497573D01*
G75*
G02*
X151961937Y-106696485I-76517J-1122395D01*
G01*
X151922395Y-107276517D01*
G75*
G02*
X150723483Y-108322395I-1122395J76517D01*
G01*
G37*
%TD.AperFunction*%
%TD*%
D12*
%TO.P,SW9,2*%
%TO.N,Col1*%
X90400000Y-125100000D03*
%TO.P,SW9,1*%
%TO.N,Net-(D9-Pad2)*%
X95400000Y-127200000D03*
D13*
%TO.P,SW9,2*%
%TO.N,Col1*%
X87900000Y-127000000D03*
%TA.AperFunction,ComponentPad*%
G36*
G01*
X85838688Y-129297351D02*
X85838688Y-129297350D01*
G75*
G02*
X85752650Y-127708688I751312J837350D01*
G01*
X87062640Y-126248680D01*
G75*
G02*
X88651302Y-126162642I837350J-751312D01*
G01*
X88651302Y-126162642D01*
G75*
G02*
X88737340Y-127751304I-751312J-837350D01*
G01*
X87427350Y-129211312D01*
G75*
G02*
X85838688Y-129297350I-837350J751312D01*
G01*
G37*
%TD.AperFunction*%
%TO.P,SW9,1*%
%TO.N,Net-(D9-Pad2)*%
X92940000Y-125920000D03*
%TA.AperFunction,ComponentPad*%
G36*
G01*
X92823483Y-127622395D02*
X92823483Y-127622395D01*
G75*
G02*
X91777605Y-126423483I76517J1122395D01*
G01*
X91817147Y-125843451D01*
G75*
G02*
X93016059Y-124797573I1122395J-76517D01*
G01*
X93016059Y-124797573D01*
G75*
G02*
X94061937Y-125996485I-76517J-1122395D01*
G01*
X94022395Y-126576517D01*
G75*
G02*
X92823483Y-127622395I-1122395J76517D01*
G01*
G37*
%TD.AperFunction*%
%TD*%
D12*
%TO.P,SW10,2*%
%TO.N,Col2*%
X109700000Y-125100000D03*
%TO.P,SW10,1*%
%TO.N,Net-(D10-Pad2)*%
X114700000Y-127200000D03*
D13*
%TO.P,SW10,2*%
%TO.N,Col2*%
X107200000Y-127000000D03*
%TA.AperFunction,ComponentPad*%
G36*
G01*
X105138688Y-129297351D02*
X105138688Y-129297350D01*
G75*
G02*
X105052650Y-127708688I751312J837350D01*
G01*
X106362640Y-126248680D01*
G75*
G02*
X107951302Y-126162642I837350J-751312D01*
G01*
X107951302Y-126162642D01*
G75*
G02*
X108037340Y-127751304I-751312J-837350D01*
G01*
X106727350Y-129211312D01*
G75*
G02*
X105138688Y-129297350I-837350J751312D01*
G01*
G37*
%TD.AperFunction*%
%TO.P,SW10,1*%
%TO.N,Net-(D10-Pad2)*%
X112240000Y-125920000D03*
%TA.AperFunction,ComponentPad*%
G36*
G01*
X112123483Y-127622395D02*
X112123483Y-127622395D01*
G75*
G02*
X111077605Y-126423483I76517J1122395D01*
G01*
X111117147Y-125843451D01*
G75*
G02*
X112316059Y-124797573I1122395J-76517D01*
G01*
X112316059Y-124797573D01*
G75*
G02*
X113361937Y-125996485I-76517J-1122395D01*
G01*
X113322395Y-126576517D01*
G75*
G02*
X112123483Y-127622395I-1122395J76517D01*
G01*
G37*
%TD.AperFunction*%
%TD*%
D12*
%TO.P,SW11,2*%
%TO.N,Col3*%
X129000000Y-125100000D03*
%TO.P,SW11,1*%
%TO.N,Net-(D11-Pad2)*%
X134000000Y-127200000D03*
D13*
%TO.P,SW11,2*%
%TO.N,Col3*%
X126500000Y-127000000D03*
%TA.AperFunction,ComponentPad*%
G36*
G01*
X124438688Y-129297351D02*
X124438688Y-129297350D01*
G75*
G02*
X124352650Y-127708688I751312J837350D01*
G01*
X125662640Y-126248680D01*
G75*
G02*
X127251302Y-126162642I837350J-751312D01*
G01*
X127251302Y-126162642D01*
G75*
G02*
X127337340Y-127751304I-751312J-837350D01*
G01*
X126027350Y-129211312D01*
G75*
G02*
X124438688Y-129297350I-837350J751312D01*
G01*
G37*
%TD.AperFunction*%
%TO.P,SW11,1*%
%TO.N,Net-(D11-Pad2)*%
X131540000Y-125920000D03*
%TA.AperFunction,ComponentPad*%
G36*
G01*
X131423483Y-127622395D02*
X131423483Y-127622395D01*
G75*
G02*
X130377605Y-126423483I76517J1122395D01*
G01*
X130417147Y-125843451D01*
G75*
G02*
X131616059Y-124797573I1122395J-76517D01*
G01*
X131616059Y-124797573D01*
G75*
G02*
X132661937Y-125996485I-76517J-1122395D01*
G01*
X132622395Y-126576517D01*
G75*
G02*
X131423483Y-127622395I-1122395J76517D01*
G01*
G37*
%TD.AperFunction*%
%TD*%
%TO.P,SW12,1*%
%TO.N,Net-(D12-Pad2)*%
%TA.AperFunction,ComponentPad*%
G36*
G01*
X150723483Y-127622395D02*
X150723483Y-127622395D01*
G75*
G02*
X149677605Y-126423483I76517J1122395D01*
G01*
X149717147Y-125843451D01*
G75*
G02*
X150916059Y-124797573I1122395J-76517D01*
G01*
X150916059Y-124797573D01*
G75*
G02*
X151961937Y-125996485I-76517J-1122395D01*
G01*
X151922395Y-126576517D01*
G75*
G02*
X150723483Y-127622395I-1122395J76517D01*
G01*
G37*
%TD.AperFunction*%
X150840000Y-125920000D03*
%TO.P,SW12,2*%
%TO.N,Col4*%
%TA.AperFunction,ComponentPad*%
G36*
G01*
X143738688Y-129297351D02*
X143738688Y-129297350D01*
G75*
G02*
X143652650Y-127708688I751312J837350D01*
G01*
X144962640Y-126248680D01*
G75*
G02*
X146551302Y-126162642I837350J-751312D01*
G01*
X146551302Y-126162642D01*
G75*
G02*
X146637340Y-127751304I-751312J-837350D01*
G01*
X145327350Y-129211312D01*
G75*
G02*
X143738688Y-129297350I-837350J751312D01*
G01*
G37*
%TD.AperFunction*%
X145800000Y-127000000D03*
D12*
%TO.P,SW12,1*%
%TO.N,Net-(D12-Pad2)*%
X153300000Y-127200000D03*
%TO.P,SW12,2*%
%TO.N,Col4*%
X148300000Y-125100000D03*
%TD*%
%TO.P,SW13,1*%
%TO.N,Net-(D13-Pad2)*%
%TA.AperFunction,ComponentPad*%
G36*
G01*
X92823483Y-146922395D02*
X92823483Y-146922395D01*
G75*
G02*
X91777605Y-145723483I76517J1122395D01*
G01*
X91817147Y-145143451D01*
G75*
G02*
X93016059Y-144097573I1122395J-76517D01*
G01*
X93016059Y-144097573D01*
G75*
G02*
X94061937Y-145296485I-76517J-1122395D01*
G01*
X94022395Y-145876517D01*
G75*
G02*
X92823483Y-146922395I-1122395J76517D01*
G01*
G37*
%TD.AperFunction*%
D13*
X92940000Y-145220000D03*
%TO.P,SW13,2*%
%TO.N,Col1*%
%TA.AperFunction,ComponentPad*%
G36*
G01*
X85838688Y-148597351D02*
X85838688Y-148597350D01*
G75*
G02*
X85752650Y-147008688I751312J837350D01*
G01*
X87062640Y-145548680D01*
G75*
G02*
X88651302Y-145462642I837350J-751312D01*
G01*
X88651302Y-145462642D01*
G75*
G02*
X88737340Y-147051304I-751312J-837350D01*
G01*
X87427350Y-148511312D01*
G75*
G02*
X85838688Y-148597350I-837350J751312D01*
G01*
G37*
%TD.AperFunction*%
X87900000Y-146300000D03*
D12*
%TO.P,SW13,1*%
%TO.N,Net-(D13-Pad2)*%
X95400000Y-146500000D03*
%TO.P,SW13,2*%
%TO.N,Col1*%
X90400000Y-144400000D03*
%TD*%
%TO.P,SW14,1*%
%TO.N,Net-(D14-Pad2)*%
%TA.AperFunction,ComponentPad*%
G36*
G01*
X112123483Y-146922395D02*
X112123483Y-146922395D01*
G75*
G02*
X111077605Y-145723483I76517J1122395D01*
G01*
X111117147Y-145143451D01*
G75*
G02*
X112316059Y-144097573I1122395J-76517D01*
G01*
X112316059Y-144097573D01*
G75*
G02*
X113361937Y-145296485I-76517J-1122395D01*
G01*
X113322395Y-145876517D01*
G75*
G02*
X112123483Y-146922395I-1122395J76517D01*
G01*
G37*
%TD.AperFunction*%
D13*
X112240000Y-145220000D03*
%TO.P,SW14,2*%
%TO.N,Col2*%
%TA.AperFunction,ComponentPad*%
G36*
G01*
X105138688Y-148597351D02*
X105138688Y-148597350D01*
G75*
G02*
X105052650Y-147008688I751312J837350D01*
G01*
X106362640Y-145548680D01*
G75*
G02*
X107951302Y-145462642I837350J-751312D01*
G01*
X107951302Y-145462642D01*
G75*
G02*
X108037340Y-147051304I-751312J-837350D01*
G01*
X106727350Y-148511312D01*
G75*
G02*
X105138688Y-148597350I-837350J751312D01*
G01*
G37*
%TD.AperFunction*%
X107200000Y-146300000D03*
D12*
%TO.P,SW14,1*%
%TO.N,Net-(D14-Pad2)*%
X114700000Y-146500000D03*
%TO.P,SW14,2*%
%TO.N,Col2*%
X109700000Y-144400000D03*
%TD*%
%TO.P,SW15,1*%
%TO.N,Net-(D15-Pad2)*%
%TA.AperFunction,ComponentPad*%
G36*
G01*
X131423483Y-146922395D02*
X131423483Y-146922395D01*
G75*
G02*
X130377605Y-145723483I76517J1122395D01*
G01*
X130417147Y-145143451D01*
G75*
G02*
X131616059Y-144097573I1122395J-76517D01*
G01*
X131616059Y-144097573D01*
G75*
G02*
X132661937Y-145296485I-76517J-1122395D01*
G01*
X132622395Y-145876517D01*
G75*
G02*
X131423483Y-146922395I-1122395J76517D01*
G01*
G37*
%TD.AperFunction*%
D13*
X131540000Y-145220000D03*
%TO.P,SW15,2*%
%TO.N,Col3*%
%TA.AperFunction,ComponentPad*%
G36*
G01*
X124438688Y-148597351D02*
X124438688Y-148597350D01*
G75*
G02*
X124352650Y-147008688I751312J837350D01*
G01*
X125662640Y-145548680D01*
G75*
G02*
X127251302Y-145462642I837350J-751312D01*
G01*
X127251302Y-145462642D01*
G75*
G02*
X127337340Y-147051304I-751312J-837350D01*
G01*
X126027350Y-148511312D01*
G75*
G02*
X124438688Y-148597350I-837350J751312D01*
G01*
G37*
%TD.AperFunction*%
X126500000Y-146300000D03*
D12*
%TO.P,SW15,1*%
%TO.N,Net-(D15-Pad2)*%
X134000000Y-146500000D03*
%TO.P,SW15,2*%
%TO.N,Col3*%
X129000000Y-144400000D03*
%TD*%
%TO.P,SW16,1*%
%TO.N,Net-(D16-Pad2)*%
%TA.AperFunction,ComponentPad*%
G36*
G01*
X150723483Y-146922395D02*
X150723483Y-146922395D01*
G75*
G02*
X149677605Y-145723483I76517J1122395D01*
G01*
X149717147Y-145143451D01*
G75*
G02*
X150916059Y-144097573I1122395J-76517D01*
G01*
X150916059Y-144097573D01*
G75*
G02*
X151961937Y-145296485I-76517J-1122395D01*
G01*
X151922395Y-145876517D01*
G75*
G02*
X150723483Y-146922395I-1122395J76517D01*
G01*
G37*
%TD.AperFunction*%
D13*
X150840000Y-145220000D03*
%TO.P,SW16,2*%
%TO.N,Col4*%
%TA.AperFunction,ComponentPad*%
G36*
G01*
X143738688Y-148597351D02*
X143738688Y-148597350D01*
G75*
G02*
X143652650Y-147008688I751312J837350D01*
G01*
X144962640Y-145548680D01*
G75*
G02*
X146551302Y-145462642I837350J-751312D01*
G01*
X146551302Y-145462642D01*
G75*
G02*
X146637340Y-147051304I-751312J-837350D01*
G01*
X145327350Y-148511312D01*
G75*
G02*
X143738688Y-148597350I-837350J751312D01*
G01*
G37*
%TD.AperFunction*%
X145800000Y-146300000D03*
D12*
%TO.P,SW16,1*%
%TO.N,Net-(D16-Pad2)*%
X153300000Y-146500000D03*
%TO.P,SW16,2*%
%TO.N,Col4*%
X148300000Y-144400000D03*
%TD*%
%TO.P,SW17,2*%
%TO.N,Col1*%
X90400000Y-163600000D03*
%TO.P,SW17,1*%
%TO.N,Net-(D17-Pad2)*%
X95400000Y-165700000D03*
D13*
%TO.P,SW17,2*%
%TO.N,Col1*%
X87900000Y-165500000D03*
%TA.AperFunction,ComponentPad*%
G36*
G01*
X85838688Y-167797351D02*
X85838688Y-167797350D01*
G75*
G02*
X85752650Y-166208688I751312J837350D01*
G01*
X87062640Y-164748680D01*
G75*
G02*
X88651302Y-164662642I837350J-751312D01*
G01*
X88651302Y-164662642D01*
G75*
G02*
X88737340Y-166251304I-751312J-837350D01*
G01*
X87427350Y-167711312D01*
G75*
G02*
X85838688Y-167797350I-837350J751312D01*
G01*
G37*
%TD.AperFunction*%
%TO.P,SW17,1*%
%TO.N,Net-(D17-Pad2)*%
X92940000Y-164420000D03*
%TA.AperFunction,ComponentPad*%
G36*
G01*
X92823483Y-166122395D02*
X92823483Y-166122395D01*
G75*
G02*
X91777605Y-164923483I76517J1122395D01*
G01*
X91817147Y-164343451D01*
G75*
G02*
X93016059Y-163297573I1122395J-76517D01*
G01*
X93016059Y-163297573D01*
G75*
G02*
X94061937Y-164496485I-76517J-1122395D01*
G01*
X94022395Y-165076517D01*
G75*
G02*
X92823483Y-166122395I-1122395J76517D01*
G01*
G37*
%TD.AperFunction*%
%TD*%
D12*
%TO.P,SW18,2*%
%TO.N,Col2*%
X109700000Y-163600000D03*
%TO.P,SW18,1*%
%TO.N,Net-(D18-Pad2)*%
X114700000Y-165700000D03*
D13*
%TO.P,SW18,2*%
%TO.N,Col2*%
X107200000Y-165500000D03*
%TA.AperFunction,ComponentPad*%
G36*
G01*
X105138688Y-167797351D02*
X105138688Y-167797350D01*
G75*
G02*
X105052650Y-166208688I751312J837350D01*
G01*
X106362640Y-164748680D01*
G75*
G02*
X107951302Y-164662642I837350J-751312D01*
G01*
X107951302Y-164662642D01*
G75*
G02*
X108037340Y-166251304I-751312J-837350D01*
G01*
X106727350Y-167711312D01*
G75*
G02*
X105138688Y-167797350I-837350J751312D01*
G01*
G37*
%TD.AperFunction*%
%TO.P,SW18,1*%
%TO.N,Net-(D18-Pad2)*%
X112240000Y-164420000D03*
%TA.AperFunction,ComponentPad*%
G36*
G01*
X112123483Y-166122395D02*
X112123483Y-166122395D01*
G75*
G02*
X111077605Y-164923483I76517J1122395D01*
G01*
X111117147Y-164343451D01*
G75*
G02*
X112316059Y-163297573I1122395J-76517D01*
G01*
X112316059Y-163297573D01*
G75*
G02*
X113361937Y-164496485I-76517J-1122395D01*
G01*
X113322395Y-165076517D01*
G75*
G02*
X112123483Y-166122395I-1122395J76517D01*
G01*
G37*
%TD.AperFunction*%
%TD*%
D12*
%TO.P,SW19,2*%
%TO.N,Col3*%
X129000000Y-163600000D03*
%TO.P,SW19,1*%
%TO.N,Net-(D19-Pad2)*%
X134000000Y-165700000D03*
D13*
%TO.P,SW19,2*%
%TO.N,Col3*%
X126500000Y-165500000D03*
%TA.AperFunction,ComponentPad*%
G36*
G01*
X124438688Y-167797351D02*
X124438688Y-167797350D01*
G75*
G02*
X124352650Y-166208688I751312J837350D01*
G01*
X125662640Y-164748680D01*
G75*
G02*
X127251302Y-164662642I837350J-751312D01*
G01*
X127251302Y-164662642D01*
G75*
G02*
X127337340Y-166251304I-751312J-837350D01*
G01*
X126027350Y-167711312D01*
G75*
G02*
X124438688Y-167797350I-837350J751312D01*
G01*
G37*
%TD.AperFunction*%
%TO.P,SW19,1*%
%TO.N,Net-(D19-Pad2)*%
X131540000Y-164420000D03*
%TA.AperFunction,ComponentPad*%
G36*
G01*
X131423483Y-166122395D02*
X131423483Y-166122395D01*
G75*
G02*
X130377605Y-164923483I76517J1122395D01*
G01*
X130417147Y-164343451D01*
G75*
G02*
X131616059Y-163297573I1122395J-76517D01*
G01*
X131616059Y-163297573D01*
G75*
G02*
X132661937Y-164496485I-76517J-1122395D01*
G01*
X132622395Y-165076517D01*
G75*
G02*
X131423483Y-166122395I-1122395J76517D01*
G01*
G37*
%TD.AperFunction*%
%TD*%
%TO.P,SW20,1*%
%TO.N,Net-(D20-Pad2)*%
%TA.AperFunction,ComponentPad*%
G36*
G01*
X150723483Y-166122395D02*
X150723483Y-166122395D01*
G75*
G02*
X149677605Y-164923483I76517J1122395D01*
G01*
X149717147Y-164343451D01*
G75*
G02*
X150916059Y-163297573I1122395J-76517D01*
G01*
X150916059Y-163297573D01*
G75*
G02*
X151961937Y-164496485I-76517J-1122395D01*
G01*
X151922395Y-165076517D01*
G75*
G02*
X150723483Y-166122395I-1122395J76517D01*
G01*
G37*
%TD.AperFunction*%
X150840000Y-164420000D03*
%TO.P,SW20,2*%
%TO.N,Col4*%
%TA.AperFunction,ComponentPad*%
G36*
G01*
X143738688Y-167797351D02*
X143738688Y-167797350D01*
G75*
G02*
X143652650Y-166208688I751312J837350D01*
G01*
X144962640Y-164748680D01*
G75*
G02*
X146551302Y-164662642I837350J-751312D01*
G01*
X146551302Y-164662642D01*
G75*
G02*
X146637340Y-166251304I-751312J-837350D01*
G01*
X145327350Y-167711312D01*
G75*
G02*
X143738688Y-167797350I-837350J751312D01*
G01*
G37*
%TD.AperFunction*%
X145800000Y-165500000D03*
D12*
%TO.P,SW20,1*%
%TO.N,Net-(D20-Pad2)*%
X153300000Y-165700000D03*
%TO.P,SW20,2*%
%TO.N,Col4*%
X148300000Y-163600000D03*
%TD*%
D20*
%TO.P,U1,1*%
%TO.N,GND*%
X134980000Y-56360000D03*
%TO.P,U1,2*%
%TO.N,+3V3*%
X134980000Y-58260000D03*
%TO.P,U1,3*%
%TO.N,Net-(C1-Pad1)*%
X136980000Y-57310000D03*
%TD*%
D21*
%TO.P,U2,1*%
%TO.N,USB_D+*%
X120280000Y-47680000D03*
%TO.P,U2,2*%
%TO.N,GND*%
X119330000Y-47680000D03*
%TO.P,U2,3*%
%TO.N,USB_D-*%
X118380000Y-47680000D03*
%TO.P,U2,4*%
%TO.N,USBD-*%
X118380000Y-49880000D03*
%TO.P,U2,6*%
%TO.N,USBD+*%
X120280000Y-49880000D03*
%TO.P,U2,5*%
%TO.N,+5V*%
X119330000Y-49880000D03*
%TD*%
%TO.P,U3,1*%
%TO.N,Net-(U3-Pad1)*%
%TA.AperFunction,SMDPad,CuDef*%
G36*
G01*
X101100000Y-60075000D02*
X101100000Y-59925000D01*
G75*
G02*
X101175000Y-59850000I75000J0D01*
G01*
X102575000Y-59850000D01*
G75*
G02*
X102650000Y-59925000I0J-75000D01*
G01*
X102650000Y-60075000D01*
G75*
G02*
X102575000Y-60150000I-75000J0D01*
G01*
X101175000Y-60150000D01*
G75*
G02*
X101100000Y-60075000I0J75000D01*
G01*
G37*
%TD.AperFunction*%
%TO.P,U3,2*%
%TO.N,Net-(U3-Pad2)*%
%TA.AperFunction,SMDPad,CuDef*%
G36*
G01*
X101100000Y-60575000D02*
X101100000Y-60425000D01*
G75*
G02*
X101175000Y-60350000I75000J0D01*
G01*
X102575000Y-60350000D01*
G75*
G02*
X102650000Y-60425000I0J-75000D01*
G01*
X102650000Y-60575000D01*
G75*
G02*
X102575000Y-60650000I-75000J0D01*
G01*
X101175000Y-60650000D01*
G75*
G02*
X101100000Y-60575000I0J75000D01*
G01*
G37*
%TD.AperFunction*%
%TO.P,U3,3*%
%TO.N,Net-(U3-Pad3)*%
%TA.AperFunction,SMDPad,CuDef*%
G36*
G01*
X101100000Y-61075000D02*
X101100000Y-60925000D01*
G75*
G02*
X101175000Y-60850000I75000J0D01*
G01*
X102575000Y-60850000D01*
G75*
G02*
X102650000Y-60925000I0J-75000D01*
G01*
X102650000Y-61075000D01*
G75*
G02*
X102575000Y-61150000I-75000J0D01*
G01*
X101175000Y-61150000D01*
G75*
G02*
X101100000Y-61075000I0J75000D01*
G01*
G37*
%TD.AperFunction*%
%TO.P,U3,4*%
%TO.N,Net-(U3-Pad4)*%
%TA.AperFunction,SMDPad,CuDef*%
G36*
G01*
X101100000Y-61575000D02*
X101100000Y-61425000D01*
G75*
G02*
X101175000Y-61350000I75000J0D01*
G01*
X102575000Y-61350000D01*
G75*
G02*
X102650000Y-61425000I0J-75000D01*
G01*
X102650000Y-61575000D01*
G75*
G02*
X102575000Y-61650000I-75000J0D01*
G01*
X101175000Y-61650000D01*
G75*
G02*
X101100000Y-61575000I0J75000D01*
G01*
G37*
%TD.AperFunction*%
%TO.P,U3,5*%
%TO.N,HSE_IN*%
%TA.AperFunction,SMDPad,CuDef*%
G36*
G01*
X101100000Y-62075000D02*
X101100000Y-61925000D01*
G75*
G02*
X101175000Y-61850000I75000J0D01*
G01*
X102575000Y-61850000D01*
G75*
G02*
X102650000Y-61925000I0J-75000D01*
G01*
X102650000Y-62075000D01*
G75*
G02*
X102575000Y-62150000I-75000J0D01*
G01*
X101175000Y-62150000D01*
G75*
G02*
X101100000Y-62075000I0J75000D01*
G01*
G37*
%TD.AperFunction*%
%TO.P,U3,6*%
%TO.N,HSE_OUT*%
%TA.AperFunction,SMDPad,CuDef*%
G36*
G01*
X101100000Y-62575000D02*
X101100000Y-62425000D01*
G75*
G02*
X101175000Y-62350000I75000J0D01*
G01*
X102575000Y-62350000D01*
G75*
G02*
X102650000Y-62425000I0J-75000D01*
G01*
X102650000Y-62575000D01*
G75*
G02*
X102575000Y-62650000I-75000J0D01*
G01*
X101175000Y-62650000D01*
G75*
G02*
X101100000Y-62575000I0J75000D01*
G01*
G37*
%TD.AperFunction*%
%TO.P,U3,7*%
%TO.N,NRST*%
%TA.AperFunction,SMDPad,CuDef*%
G36*
G01*
X101100000Y-63075000D02*
X101100000Y-62925000D01*
G75*
G02*
X101175000Y-62850000I75000J0D01*
G01*
X102575000Y-62850000D01*
G75*
G02*
X102650000Y-62925000I0J-75000D01*
G01*
X102650000Y-63075000D01*
G75*
G02*
X102575000Y-63150000I-75000J0D01*
G01*
X101175000Y-63150000D01*
G75*
G02*
X101100000Y-63075000I0J75000D01*
G01*
G37*
%TD.AperFunction*%
%TO.P,U3,8*%
%TO.N,Net-(U3-Pad8)*%
%TA.AperFunction,SMDPad,CuDef*%
G36*
G01*
X101100000Y-63575000D02*
X101100000Y-63425000D01*
G75*
G02*
X101175000Y-63350000I75000J0D01*
G01*
X102575000Y-63350000D01*
G75*
G02*
X102650000Y-63425000I0J-75000D01*
G01*
X102650000Y-63575000D01*
G75*
G02*
X102575000Y-63650000I-75000J0D01*
G01*
X101175000Y-63650000D01*
G75*
G02*
X101100000Y-63575000I0J75000D01*
G01*
G37*
%TD.AperFunction*%
%TO.P,U3,9*%
%TO.N,Net-(U3-Pad9)*%
%TA.AperFunction,SMDPad,CuDef*%
G36*
G01*
X101100000Y-64075000D02*
X101100000Y-63925000D01*
G75*
G02*
X101175000Y-63850000I75000J0D01*
G01*
X102575000Y-63850000D01*
G75*
G02*
X102650000Y-63925000I0J-75000D01*
G01*
X102650000Y-64075000D01*
G75*
G02*
X102575000Y-64150000I-75000J0D01*
G01*
X101175000Y-64150000D01*
G75*
G02*
X101100000Y-64075000I0J75000D01*
G01*
G37*
%TD.AperFunction*%
%TO.P,U3,10*%
%TO.N,Net-(U3-Pad10)*%
%TA.AperFunction,SMDPad,CuDef*%
G36*
G01*
X101100000Y-64575000D02*
X101100000Y-64425000D01*
G75*
G02*
X101175000Y-64350000I75000J0D01*
G01*
X102575000Y-64350000D01*
G75*
G02*
X102650000Y-64425000I0J-75000D01*
G01*
X102650000Y-64575000D01*
G75*
G02*
X102575000Y-64650000I-75000J0D01*
G01*
X101175000Y-64650000D01*
G75*
G02*
X101100000Y-64575000I0J75000D01*
G01*
G37*
%TD.AperFunction*%
%TO.P,U3,11*%
%TO.N,Net-(U3-Pad11)*%
%TA.AperFunction,SMDPad,CuDef*%
G36*
G01*
X101100000Y-65075000D02*
X101100000Y-64925000D01*
G75*
G02*
X101175000Y-64850000I75000J0D01*
G01*
X102575000Y-64850000D01*
G75*
G02*
X102650000Y-64925000I0J-75000D01*
G01*
X102650000Y-65075000D01*
G75*
G02*
X102575000Y-65150000I-75000J0D01*
G01*
X101175000Y-65150000D01*
G75*
G02*
X101100000Y-65075000I0J75000D01*
G01*
G37*
%TD.AperFunction*%
%TO.P,U3,12*%
%TO.N,Net-(U3-Pad12)*%
%TA.AperFunction,SMDPad,CuDef*%
G36*
G01*
X101100000Y-65575000D02*
X101100000Y-65425000D01*
G75*
G02*
X101175000Y-65350000I75000J0D01*
G01*
X102575000Y-65350000D01*
G75*
G02*
X102650000Y-65425000I0J-75000D01*
G01*
X102650000Y-65575000D01*
G75*
G02*
X102575000Y-65650000I-75000J0D01*
G01*
X101175000Y-65650000D01*
G75*
G02*
X101100000Y-65575000I0J75000D01*
G01*
G37*
%TD.AperFunction*%
%TO.P,U3,13*%
%TO.N,Net-(U3-Pad13)*%
%TA.AperFunction,SMDPad,CuDef*%
G36*
G01*
X101100000Y-66075000D02*
X101100000Y-65925000D01*
G75*
G02*
X101175000Y-65850000I75000J0D01*
G01*
X102575000Y-65850000D01*
G75*
G02*
X102650000Y-65925000I0J-75000D01*
G01*
X102650000Y-66075000D01*
G75*
G02*
X102575000Y-66150000I-75000J0D01*
G01*
X101175000Y-66150000D01*
G75*
G02*
X101100000Y-66075000I0J75000D01*
G01*
G37*
%TD.AperFunction*%
%TO.P,U3,14*%
%TO.N,Net-(U3-Pad14)*%
%TA.AperFunction,SMDPad,CuDef*%
G36*
G01*
X101100000Y-66575000D02*
X101100000Y-66425000D01*
G75*
G02*
X101175000Y-66350000I75000J0D01*
G01*
X102575000Y-66350000D01*
G75*
G02*
X102650000Y-66425000I0J-75000D01*
G01*
X102650000Y-66575000D01*
G75*
G02*
X102575000Y-66650000I-75000J0D01*
G01*
X101175000Y-66650000D01*
G75*
G02*
X101100000Y-66575000I0J75000D01*
G01*
G37*
%TD.AperFunction*%
%TO.P,U3,15*%
%TO.N,SWO*%
%TA.AperFunction,SMDPad,CuDef*%
G36*
G01*
X101100000Y-67075000D02*
X101100000Y-66925000D01*
G75*
G02*
X101175000Y-66850000I75000J0D01*
G01*
X102575000Y-66850000D01*
G75*
G02*
X102650000Y-66925000I0J-75000D01*
G01*
X102650000Y-67075000D01*
G75*
G02*
X102575000Y-67150000I-75000J0D01*
G01*
X101175000Y-67150000D01*
G75*
G02*
X101100000Y-67075000I0J75000D01*
G01*
G37*
%TD.AperFunction*%
%TO.P,U3,16*%
%TO.N,TS_IQR*%
%TA.AperFunction,SMDPad,CuDef*%
G36*
G01*
X101100000Y-67575000D02*
X101100000Y-67425000D01*
G75*
G02*
X101175000Y-67350000I75000J0D01*
G01*
X102575000Y-67350000D01*
G75*
G02*
X102650000Y-67425000I0J-75000D01*
G01*
X102650000Y-67575000D01*
G75*
G02*
X102575000Y-67650000I-75000J0D01*
G01*
X101175000Y-67650000D01*
G75*
G02*
X101100000Y-67575000I0J75000D01*
G01*
G37*
%TD.AperFunction*%
%TO.P,U3,17*%
%TO.N,LCD_LED*%
%TA.AperFunction,SMDPad,CuDef*%
G36*
G01*
X103650000Y-70125000D02*
X103650000Y-68725000D01*
G75*
G02*
X103725000Y-68650000I75000J0D01*
G01*
X103875000Y-68650000D01*
G75*
G02*
X103950000Y-68725000I0J-75000D01*
G01*
X103950000Y-70125000D01*
G75*
G02*
X103875000Y-70200000I-75000J0D01*
G01*
X103725000Y-70200000D01*
G75*
G02*
X103650000Y-70125000I0J75000D01*
G01*
G37*
%TD.AperFunction*%
%TO.P,U3,18*%
%TO.N,Net-(U3-Pad18)*%
%TA.AperFunction,SMDPad,CuDef*%
G36*
G01*
X104150000Y-70125000D02*
X104150000Y-68725000D01*
G75*
G02*
X104225000Y-68650000I75000J0D01*
G01*
X104375000Y-68650000D01*
G75*
G02*
X104450000Y-68725000I0J-75000D01*
G01*
X104450000Y-70125000D01*
G75*
G02*
X104375000Y-70200000I-75000J0D01*
G01*
X104225000Y-70200000D01*
G75*
G02*
X104150000Y-70125000I0J75000D01*
G01*
G37*
%TD.AperFunction*%
%TO.P,U3,19*%
%TO.N,+3V3*%
%TA.AperFunction,SMDPad,CuDef*%
G36*
G01*
X104650000Y-70125000D02*
X104650000Y-68725000D01*
G75*
G02*
X104725000Y-68650000I75000J0D01*
G01*
X104875000Y-68650000D01*
G75*
G02*
X104950000Y-68725000I0J-75000D01*
G01*
X104950000Y-70125000D01*
G75*
G02*
X104875000Y-70200000I-75000J0D01*
G01*
X104725000Y-70200000D01*
G75*
G02*
X104650000Y-70125000I0J75000D01*
G01*
G37*
%TD.AperFunction*%
%TO.P,U3,20*%
%TO.N,Net-(U3-Pad20)*%
%TA.AperFunction,SMDPad,CuDef*%
G36*
G01*
X105150000Y-70125000D02*
X105150000Y-68725000D01*
G75*
G02*
X105225000Y-68650000I75000J0D01*
G01*
X105375000Y-68650000D01*
G75*
G02*
X105450000Y-68725000I0J-75000D01*
G01*
X105450000Y-70125000D01*
G75*
G02*
X105375000Y-70200000I-75000J0D01*
G01*
X105225000Y-70200000D01*
G75*
G02*
X105150000Y-70125000I0J75000D01*
G01*
G37*
%TD.AperFunction*%
%TO.P,U3,21*%
%TO.N,Net-(U3-Pad21)*%
%TA.AperFunction,SMDPad,CuDef*%
G36*
G01*
X105650000Y-70125000D02*
X105650000Y-68725000D01*
G75*
G02*
X105725000Y-68650000I75000J0D01*
G01*
X105875000Y-68650000D01*
G75*
G02*
X105950000Y-68725000I0J-75000D01*
G01*
X105950000Y-70125000D01*
G75*
G02*
X105875000Y-70200000I-75000J0D01*
G01*
X105725000Y-70200000D01*
G75*
G02*
X105650000Y-70125000I0J75000D01*
G01*
G37*
%TD.AperFunction*%
%TO.P,U3,22*%
%TO.N,Net-(U3-Pad22)*%
%TA.AperFunction,SMDPad,CuDef*%
G36*
G01*
X106150000Y-70125000D02*
X106150000Y-68725000D01*
G75*
G02*
X106225000Y-68650000I75000J0D01*
G01*
X106375000Y-68650000D01*
G75*
G02*
X106450000Y-68725000I0J-75000D01*
G01*
X106450000Y-70125000D01*
G75*
G02*
X106375000Y-70200000I-75000J0D01*
G01*
X106225000Y-70200000D01*
G75*
G02*
X106150000Y-70125000I0J75000D01*
G01*
G37*
%TD.AperFunction*%
%TO.P,U3,23*%
%TO.N,Net-(U3-Pad23)*%
%TA.AperFunction,SMDPad,CuDef*%
G36*
G01*
X106650000Y-70125000D02*
X106650000Y-68725000D01*
G75*
G02*
X106725000Y-68650000I75000J0D01*
G01*
X106875000Y-68650000D01*
G75*
G02*
X106950000Y-68725000I0J-75000D01*
G01*
X106950000Y-70125000D01*
G75*
G02*
X106875000Y-70200000I-75000J0D01*
G01*
X106725000Y-70200000D01*
G75*
G02*
X106650000Y-70125000I0J75000D01*
G01*
G37*
%TD.AperFunction*%
%TO.P,U3,24*%
%TO.N,Net-(U3-Pad24)*%
%TA.AperFunction,SMDPad,CuDef*%
G36*
G01*
X107150000Y-70125000D02*
X107150000Y-68725000D01*
G75*
G02*
X107225000Y-68650000I75000J0D01*
G01*
X107375000Y-68650000D01*
G75*
G02*
X107450000Y-68725000I0J-75000D01*
G01*
X107450000Y-70125000D01*
G75*
G02*
X107375000Y-70200000I-75000J0D01*
G01*
X107225000Y-70200000D01*
G75*
G02*
X107150000Y-70125000I0J75000D01*
G01*
G37*
%TD.AperFunction*%
%TO.P,U3,25*%
%TO.N,Net-(U3-Pad25)*%
%TA.AperFunction,SMDPad,CuDef*%
G36*
G01*
X107650000Y-70125000D02*
X107650000Y-68725000D01*
G75*
G02*
X107725000Y-68650000I75000J0D01*
G01*
X107875000Y-68650000D01*
G75*
G02*
X107950000Y-68725000I0J-75000D01*
G01*
X107950000Y-70125000D01*
G75*
G02*
X107875000Y-70200000I-75000J0D01*
G01*
X107725000Y-70200000D01*
G75*
G02*
X107650000Y-70125000I0J75000D01*
G01*
G37*
%TD.AperFunction*%
%TO.P,U3,26*%
%TO.N,Col1*%
%TA.AperFunction,SMDPad,CuDef*%
G36*
G01*
X108150000Y-70125000D02*
X108150000Y-68725000D01*
G75*
G02*
X108225000Y-68650000I75000J0D01*
G01*
X108375000Y-68650000D01*
G75*
G02*
X108450000Y-68725000I0J-75000D01*
G01*
X108450000Y-70125000D01*
G75*
G02*
X108375000Y-70200000I-75000J0D01*
G01*
X108225000Y-70200000D01*
G75*
G02*
X108150000Y-70125000I0J75000D01*
G01*
G37*
%TD.AperFunction*%
%TO.P,U3,27*%
%TO.N,Col2*%
%TA.AperFunction,SMDPad,CuDef*%
G36*
G01*
X108650000Y-70125000D02*
X108650000Y-68725000D01*
G75*
G02*
X108725000Y-68650000I75000J0D01*
G01*
X108875000Y-68650000D01*
G75*
G02*
X108950000Y-68725000I0J-75000D01*
G01*
X108950000Y-70125000D01*
G75*
G02*
X108875000Y-70200000I-75000J0D01*
G01*
X108725000Y-70200000D01*
G75*
G02*
X108650000Y-70125000I0J75000D01*
G01*
G37*
%TD.AperFunction*%
%TO.P,U3,28*%
%TO.N,Col3*%
%TA.AperFunction,SMDPad,CuDef*%
G36*
G01*
X109150000Y-70125000D02*
X109150000Y-68725000D01*
G75*
G02*
X109225000Y-68650000I75000J0D01*
G01*
X109375000Y-68650000D01*
G75*
G02*
X109450000Y-68725000I0J-75000D01*
G01*
X109450000Y-70125000D01*
G75*
G02*
X109375000Y-70200000I-75000J0D01*
G01*
X109225000Y-70200000D01*
G75*
G02*
X109150000Y-70125000I0J75000D01*
G01*
G37*
%TD.AperFunction*%
%TO.P,U3,29*%
%TO.N,Col4*%
%TA.AperFunction,SMDPad,CuDef*%
G36*
G01*
X109650000Y-70125000D02*
X109650000Y-68725000D01*
G75*
G02*
X109725000Y-68650000I75000J0D01*
G01*
X109875000Y-68650000D01*
G75*
G02*
X109950000Y-68725000I0J-75000D01*
G01*
X109950000Y-70125000D01*
G75*
G02*
X109875000Y-70200000I-75000J0D01*
G01*
X109725000Y-70200000D01*
G75*
G02*
X109650000Y-70125000I0J75000D01*
G01*
G37*
%TD.AperFunction*%
%TO.P,U3,30*%
%TO.N,Net-(U3-Pad30)*%
%TA.AperFunction,SMDPad,CuDef*%
G36*
G01*
X110150000Y-70125000D02*
X110150000Y-68725000D01*
G75*
G02*
X110225000Y-68650000I75000J0D01*
G01*
X110375000Y-68650000D01*
G75*
G02*
X110450000Y-68725000I0J-75000D01*
G01*
X110450000Y-70125000D01*
G75*
G02*
X110375000Y-70200000I-75000J0D01*
G01*
X110225000Y-70200000D01*
G75*
G02*
X110150000Y-70125000I0J75000D01*
G01*
G37*
%TD.AperFunction*%
%TO.P,U3,31*%
%TO.N,GND*%
%TA.AperFunction,SMDPad,CuDef*%
G36*
G01*
X110650000Y-70125000D02*
X110650000Y-68725000D01*
G75*
G02*
X110725000Y-68650000I75000J0D01*
G01*
X110875000Y-68650000D01*
G75*
G02*
X110950000Y-68725000I0J-75000D01*
G01*
X110950000Y-70125000D01*
G75*
G02*
X110875000Y-70200000I-75000J0D01*
G01*
X110725000Y-70200000D01*
G75*
G02*
X110650000Y-70125000I0J75000D01*
G01*
G37*
%TD.AperFunction*%
%TO.P,U3,32*%
%TO.N,+3V3*%
%TA.AperFunction,SMDPad,CuDef*%
G36*
G01*
X111150000Y-70125000D02*
X111150000Y-68725000D01*
G75*
G02*
X111225000Y-68650000I75000J0D01*
G01*
X111375000Y-68650000D01*
G75*
G02*
X111450000Y-68725000I0J-75000D01*
G01*
X111450000Y-70125000D01*
G75*
G02*
X111375000Y-70200000I-75000J0D01*
G01*
X111225000Y-70200000D01*
G75*
G02*
X111150000Y-70125000I0J75000D01*
G01*
G37*
%TD.AperFunction*%
%TO.P,U3,33*%
%TO.N,Net-(U3-Pad33)*%
%TA.AperFunction,SMDPad,CuDef*%
G36*
G01*
X112450000Y-67575000D02*
X112450000Y-67425000D01*
G75*
G02*
X112525000Y-67350000I75000J0D01*
G01*
X113925000Y-67350000D01*
G75*
G02*
X114000000Y-67425000I0J-75000D01*
G01*
X114000000Y-67575000D01*
G75*
G02*
X113925000Y-67650000I-75000J0D01*
G01*
X112525000Y-67650000D01*
G75*
G02*
X112450000Y-67575000I0J75000D01*
G01*
G37*
%TD.AperFunction*%
%TO.P,U3,34*%
%TO.N,Net-(U3-Pad34)*%
%TA.AperFunction,SMDPad,CuDef*%
G36*
G01*
X112450000Y-67075000D02*
X112450000Y-66925000D01*
G75*
G02*
X112525000Y-66850000I75000J0D01*
G01*
X113925000Y-66850000D01*
G75*
G02*
X114000000Y-66925000I0J-75000D01*
G01*
X114000000Y-67075000D01*
G75*
G02*
X113925000Y-67150000I-75000J0D01*
G01*
X112525000Y-67150000D01*
G75*
G02*
X112450000Y-67075000I0J75000D01*
G01*
G37*
%TD.AperFunction*%
%TO.P,U3,35*%
%TO.N,Net-(U3-Pad35)*%
%TA.AperFunction,SMDPad,CuDef*%
G36*
G01*
X112450000Y-66575000D02*
X112450000Y-66425000D01*
G75*
G02*
X112525000Y-66350000I75000J0D01*
G01*
X113925000Y-66350000D01*
G75*
G02*
X114000000Y-66425000I0J-75000D01*
G01*
X114000000Y-66575000D01*
G75*
G02*
X113925000Y-66650000I-75000J0D01*
G01*
X112525000Y-66650000D01*
G75*
G02*
X112450000Y-66575000I0J75000D01*
G01*
G37*
%TD.AperFunction*%
%TO.P,U3,36*%
%TO.N,Net-(U3-Pad36)*%
%TA.AperFunction,SMDPad,CuDef*%
G36*
G01*
X112450000Y-66075000D02*
X112450000Y-65925000D01*
G75*
G02*
X112525000Y-65850000I75000J0D01*
G01*
X113925000Y-65850000D01*
G75*
G02*
X114000000Y-65925000I0J-75000D01*
G01*
X114000000Y-66075000D01*
G75*
G02*
X113925000Y-66150000I-75000J0D01*
G01*
X112525000Y-66150000D01*
G75*
G02*
X112450000Y-66075000I0J75000D01*
G01*
G37*
%TD.AperFunction*%
%TO.P,U3,37*%
%TO.N,Net-(U3-Pad37)*%
%TA.AperFunction,SMDPad,CuDef*%
G36*
G01*
X112450000Y-65575000D02*
X112450000Y-65425000D01*
G75*
G02*
X112525000Y-65350000I75000J0D01*
G01*
X113925000Y-65350000D01*
G75*
G02*
X114000000Y-65425000I0J-75000D01*
G01*
X114000000Y-65575000D01*
G75*
G02*
X113925000Y-65650000I-75000J0D01*
G01*
X112525000Y-65650000D01*
G75*
G02*
X112450000Y-65575000I0J75000D01*
G01*
G37*
%TD.AperFunction*%
%TO.P,U3,38*%
%TO.N,Row5*%
%TA.AperFunction,SMDPad,CuDef*%
G36*
G01*
X112450000Y-65075000D02*
X112450000Y-64925000D01*
G75*
G02*
X112525000Y-64850000I75000J0D01*
G01*
X113925000Y-64850000D01*
G75*
G02*
X114000000Y-64925000I0J-75000D01*
G01*
X114000000Y-65075000D01*
G75*
G02*
X113925000Y-65150000I-75000J0D01*
G01*
X112525000Y-65150000D01*
G75*
G02*
X112450000Y-65075000I0J75000D01*
G01*
G37*
%TD.AperFunction*%
%TO.P,U3,39*%
%TO.N,Row4*%
%TA.AperFunction,SMDPad,CuDef*%
G36*
G01*
X112450000Y-64575000D02*
X112450000Y-64425000D01*
G75*
G02*
X112525000Y-64350000I75000J0D01*
G01*
X113925000Y-64350000D01*
G75*
G02*
X114000000Y-64425000I0J-75000D01*
G01*
X114000000Y-64575000D01*
G75*
G02*
X113925000Y-64650000I-75000J0D01*
G01*
X112525000Y-64650000D01*
G75*
G02*
X112450000Y-64575000I0J75000D01*
G01*
G37*
%TD.AperFunction*%
%TO.P,U3,40*%
%TO.N,Row3*%
%TA.AperFunction,SMDPad,CuDef*%
G36*
G01*
X112450000Y-64075000D02*
X112450000Y-63925000D01*
G75*
G02*
X112525000Y-63850000I75000J0D01*
G01*
X113925000Y-63850000D01*
G75*
G02*
X114000000Y-63925000I0J-75000D01*
G01*
X114000000Y-64075000D01*
G75*
G02*
X113925000Y-64150000I-75000J0D01*
G01*
X112525000Y-64150000D01*
G75*
G02*
X112450000Y-64075000I0J75000D01*
G01*
G37*
%TD.AperFunction*%
%TO.P,U3,41*%
%TO.N,Row2*%
%TA.AperFunction,SMDPad,CuDef*%
G36*
G01*
X112450000Y-63575000D02*
X112450000Y-63425000D01*
G75*
G02*
X112525000Y-63350000I75000J0D01*
G01*
X113925000Y-63350000D01*
G75*
G02*
X114000000Y-63425000I0J-75000D01*
G01*
X114000000Y-63575000D01*
G75*
G02*
X113925000Y-63650000I-75000J0D01*
G01*
X112525000Y-63650000D01*
G75*
G02*
X112450000Y-63575000I0J75000D01*
G01*
G37*
%TD.AperFunction*%
%TO.P,U3,42*%
%TO.N,Row1*%
%TA.AperFunction,SMDPad,CuDef*%
G36*
G01*
X112450000Y-63075000D02*
X112450000Y-62925000D01*
G75*
G02*
X112525000Y-62850000I75000J0D01*
G01*
X113925000Y-62850000D01*
G75*
G02*
X114000000Y-62925000I0J-75000D01*
G01*
X114000000Y-63075000D01*
G75*
G02*
X113925000Y-63150000I-75000J0D01*
G01*
X112525000Y-63150000D01*
G75*
G02*
X112450000Y-63075000I0J75000D01*
G01*
G37*
%TD.AperFunction*%
%TO.P,U3,43*%
%TO.N,Net-(U3-Pad43)*%
%TA.AperFunction,SMDPad,CuDef*%
G36*
G01*
X112450000Y-62575000D02*
X112450000Y-62425000D01*
G75*
G02*
X112525000Y-62350000I75000J0D01*
G01*
X113925000Y-62350000D01*
G75*
G02*
X114000000Y-62425000I0J-75000D01*
G01*
X114000000Y-62575000D01*
G75*
G02*
X113925000Y-62650000I-75000J0D01*
G01*
X112525000Y-62650000D01*
G75*
G02*
X112450000Y-62575000I0J75000D01*
G01*
G37*
%TD.AperFunction*%
%TO.P,U3,44*%
%TO.N,USBD-*%
%TA.AperFunction,SMDPad,CuDef*%
G36*
G01*
X112450000Y-62075000D02*
X112450000Y-61925000D01*
G75*
G02*
X112525000Y-61850000I75000J0D01*
G01*
X113925000Y-61850000D01*
G75*
G02*
X114000000Y-61925000I0J-75000D01*
G01*
X114000000Y-62075000D01*
G75*
G02*
X113925000Y-62150000I-75000J0D01*
G01*
X112525000Y-62150000D01*
G75*
G02*
X112450000Y-62075000I0J75000D01*
G01*
G37*
%TD.AperFunction*%
%TO.P,U3,45*%
%TO.N,USBD+*%
%TA.AperFunction,SMDPad,CuDef*%
G36*
G01*
X112450000Y-61575000D02*
X112450000Y-61425000D01*
G75*
G02*
X112525000Y-61350000I75000J0D01*
G01*
X113925000Y-61350000D01*
G75*
G02*
X114000000Y-61425000I0J-75000D01*
G01*
X114000000Y-61575000D01*
G75*
G02*
X113925000Y-61650000I-75000J0D01*
G01*
X112525000Y-61650000D01*
G75*
G02*
X112450000Y-61575000I0J75000D01*
G01*
G37*
%TD.AperFunction*%
%TO.P,U3,46*%
%TO.N,SWDIO*%
%TA.AperFunction,SMDPad,CuDef*%
G36*
G01*
X112450000Y-61075000D02*
X112450000Y-60925000D01*
G75*
G02*
X112525000Y-60850000I75000J0D01*
G01*
X113925000Y-60850000D01*
G75*
G02*
X114000000Y-60925000I0J-75000D01*
G01*
X114000000Y-61075000D01*
G75*
G02*
X113925000Y-61150000I-75000J0D01*
G01*
X112525000Y-61150000D01*
G75*
G02*
X112450000Y-61075000I0J75000D01*
G01*
G37*
%TD.AperFunction*%
%TO.P,U3,47*%
%TO.N,GND*%
%TA.AperFunction,SMDPad,CuDef*%
G36*
G01*
X112450000Y-60575000D02*
X112450000Y-60425000D01*
G75*
G02*
X112525000Y-60350000I75000J0D01*
G01*
X113925000Y-60350000D01*
G75*
G02*
X114000000Y-60425000I0J-75000D01*
G01*
X114000000Y-60575000D01*
G75*
G02*
X113925000Y-60650000I-75000J0D01*
G01*
X112525000Y-60650000D01*
G75*
G02*
X112450000Y-60575000I0J75000D01*
G01*
G37*
%TD.AperFunction*%
%TO.P,U3,48*%
%TO.N,+3V3*%
%TA.AperFunction,SMDPad,CuDef*%
G36*
G01*
X112450000Y-60075000D02*
X112450000Y-59925000D01*
G75*
G02*
X112525000Y-59850000I75000J0D01*
G01*
X113925000Y-59850000D01*
G75*
G02*
X114000000Y-59925000I0J-75000D01*
G01*
X114000000Y-60075000D01*
G75*
G02*
X113925000Y-60150000I-75000J0D01*
G01*
X112525000Y-60150000D01*
G75*
G02*
X112450000Y-60075000I0J75000D01*
G01*
G37*
%TD.AperFunction*%
%TO.P,U3,49*%
%TO.N,SWCLK*%
%TA.AperFunction,SMDPad,CuDef*%
G36*
G01*
X111150000Y-58775000D02*
X111150000Y-57375000D01*
G75*
G02*
X111225000Y-57300000I75000J0D01*
G01*
X111375000Y-57300000D01*
G75*
G02*
X111450000Y-57375000I0J-75000D01*
G01*
X111450000Y-58775000D01*
G75*
G02*
X111375000Y-58850000I-75000J0D01*
G01*
X111225000Y-58850000D01*
G75*
G02*
X111150000Y-58775000I0J75000D01*
G01*
G37*
%TD.AperFunction*%
%TO.P,U3,50*%
%TO.N,LCD_RST*%
%TA.AperFunction,SMDPad,CuDef*%
G36*
G01*
X110650000Y-58775000D02*
X110650000Y-57375000D01*
G75*
G02*
X110725000Y-57300000I75000J0D01*
G01*
X110875000Y-57300000D01*
G75*
G02*
X110950000Y-57375000I0J-75000D01*
G01*
X110950000Y-58775000D01*
G75*
G02*
X110875000Y-58850000I-75000J0D01*
G01*
X110725000Y-58850000D01*
G75*
G02*
X110650000Y-58775000I0J75000D01*
G01*
G37*
%TD.AperFunction*%
%TO.P,U3,51*%
%TO.N,UART_TX*%
%TA.AperFunction,SMDPad,CuDef*%
G36*
G01*
X110150000Y-58775000D02*
X110150000Y-57375000D01*
G75*
G02*
X110225000Y-57300000I75000J0D01*
G01*
X110375000Y-57300000D01*
G75*
G02*
X110450000Y-57375000I0J-75000D01*
G01*
X110450000Y-58775000D01*
G75*
G02*
X110375000Y-58850000I-75000J0D01*
G01*
X110225000Y-58850000D01*
G75*
G02*
X110150000Y-58775000I0J75000D01*
G01*
G37*
%TD.AperFunction*%
%TO.P,U3,52*%
%TO.N,UART_RX*%
%TA.AperFunction,SMDPad,CuDef*%
G36*
G01*
X109650000Y-58775000D02*
X109650000Y-57375000D01*
G75*
G02*
X109725000Y-57300000I75000J0D01*
G01*
X109875000Y-57300000D01*
G75*
G02*
X109950000Y-57375000I0J-75000D01*
G01*
X109950000Y-58775000D01*
G75*
G02*
X109875000Y-58850000I-75000J0D01*
G01*
X109725000Y-58850000D01*
G75*
G02*
X109650000Y-58775000I0J75000D01*
G01*
G37*
%TD.AperFunction*%
%TO.P,U3,53*%
%TO.N,LCD_DC*%
%TA.AperFunction,SMDPad,CuDef*%
G36*
G01*
X109150000Y-58775000D02*
X109150000Y-57375000D01*
G75*
G02*
X109225000Y-57300000I75000J0D01*
G01*
X109375000Y-57300000D01*
G75*
G02*
X109450000Y-57375000I0J-75000D01*
G01*
X109450000Y-58775000D01*
G75*
G02*
X109375000Y-58850000I-75000J0D01*
G01*
X109225000Y-58850000D01*
G75*
G02*
X109150000Y-58775000I0J75000D01*
G01*
G37*
%TD.AperFunction*%
%TO.P,U3,54*%
%TO.N,LCD_CS*%
%TA.AperFunction,SMDPad,CuDef*%
G36*
G01*
X108650000Y-58775000D02*
X108650000Y-57375000D01*
G75*
G02*
X108725000Y-57300000I75000J0D01*
G01*
X108875000Y-57300000D01*
G75*
G02*
X108950000Y-57375000I0J-75000D01*
G01*
X108950000Y-58775000D01*
G75*
G02*
X108875000Y-58850000I-75000J0D01*
G01*
X108725000Y-58850000D01*
G75*
G02*
X108650000Y-58775000I0J75000D01*
G01*
G37*
%TD.AperFunction*%
%TO.P,U3,55*%
%TO.N,SPI_SCK*%
%TA.AperFunction,SMDPad,CuDef*%
G36*
G01*
X108150000Y-58775000D02*
X108150000Y-57375000D01*
G75*
G02*
X108225000Y-57300000I75000J0D01*
G01*
X108375000Y-57300000D01*
G75*
G02*
X108450000Y-57375000I0J-75000D01*
G01*
X108450000Y-58775000D01*
G75*
G02*
X108375000Y-58850000I-75000J0D01*
G01*
X108225000Y-58850000D01*
G75*
G02*
X108150000Y-58775000I0J75000D01*
G01*
G37*
%TD.AperFunction*%
%TO.P,U3,56*%
%TO.N,SPI_MISO*%
%TA.AperFunction,SMDPad,CuDef*%
G36*
G01*
X107650000Y-58775000D02*
X107650000Y-57375000D01*
G75*
G02*
X107725000Y-57300000I75000J0D01*
G01*
X107875000Y-57300000D01*
G75*
G02*
X107950000Y-57375000I0J-75000D01*
G01*
X107950000Y-58775000D01*
G75*
G02*
X107875000Y-58850000I-75000J0D01*
G01*
X107725000Y-58850000D01*
G75*
G02*
X107650000Y-58775000I0J75000D01*
G01*
G37*
%TD.AperFunction*%
%TO.P,U3,57*%
%TO.N,SPI_MOSI*%
%TA.AperFunction,SMDPad,CuDef*%
G36*
G01*
X107150000Y-58775000D02*
X107150000Y-57375000D01*
G75*
G02*
X107225000Y-57300000I75000J0D01*
G01*
X107375000Y-57300000D01*
G75*
G02*
X107450000Y-57375000I0J-75000D01*
G01*
X107450000Y-58775000D01*
G75*
G02*
X107375000Y-58850000I-75000J0D01*
G01*
X107225000Y-58850000D01*
G75*
G02*
X107150000Y-58775000I0J75000D01*
G01*
G37*
%TD.AperFunction*%
%TO.P,U3,58*%
%TO.N,Net-(U3-Pad58)*%
%TA.AperFunction,SMDPad,CuDef*%
G36*
G01*
X106650000Y-58775000D02*
X106650000Y-57375000D01*
G75*
G02*
X106725000Y-57300000I75000J0D01*
G01*
X106875000Y-57300000D01*
G75*
G02*
X106950000Y-57375000I0J-75000D01*
G01*
X106950000Y-58775000D01*
G75*
G02*
X106875000Y-58850000I-75000J0D01*
G01*
X106725000Y-58850000D01*
G75*
G02*
X106650000Y-58775000I0J75000D01*
G01*
G37*
%TD.AperFunction*%
%TO.P,U3,59*%
%TO.N,Net-(U3-Pad59)*%
%TA.AperFunction,SMDPad,CuDef*%
G36*
G01*
X106150000Y-58775000D02*
X106150000Y-57375000D01*
G75*
G02*
X106225000Y-57300000I75000J0D01*
G01*
X106375000Y-57300000D01*
G75*
G02*
X106450000Y-57375000I0J-75000D01*
G01*
X106450000Y-58775000D01*
G75*
G02*
X106375000Y-58850000I-75000J0D01*
G01*
X106225000Y-58850000D01*
G75*
G02*
X106150000Y-58775000I0J75000D01*
G01*
G37*
%TD.AperFunction*%
%TO.P,U3,60*%
%TO.N,Net-(JP1-Pad2)*%
%TA.AperFunction,SMDPad,CuDef*%
G36*
G01*
X105650000Y-58775000D02*
X105650000Y-57375000D01*
G75*
G02*
X105725000Y-57300000I75000J0D01*
G01*
X105875000Y-57300000D01*
G75*
G02*
X105950000Y-57375000I0J-75000D01*
G01*
X105950000Y-58775000D01*
G75*
G02*
X105875000Y-58850000I-75000J0D01*
G01*
X105725000Y-58850000D01*
G75*
G02*
X105650000Y-58775000I0J75000D01*
G01*
G37*
%TD.AperFunction*%
%TO.P,U3,61*%
%TO.N,TS_CS*%
%TA.AperFunction,SMDPad,CuDef*%
G36*
G01*
X105150000Y-58775000D02*
X105150000Y-57375000D01*
G75*
G02*
X105225000Y-57300000I75000J0D01*
G01*
X105375000Y-57300000D01*
G75*
G02*
X105450000Y-57375000I0J-75000D01*
G01*
X105450000Y-58775000D01*
G75*
G02*
X105375000Y-58850000I-75000J0D01*
G01*
X105225000Y-58850000D01*
G75*
G02*
X105150000Y-58775000I0J75000D01*
G01*
G37*
%TD.AperFunction*%
%TO.P,U3,62*%
%TO.N,TS_BSY*%
%TA.AperFunction,SMDPad,CuDef*%
G36*
G01*
X104650000Y-58775000D02*
X104650000Y-57375000D01*
G75*
G02*
X104725000Y-57300000I75000J0D01*
G01*
X104875000Y-57300000D01*
G75*
G02*
X104950000Y-57375000I0J-75000D01*
G01*
X104950000Y-58775000D01*
G75*
G02*
X104875000Y-58850000I-75000J0D01*
G01*
X104725000Y-58850000D01*
G75*
G02*
X104650000Y-58775000I0J75000D01*
G01*
G37*
%TD.AperFunction*%
%TO.P,U3,63*%
%TO.N,GND*%
%TA.AperFunction,SMDPad,CuDef*%
G36*
G01*
X104150000Y-58775000D02*
X104150000Y-57375000D01*
G75*
G02*
X104225000Y-57300000I75000J0D01*
G01*
X104375000Y-57300000D01*
G75*
G02*
X104450000Y-57375000I0J-75000D01*
G01*
X104450000Y-58775000D01*
G75*
G02*
X104375000Y-58850000I-75000J0D01*
G01*
X104225000Y-58850000D01*
G75*
G02*
X104150000Y-58775000I0J75000D01*
G01*
G37*
%TD.AperFunction*%
%TO.P,U3,64*%
%TO.N,+3V3*%
%TA.AperFunction,SMDPad,CuDef*%
G36*
G01*
X103650000Y-58775000D02*
X103650000Y-57375000D01*
G75*
G02*
X103725000Y-57300000I75000J0D01*
G01*
X103875000Y-57300000D01*
G75*
G02*
X103950000Y-57375000I0J-75000D01*
G01*
X103950000Y-58775000D01*
G75*
G02*
X103875000Y-58850000I-75000J0D01*
G01*
X103725000Y-58850000D01*
G75*
G02*
X103650000Y-58775000I0J75000D01*
G01*
G37*
%TD.AperFunction*%
%TD*%
D22*
%TO.P,Y1,1*%
%TO.N,HSE_IN*%
X93350000Y-60300000D03*
%TO.P,Y1,2*%
%TO.N,GND*%
X93350000Y-66200000D03*
%TO.P,Y1,3*%
%TO.N,HSE_OUT*%
X96050000Y-66200000D03*
%TO.P,Y1,4*%
%TO.N,GND*%
X96050000Y-60300000D03*
%TD*%
%TO.P,C1,2*%
%TO.N,GND*%
%TA.AperFunction,SMDPad,CuDef*%
G36*
G01*
X135530000Y-54172500D02*
X135530000Y-54647500D01*
G75*
G02*
X135292500Y-54885000I-237500J0D01*
G01*
X134717500Y-54885000D01*
G75*
G02*
X134480000Y-54647500I0J237500D01*
G01*
X134480000Y-54172500D01*
G75*
G02*
X134717500Y-53935000I237500J0D01*
G01*
X135292500Y-53935000D01*
G75*
G02*
X135530000Y-54172500I0J-237500D01*
G01*
G37*
%TD.AperFunction*%
%TO.P,C1,1*%
%TO.N,Net-(C1-Pad1)*%
%TA.AperFunction,SMDPad,CuDef*%
G36*
G01*
X137280000Y-54172500D02*
X137280000Y-54647500D01*
G75*
G02*
X137042500Y-54885000I-237500J0D01*
G01*
X136467500Y-54885000D01*
G75*
G02*
X136230000Y-54647500I0J237500D01*
G01*
X136230000Y-54172500D01*
G75*
G02*
X136467500Y-53935000I237500J0D01*
G01*
X137042500Y-53935000D01*
G75*
G02*
X137280000Y-54172500I0J-237500D01*
G01*
G37*
%TD.AperFunction*%
%TD*%
%TO.P,C2,1*%
%TO.N,+3V3*%
%TA.AperFunction,SMDPad,CuDef*%
G36*
G01*
X134542500Y-59680000D02*
X135017500Y-59680000D01*
G75*
G02*
X135255000Y-59917500I0J-237500D01*
G01*
X135255000Y-60492500D01*
G75*
G02*
X135017500Y-60730000I-237500J0D01*
G01*
X134542500Y-60730000D01*
G75*
G02*
X134305000Y-60492500I0J237500D01*
G01*
X134305000Y-59917500D01*
G75*
G02*
X134542500Y-59680000I237500J0D01*
G01*
G37*
%TD.AperFunction*%
%TO.P,C2,2*%
%TO.N,GND*%
%TA.AperFunction,SMDPad,CuDef*%
G36*
G01*
X134542500Y-61430000D02*
X135017500Y-61430000D01*
G75*
G02*
X135255000Y-61667500I0J-237500D01*
G01*
X135255000Y-62242500D01*
G75*
G02*
X135017500Y-62480000I-237500J0D01*
G01*
X134542500Y-62480000D01*
G75*
G02*
X134305000Y-62242500I0J237500D01*
G01*
X134305000Y-61667500D01*
G75*
G02*
X134542500Y-61430000I237500J0D01*
G01*
G37*
%TD.AperFunction*%
%TD*%
%TO.P,C3,1*%
%TO.N,+3V3*%
%TA.AperFunction,SMDPad,CuDef*%
G36*
G01*
X113750000Y-73207500D02*
X113750000Y-73682500D01*
G75*
G02*
X113512500Y-73920000I-237500J0D01*
G01*
X112937500Y-73920000D01*
G75*
G02*
X112700000Y-73682500I0J237500D01*
G01*
X112700000Y-73207500D01*
G75*
G02*
X112937500Y-72970000I237500J0D01*
G01*
X113512500Y-72970000D01*
G75*
G02*
X113750000Y-73207500I0J-237500D01*
G01*
G37*
%TD.AperFunction*%
%TO.P,C3,2*%
%TO.N,GND*%
%TA.AperFunction,SMDPad,CuDef*%
G36*
G01*
X112000000Y-73207500D02*
X112000000Y-73682500D01*
G75*
G02*
X111762500Y-73920000I-237500J0D01*
G01*
X111187500Y-73920000D01*
G75*
G02*
X110950000Y-73682500I0J237500D01*
G01*
X110950000Y-73207500D01*
G75*
G02*
X111187500Y-72970000I237500J0D01*
G01*
X111762500Y-72970000D01*
G75*
G02*
X112000000Y-73207500I0J-237500D01*
G01*
G37*
%TD.AperFunction*%
%TD*%
%TO.P,C4,2*%
%TO.N,GND*%
%TA.AperFunction,SMDPad,CuDef*%
G36*
G01*
X103475000Y-56287500D02*
X103475000Y-55812500D01*
G75*
G02*
X103712500Y-55575000I237500J0D01*
G01*
X104287500Y-55575000D01*
G75*
G02*
X104525000Y-55812500I0J-237500D01*
G01*
X104525000Y-56287500D01*
G75*
G02*
X104287500Y-56525000I-237500J0D01*
G01*
X103712500Y-56525000D01*
G75*
G02*
X103475000Y-56287500I0J237500D01*
G01*
G37*
%TD.AperFunction*%
%TO.P,C4,1*%
%TO.N,+3V3*%
%TA.AperFunction,SMDPad,CuDef*%
G36*
G01*
X101725000Y-56287500D02*
X101725000Y-55812500D01*
G75*
G02*
X101962500Y-55575000I237500J0D01*
G01*
X102537500Y-55575000D01*
G75*
G02*
X102775000Y-55812500I0J-237500D01*
G01*
X102775000Y-56287500D01*
G75*
G02*
X102537500Y-56525000I-237500J0D01*
G01*
X101962500Y-56525000D01*
G75*
G02*
X101725000Y-56287500I0J237500D01*
G01*
G37*
%TD.AperFunction*%
%TD*%
%TO.P,C5,1*%
%TO.N,+3V3*%
%TA.AperFunction,SMDPad,CuDef*%
G36*
G01*
X115212500Y-57875000D02*
X115687500Y-57875000D01*
G75*
G02*
X115925000Y-58112500I0J-237500D01*
G01*
X115925000Y-58687500D01*
G75*
G02*
X115687500Y-58925000I-237500J0D01*
G01*
X115212500Y-58925000D01*
G75*
G02*
X114975000Y-58687500I0J237500D01*
G01*
X114975000Y-58112500D01*
G75*
G02*
X115212500Y-57875000I237500J0D01*
G01*
G37*
%TD.AperFunction*%
%TO.P,C5,2*%
%TO.N,GND*%
%TA.AperFunction,SMDPad,CuDef*%
G36*
G01*
X115212500Y-59625000D02*
X115687500Y-59625000D01*
G75*
G02*
X115925000Y-59862500I0J-237500D01*
G01*
X115925000Y-60437500D01*
G75*
G02*
X115687500Y-60675000I-237500J0D01*
G01*
X115212500Y-60675000D01*
G75*
G02*
X114975000Y-60437500I0J237500D01*
G01*
X114975000Y-59862500D01*
G75*
G02*
X115212500Y-59625000I237500J0D01*
G01*
G37*
%TD.AperFunction*%
%TD*%
%TO.P,C6,2*%
%TO.N,GND*%
%TA.AperFunction,SMDPad,CuDef*%
G36*
G01*
X112015000Y-71562500D02*
X112015000Y-72037500D01*
G75*
G02*
X111777500Y-72275000I-237500J0D01*
G01*
X111202500Y-72275000D01*
G75*
G02*
X110965000Y-72037500I0J237500D01*
G01*
X110965000Y-71562500D01*
G75*
G02*
X111202500Y-71325000I237500J0D01*
G01*
X111777500Y-71325000D01*
G75*
G02*
X112015000Y-71562500I0J-237500D01*
G01*
G37*
%TD.AperFunction*%
%TO.P,C6,1*%
%TO.N,+3V3*%
%TA.AperFunction,SMDPad,CuDef*%
G36*
G01*
X113765000Y-71562500D02*
X113765000Y-72037500D01*
G75*
G02*
X113527500Y-72275000I-237500J0D01*
G01*
X112952500Y-72275000D01*
G75*
G02*
X112715000Y-72037500I0J237500D01*
G01*
X112715000Y-71562500D01*
G75*
G02*
X112952500Y-71325000I237500J0D01*
G01*
X113527500Y-71325000D01*
G75*
G02*
X113765000Y-71562500I0J-237500D01*
G01*
G37*
%TD.AperFunction*%
%TD*%
%TO.P,C7,1*%
%TO.N,+3V3*%
%TA.AperFunction,SMDPad,CuDef*%
G36*
G01*
X105300000Y-71437500D02*
X105300000Y-71912500D01*
G75*
G02*
X105062500Y-72150000I-237500J0D01*
G01*
X104487500Y-72150000D01*
G75*
G02*
X104250000Y-71912500I0J237500D01*
G01*
X104250000Y-71437500D01*
G75*
G02*
X104487500Y-71200000I237500J0D01*
G01*
X105062500Y-71200000D01*
G75*
G02*
X105300000Y-71437500I0J-237500D01*
G01*
G37*
%TD.AperFunction*%
%TO.P,C7,2*%
%TO.N,GND*%
%TA.AperFunction,SMDPad,CuDef*%
G36*
G01*
X103550000Y-71437500D02*
X103550000Y-71912500D01*
G75*
G02*
X103312500Y-72150000I-237500J0D01*
G01*
X102737500Y-72150000D01*
G75*
G02*
X102500000Y-71912500I0J237500D01*
G01*
X102500000Y-71437500D01*
G75*
G02*
X102737500Y-71200000I237500J0D01*
G01*
X103312500Y-71200000D01*
G75*
G02*
X103550000Y-71437500I0J-237500D01*
G01*
G37*
%TD.AperFunction*%
%TD*%
%TO.P,C8,2*%
%TO.N,GND*%
%TA.AperFunction,SMDPad,CuDef*%
G36*
G01*
X95035000Y-58237500D02*
X95035000Y-57762500D01*
G75*
G02*
X95272500Y-57525000I237500J0D01*
G01*
X95847500Y-57525000D01*
G75*
G02*
X96085000Y-57762500I0J-237500D01*
G01*
X96085000Y-58237500D01*
G75*
G02*
X95847500Y-58475000I-237500J0D01*
G01*
X95272500Y-58475000D01*
G75*
G02*
X95035000Y-58237500I0J237500D01*
G01*
G37*
%TD.AperFunction*%
%TO.P,C8,1*%
%TO.N,HSE_IN*%
%TA.AperFunction,SMDPad,CuDef*%
G36*
G01*
X93285000Y-58237500D02*
X93285000Y-57762500D01*
G75*
G02*
X93522500Y-57525000I237500J0D01*
G01*
X94097500Y-57525000D01*
G75*
G02*
X94335000Y-57762500I0J-237500D01*
G01*
X94335000Y-58237500D01*
G75*
G02*
X94097500Y-58475000I-237500J0D01*
G01*
X93522500Y-58475000D01*
G75*
G02*
X93285000Y-58237500I0J237500D01*
G01*
G37*
%TD.AperFunction*%
%TD*%
%TO.P,C9,1*%
%TO.N,HSE_OUT*%
%TA.AperFunction,SMDPad,CuDef*%
G36*
G01*
X96115000Y-68362500D02*
X96115000Y-68837500D01*
G75*
G02*
X95877500Y-69075000I-237500J0D01*
G01*
X95302500Y-69075000D01*
G75*
G02*
X95065000Y-68837500I0J237500D01*
G01*
X95065000Y-68362500D01*
G75*
G02*
X95302500Y-68125000I237500J0D01*
G01*
X95877500Y-68125000D01*
G75*
G02*
X96115000Y-68362500I0J-237500D01*
G01*
G37*
%TD.AperFunction*%
%TO.P,C9,2*%
%TO.N,GND*%
%TA.AperFunction,SMDPad,CuDef*%
G36*
G01*
X94365000Y-68362500D02*
X94365000Y-68837500D01*
G75*
G02*
X94127500Y-69075000I-237500J0D01*
G01*
X93552500Y-69075000D01*
G75*
G02*
X93315000Y-68837500I0J237500D01*
G01*
X93315000Y-68362500D01*
G75*
G02*
X93552500Y-68125000I237500J0D01*
G01*
X94127500Y-68125000D01*
G75*
G02*
X94365000Y-68362500I0J-237500D01*
G01*
G37*
%TD.AperFunction*%
%TD*%
%TO.P,R1,1*%
%TO.N,Net-(LED1-Pad1)*%
%TA.AperFunction,SMDPad,CuDef*%
G36*
G01*
X141755000Y-60647500D02*
X141755000Y-61122500D01*
G75*
G02*
X141517500Y-61360000I-237500J0D01*
G01*
X140942500Y-61360000D01*
G75*
G02*
X140705000Y-61122500I0J237500D01*
G01*
X140705000Y-60647500D01*
G75*
G02*
X140942500Y-60410000I237500J0D01*
G01*
X141517500Y-60410000D01*
G75*
G02*
X141755000Y-60647500I0J-237500D01*
G01*
G37*
%TD.AperFunction*%
%TO.P,R1,2*%
%TO.N,GND*%
%TA.AperFunction,SMDPad,CuDef*%
G36*
G01*
X140005000Y-60647500D02*
X140005000Y-61122500D01*
G75*
G02*
X139767500Y-61360000I-237500J0D01*
G01*
X139192500Y-61360000D01*
G75*
G02*
X138955000Y-61122500I0J237500D01*
G01*
X138955000Y-60647500D01*
G75*
G02*
X139192500Y-60410000I237500J0D01*
G01*
X139767500Y-60410000D01*
G75*
G02*
X140005000Y-60647500I0J-237500D01*
G01*
G37*
%TD.AperFunction*%
%TD*%
%TO.P,R2,1*%
%TO.N,Net-(JP1-Pad2)*%
%TA.AperFunction,SMDPad,CuDef*%
G36*
G01*
X111567500Y-42975000D02*
X111092500Y-42975000D01*
G75*
G02*
X110855000Y-42737500I0J237500D01*
G01*
X110855000Y-42162500D01*
G75*
G02*
X111092500Y-41925000I237500J0D01*
G01*
X111567500Y-41925000D01*
G75*
G02*
X111805000Y-42162500I0J-237500D01*
G01*
X111805000Y-42737500D01*
G75*
G02*
X111567500Y-42975000I-237500J0D01*
G01*
G37*
%TD.AperFunction*%
%TO.P,R2,2*%
%TO.N,GND*%
%TA.AperFunction,SMDPad,CuDef*%
G36*
G01*
X111567500Y-41225000D02*
X111092500Y-41225000D01*
G75*
G02*
X110855000Y-40987500I0J237500D01*
G01*
X110855000Y-40412500D01*
G75*
G02*
X111092500Y-40175000I237500J0D01*
G01*
X111567500Y-40175000D01*
G75*
G02*
X111805000Y-40412500I0J-237500D01*
G01*
X111805000Y-40987500D01*
G75*
G02*
X111567500Y-41225000I-237500J0D01*
G01*
G37*
%TD.AperFunction*%
%TD*%
%TO.P,R3,2*%
%TO.N,USBD+*%
%TA.AperFunction,SMDPad,CuDef*%
G36*
G01*
X122515000Y-50972500D02*
X122515000Y-51447500D01*
G75*
G02*
X122277500Y-51685000I-237500J0D01*
G01*
X121702500Y-51685000D01*
G75*
G02*
X121465000Y-51447500I0J237500D01*
G01*
X121465000Y-50972500D01*
G75*
G02*
X121702500Y-50735000I237500J0D01*
G01*
X122277500Y-50735000D01*
G75*
G02*
X122515000Y-50972500I0J-237500D01*
G01*
G37*
%TD.AperFunction*%
%TO.P,R3,1*%
%TO.N,+3V3*%
%TA.AperFunction,SMDPad,CuDef*%
G36*
G01*
X124265000Y-50972500D02*
X124265000Y-51447500D01*
G75*
G02*
X124027500Y-51685000I-237500J0D01*
G01*
X123452500Y-51685000D01*
G75*
G02*
X123215000Y-51447500I0J237500D01*
G01*
X123215000Y-50972500D01*
G75*
G02*
X123452500Y-50735000I237500J0D01*
G01*
X124027500Y-50735000D01*
G75*
G02*
X124265000Y-50972500I0J-237500D01*
G01*
G37*
%TD.AperFunction*%
%TD*%
%TO.P,R4,2*%
%TO.N,GND*%
%TA.AperFunction,SMDPad,CuDef*%
G36*
G01*
X112585000Y-38917500D02*
X112585000Y-39262500D01*
G75*
G02*
X112437500Y-39410000I-147500J0D01*
G01*
X112142500Y-39410000D01*
G75*
G02*
X111995000Y-39262500I0J147500D01*
G01*
X111995000Y-38917500D01*
G75*
G02*
X112142500Y-38770000I147500J0D01*
G01*
X112437500Y-38770000D01*
G75*
G02*
X112585000Y-38917500I0J-147500D01*
G01*
G37*
%TD.AperFunction*%
%TO.P,R4,1*%
%TO.N,Net-(J1-PadB5)*%
%TA.AperFunction,SMDPad,CuDef*%
G36*
G01*
X113555000Y-38917500D02*
X113555000Y-39262500D01*
G75*
G02*
X113407500Y-39410000I-147500J0D01*
G01*
X113112500Y-39410000D01*
G75*
G02*
X112965000Y-39262500I0J147500D01*
G01*
X112965000Y-38917500D01*
G75*
G02*
X113112500Y-38770000I147500J0D01*
G01*
X113407500Y-38770000D01*
G75*
G02*
X113555000Y-38917500I0J-147500D01*
G01*
G37*
%TD.AperFunction*%
%TD*%
%TO.P,R5,1*%
%TO.N,Net-(J1-PadA5)*%
%TA.AperFunction,SMDPad,CuDef*%
G36*
G01*
X125812500Y-42905000D02*
X125467500Y-42905000D01*
G75*
G02*
X125320000Y-42757500I0J147500D01*
G01*
X125320000Y-42462500D01*
G75*
G02*
X125467500Y-42315000I147500J0D01*
G01*
X125812500Y-42315000D01*
G75*
G02*
X125960000Y-42462500I0J-147500D01*
G01*
X125960000Y-42757500D01*
G75*
G02*
X125812500Y-42905000I-147500J0D01*
G01*
G37*
%TD.AperFunction*%
%TO.P,R5,2*%
%TO.N,GND*%
%TA.AperFunction,SMDPad,CuDef*%
G36*
G01*
X125812500Y-41935000D02*
X125467500Y-41935000D01*
G75*
G02*
X125320000Y-41787500I0J147500D01*
G01*
X125320000Y-41492500D01*
G75*
G02*
X125467500Y-41345000I147500J0D01*
G01*
X125812500Y-41345000D01*
G75*
G02*
X125960000Y-41492500I0J-147500D01*
G01*
X125960000Y-41787500D01*
G75*
G02*
X125812500Y-41935000I-147500J0D01*
G01*
G37*
%TD.AperFunction*%
%TD*%
D23*
%TO.N,GND*%
X135880000Y-61990000D03*
X138440000Y-60930000D03*
X130730000Y-68380000D03*
X111360000Y-39090000D03*
X101700000Y-71650000D03*
X111500000Y-74820000D03*
X134020000Y-54440000D03*
X105330000Y-56050000D03*
X116870000Y-60140000D03*
X93740000Y-67710000D03*
X96780000Y-58580000D03*
X134100000Y-56380000D03*
X116890001Y-48560001D03*
X125670000Y-40280000D03*
%TO.N,+3V3*%
X130900000Y-66520000D03*
X105720000Y-42460000D03*
X113250000Y-74845000D03*
X133780000Y-60240000D03*
X104800000Y-73250000D03*
X100920000Y-56030000D03*
X116780000Y-58400000D03*
X125530000Y-51200000D03*
X139510000Y-58300000D03*
%TO.N,Row1*%
X140170000Y-94080000D03*
%TO.N,Row4*%
X140270000Y-151950000D03*
%TO.N,Row3*%
X140210000Y-132650000D03*
%TO.N,Row2*%
X140100000Y-113250000D03*
%TO.N,Row5*%
X140360000Y-171150000D03*
%TO.N,Net-(J1-PadA5)*%
X125750000Y-44310000D03*
%TO.N,Net-(J1-PadB5)*%
X113150000Y-40710000D03*
%TO.N,SWDIO*%
X131359424Y-67408220D03*
%TO.N,SWCLK*%
X114120000Y-53690000D03*
%TO.N,SWO*%
X118660000Y-73220000D03*
%TO.N,UART_RX*%
X110620000Y-66540000D03*
%TO.N,UART_TX*%
X110660000Y-65300000D03*
%TO.N,NRST*%
X108240000Y-64330000D03*
%TO.N,TS_BSY*%
X104520000Y-62680000D03*
X90510000Y-63890000D03*
%TO.N,TS_CS*%
X105220000Y-60080000D03*
X90510000Y-61350000D03*
%TO.N,SPI_MOSI*%
X106790000Y-54490000D03*
%TO.N,SPI_SCK*%
X107810000Y-52120000D03*
%TO.N,Net-(JP1-Pad2)*%
X109955000Y-42470000D03*
X106430000Y-56090000D03*
%TO.N,Col4*%
X134150000Y-81020000D03*
%TO.N,TS_IQR*%
X99150000Y-67400000D03*
%TD*%
D24*
%TO.N,GND*%
X114451058Y-60150000D02*
X114101058Y-60500000D01*
X115450000Y-60150000D02*
X114451058Y-60150000D01*
X104000000Y-56898942D02*
X104300000Y-57198942D01*
X104000000Y-56050000D02*
X104000000Y-56898942D01*
D25*
X111475000Y-73445000D02*
X111475000Y-74795000D01*
X111475000Y-74795000D02*
X111500000Y-74820000D01*
D26*
X135005000Y-54410000D02*
X135005000Y-54410000D01*
D25*
X116350000Y-43800000D02*
X116350000Y-42450000D01*
X122300000Y-41726458D02*
X122300000Y-42450000D01*
X120898533Y-40324991D02*
X122300000Y-41726458D01*
X117476468Y-40324990D02*
X120898533Y-40324991D01*
X116350000Y-41451458D02*
X117476468Y-40324990D01*
X116350000Y-42450000D02*
X116350000Y-41451458D01*
X122300000Y-42450000D02*
X122300000Y-43800000D01*
D26*
X111360000Y-40350000D02*
X111360000Y-39090000D01*
D24*
X110800000Y-71110000D02*
X111490000Y-71800000D01*
X110800000Y-69425000D02*
X110800000Y-71110000D01*
D26*
X104000000Y-56050000D02*
X105330000Y-56050000D01*
X115450000Y-60150000D02*
X116860000Y-60150000D01*
X116860000Y-60150000D02*
X116870000Y-60140000D01*
X139475000Y-60880000D02*
X139480000Y-60885000D01*
X134835000Y-62010000D02*
X134780000Y-61955000D01*
X96050000Y-60300000D02*
X96050000Y-59120000D01*
D25*
X134985000Y-54430000D02*
X135005000Y-54410000D01*
D27*
X135005000Y-56335000D02*
X134980000Y-56360000D01*
X135005000Y-54410000D02*
X135005000Y-56335000D01*
X134975000Y-54440000D02*
X135005000Y-54410000D01*
X134020000Y-54440000D02*
X134975000Y-54440000D01*
X134020000Y-56300000D02*
X134100000Y-56380000D01*
X134020000Y-54440000D02*
X134020000Y-56300000D01*
X134960000Y-56380000D02*
X134980000Y-56360000D01*
X134100000Y-56380000D02*
X134960000Y-56380000D01*
X135845000Y-61955000D02*
X135880000Y-61990000D01*
X134780000Y-61955000D02*
X135845000Y-61955000D01*
X139435000Y-60930000D02*
X139480000Y-60885000D01*
X138440000Y-60930000D02*
X139435000Y-60930000D01*
X101725000Y-71675000D02*
X101700000Y-71650000D01*
X103025000Y-71675000D02*
X101725000Y-71675000D01*
X111490000Y-73430000D02*
X111475000Y-73445000D01*
X111490000Y-71800000D02*
X111490000Y-73430000D01*
X111475000Y-74701262D02*
X111546869Y-74773131D01*
X111475000Y-73445000D02*
X111475000Y-74701262D01*
X93350000Y-67320000D02*
X93740000Y-67710000D01*
X93350000Y-66200000D02*
X93350000Y-67320000D01*
X93740000Y-68500000D02*
X93840000Y-68600000D01*
X93740000Y-67710000D02*
X93740000Y-68500000D01*
X95560000Y-58630000D02*
X96050000Y-59120000D01*
X95560000Y-58000000D02*
X95560000Y-58630000D01*
X96140000Y-58580000D02*
X95560000Y-58000000D01*
X96780000Y-58580000D02*
X96140000Y-58580000D01*
X96780000Y-59570000D02*
X96050000Y-60300000D01*
X96780000Y-58580000D02*
X96780000Y-59570000D01*
X95560000Y-59810000D02*
X96050000Y-60300000D01*
X95560000Y-58000000D02*
X95560000Y-59810000D01*
D24*
X119330000Y-47680000D02*
X119330000Y-48250000D01*
X119019999Y-48560001D02*
X116890001Y-48560001D01*
X119330000Y-48250000D02*
X119019999Y-48560001D01*
D26*
X125670000Y-41610000D02*
X125640000Y-41640000D01*
X125670000Y-40280000D02*
X125670000Y-41610000D01*
X112290000Y-39090000D02*
X111360000Y-39090000D01*
%TO.N,Net-(C1-Pad1)*%
X137305000Y-57310000D02*
X138780000Y-55835000D01*
X138780000Y-55835000D02*
X138780000Y-54335000D01*
X136980000Y-57310000D02*
X137305000Y-57310000D01*
D24*
X138950000Y-54165000D02*
X138780000Y-54335000D01*
X138950000Y-53740000D02*
X138950000Y-54165000D01*
D27*
X138705000Y-54410000D02*
X138780000Y-54335000D01*
X136755000Y-54410000D02*
X138705000Y-54410000D01*
X138950000Y-55340000D02*
X136980000Y-57310000D01*
X138950000Y-53740000D02*
X138950000Y-55340000D01*
X136755000Y-57085000D02*
X136980000Y-57310000D01*
X138950000Y-53740000D02*
X138950000Y-54280000D01*
X136755000Y-54410000D02*
X136755000Y-56475000D01*
X136755000Y-56475000D02*
X136755000Y-57085000D01*
X136755000Y-54555000D02*
X137715000Y-55515000D01*
X136755000Y-54410000D02*
X136755000Y-54555000D01*
X138950000Y-54280000D02*
X137715000Y-55515000D01*
X137715000Y-55515000D02*
X136755000Y-56475000D01*
D28*
%TO.N,+3V3*%
X104800000Y-69425000D02*
X104800000Y-71625000D01*
D24*
X113250000Y-73420000D02*
X113225000Y-73445000D01*
X114825000Y-58400000D02*
X113225000Y-60000000D01*
X115450000Y-58400000D02*
X114825000Y-58400000D01*
X102250000Y-56525000D02*
X103800000Y-58075000D01*
X102250000Y-56050000D02*
X102250000Y-56525000D01*
D26*
X135405000Y-59285000D02*
X139505000Y-59285000D01*
X134680000Y-60010000D02*
X135405000Y-59285000D01*
X134980000Y-59710000D02*
X134680000Y-60010000D01*
X134680000Y-60010000D02*
X134680000Y-60010000D01*
X134780000Y-60110000D02*
X134680000Y-60010000D01*
X134780000Y-60205000D02*
X134780000Y-60110000D01*
X134695000Y-60120000D02*
X134780000Y-60205000D01*
D24*
X113240000Y-71365000D02*
X113240000Y-71800000D01*
X111300000Y-69425000D02*
X113240000Y-71365000D01*
D28*
X104800000Y-71625000D02*
X104800000Y-71625000D01*
D26*
X102250000Y-56050000D02*
X100940000Y-56050000D01*
X100940000Y-56050000D02*
X100920000Y-56030000D01*
X115450000Y-58400000D02*
X116780000Y-58400000D01*
D27*
X133815000Y-60205000D02*
X133780000Y-60240000D01*
X134780000Y-60205000D02*
X133815000Y-60205000D01*
X133780000Y-59460000D02*
X134980000Y-58260000D01*
X133780000Y-60240000D02*
X133780000Y-59460000D01*
X134950000Y-59070000D02*
X134980000Y-59070000D01*
D26*
X134980000Y-58260000D02*
X134980000Y-59070000D01*
D27*
X133780000Y-60240000D02*
X134950000Y-59070000D01*
D26*
X134980000Y-59070000D02*
X134980000Y-59710000D01*
D27*
X139510000Y-59280000D02*
X139505000Y-59285000D01*
X139510000Y-58300000D02*
X139510000Y-59280000D01*
X125520000Y-51210000D02*
X125530000Y-51200000D01*
X123740000Y-51210000D02*
X125520000Y-51210000D01*
X104775000Y-73225000D02*
X104800000Y-73250000D01*
X104775000Y-71675000D02*
X104775000Y-73225000D01*
X113240000Y-73430000D02*
X113225000Y-73445000D01*
X113240000Y-71800000D02*
X113240000Y-73430000D01*
X113225000Y-74820000D02*
X113250000Y-74845000D01*
X113225000Y-73445000D02*
X113225000Y-74820000D01*
%TO.N,HSE_IN*%
X93350000Y-58460000D02*
X93810000Y-58000000D01*
X93350000Y-60300000D02*
X93350000Y-58460000D01*
D24*
X95050000Y-62000000D02*
X93350000Y-60300000D01*
X101875000Y-62000000D02*
X95050000Y-62000000D01*
D27*
%TO.N,HSE_OUT*%
X96050000Y-68140000D02*
X95590000Y-68600000D01*
X96050000Y-66200000D02*
X96050000Y-68140000D01*
D24*
X99750000Y-62500000D02*
X96050000Y-66200000D01*
X101875000Y-62500000D02*
X99750000Y-62500000D01*
%TO.N,Row1*%
X113225000Y-63000000D02*
X121150000Y-63000000D01*
X121150000Y-63000000D02*
X122560000Y-64410000D01*
X122560000Y-64410000D02*
X122560000Y-73580000D01*
X122560000Y-73580000D02*
X123670000Y-74690000D01*
X123670000Y-74690000D02*
X137360000Y-74690000D01*
X137360000Y-74690000D02*
X140170000Y-77500000D01*
X140170000Y-77500000D02*
X140170000Y-77570000D01*
D28*
X140170000Y-77500000D02*
X140170000Y-94080000D01*
%TO.N,Row4*%
X113225000Y-64500000D02*
X120634706Y-64500000D01*
X136174972Y-76115028D02*
X136179980Y-76110020D01*
X123079734Y-76115028D02*
X136174972Y-76115028D01*
X121134971Y-74170266D02*
X123079734Y-76115028D01*
X120634706Y-64500000D02*
X121134970Y-65000264D01*
X121134970Y-65000264D02*
X121134971Y-74170266D01*
X136179980Y-76110020D02*
X136835436Y-76110020D01*
X136835436Y-76110020D02*
X138250000Y-77524584D01*
X138250000Y-77524584D02*
X138250000Y-139070000D01*
X140270000Y-141090000D02*
X140270000Y-151950000D01*
X138250000Y-139070000D02*
X140270000Y-141090000D01*
%TO.N,Row3*%
X113225000Y-64000000D02*
X120771116Y-64000000D01*
X121584980Y-64813864D02*
X121584980Y-73983865D01*
X121584980Y-73983865D02*
X123266134Y-75665018D01*
X123266134Y-75665018D02*
X135974982Y-75665018D01*
X135979990Y-75660010D02*
X137021836Y-75660010D01*
X120771116Y-64000000D02*
X121584980Y-64813864D01*
X135974982Y-75665018D02*
X135979990Y-75660010D01*
X137021836Y-75660010D02*
X138830000Y-77468174D01*
X138830000Y-77468174D02*
X138830000Y-119460000D01*
X138830000Y-119460000D02*
X140210000Y-120840000D01*
X140210000Y-120840000D02*
X140210000Y-132650000D01*
D24*
%TO.N,Row2*%
X113225000Y-63500000D02*
X120942880Y-63500000D01*
X122059990Y-73787110D02*
X123462890Y-75190010D01*
X120942880Y-63500000D02*
X122059990Y-64617110D01*
X122059990Y-64617110D02*
X122059990Y-73787110D01*
D28*
X123462890Y-75190010D02*
X135920010Y-75190010D01*
X135920010Y-75190010D02*
X136879990Y-75190010D01*
X136880000Y-75190000D02*
X137180000Y-75190000D01*
X136879990Y-75190010D02*
X136880000Y-75190000D01*
X137200000Y-75210000D02*
X137208236Y-75210000D01*
X137180000Y-75190000D02*
X137200000Y-75210000D01*
X137180000Y-75190000D02*
X137188236Y-75190000D01*
X137188236Y-75190000D02*
X139290000Y-77291764D01*
X139290000Y-77291764D02*
X139290000Y-106280000D01*
X140100000Y-107090000D02*
X140100000Y-113250000D01*
X139290000Y-106280000D02*
X140100000Y-107090000D01*
%TO.N,Row5*%
X113225000Y-65000000D02*
X120498296Y-65000000D01*
X136364962Y-76565038D02*
X136369970Y-76560030D01*
X122893334Y-76565038D02*
X136364962Y-76565038D01*
X120684962Y-74356667D02*
X122893334Y-76565038D01*
X120498296Y-65000000D02*
X120684962Y-65186666D01*
X120684962Y-65186666D02*
X120684962Y-74356667D01*
X136369970Y-76560030D02*
X136649036Y-76560030D01*
X137799990Y-77710984D02*
X137799990Y-153459990D01*
X136649036Y-76560030D02*
X137799990Y-77710984D01*
X137799990Y-153459990D02*
X140360000Y-156020000D01*
X140360000Y-156020000D02*
X140360000Y-171150000D01*
D24*
%TO.N,+5V*%
X117200000Y-42450000D02*
X117200000Y-43800000D01*
X117725000Y-40925000D02*
X120650000Y-40925000D01*
X117200000Y-42450000D02*
X117200000Y-41450000D01*
X121450000Y-41725000D02*
X121450000Y-42450000D01*
X120650000Y-40925000D02*
X121450000Y-41725000D01*
X117200000Y-41450000D02*
X117725000Y-40925000D01*
X121450000Y-42450000D02*
X121450000Y-43800000D01*
D26*
X138950000Y-51690000D02*
X128820998Y-51690000D01*
D24*
X125659999Y-48560001D02*
X125675499Y-48544501D01*
D26*
X125675499Y-48544501D02*
X121450000Y-44319002D01*
D24*
X119330000Y-49880000D02*
X119330000Y-49260000D01*
X126070001Y-48999999D02*
X126100499Y-48969501D01*
X119330000Y-49260000D02*
X119590001Y-48999999D01*
X119590001Y-48999999D02*
X126070001Y-48999999D01*
D26*
X128820998Y-51690000D02*
X126100499Y-48969501D01*
X126100499Y-48969501D02*
X125675499Y-48544501D01*
D28*
%TO.N,Net-(J1-PadA5)*%
X125750000Y-42720000D02*
X125640000Y-42610000D01*
X125750000Y-44310000D02*
X125750000Y-42720000D01*
%TO.N,USB_D+*%
X118900000Y-42450000D02*
X118900000Y-42800998D01*
X119750000Y-43650998D02*
X119750000Y-43800000D01*
X118900000Y-42800998D02*
X119750000Y-43650998D01*
D29*
X119750000Y-43800000D02*
X119650001Y-43899999D01*
D30*
X119750000Y-43800000D02*
X119580001Y-43969999D01*
X119750000Y-43800000D02*
X119555000Y-43995000D01*
X118840000Y-44710000D02*
X118840000Y-46240000D01*
X119069999Y-44480001D02*
X118840000Y-44710000D01*
X119580001Y-43969999D02*
X119580001Y-44160551D01*
X119419999Y-46819999D02*
X119919001Y-46819999D01*
X119985001Y-46885999D02*
X119985001Y-47385001D01*
X119580001Y-44160551D02*
X119260551Y-44480001D01*
X119260551Y-44480001D02*
X119069999Y-44480001D01*
X118840000Y-46240000D02*
X119419999Y-46819999D01*
X119919001Y-46819999D02*
X119985001Y-46885999D01*
X119985001Y-47385001D02*
X120280000Y-47680000D01*
D29*
%TO.N,USB_D-*%
X118900000Y-43800000D02*
X118900000Y-43829756D01*
X118900000Y-43829756D02*
X118800001Y-43929755D01*
D30*
X118900000Y-43800000D02*
X118900000Y-43999461D01*
X118900000Y-43800000D02*
X119095000Y-43995000D01*
X118380000Y-46240000D02*
X118380000Y-47680000D01*
X118380000Y-44519461D02*
X118380000Y-46240000D01*
X118900000Y-43999461D02*
X118380000Y-44519461D01*
D24*
%TO.N,Net-(J1-PadB5)*%
X113150000Y-39200000D02*
X113260000Y-39090000D01*
X113150000Y-40710000D02*
X113150000Y-39200000D01*
%TO.N,SWDIO*%
X114944134Y-61000000D02*
X114984134Y-61040000D01*
X113225000Y-61000000D02*
X114944134Y-61000000D01*
X114984134Y-61040000D02*
X131560000Y-61040000D01*
X131560000Y-61040000D02*
X134350000Y-63830000D01*
X131497208Y-67408220D02*
X131359424Y-67408220D01*
X134350000Y-63830000D02*
X134350000Y-64555428D01*
X134350000Y-64555428D02*
X131497208Y-67408220D01*
%TO.N,SWCLK*%
X111300000Y-58075000D02*
X111300000Y-56510000D01*
X111300000Y-56510000D02*
X114120000Y-53690000D01*
%TO.N,SWO*%
X113440010Y-68000010D02*
X118660000Y-73220000D01*
X110970008Y-68000010D02*
X113440010Y-68000010D01*
X101875000Y-67000000D02*
X109969998Y-67000000D01*
X109969998Y-67000000D02*
X110970008Y-68000010D01*
D28*
%TO.N,UART_RX*%
X109800000Y-58075000D02*
X109800000Y-65720000D01*
X109800000Y-65720000D02*
X110620000Y-66540000D01*
%TO.N,UART_TX*%
X110300000Y-58075000D02*
X110300000Y-64940000D01*
X110300000Y-64940000D02*
X110660000Y-65300000D01*
%TO.N,NRST*%
X101875000Y-63000000D02*
X103794999Y-63000000D01*
X105124999Y-64330000D02*
X108240000Y-64330000D01*
X103794999Y-63000000D02*
X105124999Y-64330000D01*
D24*
%TO.N,LCD_LED*%
X81900000Y-71510000D02*
X97610000Y-71510000D01*
X99695000Y-69425000D02*
X103800000Y-69425000D01*
X97610000Y-71510000D02*
X99695000Y-69425000D01*
%TO.N,TS_BSY*%
X104469999Y-62629999D02*
X104520000Y-62680000D01*
X104800000Y-58075000D02*
X104800000Y-59389998D01*
X104469999Y-59719999D02*
X104469999Y-62629999D01*
X104800000Y-59389998D02*
X104469999Y-59719999D01*
X90510000Y-63890000D02*
X81900000Y-63890000D01*
%TO.N,TS_CS*%
X105300000Y-58075000D02*
X105300000Y-60000000D01*
X105300000Y-60000000D02*
X105220000Y-60080000D01*
X90510000Y-61350000D02*
X81900000Y-61350000D01*
%TO.N,SPI_MISO*%
X86970001Y-53739999D02*
X81900000Y-58810000D01*
X107800000Y-54389998D02*
X107150001Y-53739999D01*
X107150001Y-53739999D02*
X86970001Y-53739999D01*
X107800000Y-58075000D02*
X107800000Y-54389998D01*
%TO.N,SPI_MOSI*%
X107300000Y-58075000D02*
X107300000Y-55000000D01*
X107300000Y-55000000D02*
X106790000Y-54490000D01*
%TO.N,SPI_SCK*%
X108300000Y-58075000D02*
X108300000Y-52610000D01*
X108300000Y-52610000D02*
X107810000Y-52120000D01*
%TO.N,LCD_CS*%
X108800000Y-51150000D02*
X108800000Y-58075000D01*
X105150000Y-47500000D02*
X108800000Y-51150000D01*
X81900000Y-51190000D02*
X85590000Y-47500000D01*
X85590000Y-47500000D02*
X105150000Y-47500000D01*
%TO.N,LCD_DC*%
X109300000Y-58075000D02*
X109300000Y-50270000D01*
X109300000Y-50270000D02*
X105280000Y-46250000D01*
X84300000Y-46250000D02*
X81900000Y-48650000D01*
X105280000Y-46250000D02*
X84300000Y-46250000D01*
%TO.N,LCD_RST*%
X110800000Y-58075000D02*
X110800000Y-49780000D01*
X110800000Y-49780000D02*
X105880000Y-44860000D01*
X83150000Y-44860000D02*
X81900000Y-46110000D01*
X105880000Y-44860000D02*
X83150000Y-44860000D01*
D28*
%TO.N,Net-(JP1-Pad2)*%
X111080000Y-42470000D02*
X109955000Y-42470000D01*
X109955000Y-42470000D02*
X109955000Y-42470000D01*
D24*
X105800000Y-58075000D02*
X105800000Y-56720000D01*
X105800000Y-56720000D02*
X106430000Y-56090000D01*
D27*
%TO.N,Net-(LED1-Pad1)*%
X141255000Y-60860000D02*
X141230000Y-60885000D01*
X141255000Y-59285000D02*
X141255000Y-60860000D01*
D30*
%TO.N,USBD+*%
X112357238Y-61480010D02*
X113225000Y-61480010D01*
X113225000Y-61480010D02*
X113225000Y-61500000D01*
X113225000Y-58240270D02*
X113225000Y-58652228D01*
X113225000Y-58652228D02*
X112119990Y-59757238D01*
X112119990Y-59757238D02*
X112119990Y-61242762D01*
X112119990Y-61242762D02*
X112357238Y-61480010D01*
X120280000Y-49880000D02*
X120280000Y-50675001D01*
X119560000Y-51905270D02*
X113225000Y-58240270D01*
X120280000Y-50675001D02*
X119560000Y-51395001D01*
X119560000Y-51395001D02*
X119560000Y-51905270D01*
D25*
X120660000Y-49880000D02*
X121990000Y-51210000D01*
X120280000Y-49880000D02*
X120660000Y-49880000D01*
D28*
%TO.N,Col1*%
X86590000Y-89860000D02*
X86590000Y-109160000D01*
X86590000Y-109160000D02*
X86590000Y-128460000D01*
X86590000Y-128460000D02*
X86590000Y-147760000D01*
X86590000Y-147760000D02*
X86590000Y-166960000D01*
X108300000Y-69425000D02*
X108300000Y-73560000D01*
X108300000Y-73560000D02*
X102310000Y-79550000D01*
X102310000Y-79550000D02*
X92550000Y-79550000D01*
X90400000Y-81700000D02*
X90400000Y-86500000D01*
X92550000Y-79550000D02*
X90400000Y-81700000D01*
%TO.N,Col2*%
X105890000Y-166960000D02*
X105890000Y-147760000D01*
X105890000Y-147760000D02*
X105890000Y-128460000D01*
X105890000Y-128460000D02*
X105890000Y-109160000D01*
X105890000Y-109160000D02*
X105890000Y-89860000D01*
X108800000Y-69425000D02*
X108800000Y-82130000D01*
X109700000Y-83030000D02*
X109700000Y-86500000D01*
X108800000Y-82130000D02*
X109700000Y-83030000D01*
%TO.N,Col3*%
X125190000Y-89860000D02*
X125190000Y-109160000D01*
X125190000Y-109160000D02*
X125190000Y-128460000D01*
X125190000Y-128460000D02*
X125190000Y-147760000D01*
X125190000Y-147760000D02*
X125190000Y-166960000D01*
X109300000Y-69425000D02*
X109300000Y-78780000D01*
X109300000Y-78780000D02*
X112940000Y-82420000D01*
X124920000Y-82420000D02*
X129000000Y-86500000D01*
X112940000Y-82420000D02*
X124920000Y-82420000D01*
%TO.N,Col4*%
X144490000Y-166960000D02*
X144490000Y-147760000D01*
X144490000Y-147760000D02*
X144490000Y-128460000D01*
X144490000Y-128460000D02*
X144490000Y-109160000D01*
X144490000Y-109160000D02*
X144490000Y-89860000D01*
X116626998Y-81020000D02*
X134150000Y-81020000D01*
X109800000Y-69425000D02*
X109800000Y-74193002D01*
X109800000Y-74193002D02*
X116626998Y-81020000D01*
D30*
%TO.N,USBD-*%
X113205010Y-61980010D02*
X113225000Y-62000000D01*
X112206713Y-61980010D02*
X113205010Y-61980010D01*
X111659999Y-61433296D02*
X112206713Y-61980010D01*
X111659999Y-59566704D02*
X111659999Y-61433296D01*
X112765000Y-58461703D02*
X111659999Y-59566704D01*
X112765000Y-58049730D02*
X112765000Y-58461703D01*
X118380000Y-49880000D02*
X118380000Y-50675001D01*
X119100000Y-51395001D02*
X119100000Y-51714730D01*
X118380000Y-50675001D02*
X119100000Y-51395001D01*
X119100000Y-51714730D02*
X112765000Y-58049730D01*
D24*
%TO.N,TS_IQR*%
X99250000Y-67500000D02*
X101875000Y-67500000D01*
X99150000Y-67400000D02*
X99250000Y-67500000D01*
%TD*%
M02*
