M48
; DRILL file {KiCad (5.1.6)-1} date 12/15/20 22:49:53
; FORMAT={-:-/ absolute / inch / decimal}
; #@! TF.CreationDate,2020-12-15T22:49:53+02:00
; #@! TF.GenerationSoftware,Kicad,Pcbnew,(5.1.6)-1
; #@! TF.FileFunction,Plated,1,4,PTH
FMAT,2
INCH
T1C0.0157
T2C0.0197
T3C0.0236
T4C0.0394
T5C0.0472
T6C0.0579
T7C0.0866
T8C0.1063
%
G90
G05
T1
X3.5634Y-2.4154
X3.5634Y-2.5154
X3.6906Y-2.6657
X3.8102Y-2.3063
X3.9035Y-2.6535
X3.9732Y-2.2059
X4.0039Y-2.8209
X4.115Y-2.4677
X4.126Y-2.8839
X4.1425Y-2.3654
X4.1469Y-2.2067
X4.1622Y-1.6717
X4.1902Y-2.2083
X4.2043Y-2.1453
X4.2445Y-2.052
X4.2614Y-2.5327
X4.3289Y-1.672
X4.3551Y-2.6197
X4.3567Y-2.5709
X4.3843Y-1.539
X4.3898Y-2.9457
X4.4547Y-1.6028
X4.4587Y-2.9467
X4.4929Y-2.1138
X4.5976Y-2.2992
X4.6012Y-2.3677
X4.602Y-1.9118
X4.6717Y-2.8827
X4.9421Y-2.0157
X4.9476Y-1.5858
X4.9508Y-1.7445
X5.1469Y-2.6921
X5.1535Y-2.6189
X5.1716Y-2.6539
X5.2669Y-2.3717
X5.2764Y-2.1433
X5.2795Y-2.2197
X5.2815Y-3.1898
X5.3496Y-2.4406
X5.4504Y-2.3988
X5.4925Y-2.2953
X5.5157Y-4.4587
X5.5185Y-3.7039
X5.5201Y-5.2224
X5.5224Y-5.9823
X5.526Y-6.7382
X6.0335Y-1.6417
X6.0525Y-1.5958
X6.0525Y-1.6877
X6.0984Y-1.5768
X6.0984Y-1.7067
X6.1444Y-1.5958
X6.1444Y-1.6877
X6.1634Y-1.6417
X3.2382Y-3.0984
X3.2572Y-3.0525
X3.2572Y-3.1444
X3.3031Y-3.0335
X3.3031Y-3.1634
X3.3491Y-3.0525
X3.3491Y-3.1444
X3.3681Y-3.0984
X4.5807Y-1.6713
X4.5807Y-1.7244
X4.6142Y-1.6713
X4.6142Y-1.7244
X4.6476Y-1.6713
X4.6476Y-1.7244
X4.6811Y-1.6713
X4.6811Y-1.7244
X4.7146Y-1.6713
X4.7146Y-1.7244
X4.748Y-1.6713
X4.748Y-1.7244
X4.7815Y-1.6713
X4.7815Y-1.7244
X4.815Y-1.6713
X4.815Y-1.7244
X3.2382Y-1.6417
X3.2572Y-1.5958
X3.2572Y-1.6877
X3.3031Y-1.5768
X3.3031Y-1.7067
X3.3491Y-1.5958
X3.3491Y-1.6877
X3.3681Y-1.6417
X6.0335Y-3.0984
X6.0525Y-3.0525
X6.0525Y-3.1444
X6.0984Y-3.0335
X6.0984Y-3.1634
X6.1444Y-3.0525
X6.1444Y-3.1444
X6.1634Y-3.0984
T2
X6.1152Y-7.0295
X6.1385Y-6.9732
X6.1385Y-7.0859
X6.1949Y-6.9498
X6.1949Y-7.1093
X6.2513Y-6.9732
X6.2513Y-7.0859
X6.2746Y-7.0295
X4.6191Y-4.7785
X4.6424Y-4.7222
X4.6424Y-4.8349
X4.6988Y-4.6988
X4.6988Y-4.8583
X4.7552Y-4.7222
X4.7552Y-4.8349
X4.7785Y-4.7785
X6.1171Y-4.0157
X6.1405Y-3.9594
X6.1405Y-4.0721
X6.1969Y-3.936
X6.1969Y-4.0955
X6.2532Y-3.9594
X6.2532Y-4.0721
X6.2766Y-4.0157
X3.1201Y-7.0315
X3.1434Y-6.9751
X3.1434Y-7.0879
X3.1998Y-6.9518
X3.1998Y-7.1112
X3.2562Y-6.9751
X3.2562Y-7.0879
X3.2795Y-7.0315
X3.125Y-4.0157
X3.1484Y-3.9594
X3.1484Y-4.0721
X3.2047Y-3.936
X3.2047Y-4.0955
X3.2611Y-3.9594
X3.2611Y-4.0721
X3.2844Y-4.0157
T4
X3.2244Y-1.8154
X3.2244Y-1.9154
X3.2244Y-2.0154
X3.2244Y-2.1154
X3.2244Y-2.2154
X3.2244Y-2.3154
X3.2244Y-2.4154
X3.2244Y-2.5154
X3.2244Y-2.6154
X3.2244Y-2.7154
X3.2244Y-2.8154
X3.2244Y-2.9154
T5
X3.5591Y-4.9252
X3.7559Y-5.0079
X5.0787Y-4.9252
X5.2756Y-5.0079
X3.5591Y-3.4055
X3.7559Y-3.4882
X4.3189Y-3.4055
X4.5157Y-3.4882
X5.0787Y-5.685
X5.2756Y-5.7677
X4.3189Y-5.685
X4.5157Y-5.7677
X5.8386Y-4.1654
X6.0354Y-4.248
X3.5591Y-6.4409
X3.7559Y-6.5236
X4.3189Y-6.4409
X4.5157Y-6.5236
X4.3189Y-4.9252
X4.5157Y-5.0079
X4.3189Y-4.1654
X4.5157Y-4.248
X5.8386Y-5.685
X6.0354Y-5.7677
X5.0787Y-4.1654
X5.2756Y-4.248
X3.5591Y-4.1654
X3.7559Y-4.248
X5.8386Y-3.4055
X6.0354Y-3.4882
X5.8386Y-6.4409
X6.0354Y-6.5236
X3.5591Y-5.685
X3.7559Y-5.7677
X5.0787Y-3.4055
X5.2756Y-3.4882
X5.0787Y-6.4409
X5.2756Y-6.5236
X5.8386Y-4.9252
X6.0354Y-5.0079
T6
X4.1689Y-3.5378
X4.2205Y-3.4803
X4.4173Y-3.4606
X4.4189Y-3.4378
X4.9287Y-5.8173
X4.9803Y-5.7598
X5.1772Y-5.7402
X5.1787Y-5.7173
X4.1689Y-5.8173
X4.2205Y-5.7598
X4.4173Y-5.7402
X4.4189Y-5.7173
X5.6886Y-4.2976
X5.7402Y-4.2402
X5.937Y-4.2205
X5.9386Y-4.1976
X3.4091Y-6.5732
X3.4606Y-6.5157
X3.6575Y-6.4961
X3.6591Y-6.4732
X4.1689Y-6.5732
X4.2205Y-6.5157
X4.4173Y-6.4961
X4.4189Y-6.4732
X4.1689Y-5.0575
X4.2205Y-5.0
X4.4173Y-4.9803
X4.4189Y-4.9575
X4.1689Y-4.2976
X4.2205Y-4.2402
X4.4173Y-4.2205
X4.4189Y-4.1976
X5.6886Y-5.8173
X5.7402Y-5.7598
X5.937Y-5.7402
X5.9386Y-5.7173
X4.9287Y-4.2976
X4.9803Y-4.2402
X5.1772Y-4.2205
X5.1787Y-4.1976
X3.4091Y-4.2976
X3.4606Y-4.2402
X3.6575Y-4.2205
X3.6591Y-4.1976
X5.6886Y-3.5378
X5.7402Y-3.4803
X5.937Y-3.4606
X5.9386Y-3.4378
X5.6886Y-6.5732
X5.7402Y-6.5157
X5.937Y-6.4961
X5.9386Y-6.4732
X3.4091Y-5.8173
X3.4606Y-5.7598
X3.6575Y-5.7402
X3.6591Y-5.7173
X4.9287Y-3.5378
X4.9803Y-3.4803
X5.1772Y-3.4606
X5.1787Y-3.4378
X4.9287Y-6.5732
X4.9803Y-6.5157
X5.1772Y-6.4961
X5.1787Y-6.4732
X5.6886Y-5.0575
X5.7402Y-5.0
X5.937Y-4.9803
X5.9386Y-4.9575
X3.4091Y-5.0575
X3.4606Y-5.0
X3.6575Y-4.9803
X3.6591Y-4.9575
X4.9287Y-5.0575
X4.9803Y-5.0
X5.1772Y-4.9803
X5.1787Y-4.9575
X3.4091Y-3.5378
X3.4606Y-3.4803
X3.6575Y-3.4606
X3.6591Y-3.4378
T7
X3.3031Y-1.6417
X6.0984Y-1.6417
X3.3031Y-3.0984
X6.0984Y-3.0984
T8
X4.6988Y-4.7785
X6.1969Y-4.0157
X3.2047Y-4.0157
X6.1949Y-7.0295
X3.1998Y-7.0315
T3
G00X4.5276Y-1.5685
M15
G01X4.5276Y-1.537
M16
G05
G00X4.5276Y-1.7154
M15
G01X4.5276Y-1.6563
M16
G05
G00X4.8681Y-1.5685
M15
G01X4.8681Y-1.537
M16
G05
G00X4.8681Y-1.7154
M15
G01X4.8681Y-1.6563
M16
G05
T0
M30
