%TF.GenerationSoftware,KiCad,Pcbnew,(5.1.6)-1*%
%TF.CreationDate,2020-12-15T22:49:58+02:00*%
%TF.ProjectId,macropad,6d616372-6f70-4616-942e-6b696361645f,rev?*%
%TF.SameCoordinates,Original*%
%TF.FileFunction,Legend,Top*%
%TF.FilePolarity,Positive*%
%FSLAX46Y46*%
G04 Gerber Fmt 4.6, Leading zero omitted, Abs format (unit mm)*
G04 Created by KiCad (PCBNEW (5.1.6)-1) date 2020-12-15 22:49:58*
%MOMM*%
%LPD*%
G01*
G04 APERTURE LIST*
%ADD10C,0.150000*%
%ADD11C,0.120000*%
G04 APERTURE END LIST*
D10*
X103648571Y-65601428D02*
X103648571Y-66030000D01*
X103620000Y-66115714D01*
X103562857Y-66172857D01*
X103477142Y-66201428D01*
X103420000Y-66201428D01*
X104220000Y-66201428D02*
X103934285Y-66201428D01*
X103934285Y-65601428D01*
X104762857Y-66144285D02*
X104734285Y-66172857D01*
X104648571Y-66201428D01*
X104591428Y-66201428D01*
X104505714Y-66172857D01*
X104448571Y-66115714D01*
X104420000Y-66058571D01*
X104391428Y-65944285D01*
X104391428Y-65858571D01*
X104420000Y-65744285D01*
X104448571Y-65687142D01*
X104505714Y-65630000D01*
X104591428Y-65601428D01*
X104648571Y-65601428D01*
X104734285Y-65630000D01*
X104762857Y-65658571D01*
X105191428Y-65601428D02*
X105191428Y-66030000D01*
X105162857Y-66115714D01*
X105105714Y-66172857D01*
X105020000Y-66201428D01*
X104962857Y-66201428D01*
X105762857Y-66201428D02*
X105477142Y-66201428D01*
X105477142Y-65601428D01*
X106305714Y-66144285D02*
X106277142Y-66172857D01*
X106191428Y-66201428D01*
X106134285Y-66201428D01*
X106048571Y-66172857D01*
X105991428Y-66115714D01*
X105962857Y-66058571D01*
X105934285Y-65944285D01*
X105934285Y-65858571D01*
X105962857Y-65744285D01*
X105991428Y-65687142D01*
X106048571Y-65630000D01*
X106134285Y-65601428D01*
X106191428Y-65601428D01*
X106277142Y-65630000D01*
X106305714Y-65658571D01*
X106734285Y-65601428D02*
X106734285Y-66030000D01*
X106705714Y-66115714D01*
X106648571Y-66172857D01*
X106562857Y-66201428D01*
X106505714Y-66201428D01*
X107305714Y-66201428D02*
X107020000Y-66201428D01*
X107020000Y-65601428D01*
X107848571Y-66144285D02*
X107820000Y-66172857D01*
X107734285Y-66201428D01*
X107677142Y-66201428D01*
X107591428Y-66172857D01*
X107534285Y-66115714D01*
X107505714Y-66058571D01*
X107477142Y-65944285D01*
X107477142Y-65858571D01*
X107505714Y-65744285D01*
X107534285Y-65687142D01*
X107591428Y-65630000D01*
X107677142Y-65601428D01*
X107734285Y-65601428D01*
X107820000Y-65630000D01*
X107848571Y-65658571D01*
X108277142Y-65601428D02*
X108277142Y-66030000D01*
X108248571Y-66115714D01*
X108191428Y-66172857D01*
X108105714Y-66201428D01*
X108048571Y-66201428D01*
X108848571Y-66201428D02*
X108562857Y-66201428D01*
X108562857Y-65601428D01*
X109391428Y-66144285D02*
X109362857Y-66172857D01*
X109277142Y-66201428D01*
X109220000Y-66201428D01*
X109134285Y-66172857D01*
X109077142Y-66115714D01*
X109048571Y-66058571D01*
X109020000Y-65944285D01*
X109020000Y-65858571D01*
X109048571Y-65744285D01*
X109077142Y-65687142D01*
X109134285Y-65630000D01*
X109220000Y-65601428D01*
X109277142Y-65601428D01*
X109362857Y-65630000D01*
X109391428Y-65658571D01*
D11*
X91622971Y-59570000D02*
G75*
G03*
X91622971Y-59570000I-152971J0D01*
G01*
X121561529Y-47070000D02*
G75*
G03*
X121561529Y-47070000I-131529J0D01*
G01*
X133710830Y-55470000D02*
G75*
G03*
X133710830Y-55470000I-120830J0D01*
G01*
X100642971Y-60040000D02*
G75*
G03*
X100642971Y-60040000I-152971J0D01*
G01*
%TO.C,J3*%
X83230000Y-75380000D02*
X81900000Y-75380000D01*
X83230000Y-74050000D02*
X83230000Y-75380000D01*
X83230000Y-72780000D02*
X80570000Y-72780000D01*
X80570000Y-72780000D02*
X80570000Y-44780000D01*
X83230000Y-72780000D02*
X83230000Y-44780000D01*
X83230000Y-44780000D02*
X80570000Y-44780000D01*
%TO.C,FB1*%
X139660000Y-52976252D02*
X139660000Y-52453748D01*
X138240000Y-52976252D02*
X138240000Y-52453748D01*
%TO.C,J1*%
X123920000Y-41400000D02*
X123920000Y-40500000D01*
X114730000Y-41400000D02*
X114730000Y-40500000D01*
X123920000Y-37800000D02*
X123920000Y-35070000D01*
X114730000Y-37800000D02*
X114730000Y-35070000D01*
X123800000Y-44480000D02*
X114850000Y-44480000D01*
X123920000Y-35070000D02*
X114730000Y-35070000D01*
%TO.C,LED1*%
X142040000Y-58550000D02*
X139580000Y-58550000D01*
X142040000Y-60020000D02*
X142040000Y-58550000D01*
X139580000Y-60020000D02*
X142040000Y-60020000D01*
%TO.C,U1*%
X136740000Y-58890000D02*
X135280000Y-58890000D01*
X136740000Y-55730000D02*
X134580000Y-55730000D01*
X136740000Y-55730000D02*
X136740000Y-56660000D01*
X136740000Y-58890000D02*
X136740000Y-57960000D01*
%TO.C,U2*%
X120940000Y-49680000D02*
X120940000Y-47230000D01*
X117720000Y-47880000D02*
X117720000Y-49680000D01*
%TO.C,U3*%
X102440000Y-59590000D02*
X101100000Y-59590000D01*
X102440000Y-58640000D02*
X102440000Y-59590000D01*
X103390000Y-58640000D02*
X102440000Y-58640000D01*
X112660000Y-58640000D02*
X112660000Y-59590000D01*
X111710000Y-58640000D02*
X112660000Y-58640000D01*
X102440000Y-68860000D02*
X102440000Y-67910000D01*
X103390000Y-68860000D02*
X102440000Y-68860000D01*
X112660000Y-68860000D02*
X112660000Y-67910000D01*
X111710000Y-68860000D02*
X112660000Y-68860000D01*
%TO.C,Y1*%
X95000000Y-66950000D02*
X94400000Y-66950000D01*
X94400000Y-59550000D02*
X95000000Y-59550000D01*
X94400000Y-59050000D02*
X94400000Y-59550000D01*
X92000000Y-66950000D02*
X92300000Y-66950000D01*
X92000000Y-59550000D02*
X92000000Y-66950000D01*
X92300000Y-59550000D02*
X92000000Y-59550000D01*
X92300000Y-59050000D02*
X92300000Y-59550000D01*
X97400000Y-66950000D02*
X97100000Y-66950000D01*
X97400000Y-59550000D02*
X97400000Y-66950000D01*
X97100000Y-59550000D02*
X97400000Y-59550000D01*
%TO.C,C1*%
X136051267Y-53900000D02*
X135708733Y-53900000D01*
X136051267Y-54920000D02*
X135708733Y-54920000D01*
%TO.C,C2*%
X135290000Y-60908733D02*
X135290000Y-61251267D01*
X134270000Y-60908733D02*
X134270000Y-61251267D01*
%TO.C,C3*%
X112521267Y-73955000D02*
X112178733Y-73955000D01*
X112521267Y-72935000D02*
X112178733Y-72935000D01*
%TO.C,C4*%
X102953733Y-56560000D02*
X103296267Y-56560000D01*
X102953733Y-55540000D02*
X103296267Y-55540000D01*
%TO.C,C5*%
X115960000Y-59103733D02*
X115960000Y-59446267D01*
X114940000Y-59103733D02*
X114940000Y-59446267D01*
%TO.C,C6*%
X112536267Y-71290000D02*
X112193733Y-71290000D01*
X112536267Y-72310000D02*
X112193733Y-72310000D01*
%TO.C,C7*%
X104071267Y-72185000D02*
X103728733Y-72185000D01*
X104071267Y-71165000D02*
X103728733Y-71165000D01*
%TO.C,C8*%
X94513733Y-58510000D02*
X94856267Y-58510000D01*
X94513733Y-57490000D02*
X94856267Y-57490000D01*
%TO.C,C9*%
X94886267Y-69110000D02*
X94543733Y-69110000D01*
X94886267Y-68090000D02*
X94543733Y-68090000D01*
%TO.C,R1*%
X140526267Y-61395000D02*
X140183733Y-61395000D01*
X140526267Y-60375000D02*
X140183733Y-60375000D01*
%TO.C,R2*%
X110820000Y-41746267D02*
X110820000Y-41403733D01*
X111840000Y-41746267D02*
X111840000Y-41403733D01*
%TO.C,R3*%
X123036267Y-50700000D02*
X122693733Y-50700000D01*
X123036267Y-51720000D02*
X122693733Y-51720000D01*
%TO.C,J3*%
D10*
X81576666Y-75862380D02*
X81576666Y-76576666D01*
X81529047Y-76719523D01*
X81433809Y-76814761D01*
X81290952Y-76862380D01*
X81195714Y-76862380D01*
X81957619Y-75862380D02*
X82576666Y-75862380D01*
X82243333Y-76243333D01*
X82386190Y-76243333D01*
X82481428Y-76290952D01*
X82529047Y-76338571D01*
X82576666Y-76433809D01*
X82576666Y-76671904D01*
X82529047Y-76767142D01*
X82481428Y-76814761D01*
X82386190Y-76862380D01*
X82100476Y-76862380D01*
X82005238Y-76814761D01*
X81957619Y-76767142D01*
%TO.C,H9*%
X156588095Y-175302380D02*
X156588095Y-174302380D01*
X156588095Y-174778571D02*
X157159523Y-174778571D01*
X157159523Y-175302380D02*
X157159523Y-174302380D01*
X157683333Y-175302380D02*
X157873809Y-175302380D01*
X157969047Y-175254761D01*
X158016666Y-175207142D01*
X158111904Y-175064285D01*
X158159523Y-174873809D01*
X158159523Y-174492857D01*
X158111904Y-174397619D01*
X158064285Y-174350000D01*
X157969047Y-174302380D01*
X157778571Y-174302380D01*
X157683333Y-174350000D01*
X157635714Y-174397619D01*
X157588095Y-174492857D01*
X157588095Y-174730952D01*
X157635714Y-174826190D01*
X157683333Y-174873809D01*
X157778571Y-174921428D01*
X157969047Y-174921428D01*
X158064285Y-174873809D01*
X158111904Y-174826190D01*
X158159523Y-174730952D01*
%TO.C,H4*%
X154138095Y-75952380D02*
X154138095Y-74952380D01*
X154138095Y-75428571D02*
X154709523Y-75428571D01*
X154709523Y-75952380D02*
X154709523Y-74952380D01*
X155614285Y-75285714D02*
X155614285Y-75952380D01*
X155376190Y-74904761D02*
X155138095Y-75619047D01*
X155757142Y-75619047D01*
%TO.C,H3*%
X83158095Y-82462380D02*
X83158095Y-81462380D01*
X83158095Y-81938571D02*
X83729523Y-81938571D01*
X83729523Y-82462380D02*
X83729523Y-81462380D01*
X84110476Y-81462380D02*
X84729523Y-81462380D01*
X84396190Y-81843333D01*
X84539047Y-81843333D01*
X84634285Y-81890952D01*
X84681904Y-81938571D01*
X84729523Y-82033809D01*
X84729523Y-82271904D01*
X84681904Y-82367142D01*
X84634285Y-82414761D01*
X84539047Y-82462380D01*
X84253333Y-82462380D01*
X84158095Y-82414761D01*
X84110476Y-82367142D01*
%TO.C,H2*%
X154138095Y-38952380D02*
X154138095Y-37952380D01*
X154138095Y-38428571D02*
X154709523Y-38428571D01*
X154709523Y-38952380D02*
X154709523Y-37952380D01*
X155138095Y-38047619D02*
X155185714Y-38000000D01*
X155280952Y-37952380D01*
X155519047Y-37952380D01*
X155614285Y-38000000D01*
X155661904Y-38047619D01*
X155709523Y-38142857D01*
X155709523Y-38238095D01*
X155661904Y-38380952D01*
X155090476Y-38952380D01*
X155709523Y-38952380D01*
%TO.C,H1*%
X83138095Y-38952380D02*
X83138095Y-37952380D01*
X83138095Y-38428571D02*
X83709523Y-38428571D01*
X83709523Y-38952380D02*
X83709523Y-37952380D01*
X84709523Y-38952380D02*
X84138095Y-38952380D01*
X84423809Y-38952380D02*
X84423809Y-37952380D01*
X84328571Y-38095238D01*
X84233333Y-38190476D01*
X84138095Y-38238095D01*
%TO.C,FB1*%
X140678571Y-53648333D02*
X140678571Y-53981666D01*
X141202380Y-53981666D02*
X140202380Y-53981666D01*
X140202380Y-53505476D01*
X140678571Y-52791190D02*
X140726190Y-52648333D01*
X140773809Y-52600714D01*
X140869047Y-52553095D01*
X141011904Y-52553095D01*
X141107142Y-52600714D01*
X141154761Y-52648333D01*
X141202380Y-52743571D01*
X141202380Y-53124523D01*
X140202380Y-53124523D01*
X140202380Y-52791190D01*
X140250000Y-52695952D01*
X140297619Y-52648333D01*
X140392857Y-52600714D01*
X140488095Y-52600714D01*
X140583333Y-52648333D01*
X140630952Y-52695952D01*
X140678571Y-52791190D01*
X140678571Y-53124523D01*
X141202380Y-51600714D02*
X141202380Y-52172142D01*
X141202380Y-51886428D02*
X140202380Y-51886428D01*
X140345238Y-51981666D01*
X140440476Y-52076904D01*
X140488095Y-52172142D01*
%TO.C,H5*%
X80638095Y-98752380D02*
X80638095Y-97752380D01*
X80638095Y-98228571D02*
X81209523Y-98228571D01*
X81209523Y-98752380D02*
X81209523Y-97752380D01*
X82161904Y-97752380D02*
X81685714Y-97752380D01*
X81638095Y-98228571D01*
X81685714Y-98180952D01*
X81780952Y-98133333D01*
X82019047Y-98133333D01*
X82114285Y-98180952D01*
X82161904Y-98228571D01*
X82209523Y-98323809D01*
X82209523Y-98561904D01*
X82161904Y-98657142D01*
X82114285Y-98704761D01*
X82019047Y-98752380D01*
X81780952Y-98752380D01*
X81685714Y-98704761D01*
X81638095Y-98657142D01*
%TO.C,H6*%
X156638095Y-98752380D02*
X156638095Y-97752380D01*
X156638095Y-98228571D02*
X157209523Y-98228571D01*
X157209523Y-98752380D02*
X157209523Y-97752380D01*
X158114285Y-97752380D02*
X157923809Y-97752380D01*
X157828571Y-97800000D01*
X157780952Y-97847619D01*
X157685714Y-97990476D01*
X157638095Y-98180952D01*
X157638095Y-98561904D01*
X157685714Y-98657142D01*
X157733333Y-98704761D01*
X157828571Y-98752380D01*
X158019047Y-98752380D01*
X158114285Y-98704761D01*
X158161904Y-98657142D01*
X158209523Y-98561904D01*
X158209523Y-98323809D01*
X158161904Y-98228571D01*
X158114285Y-98180952D01*
X158019047Y-98133333D01*
X157828571Y-98133333D01*
X157733333Y-98180952D01*
X157685714Y-98228571D01*
X157638095Y-98323809D01*
%TO.C,H7*%
X118588095Y-118127380D02*
X118588095Y-117127380D01*
X118588095Y-117603571D02*
X119159523Y-117603571D01*
X119159523Y-118127380D02*
X119159523Y-117127380D01*
X119540476Y-117127380D02*
X120207142Y-117127380D01*
X119778571Y-118127380D01*
%TO.C,H8*%
X80513095Y-175352380D02*
X80513095Y-174352380D01*
X80513095Y-174828571D02*
X81084523Y-174828571D01*
X81084523Y-175352380D02*
X81084523Y-174352380D01*
X81703571Y-174780952D02*
X81608333Y-174733333D01*
X81560714Y-174685714D01*
X81513095Y-174590476D01*
X81513095Y-174542857D01*
X81560714Y-174447619D01*
X81608333Y-174400000D01*
X81703571Y-174352380D01*
X81894047Y-174352380D01*
X81989285Y-174400000D01*
X82036904Y-174447619D01*
X82084523Y-174542857D01*
X82084523Y-174590476D01*
X82036904Y-174685714D01*
X81989285Y-174733333D01*
X81894047Y-174780952D01*
X81703571Y-174780952D01*
X81608333Y-174828571D01*
X81560714Y-174876190D01*
X81513095Y-174971428D01*
X81513095Y-175161904D01*
X81560714Y-175257142D01*
X81608333Y-175304761D01*
X81703571Y-175352380D01*
X81894047Y-175352380D01*
X81989285Y-175304761D01*
X82036904Y-175257142D01*
X82084523Y-175161904D01*
X82084523Y-174971428D01*
X82036904Y-174876190D01*
X81989285Y-174828571D01*
X81894047Y-174780952D01*
%TO.C,J1*%
X118991666Y-45052380D02*
X118991666Y-45766666D01*
X118944047Y-45909523D01*
X118848809Y-46004761D01*
X118705952Y-46052380D01*
X118610714Y-46052380D01*
X119991666Y-46052380D02*
X119420238Y-46052380D01*
X119705952Y-46052380D02*
X119705952Y-45052380D01*
X119610714Y-45195238D01*
X119515476Y-45290476D01*
X119420238Y-45338095D01*
%TO.C,LED1*%
X142785952Y-59787380D02*
X142309761Y-59787380D01*
X142309761Y-58787380D01*
X143119285Y-59263571D02*
X143452619Y-59263571D01*
X143595476Y-59787380D02*
X143119285Y-59787380D01*
X143119285Y-58787380D01*
X143595476Y-58787380D01*
X144024047Y-59787380D02*
X144024047Y-58787380D01*
X144262142Y-58787380D01*
X144405000Y-58835000D01*
X144500238Y-58930238D01*
X144547857Y-59025476D01*
X144595476Y-59215952D01*
X144595476Y-59358809D01*
X144547857Y-59549285D01*
X144500238Y-59644523D01*
X144405000Y-59739761D01*
X144262142Y-59787380D01*
X144024047Y-59787380D01*
X145547857Y-59787380D02*
X144976428Y-59787380D01*
X145262142Y-59787380D02*
X145262142Y-58787380D01*
X145166904Y-58930238D01*
X145071666Y-59025476D01*
X144976428Y-59073095D01*
%TO.C,U1*%
X132418095Y-56752380D02*
X132418095Y-57561904D01*
X132465714Y-57657142D01*
X132513333Y-57704761D01*
X132608571Y-57752380D01*
X132799047Y-57752380D01*
X132894285Y-57704761D01*
X132941904Y-57657142D01*
X132989523Y-57561904D01*
X132989523Y-56752380D01*
X133989523Y-57752380D02*
X133418095Y-57752380D01*
X133703809Y-57752380D02*
X133703809Y-56752380D01*
X133608571Y-56895238D01*
X133513333Y-56990476D01*
X133418095Y-57038095D01*
%TO.C,U2*%
X121682380Y-49541904D02*
X122491904Y-49541904D01*
X122587142Y-49494285D01*
X122634761Y-49446666D01*
X122682380Y-49351428D01*
X122682380Y-49160952D01*
X122634761Y-49065714D01*
X122587142Y-49018095D01*
X122491904Y-48970476D01*
X121682380Y-48970476D01*
X121777619Y-48541904D02*
X121730000Y-48494285D01*
X121682380Y-48399047D01*
X121682380Y-48160952D01*
X121730000Y-48065714D01*
X121777619Y-48018095D01*
X121872857Y-47970476D01*
X121968095Y-47970476D01*
X122110952Y-48018095D01*
X122682380Y-48589523D01*
X122682380Y-47970476D01*
%TO.C,U3*%
X106788095Y-55802380D02*
X106788095Y-56611904D01*
X106835714Y-56707142D01*
X106883333Y-56754761D01*
X106978571Y-56802380D01*
X107169047Y-56802380D01*
X107264285Y-56754761D01*
X107311904Y-56707142D01*
X107359523Y-56611904D01*
X107359523Y-55802380D01*
X107740476Y-55802380D02*
X108359523Y-55802380D01*
X108026190Y-56183333D01*
X108169047Y-56183333D01*
X108264285Y-56230952D01*
X108311904Y-56278571D01*
X108359523Y-56373809D01*
X108359523Y-56611904D01*
X108311904Y-56707142D01*
X108264285Y-56754761D01*
X108169047Y-56802380D01*
X107883333Y-56802380D01*
X107788095Y-56754761D01*
X107740476Y-56707142D01*
%TO.C,Y1*%
X98376190Y-63726190D02*
X98852380Y-63726190D01*
X97852380Y-64059523D02*
X98376190Y-63726190D01*
X97852380Y-63392857D01*
X98852380Y-62535714D02*
X98852380Y-63107142D01*
X98852380Y-62821428D02*
X97852380Y-62821428D01*
X97995238Y-62916666D01*
X98090476Y-63011904D01*
X98138095Y-63107142D01*
%TO.C,C1*%
X134713333Y-53367142D02*
X134665714Y-53414761D01*
X134522857Y-53462380D01*
X134427619Y-53462380D01*
X134284761Y-53414761D01*
X134189523Y-53319523D01*
X134141904Y-53224285D01*
X134094285Y-53033809D01*
X134094285Y-52890952D01*
X134141904Y-52700476D01*
X134189523Y-52605238D01*
X134284761Y-52510000D01*
X134427619Y-52462380D01*
X134522857Y-52462380D01*
X134665714Y-52510000D01*
X134713333Y-52557619D01*
X135665714Y-53462380D02*
X135094285Y-53462380D01*
X135380000Y-53462380D02*
X135380000Y-52462380D01*
X135284761Y-52605238D01*
X135189523Y-52700476D01*
X135094285Y-52748095D01*
%TO.C,C2*%
X135147142Y-64046666D02*
X135194761Y-64094285D01*
X135242380Y-64237142D01*
X135242380Y-64332380D01*
X135194761Y-64475238D01*
X135099523Y-64570476D01*
X135004285Y-64618095D01*
X134813809Y-64665714D01*
X134670952Y-64665714D01*
X134480476Y-64618095D01*
X134385238Y-64570476D01*
X134290000Y-64475238D01*
X134242380Y-64332380D01*
X134242380Y-64237142D01*
X134290000Y-64094285D01*
X134337619Y-64046666D01*
X134337619Y-63665714D02*
X134290000Y-63618095D01*
X134242380Y-63522857D01*
X134242380Y-63284761D01*
X134290000Y-63189523D01*
X134337619Y-63141904D01*
X134432857Y-63094285D01*
X134528095Y-63094285D01*
X134670952Y-63141904D01*
X135242380Y-63713333D01*
X135242380Y-63094285D01*
%TO.C,C3*%
X114883333Y-73917142D02*
X114835714Y-73964761D01*
X114692857Y-74012380D01*
X114597619Y-74012380D01*
X114454761Y-73964761D01*
X114359523Y-73869523D01*
X114311904Y-73774285D01*
X114264285Y-73583809D01*
X114264285Y-73440952D01*
X114311904Y-73250476D01*
X114359523Y-73155238D01*
X114454761Y-73060000D01*
X114597619Y-73012380D01*
X114692857Y-73012380D01*
X114835714Y-73060000D01*
X114883333Y-73107619D01*
X115216666Y-73012380D02*
X115835714Y-73012380D01*
X115502380Y-73393333D01*
X115645238Y-73393333D01*
X115740476Y-73440952D01*
X115788095Y-73488571D01*
X115835714Y-73583809D01*
X115835714Y-73821904D01*
X115788095Y-73917142D01*
X115740476Y-73964761D01*
X115645238Y-74012380D01*
X115359523Y-74012380D01*
X115264285Y-73964761D01*
X115216666Y-73917142D01*
%TO.C,C4*%
X102958333Y-54977142D02*
X102910714Y-55024761D01*
X102767857Y-55072380D01*
X102672619Y-55072380D01*
X102529761Y-55024761D01*
X102434523Y-54929523D01*
X102386904Y-54834285D01*
X102339285Y-54643809D01*
X102339285Y-54500952D01*
X102386904Y-54310476D01*
X102434523Y-54215238D01*
X102529761Y-54120000D01*
X102672619Y-54072380D01*
X102767857Y-54072380D01*
X102910714Y-54120000D01*
X102958333Y-54167619D01*
X103815476Y-54405714D02*
X103815476Y-55072380D01*
X103577380Y-54024761D02*
X103339285Y-54739047D01*
X103958333Y-54739047D01*
%TO.C,C5*%
X115767142Y-56696666D02*
X115814761Y-56744285D01*
X115862380Y-56887142D01*
X115862380Y-56982380D01*
X115814761Y-57125238D01*
X115719523Y-57220476D01*
X115624285Y-57268095D01*
X115433809Y-57315714D01*
X115290952Y-57315714D01*
X115100476Y-57268095D01*
X115005238Y-57220476D01*
X114910000Y-57125238D01*
X114862380Y-56982380D01*
X114862380Y-56887142D01*
X114910000Y-56744285D01*
X114957619Y-56696666D01*
X114862380Y-55791904D02*
X114862380Y-56268095D01*
X115338571Y-56315714D01*
X115290952Y-56268095D01*
X115243333Y-56172857D01*
X115243333Y-55934761D01*
X115290952Y-55839523D01*
X115338571Y-55791904D01*
X115433809Y-55744285D01*
X115671904Y-55744285D01*
X115767142Y-55791904D01*
X115814761Y-55839523D01*
X115862380Y-55934761D01*
X115862380Y-56172857D01*
X115814761Y-56268095D01*
X115767142Y-56315714D01*
%TO.C,C6*%
X114963333Y-72257142D02*
X114915714Y-72304761D01*
X114772857Y-72352380D01*
X114677619Y-72352380D01*
X114534761Y-72304761D01*
X114439523Y-72209523D01*
X114391904Y-72114285D01*
X114344285Y-71923809D01*
X114344285Y-71780952D01*
X114391904Y-71590476D01*
X114439523Y-71495238D01*
X114534761Y-71400000D01*
X114677619Y-71352380D01*
X114772857Y-71352380D01*
X114915714Y-71400000D01*
X114963333Y-71447619D01*
X115820476Y-71352380D02*
X115630000Y-71352380D01*
X115534761Y-71400000D01*
X115487142Y-71447619D01*
X115391904Y-71590476D01*
X115344285Y-71780952D01*
X115344285Y-72161904D01*
X115391904Y-72257142D01*
X115439523Y-72304761D01*
X115534761Y-72352380D01*
X115725238Y-72352380D01*
X115820476Y-72304761D01*
X115868095Y-72257142D01*
X115915714Y-72161904D01*
X115915714Y-71923809D01*
X115868095Y-71828571D01*
X115820476Y-71780952D01*
X115725238Y-71733333D01*
X115534761Y-71733333D01*
X115439523Y-71780952D01*
X115391904Y-71828571D01*
X115344285Y-71923809D01*
%TO.C,C7*%
X102533333Y-73637142D02*
X102485714Y-73684761D01*
X102342857Y-73732380D01*
X102247619Y-73732380D01*
X102104761Y-73684761D01*
X102009523Y-73589523D01*
X101961904Y-73494285D01*
X101914285Y-73303809D01*
X101914285Y-73160952D01*
X101961904Y-72970476D01*
X102009523Y-72875238D01*
X102104761Y-72780000D01*
X102247619Y-72732380D01*
X102342857Y-72732380D01*
X102485714Y-72780000D01*
X102533333Y-72827619D01*
X102866666Y-72732380D02*
X103533333Y-72732380D01*
X103104761Y-73732380D01*
%TO.C,C8*%
X94518333Y-56927142D02*
X94470714Y-56974761D01*
X94327857Y-57022380D01*
X94232619Y-57022380D01*
X94089761Y-56974761D01*
X93994523Y-56879523D01*
X93946904Y-56784285D01*
X93899285Y-56593809D01*
X93899285Y-56450952D01*
X93946904Y-56260476D01*
X93994523Y-56165238D01*
X94089761Y-56070000D01*
X94232619Y-56022380D01*
X94327857Y-56022380D01*
X94470714Y-56070000D01*
X94518333Y-56117619D01*
X95089761Y-56450952D02*
X94994523Y-56403333D01*
X94946904Y-56355714D01*
X94899285Y-56260476D01*
X94899285Y-56212857D01*
X94946904Y-56117619D01*
X94994523Y-56070000D01*
X95089761Y-56022380D01*
X95280238Y-56022380D01*
X95375476Y-56070000D01*
X95423095Y-56117619D01*
X95470714Y-56212857D01*
X95470714Y-56260476D01*
X95423095Y-56355714D01*
X95375476Y-56403333D01*
X95280238Y-56450952D01*
X95089761Y-56450952D01*
X94994523Y-56498571D01*
X94946904Y-56546190D01*
X94899285Y-56641428D01*
X94899285Y-56831904D01*
X94946904Y-56927142D01*
X94994523Y-56974761D01*
X95089761Y-57022380D01*
X95280238Y-57022380D01*
X95375476Y-56974761D01*
X95423095Y-56927142D01*
X95470714Y-56831904D01*
X95470714Y-56641428D01*
X95423095Y-56546190D01*
X95375476Y-56498571D01*
X95280238Y-56450952D01*
%TO.C,C9*%
X94548333Y-70387142D02*
X94500714Y-70434761D01*
X94357857Y-70482380D01*
X94262619Y-70482380D01*
X94119761Y-70434761D01*
X94024523Y-70339523D01*
X93976904Y-70244285D01*
X93929285Y-70053809D01*
X93929285Y-69910952D01*
X93976904Y-69720476D01*
X94024523Y-69625238D01*
X94119761Y-69530000D01*
X94262619Y-69482380D01*
X94357857Y-69482380D01*
X94500714Y-69530000D01*
X94548333Y-69577619D01*
X95024523Y-70482380D02*
X95215000Y-70482380D01*
X95310238Y-70434761D01*
X95357857Y-70387142D01*
X95453095Y-70244285D01*
X95500714Y-70053809D01*
X95500714Y-69672857D01*
X95453095Y-69577619D01*
X95405476Y-69530000D01*
X95310238Y-69482380D01*
X95119761Y-69482380D01*
X95024523Y-69530000D01*
X94976904Y-69577619D01*
X94929285Y-69672857D01*
X94929285Y-69910952D01*
X94976904Y-70006190D01*
X95024523Y-70053809D01*
X95119761Y-70101428D01*
X95310238Y-70101428D01*
X95405476Y-70053809D01*
X95453095Y-70006190D01*
X95500714Y-69910952D01*
%TO.C,R1*%
X142763333Y-61412380D02*
X142430000Y-60936190D01*
X142191904Y-61412380D02*
X142191904Y-60412380D01*
X142572857Y-60412380D01*
X142668095Y-60460000D01*
X142715714Y-60507619D01*
X142763333Y-60602857D01*
X142763333Y-60745714D01*
X142715714Y-60840952D01*
X142668095Y-60888571D01*
X142572857Y-60936190D01*
X142191904Y-60936190D01*
X143715714Y-61412380D02*
X143144285Y-61412380D01*
X143430000Y-61412380D02*
X143430000Y-60412380D01*
X143334761Y-60555238D01*
X143239523Y-60650476D01*
X143144285Y-60698095D01*
%TO.C,R2*%
X110352380Y-41741666D02*
X109876190Y-42075000D01*
X110352380Y-42313095D02*
X109352380Y-42313095D01*
X109352380Y-41932142D01*
X109400000Y-41836904D01*
X109447619Y-41789285D01*
X109542857Y-41741666D01*
X109685714Y-41741666D01*
X109780952Y-41789285D01*
X109828571Y-41836904D01*
X109876190Y-41932142D01*
X109876190Y-42313095D01*
X109447619Y-41360714D02*
X109400000Y-41313095D01*
X109352380Y-41217857D01*
X109352380Y-40979761D01*
X109400000Y-40884523D01*
X109447619Y-40836904D01*
X109542857Y-40789285D01*
X109638095Y-40789285D01*
X109780952Y-40836904D01*
X110352380Y-41408333D01*
X110352380Y-40789285D01*
%TO.C,R3*%
X122698333Y-53092380D02*
X122365000Y-52616190D01*
X122126904Y-53092380D02*
X122126904Y-52092380D01*
X122507857Y-52092380D01*
X122603095Y-52140000D01*
X122650714Y-52187619D01*
X122698333Y-52282857D01*
X122698333Y-52425714D01*
X122650714Y-52520952D01*
X122603095Y-52568571D01*
X122507857Y-52616190D01*
X122126904Y-52616190D01*
X123031666Y-52092380D02*
X123650714Y-52092380D01*
X123317380Y-52473333D01*
X123460238Y-52473333D01*
X123555476Y-52520952D01*
X123603095Y-52568571D01*
X123650714Y-52663809D01*
X123650714Y-52901904D01*
X123603095Y-52997142D01*
X123555476Y-53044761D01*
X123460238Y-53092380D01*
X123174523Y-53092380D01*
X123079285Y-53044761D01*
X123031666Y-52997142D01*
%TO.C,R4*%
X112608333Y-40712380D02*
X112275000Y-40236190D01*
X112036904Y-40712380D02*
X112036904Y-39712380D01*
X112417857Y-39712380D01*
X112513095Y-39760000D01*
X112560714Y-39807619D01*
X112608333Y-39902857D01*
X112608333Y-40045714D01*
X112560714Y-40140952D01*
X112513095Y-40188571D01*
X112417857Y-40236190D01*
X112036904Y-40236190D01*
X113465476Y-40045714D02*
X113465476Y-40712380D01*
X113227380Y-39664761D02*
X112989285Y-40379047D01*
X113608333Y-40379047D01*
%TO.C,R5*%
X127642380Y-42316666D02*
X127166190Y-42650000D01*
X127642380Y-42888095D02*
X126642380Y-42888095D01*
X126642380Y-42507142D01*
X126690000Y-42411904D01*
X126737619Y-42364285D01*
X126832857Y-42316666D01*
X126975714Y-42316666D01*
X127070952Y-42364285D01*
X127118571Y-42411904D01*
X127166190Y-42507142D01*
X127166190Y-42888095D01*
X126642380Y-41411904D02*
X126642380Y-41888095D01*
X127118571Y-41935714D01*
X127070952Y-41888095D01*
X127023333Y-41792857D01*
X127023333Y-41554761D01*
X127070952Y-41459523D01*
X127118571Y-41411904D01*
X127213809Y-41364285D01*
X127451904Y-41364285D01*
X127547142Y-41411904D01*
X127594761Y-41459523D01*
X127642380Y-41554761D01*
X127642380Y-41792857D01*
X127594761Y-41888095D01*
X127547142Y-41935714D01*
%TD*%
M02*
