%TF.GenerationSoftware,KiCad,Pcbnew,(5.1.6)-1*%
%TF.CreationDate,2020-12-15T22:49:58+02:00*%
%TF.ProjectId,macropad,6d616372-6f70-4616-942e-6b696361645f,rev?*%
%TF.SameCoordinates,Original*%
%TF.FileFunction,Paste,Top*%
%TF.FilePolarity,Positive*%
%FSLAX46Y46*%
G04 Gerber Fmt 4.6, Leading zero omitted, Abs format (unit mm)*
G04 Created by KiCad (PCBNEW (5.1.6)-1) date 2020-12-15 22:49:58*
%MOMM*%
%LPD*%
G01*
G04 APERTURE LIST*
%ADD10R,0.900000X0.800000*%
%ADD11R,0.650000X1.060000*%
%ADD12R,1.700000X2.100000*%
G04 APERTURE END LIST*
%TO.C,FB1*%
G36*
G01*
X139400001Y-54315000D02*
X138499999Y-54315000D01*
G75*
G02*
X138250000Y-54065001I0J249999D01*
G01*
X138250000Y-53414999D01*
G75*
G02*
X138499999Y-53165000I249999J0D01*
G01*
X139400001Y-53165000D01*
G75*
G02*
X139650000Y-53414999I0J-249999D01*
G01*
X139650000Y-54065001D01*
G75*
G02*
X139400001Y-54315000I-249999J0D01*
G01*
G37*
G36*
G01*
X139400001Y-52265000D02*
X138499999Y-52265000D01*
G75*
G02*
X138250000Y-52015001I0J249999D01*
G01*
X138250000Y-51364999D01*
G75*
G02*
X138499999Y-51115000I249999J0D01*
G01*
X139400001Y-51115000D01*
G75*
G02*
X139650000Y-51364999I0J-249999D01*
G01*
X139650000Y-52015001D01*
G75*
G02*
X139400001Y-52265000I-249999J0D01*
G01*
G37*
%TD*%
%TO.C,LED1*%
G36*
G01*
X141780000Y-59047500D02*
X141780000Y-59522500D01*
G75*
G02*
X141542500Y-59760000I-237500J0D01*
G01*
X140967500Y-59760000D01*
G75*
G02*
X140730000Y-59522500I0J237500D01*
G01*
X140730000Y-59047500D01*
G75*
G02*
X140967500Y-58810000I237500J0D01*
G01*
X141542500Y-58810000D01*
G75*
G02*
X141780000Y-59047500I0J-237500D01*
G01*
G37*
G36*
G01*
X140030000Y-59047500D02*
X140030000Y-59522500D01*
G75*
G02*
X139792500Y-59760000I-237500J0D01*
G01*
X139217500Y-59760000D01*
G75*
G02*
X138980000Y-59522500I0J237500D01*
G01*
X138980000Y-59047500D01*
G75*
G02*
X139217500Y-58810000I237500J0D01*
G01*
X139792500Y-58810000D01*
G75*
G02*
X140030000Y-59047500I0J-237500D01*
G01*
G37*
%TD*%
D10*
%TO.C,U1*%
X134980000Y-56360000D03*
X134980000Y-58260000D03*
X136980000Y-57310000D03*
%TD*%
D11*
%TO.C,U2*%
X120280000Y-47680000D03*
X119330000Y-47680000D03*
X118380000Y-47680000D03*
X118380000Y-49880000D03*
X120280000Y-49880000D03*
X119330000Y-49880000D03*
%TD*%
%TO.C,U3*%
G36*
G01*
X101100000Y-60075000D02*
X101100000Y-59925000D01*
G75*
G02*
X101175000Y-59850000I75000J0D01*
G01*
X102575000Y-59850000D01*
G75*
G02*
X102650000Y-59925000I0J-75000D01*
G01*
X102650000Y-60075000D01*
G75*
G02*
X102575000Y-60150000I-75000J0D01*
G01*
X101175000Y-60150000D01*
G75*
G02*
X101100000Y-60075000I0J75000D01*
G01*
G37*
G36*
G01*
X101100000Y-60575000D02*
X101100000Y-60425000D01*
G75*
G02*
X101175000Y-60350000I75000J0D01*
G01*
X102575000Y-60350000D01*
G75*
G02*
X102650000Y-60425000I0J-75000D01*
G01*
X102650000Y-60575000D01*
G75*
G02*
X102575000Y-60650000I-75000J0D01*
G01*
X101175000Y-60650000D01*
G75*
G02*
X101100000Y-60575000I0J75000D01*
G01*
G37*
G36*
G01*
X101100000Y-61075000D02*
X101100000Y-60925000D01*
G75*
G02*
X101175000Y-60850000I75000J0D01*
G01*
X102575000Y-60850000D01*
G75*
G02*
X102650000Y-60925000I0J-75000D01*
G01*
X102650000Y-61075000D01*
G75*
G02*
X102575000Y-61150000I-75000J0D01*
G01*
X101175000Y-61150000D01*
G75*
G02*
X101100000Y-61075000I0J75000D01*
G01*
G37*
G36*
G01*
X101100000Y-61575000D02*
X101100000Y-61425000D01*
G75*
G02*
X101175000Y-61350000I75000J0D01*
G01*
X102575000Y-61350000D01*
G75*
G02*
X102650000Y-61425000I0J-75000D01*
G01*
X102650000Y-61575000D01*
G75*
G02*
X102575000Y-61650000I-75000J0D01*
G01*
X101175000Y-61650000D01*
G75*
G02*
X101100000Y-61575000I0J75000D01*
G01*
G37*
G36*
G01*
X101100000Y-62075000D02*
X101100000Y-61925000D01*
G75*
G02*
X101175000Y-61850000I75000J0D01*
G01*
X102575000Y-61850000D01*
G75*
G02*
X102650000Y-61925000I0J-75000D01*
G01*
X102650000Y-62075000D01*
G75*
G02*
X102575000Y-62150000I-75000J0D01*
G01*
X101175000Y-62150000D01*
G75*
G02*
X101100000Y-62075000I0J75000D01*
G01*
G37*
G36*
G01*
X101100000Y-62575000D02*
X101100000Y-62425000D01*
G75*
G02*
X101175000Y-62350000I75000J0D01*
G01*
X102575000Y-62350000D01*
G75*
G02*
X102650000Y-62425000I0J-75000D01*
G01*
X102650000Y-62575000D01*
G75*
G02*
X102575000Y-62650000I-75000J0D01*
G01*
X101175000Y-62650000D01*
G75*
G02*
X101100000Y-62575000I0J75000D01*
G01*
G37*
G36*
G01*
X101100000Y-63075000D02*
X101100000Y-62925000D01*
G75*
G02*
X101175000Y-62850000I75000J0D01*
G01*
X102575000Y-62850000D01*
G75*
G02*
X102650000Y-62925000I0J-75000D01*
G01*
X102650000Y-63075000D01*
G75*
G02*
X102575000Y-63150000I-75000J0D01*
G01*
X101175000Y-63150000D01*
G75*
G02*
X101100000Y-63075000I0J75000D01*
G01*
G37*
G36*
G01*
X101100000Y-63575000D02*
X101100000Y-63425000D01*
G75*
G02*
X101175000Y-63350000I75000J0D01*
G01*
X102575000Y-63350000D01*
G75*
G02*
X102650000Y-63425000I0J-75000D01*
G01*
X102650000Y-63575000D01*
G75*
G02*
X102575000Y-63650000I-75000J0D01*
G01*
X101175000Y-63650000D01*
G75*
G02*
X101100000Y-63575000I0J75000D01*
G01*
G37*
G36*
G01*
X101100000Y-64075000D02*
X101100000Y-63925000D01*
G75*
G02*
X101175000Y-63850000I75000J0D01*
G01*
X102575000Y-63850000D01*
G75*
G02*
X102650000Y-63925000I0J-75000D01*
G01*
X102650000Y-64075000D01*
G75*
G02*
X102575000Y-64150000I-75000J0D01*
G01*
X101175000Y-64150000D01*
G75*
G02*
X101100000Y-64075000I0J75000D01*
G01*
G37*
G36*
G01*
X101100000Y-64575000D02*
X101100000Y-64425000D01*
G75*
G02*
X101175000Y-64350000I75000J0D01*
G01*
X102575000Y-64350000D01*
G75*
G02*
X102650000Y-64425000I0J-75000D01*
G01*
X102650000Y-64575000D01*
G75*
G02*
X102575000Y-64650000I-75000J0D01*
G01*
X101175000Y-64650000D01*
G75*
G02*
X101100000Y-64575000I0J75000D01*
G01*
G37*
G36*
G01*
X101100000Y-65075000D02*
X101100000Y-64925000D01*
G75*
G02*
X101175000Y-64850000I75000J0D01*
G01*
X102575000Y-64850000D01*
G75*
G02*
X102650000Y-64925000I0J-75000D01*
G01*
X102650000Y-65075000D01*
G75*
G02*
X102575000Y-65150000I-75000J0D01*
G01*
X101175000Y-65150000D01*
G75*
G02*
X101100000Y-65075000I0J75000D01*
G01*
G37*
G36*
G01*
X101100000Y-65575000D02*
X101100000Y-65425000D01*
G75*
G02*
X101175000Y-65350000I75000J0D01*
G01*
X102575000Y-65350000D01*
G75*
G02*
X102650000Y-65425000I0J-75000D01*
G01*
X102650000Y-65575000D01*
G75*
G02*
X102575000Y-65650000I-75000J0D01*
G01*
X101175000Y-65650000D01*
G75*
G02*
X101100000Y-65575000I0J75000D01*
G01*
G37*
G36*
G01*
X101100000Y-66075000D02*
X101100000Y-65925000D01*
G75*
G02*
X101175000Y-65850000I75000J0D01*
G01*
X102575000Y-65850000D01*
G75*
G02*
X102650000Y-65925000I0J-75000D01*
G01*
X102650000Y-66075000D01*
G75*
G02*
X102575000Y-66150000I-75000J0D01*
G01*
X101175000Y-66150000D01*
G75*
G02*
X101100000Y-66075000I0J75000D01*
G01*
G37*
G36*
G01*
X101100000Y-66575000D02*
X101100000Y-66425000D01*
G75*
G02*
X101175000Y-66350000I75000J0D01*
G01*
X102575000Y-66350000D01*
G75*
G02*
X102650000Y-66425000I0J-75000D01*
G01*
X102650000Y-66575000D01*
G75*
G02*
X102575000Y-66650000I-75000J0D01*
G01*
X101175000Y-66650000D01*
G75*
G02*
X101100000Y-66575000I0J75000D01*
G01*
G37*
G36*
G01*
X101100000Y-67075000D02*
X101100000Y-66925000D01*
G75*
G02*
X101175000Y-66850000I75000J0D01*
G01*
X102575000Y-66850000D01*
G75*
G02*
X102650000Y-66925000I0J-75000D01*
G01*
X102650000Y-67075000D01*
G75*
G02*
X102575000Y-67150000I-75000J0D01*
G01*
X101175000Y-67150000D01*
G75*
G02*
X101100000Y-67075000I0J75000D01*
G01*
G37*
G36*
G01*
X101100000Y-67575000D02*
X101100000Y-67425000D01*
G75*
G02*
X101175000Y-67350000I75000J0D01*
G01*
X102575000Y-67350000D01*
G75*
G02*
X102650000Y-67425000I0J-75000D01*
G01*
X102650000Y-67575000D01*
G75*
G02*
X102575000Y-67650000I-75000J0D01*
G01*
X101175000Y-67650000D01*
G75*
G02*
X101100000Y-67575000I0J75000D01*
G01*
G37*
G36*
G01*
X103650000Y-70125000D02*
X103650000Y-68725000D01*
G75*
G02*
X103725000Y-68650000I75000J0D01*
G01*
X103875000Y-68650000D01*
G75*
G02*
X103950000Y-68725000I0J-75000D01*
G01*
X103950000Y-70125000D01*
G75*
G02*
X103875000Y-70200000I-75000J0D01*
G01*
X103725000Y-70200000D01*
G75*
G02*
X103650000Y-70125000I0J75000D01*
G01*
G37*
G36*
G01*
X104150000Y-70125000D02*
X104150000Y-68725000D01*
G75*
G02*
X104225000Y-68650000I75000J0D01*
G01*
X104375000Y-68650000D01*
G75*
G02*
X104450000Y-68725000I0J-75000D01*
G01*
X104450000Y-70125000D01*
G75*
G02*
X104375000Y-70200000I-75000J0D01*
G01*
X104225000Y-70200000D01*
G75*
G02*
X104150000Y-70125000I0J75000D01*
G01*
G37*
G36*
G01*
X104650000Y-70125000D02*
X104650000Y-68725000D01*
G75*
G02*
X104725000Y-68650000I75000J0D01*
G01*
X104875000Y-68650000D01*
G75*
G02*
X104950000Y-68725000I0J-75000D01*
G01*
X104950000Y-70125000D01*
G75*
G02*
X104875000Y-70200000I-75000J0D01*
G01*
X104725000Y-70200000D01*
G75*
G02*
X104650000Y-70125000I0J75000D01*
G01*
G37*
G36*
G01*
X105150000Y-70125000D02*
X105150000Y-68725000D01*
G75*
G02*
X105225000Y-68650000I75000J0D01*
G01*
X105375000Y-68650000D01*
G75*
G02*
X105450000Y-68725000I0J-75000D01*
G01*
X105450000Y-70125000D01*
G75*
G02*
X105375000Y-70200000I-75000J0D01*
G01*
X105225000Y-70200000D01*
G75*
G02*
X105150000Y-70125000I0J75000D01*
G01*
G37*
G36*
G01*
X105650000Y-70125000D02*
X105650000Y-68725000D01*
G75*
G02*
X105725000Y-68650000I75000J0D01*
G01*
X105875000Y-68650000D01*
G75*
G02*
X105950000Y-68725000I0J-75000D01*
G01*
X105950000Y-70125000D01*
G75*
G02*
X105875000Y-70200000I-75000J0D01*
G01*
X105725000Y-70200000D01*
G75*
G02*
X105650000Y-70125000I0J75000D01*
G01*
G37*
G36*
G01*
X106150000Y-70125000D02*
X106150000Y-68725000D01*
G75*
G02*
X106225000Y-68650000I75000J0D01*
G01*
X106375000Y-68650000D01*
G75*
G02*
X106450000Y-68725000I0J-75000D01*
G01*
X106450000Y-70125000D01*
G75*
G02*
X106375000Y-70200000I-75000J0D01*
G01*
X106225000Y-70200000D01*
G75*
G02*
X106150000Y-70125000I0J75000D01*
G01*
G37*
G36*
G01*
X106650000Y-70125000D02*
X106650000Y-68725000D01*
G75*
G02*
X106725000Y-68650000I75000J0D01*
G01*
X106875000Y-68650000D01*
G75*
G02*
X106950000Y-68725000I0J-75000D01*
G01*
X106950000Y-70125000D01*
G75*
G02*
X106875000Y-70200000I-75000J0D01*
G01*
X106725000Y-70200000D01*
G75*
G02*
X106650000Y-70125000I0J75000D01*
G01*
G37*
G36*
G01*
X107150000Y-70125000D02*
X107150000Y-68725000D01*
G75*
G02*
X107225000Y-68650000I75000J0D01*
G01*
X107375000Y-68650000D01*
G75*
G02*
X107450000Y-68725000I0J-75000D01*
G01*
X107450000Y-70125000D01*
G75*
G02*
X107375000Y-70200000I-75000J0D01*
G01*
X107225000Y-70200000D01*
G75*
G02*
X107150000Y-70125000I0J75000D01*
G01*
G37*
G36*
G01*
X107650000Y-70125000D02*
X107650000Y-68725000D01*
G75*
G02*
X107725000Y-68650000I75000J0D01*
G01*
X107875000Y-68650000D01*
G75*
G02*
X107950000Y-68725000I0J-75000D01*
G01*
X107950000Y-70125000D01*
G75*
G02*
X107875000Y-70200000I-75000J0D01*
G01*
X107725000Y-70200000D01*
G75*
G02*
X107650000Y-70125000I0J75000D01*
G01*
G37*
G36*
G01*
X108150000Y-70125000D02*
X108150000Y-68725000D01*
G75*
G02*
X108225000Y-68650000I75000J0D01*
G01*
X108375000Y-68650000D01*
G75*
G02*
X108450000Y-68725000I0J-75000D01*
G01*
X108450000Y-70125000D01*
G75*
G02*
X108375000Y-70200000I-75000J0D01*
G01*
X108225000Y-70200000D01*
G75*
G02*
X108150000Y-70125000I0J75000D01*
G01*
G37*
G36*
G01*
X108650000Y-70125000D02*
X108650000Y-68725000D01*
G75*
G02*
X108725000Y-68650000I75000J0D01*
G01*
X108875000Y-68650000D01*
G75*
G02*
X108950000Y-68725000I0J-75000D01*
G01*
X108950000Y-70125000D01*
G75*
G02*
X108875000Y-70200000I-75000J0D01*
G01*
X108725000Y-70200000D01*
G75*
G02*
X108650000Y-70125000I0J75000D01*
G01*
G37*
G36*
G01*
X109150000Y-70125000D02*
X109150000Y-68725000D01*
G75*
G02*
X109225000Y-68650000I75000J0D01*
G01*
X109375000Y-68650000D01*
G75*
G02*
X109450000Y-68725000I0J-75000D01*
G01*
X109450000Y-70125000D01*
G75*
G02*
X109375000Y-70200000I-75000J0D01*
G01*
X109225000Y-70200000D01*
G75*
G02*
X109150000Y-70125000I0J75000D01*
G01*
G37*
G36*
G01*
X109650000Y-70125000D02*
X109650000Y-68725000D01*
G75*
G02*
X109725000Y-68650000I75000J0D01*
G01*
X109875000Y-68650000D01*
G75*
G02*
X109950000Y-68725000I0J-75000D01*
G01*
X109950000Y-70125000D01*
G75*
G02*
X109875000Y-70200000I-75000J0D01*
G01*
X109725000Y-70200000D01*
G75*
G02*
X109650000Y-70125000I0J75000D01*
G01*
G37*
G36*
G01*
X110150000Y-70125000D02*
X110150000Y-68725000D01*
G75*
G02*
X110225000Y-68650000I75000J0D01*
G01*
X110375000Y-68650000D01*
G75*
G02*
X110450000Y-68725000I0J-75000D01*
G01*
X110450000Y-70125000D01*
G75*
G02*
X110375000Y-70200000I-75000J0D01*
G01*
X110225000Y-70200000D01*
G75*
G02*
X110150000Y-70125000I0J75000D01*
G01*
G37*
G36*
G01*
X110650000Y-70125000D02*
X110650000Y-68725000D01*
G75*
G02*
X110725000Y-68650000I75000J0D01*
G01*
X110875000Y-68650000D01*
G75*
G02*
X110950000Y-68725000I0J-75000D01*
G01*
X110950000Y-70125000D01*
G75*
G02*
X110875000Y-70200000I-75000J0D01*
G01*
X110725000Y-70200000D01*
G75*
G02*
X110650000Y-70125000I0J75000D01*
G01*
G37*
G36*
G01*
X111150000Y-70125000D02*
X111150000Y-68725000D01*
G75*
G02*
X111225000Y-68650000I75000J0D01*
G01*
X111375000Y-68650000D01*
G75*
G02*
X111450000Y-68725000I0J-75000D01*
G01*
X111450000Y-70125000D01*
G75*
G02*
X111375000Y-70200000I-75000J0D01*
G01*
X111225000Y-70200000D01*
G75*
G02*
X111150000Y-70125000I0J75000D01*
G01*
G37*
G36*
G01*
X112450000Y-67575000D02*
X112450000Y-67425000D01*
G75*
G02*
X112525000Y-67350000I75000J0D01*
G01*
X113925000Y-67350000D01*
G75*
G02*
X114000000Y-67425000I0J-75000D01*
G01*
X114000000Y-67575000D01*
G75*
G02*
X113925000Y-67650000I-75000J0D01*
G01*
X112525000Y-67650000D01*
G75*
G02*
X112450000Y-67575000I0J75000D01*
G01*
G37*
G36*
G01*
X112450000Y-67075000D02*
X112450000Y-66925000D01*
G75*
G02*
X112525000Y-66850000I75000J0D01*
G01*
X113925000Y-66850000D01*
G75*
G02*
X114000000Y-66925000I0J-75000D01*
G01*
X114000000Y-67075000D01*
G75*
G02*
X113925000Y-67150000I-75000J0D01*
G01*
X112525000Y-67150000D01*
G75*
G02*
X112450000Y-67075000I0J75000D01*
G01*
G37*
G36*
G01*
X112450000Y-66575000D02*
X112450000Y-66425000D01*
G75*
G02*
X112525000Y-66350000I75000J0D01*
G01*
X113925000Y-66350000D01*
G75*
G02*
X114000000Y-66425000I0J-75000D01*
G01*
X114000000Y-66575000D01*
G75*
G02*
X113925000Y-66650000I-75000J0D01*
G01*
X112525000Y-66650000D01*
G75*
G02*
X112450000Y-66575000I0J75000D01*
G01*
G37*
G36*
G01*
X112450000Y-66075000D02*
X112450000Y-65925000D01*
G75*
G02*
X112525000Y-65850000I75000J0D01*
G01*
X113925000Y-65850000D01*
G75*
G02*
X114000000Y-65925000I0J-75000D01*
G01*
X114000000Y-66075000D01*
G75*
G02*
X113925000Y-66150000I-75000J0D01*
G01*
X112525000Y-66150000D01*
G75*
G02*
X112450000Y-66075000I0J75000D01*
G01*
G37*
G36*
G01*
X112450000Y-65575000D02*
X112450000Y-65425000D01*
G75*
G02*
X112525000Y-65350000I75000J0D01*
G01*
X113925000Y-65350000D01*
G75*
G02*
X114000000Y-65425000I0J-75000D01*
G01*
X114000000Y-65575000D01*
G75*
G02*
X113925000Y-65650000I-75000J0D01*
G01*
X112525000Y-65650000D01*
G75*
G02*
X112450000Y-65575000I0J75000D01*
G01*
G37*
G36*
G01*
X112450000Y-65075000D02*
X112450000Y-64925000D01*
G75*
G02*
X112525000Y-64850000I75000J0D01*
G01*
X113925000Y-64850000D01*
G75*
G02*
X114000000Y-64925000I0J-75000D01*
G01*
X114000000Y-65075000D01*
G75*
G02*
X113925000Y-65150000I-75000J0D01*
G01*
X112525000Y-65150000D01*
G75*
G02*
X112450000Y-65075000I0J75000D01*
G01*
G37*
G36*
G01*
X112450000Y-64575000D02*
X112450000Y-64425000D01*
G75*
G02*
X112525000Y-64350000I75000J0D01*
G01*
X113925000Y-64350000D01*
G75*
G02*
X114000000Y-64425000I0J-75000D01*
G01*
X114000000Y-64575000D01*
G75*
G02*
X113925000Y-64650000I-75000J0D01*
G01*
X112525000Y-64650000D01*
G75*
G02*
X112450000Y-64575000I0J75000D01*
G01*
G37*
G36*
G01*
X112450000Y-64075000D02*
X112450000Y-63925000D01*
G75*
G02*
X112525000Y-63850000I75000J0D01*
G01*
X113925000Y-63850000D01*
G75*
G02*
X114000000Y-63925000I0J-75000D01*
G01*
X114000000Y-64075000D01*
G75*
G02*
X113925000Y-64150000I-75000J0D01*
G01*
X112525000Y-64150000D01*
G75*
G02*
X112450000Y-64075000I0J75000D01*
G01*
G37*
G36*
G01*
X112450000Y-63575000D02*
X112450000Y-63425000D01*
G75*
G02*
X112525000Y-63350000I75000J0D01*
G01*
X113925000Y-63350000D01*
G75*
G02*
X114000000Y-63425000I0J-75000D01*
G01*
X114000000Y-63575000D01*
G75*
G02*
X113925000Y-63650000I-75000J0D01*
G01*
X112525000Y-63650000D01*
G75*
G02*
X112450000Y-63575000I0J75000D01*
G01*
G37*
G36*
G01*
X112450000Y-63075000D02*
X112450000Y-62925000D01*
G75*
G02*
X112525000Y-62850000I75000J0D01*
G01*
X113925000Y-62850000D01*
G75*
G02*
X114000000Y-62925000I0J-75000D01*
G01*
X114000000Y-63075000D01*
G75*
G02*
X113925000Y-63150000I-75000J0D01*
G01*
X112525000Y-63150000D01*
G75*
G02*
X112450000Y-63075000I0J75000D01*
G01*
G37*
G36*
G01*
X112450000Y-62575000D02*
X112450000Y-62425000D01*
G75*
G02*
X112525000Y-62350000I75000J0D01*
G01*
X113925000Y-62350000D01*
G75*
G02*
X114000000Y-62425000I0J-75000D01*
G01*
X114000000Y-62575000D01*
G75*
G02*
X113925000Y-62650000I-75000J0D01*
G01*
X112525000Y-62650000D01*
G75*
G02*
X112450000Y-62575000I0J75000D01*
G01*
G37*
G36*
G01*
X112450000Y-62075000D02*
X112450000Y-61925000D01*
G75*
G02*
X112525000Y-61850000I75000J0D01*
G01*
X113925000Y-61850000D01*
G75*
G02*
X114000000Y-61925000I0J-75000D01*
G01*
X114000000Y-62075000D01*
G75*
G02*
X113925000Y-62150000I-75000J0D01*
G01*
X112525000Y-62150000D01*
G75*
G02*
X112450000Y-62075000I0J75000D01*
G01*
G37*
G36*
G01*
X112450000Y-61575000D02*
X112450000Y-61425000D01*
G75*
G02*
X112525000Y-61350000I75000J0D01*
G01*
X113925000Y-61350000D01*
G75*
G02*
X114000000Y-61425000I0J-75000D01*
G01*
X114000000Y-61575000D01*
G75*
G02*
X113925000Y-61650000I-75000J0D01*
G01*
X112525000Y-61650000D01*
G75*
G02*
X112450000Y-61575000I0J75000D01*
G01*
G37*
G36*
G01*
X112450000Y-61075000D02*
X112450000Y-60925000D01*
G75*
G02*
X112525000Y-60850000I75000J0D01*
G01*
X113925000Y-60850000D01*
G75*
G02*
X114000000Y-60925000I0J-75000D01*
G01*
X114000000Y-61075000D01*
G75*
G02*
X113925000Y-61150000I-75000J0D01*
G01*
X112525000Y-61150000D01*
G75*
G02*
X112450000Y-61075000I0J75000D01*
G01*
G37*
G36*
G01*
X112450000Y-60575000D02*
X112450000Y-60425000D01*
G75*
G02*
X112525000Y-60350000I75000J0D01*
G01*
X113925000Y-60350000D01*
G75*
G02*
X114000000Y-60425000I0J-75000D01*
G01*
X114000000Y-60575000D01*
G75*
G02*
X113925000Y-60650000I-75000J0D01*
G01*
X112525000Y-60650000D01*
G75*
G02*
X112450000Y-60575000I0J75000D01*
G01*
G37*
G36*
G01*
X112450000Y-60075000D02*
X112450000Y-59925000D01*
G75*
G02*
X112525000Y-59850000I75000J0D01*
G01*
X113925000Y-59850000D01*
G75*
G02*
X114000000Y-59925000I0J-75000D01*
G01*
X114000000Y-60075000D01*
G75*
G02*
X113925000Y-60150000I-75000J0D01*
G01*
X112525000Y-60150000D01*
G75*
G02*
X112450000Y-60075000I0J75000D01*
G01*
G37*
G36*
G01*
X111150000Y-58775000D02*
X111150000Y-57375000D01*
G75*
G02*
X111225000Y-57300000I75000J0D01*
G01*
X111375000Y-57300000D01*
G75*
G02*
X111450000Y-57375000I0J-75000D01*
G01*
X111450000Y-58775000D01*
G75*
G02*
X111375000Y-58850000I-75000J0D01*
G01*
X111225000Y-58850000D01*
G75*
G02*
X111150000Y-58775000I0J75000D01*
G01*
G37*
G36*
G01*
X110650000Y-58775000D02*
X110650000Y-57375000D01*
G75*
G02*
X110725000Y-57300000I75000J0D01*
G01*
X110875000Y-57300000D01*
G75*
G02*
X110950000Y-57375000I0J-75000D01*
G01*
X110950000Y-58775000D01*
G75*
G02*
X110875000Y-58850000I-75000J0D01*
G01*
X110725000Y-58850000D01*
G75*
G02*
X110650000Y-58775000I0J75000D01*
G01*
G37*
G36*
G01*
X110150000Y-58775000D02*
X110150000Y-57375000D01*
G75*
G02*
X110225000Y-57300000I75000J0D01*
G01*
X110375000Y-57300000D01*
G75*
G02*
X110450000Y-57375000I0J-75000D01*
G01*
X110450000Y-58775000D01*
G75*
G02*
X110375000Y-58850000I-75000J0D01*
G01*
X110225000Y-58850000D01*
G75*
G02*
X110150000Y-58775000I0J75000D01*
G01*
G37*
G36*
G01*
X109650000Y-58775000D02*
X109650000Y-57375000D01*
G75*
G02*
X109725000Y-57300000I75000J0D01*
G01*
X109875000Y-57300000D01*
G75*
G02*
X109950000Y-57375000I0J-75000D01*
G01*
X109950000Y-58775000D01*
G75*
G02*
X109875000Y-58850000I-75000J0D01*
G01*
X109725000Y-58850000D01*
G75*
G02*
X109650000Y-58775000I0J75000D01*
G01*
G37*
G36*
G01*
X109150000Y-58775000D02*
X109150000Y-57375000D01*
G75*
G02*
X109225000Y-57300000I75000J0D01*
G01*
X109375000Y-57300000D01*
G75*
G02*
X109450000Y-57375000I0J-75000D01*
G01*
X109450000Y-58775000D01*
G75*
G02*
X109375000Y-58850000I-75000J0D01*
G01*
X109225000Y-58850000D01*
G75*
G02*
X109150000Y-58775000I0J75000D01*
G01*
G37*
G36*
G01*
X108650000Y-58775000D02*
X108650000Y-57375000D01*
G75*
G02*
X108725000Y-57300000I75000J0D01*
G01*
X108875000Y-57300000D01*
G75*
G02*
X108950000Y-57375000I0J-75000D01*
G01*
X108950000Y-58775000D01*
G75*
G02*
X108875000Y-58850000I-75000J0D01*
G01*
X108725000Y-58850000D01*
G75*
G02*
X108650000Y-58775000I0J75000D01*
G01*
G37*
G36*
G01*
X108150000Y-58775000D02*
X108150000Y-57375000D01*
G75*
G02*
X108225000Y-57300000I75000J0D01*
G01*
X108375000Y-57300000D01*
G75*
G02*
X108450000Y-57375000I0J-75000D01*
G01*
X108450000Y-58775000D01*
G75*
G02*
X108375000Y-58850000I-75000J0D01*
G01*
X108225000Y-58850000D01*
G75*
G02*
X108150000Y-58775000I0J75000D01*
G01*
G37*
G36*
G01*
X107650000Y-58775000D02*
X107650000Y-57375000D01*
G75*
G02*
X107725000Y-57300000I75000J0D01*
G01*
X107875000Y-57300000D01*
G75*
G02*
X107950000Y-57375000I0J-75000D01*
G01*
X107950000Y-58775000D01*
G75*
G02*
X107875000Y-58850000I-75000J0D01*
G01*
X107725000Y-58850000D01*
G75*
G02*
X107650000Y-58775000I0J75000D01*
G01*
G37*
G36*
G01*
X107150000Y-58775000D02*
X107150000Y-57375000D01*
G75*
G02*
X107225000Y-57300000I75000J0D01*
G01*
X107375000Y-57300000D01*
G75*
G02*
X107450000Y-57375000I0J-75000D01*
G01*
X107450000Y-58775000D01*
G75*
G02*
X107375000Y-58850000I-75000J0D01*
G01*
X107225000Y-58850000D01*
G75*
G02*
X107150000Y-58775000I0J75000D01*
G01*
G37*
G36*
G01*
X106650000Y-58775000D02*
X106650000Y-57375000D01*
G75*
G02*
X106725000Y-57300000I75000J0D01*
G01*
X106875000Y-57300000D01*
G75*
G02*
X106950000Y-57375000I0J-75000D01*
G01*
X106950000Y-58775000D01*
G75*
G02*
X106875000Y-58850000I-75000J0D01*
G01*
X106725000Y-58850000D01*
G75*
G02*
X106650000Y-58775000I0J75000D01*
G01*
G37*
G36*
G01*
X106150000Y-58775000D02*
X106150000Y-57375000D01*
G75*
G02*
X106225000Y-57300000I75000J0D01*
G01*
X106375000Y-57300000D01*
G75*
G02*
X106450000Y-57375000I0J-75000D01*
G01*
X106450000Y-58775000D01*
G75*
G02*
X106375000Y-58850000I-75000J0D01*
G01*
X106225000Y-58850000D01*
G75*
G02*
X106150000Y-58775000I0J75000D01*
G01*
G37*
G36*
G01*
X105650000Y-58775000D02*
X105650000Y-57375000D01*
G75*
G02*
X105725000Y-57300000I75000J0D01*
G01*
X105875000Y-57300000D01*
G75*
G02*
X105950000Y-57375000I0J-75000D01*
G01*
X105950000Y-58775000D01*
G75*
G02*
X105875000Y-58850000I-75000J0D01*
G01*
X105725000Y-58850000D01*
G75*
G02*
X105650000Y-58775000I0J75000D01*
G01*
G37*
G36*
G01*
X105150000Y-58775000D02*
X105150000Y-57375000D01*
G75*
G02*
X105225000Y-57300000I75000J0D01*
G01*
X105375000Y-57300000D01*
G75*
G02*
X105450000Y-57375000I0J-75000D01*
G01*
X105450000Y-58775000D01*
G75*
G02*
X105375000Y-58850000I-75000J0D01*
G01*
X105225000Y-58850000D01*
G75*
G02*
X105150000Y-58775000I0J75000D01*
G01*
G37*
G36*
G01*
X104650000Y-58775000D02*
X104650000Y-57375000D01*
G75*
G02*
X104725000Y-57300000I75000J0D01*
G01*
X104875000Y-57300000D01*
G75*
G02*
X104950000Y-57375000I0J-75000D01*
G01*
X104950000Y-58775000D01*
G75*
G02*
X104875000Y-58850000I-75000J0D01*
G01*
X104725000Y-58850000D01*
G75*
G02*
X104650000Y-58775000I0J75000D01*
G01*
G37*
G36*
G01*
X104150000Y-58775000D02*
X104150000Y-57375000D01*
G75*
G02*
X104225000Y-57300000I75000J0D01*
G01*
X104375000Y-57300000D01*
G75*
G02*
X104450000Y-57375000I0J-75000D01*
G01*
X104450000Y-58775000D01*
G75*
G02*
X104375000Y-58850000I-75000J0D01*
G01*
X104225000Y-58850000D01*
G75*
G02*
X104150000Y-58775000I0J75000D01*
G01*
G37*
G36*
G01*
X103650000Y-58775000D02*
X103650000Y-57375000D01*
G75*
G02*
X103725000Y-57300000I75000J0D01*
G01*
X103875000Y-57300000D01*
G75*
G02*
X103950000Y-57375000I0J-75000D01*
G01*
X103950000Y-58775000D01*
G75*
G02*
X103875000Y-58850000I-75000J0D01*
G01*
X103725000Y-58850000D01*
G75*
G02*
X103650000Y-58775000I0J75000D01*
G01*
G37*
%TD*%
D12*
%TO.C,Y1*%
X93350000Y-60300000D03*
X93350000Y-66200000D03*
X96050000Y-66200000D03*
X96050000Y-60300000D03*
%TD*%
%TO.C,C1*%
G36*
G01*
X135530000Y-54172500D02*
X135530000Y-54647500D01*
G75*
G02*
X135292500Y-54885000I-237500J0D01*
G01*
X134717500Y-54885000D01*
G75*
G02*
X134480000Y-54647500I0J237500D01*
G01*
X134480000Y-54172500D01*
G75*
G02*
X134717500Y-53935000I237500J0D01*
G01*
X135292500Y-53935000D01*
G75*
G02*
X135530000Y-54172500I0J-237500D01*
G01*
G37*
G36*
G01*
X137280000Y-54172500D02*
X137280000Y-54647500D01*
G75*
G02*
X137042500Y-54885000I-237500J0D01*
G01*
X136467500Y-54885000D01*
G75*
G02*
X136230000Y-54647500I0J237500D01*
G01*
X136230000Y-54172500D01*
G75*
G02*
X136467500Y-53935000I237500J0D01*
G01*
X137042500Y-53935000D01*
G75*
G02*
X137280000Y-54172500I0J-237500D01*
G01*
G37*
%TD*%
%TO.C,C2*%
G36*
G01*
X134542500Y-59680000D02*
X135017500Y-59680000D01*
G75*
G02*
X135255000Y-59917500I0J-237500D01*
G01*
X135255000Y-60492500D01*
G75*
G02*
X135017500Y-60730000I-237500J0D01*
G01*
X134542500Y-60730000D01*
G75*
G02*
X134305000Y-60492500I0J237500D01*
G01*
X134305000Y-59917500D01*
G75*
G02*
X134542500Y-59680000I237500J0D01*
G01*
G37*
G36*
G01*
X134542500Y-61430000D02*
X135017500Y-61430000D01*
G75*
G02*
X135255000Y-61667500I0J-237500D01*
G01*
X135255000Y-62242500D01*
G75*
G02*
X135017500Y-62480000I-237500J0D01*
G01*
X134542500Y-62480000D01*
G75*
G02*
X134305000Y-62242500I0J237500D01*
G01*
X134305000Y-61667500D01*
G75*
G02*
X134542500Y-61430000I237500J0D01*
G01*
G37*
%TD*%
%TO.C,C3*%
G36*
G01*
X113750000Y-73207500D02*
X113750000Y-73682500D01*
G75*
G02*
X113512500Y-73920000I-237500J0D01*
G01*
X112937500Y-73920000D01*
G75*
G02*
X112700000Y-73682500I0J237500D01*
G01*
X112700000Y-73207500D01*
G75*
G02*
X112937500Y-72970000I237500J0D01*
G01*
X113512500Y-72970000D01*
G75*
G02*
X113750000Y-73207500I0J-237500D01*
G01*
G37*
G36*
G01*
X112000000Y-73207500D02*
X112000000Y-73682500D01*
G75*
G02*
X111762500Y-73920000I-237500J0D01*
G01*
X111187500Y-73920000D01*
G75*
G02*
X110950000Y-73682500I0J237500D01*
G01*
X110950000Y-73207500D01*
G75*
G02*
X111187500Y-72970000I237500J0D01*
G01*
X111762500Y-72970000D01*
G75*
G02*
X112000000Y-73207500I0J-237500D01*
G01*
G37*
%TD*%
%TO.C,C4*%
G36*
G01*
X103475000Y-56287500D02*
X103475000Y-55812500D01*
G75*
G02*
X103712500Y-55575000I237500J0D01*
G01*
X104287500Y-55575000D01*
G75*
G02*
X104525000Y-55812500I0J-237500D01*
G01*
X104525000Y-56287500D01*
G75*
G02*
X104287500Y-56525000I-237500J0D01*
G01*
X103712500Y-56525000D01*
G75*
G02*
X103475000Y-56287500I0J237500D01*
G01*
G37*
G36*
G01*
X101725000Y-56287500D02*
X101725000Y-55812500D01*
G75*
G02*
X101962500Y-55575000I237500J0D01*
G01*
X102537500Y-55575000D01*
G75*
G02*
X102775000Y-55812500I0J-237500D01*
G01*
X102775000Y-56287500D01*
G75*
G02*
X102537500Y-56525000I-237500J0D01*
G01*
X101962500Y-56525000D01*
G75*
G02*
X101725000Y-56287500I0J237500D01*
G01*
G37*
%TD*%
%TO.C,C5*%
G36*
G01*
X115212500Y-57875000D02*
X115687500Y-57875000D01*
G75*
G02*
X115925000Y-58112500I0J-237500D01*
G01*
X115925000Y-58687500D01*
G75*
G02*
X115687500Y-58925000I-237500J0D01*
G01*
X115212500Y-58925000D01*
G75*
G02*
X114975000Y-58687500I0J237500D01*
G01*
X114975000Y-58112500D01*
G75*
G02*
X115212500Y-57875000I237500J0D01*
G01*
G37*
G36*
G01*
X115212500Y-59625000D02*
X115687500Y-59625000D01*
G75*
G02*
X115925000Y-59862500I0J-237500D01*
G01*
X115925000Y-60437500D01*
G75*
G02*
X115687500Y-60675000I-237500J0D01*
G01*
X115212500Y-60675000D01*
G75*
G02*
X114975000Y-60437500I0J237500D01*
G01*
X114975000Y-59862500D01*
G75*
G02*
X115212500Y-59625000I237500J0D01*
G01*
G37*
%TD*%
%TO.C,C6*%
G36*
G01*
X112015000Y-71562500D02*
X112015000Y-72037500D01*
G75*
G02*
X111777500Y-72275000I-237500J0D01*
G01*
X111202500Y-72275000D01*
G75*
G02*
X110965000Y-72037500I0J237500D01*
G01*
X110965000Y-71562500D01*
G75*
G02*
X111202500Y-71325000I237500J0D01*
G01*
X111777500Y-71325000D01*
G75*
G02*
X112015000Y-71562500I0J-237500D01*
G01*
G37*
G36*
G01*
X113765000Y-71562500D02*
X113765000Y-72037500D01*
G75*
G02*
X113527500Y-72275000I-237500J0D01*
G01*
X112952500Y-72275000D01*
G75*
G02*
X112715000Y-72037500I0J237500D01*
G01*
X112715000Y-71562500D01*
G75*
G02*
X112952500Y-71325000I237500J0D01*
G01*
X113527500Y-71325000D01*
G75*
G02*
X113765000Y-71562500I0J-237500D01*
G01*
G37*
%TD*%
%TO.C,C7*%
G36*
G01*
X105300000Y-71437500D02*
X105300000Y-71912500D01*
G75*
G02*
X105062500Y-72150000I-237500J0D01*
G01*
X104487500Y-72150000D01*
G75*
G02*
X104250000Y-71912500I0J237500D01*
G01*
X104250000Y-71437500D01*
G75*
G02*
X104487500Y-71200000I237500J0D01*
G01*
X105062500Y-71200000D01*
G75*
G02*
X105300000Y-71437500I0J-237500D01*
G01*
G37*
G36*
G01*
X103550000Y-71437500D02*
X103550000Y-71912500D01*
G75*
G02*
X103312500Y-72150000I-237500J0D01*
G01*
X102737500Y-72150000D01*
G75*
G02*
X102500000Y-71912500I0J237500D01*
G01*
X102500000Y-71437500D01*
G75*
G02*
X102737500Y-71200000I237500J0D01*
G01*
X103312500Y-71200000D01*
G75*
G02*
X103550000Y-71437500I0J-237500D01*
G01*
G37*
%TD*%
%TO.C,C8*%
G36*
G01*
X95035000Y-58237500D02*
X95035000Y-57762500D01*
G75*
G02*
X95272500Y-57525000I237500J0D01*
G01*
X95847500Y-57525000D01*
G75*
G02*
X96085000Y-57762500I0J-237500D01*
G01*
X96085000Y-58237500D01*
G75*
G02*
X95847500Y-58475000I-237500J0D01*
G01*
X95272500Y-58475000D01*
G75*
G02*
X95035000Y-58237500I0J237500D01*
G01*
G37*
G36*
G01*
X93285000Y-58237500D02*
X93285000Y-57762500D01*
G75*
G02*
X93522500Y-57525000I237500J0D01*
G01*
X94097500Y-57525000D01*
G75*
G02*
X94335000Y-57762500I0J-237500D01*
G01*
X94335000Y-58237500D01*
G75*
G02*
X94097500Y-58475000I-237500J0D01*
G01*
X93522500Y-58475000D01*
G75*
G02*
X93285000Y-58237500I0J237500D01*
G01*
G37*
%TD*%
%TO.C,C9*%
G36*
G01*
X96115000Y-68362500D02*
X96115000Y-68837500D01*
G75*
G02*
X95877500Y-69075000I-237500J0D01*
G01*
X95302500Y-69075000D01*
G75*
G02*
X95065000Y-68837500I0J237500D01*
G01*
X95065000Y-68362500D01*
G75*
G02*
X95302500Y-68125000I237500J0D01*
G01*
X95877500Y-68125000D01*
G75*
G02*
X96115000Y-68362500I0J-237500D01*
G01*
G37*
G36*
G01*
X94365000Y-68362500D02*
X94365000Y-68837500D01*
G75*
G02*
X94127500Y-69075000I-237500J0D01*
G01*
X93552500Y-69075000D01*
G75*
G02*
X93315000Y-68837500I0J237500D01*
G01*
X93315000Y-68362500D01*
G75*
G02*
X93552500Y-68125000I237500J0D01*
G01*
X94127500Y-68125000D01*
G75*
G02*
X94365000Y-68362500I0J-237500D01*
G01*
G37*
%TD*%
%TO.C,R1*%
G36*
G01*
X141755000Y-60647500D02*
X141755000Y-61122500D01*
G75*
G02*
X141517500Y-61360000I-237500J0D01*
G01*
X140942500Y-61360000D01*
G75*
G02*
X140705000Y-61122500I0J237500D01*
G01*
X140705000Y-60647500D01*
G75*
G02*
X140942500Y-60410000I237500J0D01*
G01*
X141517500Y-60410000D01*
G75*
G02*
X141755000Y-60647500I0J-237500D01*
G01*
G37*
G36*
G01*
X140005000Y-60647500D02*
X140005000Y-61122500D01*
G75*
G02*
X139767500Y-61360000I-237500J0D01*
G01*
X139192500Y-61360000D01*
G75*
G02*
X138955000Y-61122500I0J237500D01*
G01*
X138955000Y-60647500D01*
G75*
G02*
X139192500Y-60410000I237500J0D01*
G01*
X139767500Y-60410000D01*
G75*
G02*
X140005000Y-60647500I0J-237500D01*
G01*
G37*
%TD*%
%TO.C,R2*%
G36*
G01*
X111567500Y-42975000D02*
X111092500Y-42975000D01*
G75*
G02*
X110855000Y-42737500I0J237500D01*
G01*
X110855000Y-42162500D01*
G75*
G02*
X111092500Y-41925000I237500J0D01*
G01*
X111567500Y-41925000D01*
G75*
G02*
X111805000Y-42162500I0J-237500D01*
G01*
X111805000Y-42737500D01*
G75*
G02*
X111567500Y-42975000I-237500J0D01*
G01*
G37*
G36*
G01*
X111567500Y-41225000D02*
X111092500Y-41225000D01*
G75*
G02*
X110855000Y-40987500I0J237500D01*
G01*
X110855000Y-40412500D01*
G75*
G02*
X111092500Y-40175000I237500J0D01*
G01*
X111567500Y-40175000D01*
G75*
G02*
X111805000Y-40412500I0J-237500D01*
G01*
X111805000Y-40987500D01*
G75*
G02*
X111567500Y-41225000I-237500J0D01*
G01*
G37*
%TD*%
%TO.C,R3*%
G36*
G01*
X122515000Y-50972500D02*
X122515000Y-51447500D01*
G75*
G02*
X122277500Y-51685000I-237500J0D01*
G01*
X121702500Y-51685000D01*
G75*
G02*
X121465000Y-51447500I0J237500D01*
G01*
X121465000Y-50972500D01*
G75*
G02*
X121702500Y-50735000I237500J0D01*
G01*
X122277500Y-50735000D01*
G75*
G02*
X122515000Y-50972500I0J-237500D01*
G01*
G37*
G36*
G01*
X124265000Y-50972500D02*
X124265000Y-51447500D01*
G75*
G02*
X124027500Y-51685000I-237500J0D01*
G01*
X123452500Y-51685000D01*
G75*
G02*
X123215000Y-51447500I0J237500D01*
G01*
X123215000Y-50972500D01*
G75*
G02*
X123452500Y-50735000I237500J0D01*
G01*
X124027500Y-50735000D01*
G75*
G02*
X124265000Y-50972500I0J-237500D01*
G01*
G37*
%TD*%
%TO.C,R4*%
G36*
G01*
X112585000Y-38917500D02*
X112585000Y-39262500D01*
G75*
G02*
X112437500Y-39410000I-147500J0D01*
G01*
X112142500Y-39410000D01*
G75*
G02*
X111995000Y-39262500I0J147500D01*
G01*
X111995000Y-38917500D01*
G75*
G02*
X112142500Y-38770000I147500J0D01*
G01*
X112437500Y-38770000D01*
G75*
G02*
X112585000Y-38917500I0J-147500D01*
G01*
G37*
G36*
G01*
X113555000Y-38917500D02*
X113555000Y-39262500D01*
G75*
G02*
X113407500Y-39410000I-147500J0D01*
G01*
X113112500Y-39410000D01*
G75*
G02*
X112965000Y-39262500I0J147500D01*
G01*
X112965000Y-38917500D01*
G75*
G02*
X113112500Y-38770000I147500J0D01*
G01*
X113407500Y-38770000D01*
G75*
G02*
X113555000Y-38917500I0J-147500D01*
G01*
G37*
%TD*%
%TO.C,R5*%
G36*
G01*
X125812500Y-42905000D02*
X125467500Y-42905000D01*
G75*
G02*
X125320000Y-42757500I0J147500D01*
G01*
X125320000Y-42462500D01*
G75*
G02*
X125467500Y-42315000I147500J0D01*
G01*
X125812500Y-42315000D01*
G75*
G02*
X125960000Y-42462500I0J-147500D01*
G01*
X125960000Y-42757500D01*
G75*
G02*
X125812500Y-42905000I-147500J0D01*
G01*
G37*
G36*
G01*
X125812500Y-41935000D02*
X125467500Y-41935000D01*
G75*
G02*
X125320000Y-41787500I0J147500D01*
G01*
X125320000Y-41492500D01*
G75*
G02*
X125467500Y-41345000I147500J0D01*
G01*
X125812500Y-41345000D01*
G75*
G02*
X125960000Y-41492500I0J-147500D01*
G01*
X125960000Y-41787500D01*
G75*
G02*
X125812500Y-41935000I-147500J0D01*
G01*
G37*
%TD*%
M02*
