%TF.GenerationSoftware,KiCad,Pcbnew,(5.1.6)-1*%
%TF.CreationDate,2020-12-15T22:49:58+02:00*%
%TF.ProjectId,macropad,6d616372-6f70-4616-942e-6b696361645f,rev?*%
%TF.SameCoordinates,Original*%
%TF.FileFunction,Copper,L4,Bot*%
%TF.FilePolarity,Positive*%
%FSLAX46Y46*%
G04 Gerber Fmt 4.6, Leading zero omitted, Abs format (unit mm)*
G04 Created by KiCad (PCBNEW (5.1.6)-1) date 2020-12-15 22:49:58*
%MOMM*%
%LPD*%
G01*
G04 APERTURE LIST*
%TA.AperFunction,ComponentPad*%
%ADD10R,1.700000X1.700000*%
%TD*%
%TA.AperFunction,ComponentPad*%
%ADD11O,1.700000X1.700000*%
%TD*%
%TA.AperFunction,ComponentPad*%
%ADD12C,2.000000*%
%TD*%
%TA.AperFunction,ComponentPad*%
%ADD13C,2.250000*%
%TD*%
%TA.AperFunction,ComponentPad*%
%ADD14C,0.800000*%
%TD*%
%TA.AperFunction,ComponentPad*%
%ADD15C,5.400000*%
%TD*%
%TA.AperFunction,ComponentPad*%
%ADD16C,0.700000*%
%TD*%
%TA.AperFunction,ComponentPad*%
%ADD17C,4.400000*%
%TD*%
%TA.AperFunction,SMDPad,CuDef*%
%ADD18R,1.200000X0.900000*%
%TD*%
%TA.AperFunction,ComponentPad*%
%ADD19O,0.900000X2.400000*%
%TD*%
%TA.AperFunction,ComponentPad*%
%ADD20O,0.900000X1.700000*%
%TD*%
%TA.AperFunction,ConnectorPad*%
%ADD21C,0.787400*%
%TD*%
%TA.AperFunction,SMDPad,CuDef*%
%ADD22C,0.100000*%
%TD*%
%TA.AperFunction,ViaPad*%
%ADD23C,0.800000*%
%TD*%
%TA.AperFunction,Conductor*%
%ADD24C,0.300000*%
%TD*%
%TA.AperFunction,Conductor*%
%ADD25C,0.750000*%
%TD*%
%TA.AperFunction,Conductor*%
%ADD26C,0.250000*%
%TD*%
G04 APERTURE END LIST*
D10*
%TO.P,J3,1*%
%TO.N,GND*%
X81900000Y-74050000D03*
D11*
%TO.P,J3,2*%
%TO.N,LCD_LED*%
X81900000Y-71510000D03*
%TO.P,J3,3*%
%TO.N,+3V3*%
X81900000Y-68970000D03*
%TO.P,J3,4*%
%TO.N,TS_IQR*%
X81900000Y-66430000D03*
%TO.P,J3,5*%
%TO.N,TS_BSY*%
X81900000Y-63890000D03*
%TO.P,J3,6*%
%TO.N,TS_CS*%
X81900000Y-61350000D03*
%TO.P,J3,7*%
%TO.N,SPI_MISO*%
X81900000Y-58810000D03*
%TO.P,J3,8*%
%TO.N,SPI_MOSI*%
X81900000Y-56270000D03*
%TO.P,J3,9*%
%TO.N,SPI_SCK*%
X81900000Y-53730000D03*
%TO.P,J3,10*%
%TO.N,LCD_CS*%
X81900000Y-51190000D03*
%TO.P,J3,11*%
%TO.N,LCD_DC*%
X81900000Y-48650000D03*
%TO.P,J3,12*%
%TO.N,LCD_RST*%
X81900000Y-46110000D03*
%TD*%
D12*
%TO.P,SW2,2*%
%TO.N,Col2*%
X109700000Y-86500000D03*
%TO.P,SW2,1*%
%TO.N,Net-(D2-Pad2)*%
X114700000Y-88600000D03*
D13*
%TO.P,SW2,2*%
%TO.N,Col2*%
X107200000Y-88400000D03*
%TA.AperFunction,ComponentPad*%
G36*
G01*
X105138688Y-90697351D02*
X105138688Y-90697350D01*
G75*
G02*
X105052650Y-89108688I751312J837350D01*
G01*
X106362640Y-87648680D01*
G75*
G02*
X107951302Y-87562642I837350J-751312D01*
G01*
X107951302Y-87562642D01*
G75*
G02*
X108037340Y-89151304I-751312J-837350D01*
G01*
X106727350Y-90611312D01*
G75*
G02*
X105138688Y-90697350I-837350J751312D01*
G01*
G37*
%TD.AperFunction*%
%TO.P,SW2,1*%
%TO.N,Net-(D2-Pad2)*%
X112240000Y-87320000D03*
%TA.AperFunction,ComponentPad*%
G36*
G01*
X112123483Y-89022395D02*
X112123483Y-89022395D01*
G75*
G02*
X111077605Y-87823483I76517J1122395D01*
G01*
X111117147Y-87243451D01*
G75*
G02*
X112316059Y-86197573I1122395J-76517D01*
G01*
X112316059Y-86197573D01*
G75*
G02*
X113361937Y-87396485I-76517J-1122395D01*
G01*
X113322395Y-87976517D01*
G75*
G02*
X112123483Y-89022395I-1122395J76517D01*
G01*
G37*
%TD.AperFunction*%
%TD*%
D14*
%TO.P,H9,1*%
%TO.N,GND*%
X158781891Y-177118109D03*
X157350000Y-176525000D03*
X155918109Y-177118109D03*
X155325000Y-178550000D03*
X155918109Y-179981891D03*
X157350000Y-180575000D03*
X158781891Y-179981891D03*
X159375000Y-178550000D03*
D15*
X157350000Y-178550000D03*
%TD*%
D16*
%TO.P,H4,1*%
%TO.N,GND*%
X156066726Y-77533274D03*
X154900000Y-77050000D03*
X153733274Y-77533274D03*
X153250000Y-78700000D03*
X153733274Y-79866726D03*
X154900000Y-80350000D03*
X156066726Y-79866726D03*
X156550000Y-78700000D03*
D17*
X154900000Y-78700000D03*
%TD*%
D16*
%TO.P,H3,1*%
%TO.N,GND*%
X85066726Y-77533274D03*
X83900000Y-77050000D03*
X82733274Y-77533274D03*
X82250000Y-78700000D03*
X82733274Y-79866726D03*
X83900000Y-80350000D03*
X85066726Y-79866726D03*
X85550000Y-78700000D03*
D17*
X83900000Y-78700000D03*
%TD*%
D16*
%TO.P,H2,1*%
%TO.N,GND*%
X156066726Y-40533274D03*
X154900000Y-40050000D03*
X153733274Y-40533274D03*
X153250000Y-41700000D03*
X153733274Y-42866726D03*
X154900000Y-43350000D03*
X156066726Y-42866726D03*
X156550000Y-41700000D03*
D17*
X154900000Y-41700000D03*
%TD*%
D16*
%TO.P,H1,1*%
%TO.N,GND*%
X85066726Y-40533274D03*
X83900000Y-40050000D03*
X82733274Y-40533274D03*
X82250000Y-41700000D03*
X82733274Y-42866726D03*
X83900000Y-43350000D03*
X85066726Y-42866726D03*
X85550000Y-41700000D03*
D17*
X83900000Y-41700000D03*
%TD*%
D18*
%TO.P,D1,1*%
%TO.N,Row1*%
X100050000Y-94150000D03*
%TO.P,D1,2*%
%TO.N,Net-(D1-Pad2)*%
X100050000Y-90850000D03*
%TD*%
%TO.P,D2,1*%
%TO.N,Row1*%
X119350000Y-94150000D03*
%TO.P,D2,2*%
%TO.N,Net-(D2-Pad2)*%
X119350000Y-90850000D03*
%TD*%
%TO.P,D3,2*%
%TO.N,Net-(D3-Pad2)*%
X138650000Y-90850000D03*
%TO.P,D3,1*%
%TO.N,Row1*%
X138650000Y-94150000D03*
%TD*%
%TO.P,D4,1*%
%TO.N,Row1*%
X156825000Y-94150000D03*
%TO.P,D4,2*%
%TO.N,Net-(D4-Pad2)*%
X156825000Y-90850000D03*
%TD*%
%TO.P,D5,2*%
%TO.N,Net-(D5-Pad2)*%
X100050000Y-109950000D03*
%TO.P,D5,1*%
%TO.N,Row2*%
X100050000Y-113250000D03*
%TD*%
%TO.P,D6,2*%
%TO.N,Net-(D6-Pad2)*%
X119300000Y-109950000D03*
%TO.P,D6,1*%
%TO.N,Row2*%
X119300000Y-113250000D03*
%TD*%
%TO.P,D7,1*%
%TO.N,Row2*%
X138700000Y-113250000D03*
%TO.P,D7,2*%
%TO.N,Net-(D7-Pad2)*%
X138700000Y-109950000D03*
%TD*%
%TO.P,D8,2*%
%TO.N,Net-(D8-Pad2)*%
X156825000Y-109950000D03*
%TO.P,D8,1*%
%TO.N,Row2*%
X156825000Y-113250000D03*
%TD*%
%TO.P,D9,1*%
%TO.N,Row3*%
X100050000Y-132650000D03*
%TO.P,D9,2*%
%TO.N,Net-(D9-Pad2)*%
X100050000Y-129350000D03*
%TD*%
%TO.P,D10,1*%
%TO.N,Row3*%
X119350000Y-132650000D03*
%TO.P,D10,2*%
%TO.N,Net-(D10-Pad2)*%
X119350000Y-129350000D03*
%TD*%
%TO.P,D11,2*%
%TO.N,Net-(D11-Pad2)*%
X138650000Y-129350000D03*
%TO.P,D11,1*%
%TO.N,Row3*%
X138650000Y-132650000D03*
%TD*%
%TO.P,D12,1*%
%TO.N,Row3*%
X156825000Y-132625000D03*
%TO.P,D12,2*%
%TO.N,Net-(D12-Pad2)*%
X156825000Y-129325000D03*
%TD*%
%TO.P,D13,2*%
%TO.N,Net-(D13-Pad2)*%
X100050000Y-148650000D03*
%TO.P,D13,1*%
%TO.N,Row4*%
X100050000Y-151950000D03*
%TD*%
%TO.P,D14,2*%
%TO.N,Net-(D14-Pad2)*%
X119350000Y-148650000D03*
%TO.P,D14,1*%
%TO.N,Row4*%
X119350000Y-151950000D03*
%TD*%
%TO.P,D15,1*%
%TO.N,Row4*%
X138650000Y-151950000D03*
%TO.P,D15,2*%
%TO.N,Net-(D15-Pad2)*%
X138650000Y-148650000D03*
%TD*%
%TO.P,D16,2*%
%TO.N,Net-(D16-Pad2)*%
X156825000Y-148650000D03*
%TO.P,D16,1*%
%TO.N,Row4*%
X156825000Y-151950000D03*
%TD*%
%TO.P,D17,1*%
%TO.N,Row5*%
X100050000Y-171150000D03*
%TO.P,D17,2*%
%TO.N,Net-(D17-Pad2)*%
X100050000Y-167850000D03*
%TD*%
%TO.P,D18,1*%
%TO.N,Row5*%
X119350000Y-171150000D03*
%TO.P,D18,2*%
%TO.N,Net-(D18-Pad2)*%
X119350000Y-167850000D03*
%TD*%
%TO.P,D19,2*%
%TO.N,Net-(D19-Pad2)*%
X138650000Y-167850000D03*
%TO.P,D19,1*%
%TO.N,Row5*%
X138650000Y-171150000D03*
%TD*%
%TO.P,D20,2*%
%TO.N,Net-(D20-Pad2)*%
X156825000Y-167850000D03*
%TO.P,D20,1*%
%TO.N,Row5*%
X156825000Y-171150000D03*
%TD*%
D15*
%TO.P,H5,1*%
%TO.N,GND*%
X81400000Y-102000000D03*
D14*
X83425000Y-102000000D03*
X82831891Y-103431891D03*
X81400000Y-104025000D03*
X79968109Y-103431891D03*
X79375000Y-102000000D03*
X79968109Y-100568109D03*
X81400000Y-99975000D03*
X82831891Y-100568109D03*
%TD*%
D15*
%TO.P,H6,1*%
%TO.N,GND*%
X157400000Y-102000000D03*
D14*
X159425000Y-102000000D03*
X158831891Y-103431891D03*
X157400000Y-104025000D03*
X155968109Y-103431891D03*
X155375000Y-102000000D03*
X155968109Y-100568109D03*
X157400000Y-99975000D03*
X158831891Y-100568109D03*
%TD*%
%TO.P,H7,1*%
%TO.N,GND*%
X120781891Y-119943109D03*
X119350000Y-119350000D03*
X117918109Y-119943109D03*
X117325000Y-121375000D03*
X117918109Y-122806891D03*
X119350000Y-123400000D03*
X120781891Y-122806891D03*
X121375000Y-121375000D03*
D15*
X119350000Y-121375000D03*
%TD*%
D14*
%TO.P,H8,1*%
%TO.N,GND*%
X82706891Y-177168109D03*
X81275000Y-176575000D03*
X79843109Y-177168109D03*
X79250000Y-178600000D03*
X79843109Y-180031891D03*
X81275000Y-180625000D03*
X82706891Y-180031891D03*
X83300000Y-178600000D03*
D15*
X81275000Y-178600000D03*
%TD*%
D16*
%TO.P,J1,A1*%
%TO.N,GND*%
X122300000Y-43800000D03*
%TO.P,J1,A4*%
%TO.N,+5V*%
X121450000Y-43800000D03*
%TO.P,J1,A5*%
%TO.N,Net-(J1-PadA5)*%
X120600000Y-43800000D03*
%TO.P,J1,A6*%
%TO.N,USB_D+*%
X119750000Y-43800000D03*
%TO.P,J1,A7*%
%TO.N,USB_D-*%
X118900000Y-43800000D03*
%TO.P,J1,A8*%
%TO.N,Net-(J1-PadA8)*%
X118050000Y-43800000D03*
%TO.P,J1,A9*%
%TO.N,+5V*%
X117200000Y-43800000D03*
%TO.P,J1,A12*%
%TO.N,GND*%
X116350000Y-43800000D03*
%TO.P,J1,B9*%
%TO.N,+5V*%
X121450000Y-42450000D03*
%TO.P,J1,B7*%
%TO.N,USB_D-*%
X119750000Y-42450000D03*
%TO.P,J1,B8*%
%TO.N,Net-(J1-PadB8)*%
X120600000Y-42450000D03*
%TO.P,J1,B12*%
%TO.N,GND*%
X122300000Y-42450000D03*
%TO.P,J1,B5*%
%TO.N,Net-(J1-PadB5)*%
X118050000Y-42450000D03*
%TO.P,J1,B4*%
%TO.N,+5V*%
X117200000Y-42450000D03*
%TO.P,J1,B1*%
%TO.N,GND*%
X116350000Y-42450000D03*
%TO.P,J1,B6*%
%TO.N,USB_D+*%
X118900000Y-42450000D03*
D19*
%TO.P,J1,S1*%
%TO.N,Net-(J1-PadS1)*%
X123650000Y-42820000D03*
X115000000Y-42820000D03*
D20*
X123650000Y-39440000D03*
X115000000Y-39440000D03*
%TD*%
D21*
%TO.P,J2,1*%
%TO.N,+3V3*%
X129785000Y-66210000D03*
%TO.P,J2,2*%
%TO.N,SWDIO*%
X129785000Y-67480000D03*
%TO.P,J2,3*%
%TO.N,GND*%
X129785000Y-68750000D03*
%TO.P,J2,4*%
%TO.N,SWCLK*%
X129785000Y-70020000D03*
%TO.P,J2,5*%
%TO.N,Net-(J2-Pad5)*%
X129785000Y-71290000D03*
%TO.P,J2,6*%
%TO.N,SWO*%
X128515000Y-71290000D03*
%TO.P,J2,7*%
%TO.N,UART_RX*%
X128515000Y-70020000D03*
%TO.P,J2,8*%
%TO.N,UART_TX*%
X128515000Y-68750000D03*
%TO.P,J2,9*%
%TO.N,Net-(J2-Pad9)*%
X128515000Y-67480000D03*
%TO.P,J2,10*%
%TO.N,NRST*%
X128515000Y-66210000D03*
%TD*%
%TO.P,SW1,1*%
%TO.N,Net-(D1-Pad2)*%
%TA.AperFunction,ComponentPad*%
G36*
G01*
X92823483Y-89022395D02*
X92823483Y-89022395D01*
G75*
G02*
X91777605Y-87823483I76517J1122395D01*
G01*
X91817147Y-87243451D01*
G75*
G02*
X93016059Y-86197573I1122395J-76517D01*
G01*
X93016059Y-86197573D01*
G75*
G02*
X94061937Y-87396485I-76517J-1122395D01*
G01*
X94022395Y-87976517D01*
G75*
G02*
X92823483Y-89022395I-1122395J76517D01*
G01*
G37*
%TD.AperFunction*%
D13*
X92940000Y-87320000D03*
%TO.P,SW1,2*%
%TO.N,Col1*%
%TA.AperFunction,ComponentPad*%
G36*
G01*
X85838688Y-90697351D02*
X85838688Y-90697350D01*
G75*
G02*
X85752650Y-89108688I751312J837350D01*
G01*
X87062640Y-87648680D01*
G75*
G02*
X88651302Y-87562642I837350J-751312D01*
G01*
X88651302Y-87562642D01*
G75*
G02*
X88737340Y-89151304I-751312J-837350D01*
G01*
X87427350Y-90611312D01*
G75*
G02*
X85838688Y-90697350I-837350J751312D01*
G01*
G37*
%TD.AperFunction*%
X87900000Y-88400000D03*
D12*
%TO.P,SW1,1*%
%TO.N,Net-(D1-Pad2)*%
X95400000Y-88600000D03*
%TO.P,SW1,2*%
%TO.N,Col1*%
X90400000Y-86500000D03*
%TD*%
%TO.P,SW3,2*%
%TO.N,Col3*%
X129000000Y-86500000D03*
%TO.P,SW3,1*%
%TO.N,Net-(D3-Pad2)*%
X134000000Y-88600000D03*
D13*
%TO.P,SW3,2*%
%TO.N,Col3*%
X126500000Y-88400000D03*
%TA.AperFunction,ComponentPad*%
G36*
G01*
X124438688Y-90697351D02*
X124438688Y-90697350D01*
G75*
G02*
X124352650Y-89108688I751312J837350D01*
G01*
X125662640Y-87648680D01*
G75*
G02*
X127251302Y-87562642I837350J-751312D01*
G01*
X127251302Y-87562642D01*
G75*
G02*
X127337340Y-89151304I-751312J-837350D01*
G01*
X126027350Y-90611312D01*
G75*
G02*
X124438688Y-90697350I-837350J751312D01*
G01*
G37*
%TD.AperFunction*%
%TO.P,SW3,1*%
%TO.N,Net-(D3-Pad2)*%
X131540000Y-87320000D03*
%TA.AperFunction,ComponentPad*%
G36*
G01*
X131423483Y-89022395D02*
X131423483Y-89022395D01*
G75*
G02*
X130377605Y-87823483I76517J1122395D01*
G01*
X130417147Y-87243451D01*
G75*
G02*
X131616059Y-86197573I1122395J-76517D01*
G01*
X131616059Y-86197573D01*
G75*
G02*
X132661937Y-87396485I-76517J-1122395D01*
G01*
X132622395Y-87976517D01*
G75*
G02*
X131423483Y-89022395I-1122395J76517D01*
G01*
G37*
%TD.AperFunction*%
%TD*%
%TO.P,SW4,1*%
%TO.N,Net-(D4-Pad2)*%
%TA.AperFunction,ComponentPad*%
G36*
G01*
X150723483Y-89022395D02*
X150723483Y-89022395D01*
G75*
G02*
X149677605Y-87823483I76517J1122395D01*
G01*
X149717147Y-87243451D01*
G75*
G02*
X150916059Y-86197573I1122395J-76517D01*
G01*
X150916059Y-86197573D01*
G75*
G02*
X151961937Y-87396485I-76517J-1122395D01*
G01*
X151922395Y-87976517D01*
G75*
G02*
X150723483Y-89022395I-1122395J76517D01*
G01*
G37*
%TD.AperFunction*%
X150840000Y-87320000D03*
%TO.P,SW4,2*%
%TO.N,Col4*%
%TA.AperFunction,ComponentPad*%
G36*
G01*
X143738688Y-90697351D02*
X143738688Y-90697350D01*
G75*
G02*
X143652650Y-89108688I751312J837350D01*
G01*
X144962640Y-87648680D01*
G75*
G02*
X146551302Y-87562642I837350J-751312D01*
G01*
X146551302Y-87562642D01*
G75*
G02*
X146637340Y-89151304I-751312J-837350D01*
G01*
X145327350Y-90611312D01*
G75*
G02*
X143738688Y-90697350I-837350J751312D01*
G01*
G37*
%TD.AperFunction*%
X145800000Y-88400000D03*
D12*
%TO.P,SW4,1*%
%TO.N,Net-(D4-Pad2)*%
X153300000Y-88600000D03*
%TO.P,SW4,2*%
%TO.N,Col4*%
X148300000Y-86500000D03*
%TD*%
%TO.P,SW5,2*%
%TO.N,Col1*%
X90400000Y-105800000D03*
%TO.P,SW5,1*%
%TO.N,Net-(D5-Pad2)*%
X95400000Y-107900000D03*
D13*
%TO.P,SW5,2*%
%TO.N,Col1*%
X87900000Y-107700000D03*
%TA.AperFunction,ComponentPad*%
G36*
G01*
X85838688Y-109997351D02*
X85838688Y-109997350D01*
G75*
G02*
X85752650Y-108408688I751312J837350D01*
G01*
X87062640Y-106948680D01*
G75*
G02*
X88651302Y-106862642I837350J-751312D01*
G01*
X88651302Y-106862642D01*
G75*
G02*
X88737340Y-108451304I-751312J-837350D01*
G01*
X87427350Y-109911312D01*
G75*
G02*
X85838688Y-109997350I-837350J751312D01*
G01*
G37*
%TD.AperFunction*%
%TO.P,SW5,1*%
%TO.N,Net-(D5-Pad2)*%
X92940000Y-106620000D03*
%TA.AperFunction,ComponentPad*%
G36*
G01*
X92823483Y-108322395D02*
X92823483Y-108322395D01*
G75*
G02*
X91777605Y-107123483I76517J1122395D01*
G01*
X91817147Y-106543451D01*
G75*
G02*
X93016059Y-105497573I1122395J-76517D01*
G01*
X93016059Y-105497573D01*
G75*
G02*
X94061937Y-106696485I-76517J-1122395D01*
G01*
X94022395Y-107276517D01*
G75*
G02*
X92823483Y-108322395I-1122395J76517D01*
G01*
G37*
%TD.AperFunction*%
%TD*%
%TO.P,SW6,1*%
%TO.N,Net-(D6-Pad2)*%
%TA.AperFunction,ComponentPad*%
G36*
G01*
X112123483Y-108322395D02*
X112123483Y-108322395D01*
G75*
G02*
X111077605Y-107123483I76517J1122395D01*
G01*
X111117147Y-106543451D01*
G75*
G02*
X112316059Y-105497573I1122395J-76517D01*
G01*
X112316059Y-105497573D01*
G75*
G02*
X113361937Y-106696485I-76517J-1122395D01*
G01*
X113322395Y-107276517D01*
G75*
G02*
X112123483Y-108322395I-1122395J76517D01*
G01*
G37*
%TD.AperFunction*%
X112240000Y-106620000D03*
%TO.P,SW6,2*%
%TO.N,Col2*%
%TA.AperFunction,ComponentPad*%
G36*
G01*
X105138688Y-109997351D02*
X105138688Y-109997350D01*
G75*
G02*
X105052650Y-108408688I751312J837350D01*
G01*
X106362640Y-106948680D01*
G75*
G02*
X107951302Y-106862642I837350J-751312D01*
G01*
X107951302Y-106862642D01*
G75*
G02*
X108037340Y-108451304I-751312J-837350D01*
G01*
X106727350Y-109911312D01*
G75*
G02*
X105138688Y-109997350I-837350J751312D01*
G01*
G37*
%TD.AperFunction*%
X107200000Y-107700000D03*
D12*
%TO.P,SW6,1*%
%TO.N,Net-(D6-Pad2)*%
X114700000Y-107900000D03*
%TO.P,SW6,2*%
%TO.N,Col2*%
X109700000Y-105800000D03*
%TD*%
%TO.P,SW7,1*%
%TO.N,Net-(D7-Pad2)*%
%TA.AperFunction,ComponentPad*%
G36*
G01*
X131423483Y-108322395D02*
X131423483Y-108322395D01*
G75*
G02*
X130377605Y-107123483I76517J1122395D01*
G01*
X130417147Y-106543451D01*
G75*
G02*
X131616059Y-105497573I1122395J-76517D01*
G01*
X131616059Y-105497573D01*
G75*
G02*
X132661937Y-106696485I-76517J-1122395D01*
G01*
X132622395Y-107276517D01*
G75*
G02*
X131423483Y-108322395I-1122395J76517D01*
G01*
G37*
%TD.AperFunction*%
D13*
X131540000Y-106620000D03*
%TO.P,SW7,2*%
%TO.N,Col3*%
%TA.AperFunction,ComponentPad*%
G36*
G01*
X124438688Y-109997351D02*
X124438688Y-109997350D01*
G75*
G02*
X124352650Y-108408688I751312J837350D01*
G01*
X125662640Y-106948680D01*
G75*
G02*
X127251302Y-106862642I837350J-751312D01*
G01*
X127251302Y-106862642D01*
G75*
G02*
X127337340Y-108451304I-751312J-837350D01*
G01*
X126027350Y-109911312D01*
G75*
G02*
X124438688Y-109997350I-837350J751312D01*
G01*
G37*
%TD.AperFunction*%
X126500000Y-107700000D03*
D12*
%TO.P,SW7,1*%
%TO.N,Net-(D7-Pad2)*%
X134000000Y-107900000D03*
%TO.P,SW7,2*%
%TO.N,Col3*%
X129000000Y-105800000D03*
%TD*%
%TO.P,SW8,2*%
%TO.N,Col4*%
X148300000Y-105800000D03*
%TO.P,SW8,1*%
%TO.N,Net-(D8-Pad2)*%
X153300000Y-107900000D03*
D13*
%TO.P,SW8,2*%
%TO.N,Col4*%
X145800000Y-107700000D03*
%TA.AperFunction,ComponentPad*%
G36*
G01*
X143738688Y-109997351D02*
X143738688Y-109997350D01*
G75*
G02*
X143652650Y-108408688I751312J837350D01*
G01*
X144962640Y-106948680D01*
G75*
G02*
X146551302Y-106862642I837350J-751312D01*
G01*
X146551302Y-106862642D01*
G75*
G02*
X146637340Y-108451304I-751312J-837350D01*
G01*
X145327350Y-109911312D01*
G75*
G02*
X143738688Y-109997350I-837350J751312D01*
G01*
G37*
%TD.AperFunction*%
%TO.P,SW8,1*%
%TO.N,Net-(D8-Pad2)*%
X150840000Y-106620000D03*
%TA.AperFunction,ComponentPad*%
G36*
G01*
X150723483Y-108322395D02*
X150723483Y-108322395D01*
G75*
G02*
X149677605Y-107123483I76517J1122395D01*
G01*
X149717147Y-106543451D01*
G75*
G02*
X150916059Y-105497573I1122395J-76517D01*
G01*
X150916059Y-105497573D01*
G75*
G02*
X151961937Y-106696485I-76517J-1122395D01*
G01*
X151922395Y-107276517D01*
G75*
G02*
X150723483Y-108322395I-1122395J76517D01*
G01*
G37*
%TD.AperFunction*%
%TD*%
D12*
%TO.P,SW9,2*%
%TO.N,Col1*%
X90400000Y-125100000D03*
%TO.P,SW9,1*%
%TO.N,Net-(D9-Pad2)*%
X95400000Y-127200000D03*
D13*
%TO.P,SW9,2*%
%TO.N,Col1*%
X87900000Y-127000000D03*
%TA.AperFunction,ComponentPad*%
G36*
G01*
X85838688Y-129297351D02*
X85838688Y-129297350D01*
G75*
G02*
X85752650Y-127708688I751312J837350D01*
G01*
X87062640Y-126248680D01*
G75*
G02*
X88651302Y-126162642I837350J-751312D01*
G01*
X88651302Y-126162642D01*
G75*
G02*
X88737340Y-127751304I-751312J-837350D01*
G01*
X87427350Y-129211312D01*
G75*
G02*
X85838688Y-129297350I-837350J751312D01*
G01*
G37*
%TD.AperFunction*%
%TO.P,SW9,1*%
%TO.N,Net-(D9-Pad2)*%
X92940000Y-125920000D03*
%TA.AperFunction,ComponentPad*%
G36*
G01*
X92823483Y-127622395D02*
X92823483Y-127622395D01*
G75*
G02*
X91777605Y-126423483I76517J1122395D01*
G01*
X91817147Y-125843451D01*
G75*
G02*
X93016059Y-124797573I1122395J-76517D01*
G01*
X93016059Y-124797573D01*
G75*
G02*
X94061937Y-125996485I-76517J-1122395D01*
G01*
X94022395Y-126576517D01*
G75*
G02*
X92823483Y-127622395I-1122395J76517D01*
G01*
G37*
%TD.AperFunction*%
%TD*%
D12*
%TO.P,SW10,2*%
%TO.N,Col2*%
X109700000Y-125100000D03*
%TO.P,SW10,1*%
%TO.N,Net-(D10-Pad2)*%
X114700000Y-127200000D03*
D13*
%TO.P,SW10,2*%
%TO.N,Col2*%
X107200000Y-127000000D03*
%TA.AperFunction,ComponentPad*%
G36*
G01*
X105138688Y-129297351D02*
X105138688Y-129297350D01*
G75*
G02*
X105052650Y-127708688I751312J837350D01*
G01*
X106362640Y-126248680D01*
G75*
G02*
X107951302Y-126162642I837350J-751312D01*
G01*
X107951302Y-126162642D01*
G75*
G02*
X108037340Y-127751304I-751312J-837350D01*
G01*
X106727350Y-129211312D01*
G75*
G02*
X105138688Y-129297350I-837350J751312D01*
G01*
G37*
%TD.AperFunction*%
%TO.P,SW10,1*%
%TO.N,Net-(D10-Pad2)*%
X112240000Y-125920000D03*
%TA.AperFunction,ComponentPad*%
G36*
G01*
X112123483Y-127622395D02*
X112123483Y-127622395D01*
G75*
G02*
X111077605Y-126423483I76517J1122395D01*
G01*
X111117147Y-125843451D01*
G75*
G02*
X112316059Y-124797573I1122395J-76517D01*
G01*
X112316059Y-124797573D01*
G75*
G02*
X113361937Y-125996485I-76517J-1122395D01*
G01*
X113322395Y-126576517D01*
G75*
G02*
X112123483Y-127622395I-1122395J76517D01*
G01*
G37*
%TD.AperFunction*%
%TD*%
D12*
%TO.P,SW11,2*%
%TO.N,Col3*%
X129000000Y-125100000D03*
%TO.P,SW11,1*%
%TO.N,Net-(D11-Pad2)*%
X134000000Y-127200000D03*
D13*
%TO.P,SW11,2*%
%TO.N,Col3*%
X126500000Y-127000000D03*
%TA.AperFunction,ComponentPad*%
G36*
G01*
X124438688Y-129297351D02*
X124438688Y-129297350D01*
G75*
G02*
X124352650Y-127708688I751312J837350D01*
G01*
X125662640Y-126248680D01*
G75*
G02*
X127251302Y-126162642I837350J-751312D01*
G01*
X127251302Y-126162642D01*
G75*
G02*
X127337340Y-127751304I-751312J-837350D01*
G01*
X126027350Y-129211312D01*
G75*
G02*
X124438688Y-129297350I-837350J751312D01*
G01*
G37*
%TD.AperFunction*%
%TO.P,SW11,1*%
%TO.N,Net-(D11-Pad2)*%
X131540000Y-125920000D03*
%TA.AperFunction,ComponentPad*%
G36*
G01*
X131423483Y-127622395D02*
X131423483Y-127622395D01*
G75*
G02*
X130377605Y-126423483I76517J1122395D01*
G01*
X130417147Y-125843451D01*
G75*
G02*
X131616059Y-124797573I1122395J-76517D01*
G01*
X131616059Y-124797573D01*
G75*
G02*
X132661937Y-125996485I-76517J-1122395D01*
G01*
X132622395Y-126576517D01*
G75*
G02*
X131423483Y-127622395I-1122395J76517D01*
G01*
G37*
%TD.AperFunction*%
%TD*%
%TO.P,SW12,1*%
%TO.N,Net-(D12-Pad2)*%
%TA.AperFunction,ComponentPad*%
G36*
G01*
X150723483Y-127622395D02*
X150723483Y-127622395D01*
G75*
G02*
X149677605Y-126423483I76517J1122395D01*
G01*
X149717147Y-125843451D01*
G75*
G02*
X150916059Y-124797573I1122395J-76517D01*
G01*
X150916059Y-124797573D01*
G75*
G02*
X151961937Y-125996485I-76517J-1122395D01*
G01*
X151922395Y-126576517D01*
G75*
G02*
X150723483Y-127622395I-1122395J76517D01*
G01*
G37*
%TD.AperFunction*%
X150840000Y-125920000D03*
%TO.P,SW12,2*%
%TO.N,Col4*%
%TA.AperFunction,ComponentPad*%
G36*
G01*
X143738688Y-129297351D02*
X143738688Y-129297350D01*
G75*
G02*
X143652650Y-127708688I751312J837350D01*
G01*
X144962640Y-126248680D01*
G75*
G02*
X146551302Y-126162642I837350J-751312D01*
G01*
X146551302Y-126162642D01*
G75*
G02*
X146637340Y-127751304I-751312J-837350D01*
G01*
X145327350Y-129211312D01*
G75*
G02*
X143738688Y-129297350I-837350J751312D01*
G01*
G37*
%TD.AperFunction*%
X145800000Y-127000000D03*
D12*
%TO.P,SW12,1*%
%TO.N,Net-(D12-Pad2)*%
X153300000Y-127200000D03*
%TO.P,SW12,2*%
%TO.N,Col4*%
X148300000Y-125100000D03*
%TD*%
%TO.P,SW13,1*%
%TO.N,Net-(D13-Pad2)*%
%TA.AperFunction,ComponentPad*%
G36*
G01*
X92823483Y-146922395D02*
X92823483Y-146922395D01*
G75*
G02*
X91777605Y-145723483I76517J1122395D01*
G01*
X91817147Y-145143451D01*
G75*
G02*
X93016059Y-144097573I1122395J-76517D01*
G01*
X93016059Y-144097573D01*
G75*
G02*
X94061937Y-145296485I-76517J-1122395D01*
G01*
X94022395Y-145876517D01*
G75*
G02*
X92823483Y-146922395I-1122395J76517D01*
G01*
G37*
%TD.AperFunction*%
D13*
X92940000Y-145220000D03*
%TO.P,SW13,2*%
%TO.N,Col1*%
%TA.AperFunction,ComponentPad*%
G36*
G01*
X85838688Y-148597351D02*
X85838688Y-148597350D01*
G75*
G02*
X85752650Y-147008688I751312J837350D01*
G01*
X87062640Y-145548680D01*
G75*
G02*
X88651302Y-145462642I837350J-751312D01*
G01*
X88651302Y-145462642D01*
G75*
G02*
X88737340Y-147051304I-751312J-837350D01*
G01*
X87427350Y-148511312D01*
G75*
G02*
X85838688Y-148597350I-837350J751312D01*
G01*
G37*
%TD.AperFunction*%
X87900000Y-146300000D03*
D12*
%TO.P,SW13,1*%
%TO.N,Net-(D13-Pad2)*%
X95400000Y-146500000D03*
%TO.P,SW13,2*%
%TO.N,Col1*%
X90400000Y-144400000D03*
%TD*%
%TO.P,SW14,1*%
%TO.N,Net-(D14-Pad2)*%
%TA.AperFunction,ComponentPad*%
G36*
G01*
X112123483Y-146922395D02*
X112123483Y-146922395D01*
G75*
G02*
X111077605Y-145723483I76517J1122395D01*
G01*
X111117147Y-145143451D01*
G75*
G02*
X112316059Y-144097573I1122395J-76517D01*
G01*
X112316059Y-144097573D01*
G75*
G02*
X113361937Y-145296485I-76517J-1122395D01*
G01*
X113322395Y-145876517D01*
G75*
G02*
X112123483Y-146922395I-1122395J76517D01*
G01*
G37*
%TD.AperFunction*%
D13*
X112240000Y-145220000D03*
%TO.P,SW14,2*%
%TO.N,Col2*%
%TA.AperFunction,ComponentPad*%
G36*
G01*
X105138688Y-148597351D02*
X105138688Y-148597350D01*
G75*
G02*
X105052650Y-147008688I751312J837350D01*
G01*
X106362640Y-145548680D01*
G75*
G02*
X107951302Y-145462642I837350J-751312D01*
G01*
X107951302Y-145462642D01*
G75*
G02*
X108037340Y-147051304I-751312J-837350D01*
G01*
X106727350Y-148511312D01*
G75*
G02*
X105138688Y-148597350I-837350J751312D01*
G01*
G37*
%TD.AperFunction*%
X107200000Y-146300000D03*
D12*
%TO.P,SW14,1*%
%TO.N,Net-(D14-Pad2)*%
X114700000Y-146500000D03*
%TO.P,SW14,2*%
%TO.N,Col2*%
X109700000Y-144400000D03*
%TD*%
%TO.P,SW15,1*%
%TO.N,Net-(D15-Pad2)*%
%TA.AperFunction,ComponentPad*%
G36*
G01*
X131423483Y-146922395D02*
X131423483Y-146922395D01*
G75*
G02*
X130377605Y-145723483I76517J1122395D01*
G01*
X130417147Y-145143451D01*
G75*
G02*
X131616059Y-144097573I1122395J-76517D01*
G01*
X131616059Y-144097573D01*
G75*
G02*
X132661937Y-145296485I-76517J-1122395D01*
G01*
X132622395Y-145876517D01*
G75*
G02*
X131423483Y-146922395I-1122395J76517D01*
G01*
G37*
%TD.AperFunction*%
D13*
X131540000Y-145220000D03*
%TO.P,SW15,2*%
%TO.N,Col3*%
%TA.AperFunction,ComponentPad*%
G36*
G01*
X124438688Y-148597351D02*
X124438688Y-148597350D01*
G75*
G02*
X124352650Y-147008688I751312J837350D01*
G01*
X125662640Y-145548680D01*
G75*
G02*
X127251302Y-145462642I837350J-751312D01*
G01*
X127251302Y-145462642D01*
G75*
G02*
X127337340Y-147051304I-751312J-837350D01*
G01*
X126027350Y-148511312D01*
G75*
G02*
X124438688Y-148597350I-837350J751312D01*
G01*
G37*
%TD.AperFunction*%
X126500000Y-146300000D03*
D12*
%TO.P,SW15,1*%
%TO.N,Net-(D15-Pad2)*%
X134000000Y-146500000D03*
%TO.P,SW15,2*%
%TO.N,Col3*%
X129000000Y-144400000D03*
%TD*%
%TO.P,SW16,1*%
%TO.N,Net-(D16-Pad2)*%
%TA.AperFunction,ComponentPad*%
G36*
G01*
X150723483Y-146922395D02*
X150723483Y-146922395D01*
G75*
G02*
X149677605Y-145723483I76517J1122395D01*
G01*
X149717147Y-145143451D01*
G75*
G02*
X150916059Y-144097573I1122395J-76517D01*
G01*
X150916059Y-144097573D01*
G75*
G02*
X151961937Y-145296485I-76517J-1122395D01*
G01*
X151922395Y-145876517D01*
G75*
G02*
X150723483Y-146922395I-1122395J76517D01*
G01*
G37*
%TD.AperFunction*%
D13*
X150840000Y-145220000D03*
%TO.P,SW16,2*%
%TO.N,Col4*%
%TA.AperFunction,ComponentPad*%
G36*
G01*
X143738688Y-148597351D02*
X143738688Y-148597350D01*
G75*
G02*
X143652650Y-147008688I751312J837350D01*
G01*
X144962640Y-145548680D01*
G75*
G02*
X146551302Y-145462642I837350J-751312D01*
G01*
X146551302Y-145462642D01*
G75*
G02*
X146637340Y-147051304I-751312J-837350D01*
G01*
X145327350Y-148511312D01*
G75*
G02*
X143738688Y-148597350I-837350J751312D01*
G01*
G37*
%TD.AperFunction*%
X145800000Y-146300000D03*
D12*
%TO.P,SW16,1*%
%TO.N,Net-(D16-Pad2)*%
X153300000Y-146500000D03*
%TO.P,SW16,2*%
%TO.N,Col4*%
X148300000Y-144400000D03*
%TD*%
%TO.P,SW17,2*%
%TO.N,Col1*%
X90400000Y-163600000D03*
%TO.P,SW17,1*%
%TO.N,Net-(D17-Pad2)*%
X95400000Y-165700000D03*
D13*
%TO.P,SW17,2*%
%TO.N,Col1*%
X87900000Y-165500000D03*
%TA.AperFunction,ComponentPad*%
G36*
G01*
X85838688Y-167797351D02*
X85838688Y-167797350D01*
G75*
G02*
X85752650Y-166208688I751312J837350D01*
G01*
X87062640Y-164748680D01*
G75*
G02*
X88651302Y-164662642I837350J-751312D01*
G01*
X88651302Y-164662642D01*
G75*
G02*
X88737340Y-166251304I-751312J-837350D01*
G01*
X87427350Y-167711312D01*
G75*
G02*
X85838688Y-167797350I-837350J751312D01*
G01*
G37*
%TD.AperFunction*%
%TO.P,SW17,1*%
%TO.N,Net-(D17-Pad2)*%
X92940000Y-164420000D03*
%TA.AperFunction,ComponentPad*%
G36*
G01*
X92823483Y-166122395D02*
X92823483Y-166122395D01*
G75*
G02*
X91777605Y-164923483I76517J1122395D01*
G01*
X91817147Y-164343451D01*
G75*
G02*
X93016059Y-163297573I1122395J-76517D01*
G01*
X93016059Y-163297573D01*
G75*
G02*
X94061937Y-164496485I-76517J-1122395D01*
G01*
X94022395Y-165076517D01*
G75*
G02*
X92823483Y-166122395I-1122395J76517D01*
G01*
G37*
%TD.AperFunction*%
%TD*%
D12*
%TO.P,SW18,2*%
%TO.N,Col2*%
X109700000Y-163600000D03*
%TO.P,SW18,1*%
%TO.N,Net-(D18-Pad2)*%
X114700000Y-165700000D03*
D13*
%TO.P,SW18,2*%
%TO.N,Col2*%
X107200000Y-165500000D03*
%TA.AperFunction,ComponentPad*%
G36*
G01*
X105138688Y-167797351D02*
X105138688Y-167797350D01*
G75*
G02*
X105052650Y-166208688I751312J837350D01*
G01*
X106362640Y-164748680D01*
G75*
G02*
X107951302Y-164662642I837350J-751312D01*
G01*
X107951302Y-164662642D01*
G75*
G02*
X108037340Y-166251304I-751312J-837350D01*
G01*
X106727350Y-167711312D01*
G75*
G02*
X105138688Y-167797350I-837350J751312D01*
G01*
G37*
%TD.AperFunction*%
%TO.P,SW18,1*%
%TO.N,Net-(D18-Pad2)*%
X112240000Y-164420000D03*
%TA.AperFunction,ComponentPad*%
G36*
G01*
X112123483Y-166122395D02*
X112123483Y-166122395D01*
G75*
G02*
X111077605Y-164923483I76517J1122395D01*
G01*
X111117147Y-164343451D01*
G75*
G02*
X112316059Y-163297573I1122395J-76517D01*
G01*
X112316059Y-163297573D01*
G75*
G02*
X113361937Y-164496485I-76517J-1122395D01*
G01*
X113322395Y-165076517D01*
G75*
G02*
X112123483Y-166122395I-1122395J76517D01*
G01*
G37*
%TD.AperFunction*%
%TD*%
D12*
%TO.P,SW19,2*%
%TO.N,Col3*%
X129000000Y-163600000D03*
%TO.P,SW19,1*%
%TO.N,Net-(D19-Pad2)*%
X134000000Y-165700000D03*
D13*
%TO.P,SW19,2*%
%TO.N,Col3*%
X126500000Y-165500000D03*
%TA.AperFunction,ComponentPad*%
G36*
G01*
X124438688Y-167797351D02*
X124438688Y-167797350D01*
G75*
G02*
X124352650Y-166208688I751312J837350D01*
G01*
X125662640Y-164748680D01*
G75*
G02*
X127251302Y-164662642I837350J-751312D01*
G01*
X127251302Y-164662642D01*
G75*
G02*
X127337340Y-166251304I-751312J-837350D01*
G01*
X126027350Y-167711312D01*
G75*
G02*
X124438688Y-167797350I-837350J751312D01*
G01*
G37*
%TD.AperFunction*%
%TO.P,SW19,1*%
%TO.N,Net-(D19-Pad2)*%
X131540000Y-164420000D03*
%TA.AperFunction,ComponentPad*%
G36*
G01*
X131423483Y-166122395D02*
X131423483Y-166122395D01*
G75*
G02*
X130377605Y-164923483I76517J1122395D01*
G01*
X130417147Y-164343451D01*
G75*
G02*
X131616059Y-163297573I1122395J-76517D01*
G01*
X131616059Y-163297573D01*
G75*
G02*
X132661937Y-164496485I-76517J-1122395D01*
G01*
X132622395Y-165076517D01*
G75*
G02*
X131423483Y-166122395I-1122395J76517D01*
G01*
G37*
%TD.AperFunction*%
%TD*%
%TO.P,SW20,1*%
%TO.N,Net-(D20-Pad2)*%
%TA.AperFunction,ComponentPad*%
G36*
G01*
X150723483Y-166122395D02*
X150723483Y-166122395D01*
G75*
G02*
X149677605Y-164923483I76517J1122395D01*
G01*
X149717147Y-164343451D01*
G75*
G02*
X150916059Y-163297573I1122395J-76517D01*
G01*
X150916059Y-163297573D01*
G75*
G02*
X151961937Y-164496485I-76517J-1122395D01*
G01*
X151922395Y-165076517D01*
G75*
G02*
X150723483Y-166122395I-1122395J76517D01*
G01*
G37*
%TD.AperFunction*%
X150840000Y-164420000D03*
%TO.P,SW20,2*%
%TO.N,Col4*%
%TA.AperFunction,ComponentPad*%
G36*
G01*
X143738688Y-167797351D02*
X143738688Y-167797350D01*
G75*
G02*
X143652650Y-166208688I751312J837350D01*
G01*
X144962640Y-164748680D01*
G75*
G02*
X146551302Y-164662642I837350J-751312D01*
G01*
X146551302Y-164662642D01*
G75*
G02*
X146637340Y-166251304I-751312J-837350D01*
G01*
X145327350Y-167711312D01*
G75*
G02*
X143738688Y-167797350I-837350J751312D01*
G01*
G37*
%TD.AperFunction*%
X145800000Y-165500000D03*
D12*
%TO.P,SW20,1*%
%TO.N,Net-(D20-Pad2)*%
X153300000Y-165700000D03*
%TO.P,SW20,2*%
%TO.N,Col4*%
X148300000Y-163600000D03*
%TD*%
%TA.AperFunction,SMDPad,CuDef*%
D22*
%TO.P,JP1,2*%
%TO.N,Net-(JP1-Pad2)*%
G36*
X109105000Y-43220000D02*
G01*
X107955000Y-43220000D01*
X108455000Y-42470000D01*
X107955000Y-41720000D01*
X109105000Y-41720000D01*
X109105000Y-43220000D01*
G37*
%TD.AperFunction*%
%TA.AperFunction,SMDPad,CuDef*%
%TO.P,JP1,1*%
%TO.N,+3V3*%
G36*
X108155000Y-42470000D02*
G01*
X107655000Y-43220000D01*
X106655000Y-43220000D01*
X106655000Y-41720000D01*
X107655000Y-41720000D01*
X108155000Y-42470000D01*
G37*
%TD.AperFunction*%
%TD*%
D23*
%TO.N,GND*%
X135880000Y-61990000D03*
X138440000Y-60930000D03*
X130730000Y-68380000D03*
X111360000Y-39090000D03*
X101700000Y-71650000D03*
X111500000Y-74820000D03*
X134020000Y-54440000D03*
X105330000Y-56050000D03*
X116870000Y-60140000D03*
X93740000Y-67710000D03*
X96780000Y-58580000D03*
X134100000Y-56380000D03*
X116890001Y-48560001D03*
X125670000Y-40280000D03*
%TO.N,+3V3*%
X130900000Y-66520000D03*
X105720000Y-42460000D03*
X113250000Y-74845000D03*
X133780000Y-60240000D03*
X104800000Y-73250000D03*
X100920000Y-56030000D03*
X116780000Y-58400000D03*
X125530000Y-51200000D03*
X139510000Y-58300000D03*
%TO.N,Row1*%
X140170000Y-94080000D03*
%TO.N,Row4*%
X140270000Y-151950000D03*
%TO.N,Row3*%
X140210000Y-132650000D03*
%TO.N,Row2*%
X140100000Y-113250000D03*
%TO.N,Row5*%
X140360000Y-171150000D03*
%TO.N,Net-(J1-PadA5)*%
X125750000Y-44310000D03*
%TO.N,Net-(J1-PadB5)*%
X113150000Y-40710000D03*
%TO.N,SWDIO*%
X131359424Y-67408220D03*
%TO.N,SWCLK*%
X114120000Y-53690000D03*
%TO.N,SWO*%
X118660000Y-73220000D03*
%TO.N,UART_RX*%
X110620000Y-66540000D03*
%TO.N,UART_TX*%
X110660000Y-65300000D03*
%TO.N,NRST*%
X108240000Y-64330000D03*
%TO.N,TS_BSY*%
X104520000Y-62680000D03*
X90510000Y-63890000D03*
%TO.N,TS_CS*%
X105220000Y-60080000D03*
X90510000Y-61350000D03*
%TO.N,SPI_MOSI*%
X106790000Y-54490000D03*
%TO.N,SPI_SCK*%
X107810000Y-52120000D03*
%TO.N,Net-(JP1-Pad2)*%
X109955000Y-42470000D03*
X106430000Y-56090000D03*
%TO.N,Col4*%
X134150000Y-81020000D03*
%TO.N,TS_IQR*%
X99150000Y-67400000D03*
%TD*%
D24*
%TO.N,GND*%
X129805000Y-68770000D02*
X129785000Y-68750000D01*
D25*
X130155000Y-68380000D02*
X129785000Y-68750000D01*
X130730000Y-68380000D02*
X130155000Y-68380000D01*
%TO.N,+3V3*%
X105730000Y-42470000D02*
X105720000Y-42460000D01*
X107155000Y-42470000D02*
X105730000Y-42470000D01*
X130095000Y-66520000D02*
X129785000Y-66210000D01*
X130900000Y-66520000D02*
X130095000Y-66520000D01*
D26*
%TO.N,Row1*%
X108586927Y-94718901D02*
X111406099Y-94718901D01*
X100050000Y-94150000D02*
X108018026Y-94150000D01*
X108018026Y-94150000D02*
X108586927Y-94718901D01*
X111975000Y-94150000D02*
X119350000Y-94150000D01*
X111406099Y-94718901D02*
X111975000Y-94150000D01*
X119350000Y-94150000D02*
X124575000Y-94150000D01*
X124575000Y-94150000D02*
X125950000Y-95525000D01*
X125950000Y-95525000D02*
X131550000Y-95525000D01*
X132925000Y-94150000D02*
X138650000Y-94150000D01*
X131550000Y-95525000D02*
X132925000Y-94150000D01*
X144275000Y-94150000D02*
X145825000Y-95700000D01*
X145825000Y-95700000D02*
X150025000Y-95700000D01*
X151575000Y-94150000D02*
X156825000Y-94150000D01*
X150025000Y-95700000D02*
X151575000Y-94150000D01*
D24*
X140170000Y-94080000D02*
X140240000Y-94150000D01*
D26*
X138650000Y-94150000D02*
X140240000Y-94150000D01*
X140240000Y-94150000D02*
X144275000Y-94150000D01*
%TO.N,Net-(D1-Pad2)*%
X97650000Y-90850000D02*
X95400000Y-88600000D01*
X100050000Y-90850000D02*
X97650000Y-90850000D01*
X94120000Y-87320000D02*
X92940000Y-87320000D01*
X95400000Y-88600000D02*
X94120000Y-87320000D01*
%TO.N,Net-(D2-Pad2)*%
X114000000Y-87900000D02*
X114700000Y-88600000D01*
X112200000Y-87900000D02*
X114000000Y-87900000D01*
X116950000Y-90850000D02*
X114700000Y-88600000D01*
X119350000Y-90850000D02*
X116950000Y-90850000D01*
%TO.N,Net-(D3-Pad2)*%
X133300000Y-87900000D02*
X134000000Y-88600000D01*
X131500000Y-87900000D02*
X133300000Y-87900000D01*
X136250000Y-90850000D02*
X134000000Y-88600000D01*
X138650000Y-90850000D02*
X136250000Y-90850000D01*
%TO.N,Net-(D4-Pad2)*%
X152600000Y-87900000D02*
X153300000Y-88600000D01*
X150800000Y-87900000D02*
X152600000Y-87900000D01*
X155550000Y-90850000D02*
X156825000Y-90850000D01*
X153300000Y-88600000D02*
X155550000Y-90850000D01*
%TO.N,Net-(D5-Pad2)*%
X97450000Y-109950000D02*
X95400000Y-107900000D01*
X100050000Y-109950000D02*
X97450000Y-109950000D01*
X94700000Y-107200000D02*
X95400000Y-107900000D01*
X92900000Y-107200000D02*
X94700000Y-107200000D01*
%TO.N,Row4*%
X100050000Y-151950000D02*
X106075000Y-151950000D01*
X106075000Y-151950000D02*
X107675000Y-153550000D01*
X107675000Y-153550000D02*
X111225000Y-153550000D01*
X112825000Y-151950000D02*
X119350000Y-151950000D01*
X111225000Y-153550000D02*
X112825000Y-151950000D01*
X119350000Y-151950000D02*
X124900000Y-151950000D01*
X124900000Y-151950000D02*
X126575000Y-153625000D01*
X126575000Y-153625000D02*
X130750000Y-153625000D01*
X132425000Y-151950000D02*
X138650000Y-151950000D01*
X130750000Y-153625000D02*
X132425000Y-151950000D01*
X156825000Y-151950000D02*
X152150000Y-151950000D01*
X152150000Y-151950000D02*
X150375000Y-153725000D01*
X150375000Y-153725000D02*
X146975000Y-153725000D01*
X146975000Y-153725000D02*
X145200000Y-151950000D01*
X145200000Y-151950000D02*
X140270000Y-151950000D01*
X140270000Y-151950000D02*
X138650000Y-151950000D01*
%TO.N,Net-(D6-Pad2)*%
X116750000Y-109950000D02*
X114700000Y-107900000D01*
X119300000Y-109950000D02*
X116750000Y-109950000D01*
X112900000Y-107900000D02*
X112200000Y-107200000D01*
X114700000Y-107900000D02*
X112900000Y-107900000D01*
%TO.N,Net-(D7-Pad2)*%
X133300000Y-107200000D02*
X134000000Y-107900000D01*
X131500000Y-107200000D02*
X133300000Y-107200000D01*
X136650000Y-107900000D02*
X138700000Y-109950000D01*
X134000000Y-107900000D02*
X136650000Y-107900000D01*
%TO.N,Net-(D8-Pad2)*%
X152600000Y-107200000D02*
X153300000Y-107900000D01*
X150800000Y-107200000D02*
X152600000Y-107200000D01*
X154775000Y-107900000D02*
X156825000Y-109950000D01*
X153300000Y-107900000D02*
X154775000Y-107900000D01*
%TO.N,Row3*%
X100050000Y-132650000D02*
X106000000Y-132650000D01*
X106000000Y-132650000D02*
X107575000Y-134225000D01*
X107575000Y-134225000D02*
X111575000Y-134225000D01*
X113150000Y-132650000D02*
X119350000Y-132650000D01*
X111575000Y-134225000D02*
X113150000Y-132650000D01*
X119350000Y-132650000D02*
X125750000Y-132650000D01*
X125750000Y-132650000D02*
X127425000Y-134325000D01*
X127425000Y-134325000D02*
X131200000Y-134325000D01*
X132875000Y-132650000D02*
X138650000Y-132650000D01*
X131200000Y-134325000D02*
X132875000Y-132650000D01*
X156825000Y-132625000D02*
X152200000Y-132625000D01*
X152200000Y-132625000D02*
X150125000Y-134700000D01*
X150125000Y-134700000D02*
X146850000Y-134700000D01*
X146850000Y-134700000D02*
X144800000Y-132650000D01*
X144800000Y-132650000D02*
X140210000Y-132650000D01*
X140210000Y-132650000D02*
X138650000Y-132650000D01*
%TO.N,Net-(D9-Pad2)*%
X94700000Y-126500000D02*
X95400000Y-127200000D01*
X92900000Y-126500000D02*
X94700000Y-126500000D01*
X97550000Y-129350000D02*
X95400000Y-127200000D01*
X100050000Y-129350000D02*
X97550000Y-129350000D01*
%TO.N,Net-(D10-Pad2)*%
X116850000Y-129350000D02*
X114700000Y-127200000D01*
X119350000Y-129350000D02*
X116850000Y-129350000D01*
X112900000Y-127200000D02*
X112200000Y-126500000D01*
X114700000Y-127200000D02*
X112900000Y-127200000D01*
%TO.N,Net-(D11-Pad2)*%
X136150000Y-129350000D02*
X134000000Y-127200000D01*
X138650000Y-129350000D02*
X136150000Y-129350000D01*
X132720000Y-125920000D02*
X131540000Y-125920000D01*
X134000000Y-127200000D02*
X132720000Y-125920000D01*
%TO.N,Net-(D12-Pad2)*%
X152600000Y-126500000D02*
X153300000Y-127200000D01*
X150800000Y-126500000D02*
X152600000Y-126500000D01*
X155425000Y-129325000D02*
X153300000Y-127200000D01*
X156825000Y-129325000D02*
X155425000Y-129325000D01*
%TO.N,Net-(D13-Pad2)*%
X94700000Y-145800000D02*
X95400000Y-146500000D01*
X92900000Y-145800000D02*
X94700000Y-145800000D01*
X97550000Y-148650000D02*
X95400000Y-146500000D01*
X100050000Y-148650000D02*
X97550000Y-148650000D01*
%TO.N,Row2*%
X144400000Y-113250000D02*
X146625000Y-115475000D01*
X146625000Y-115475000D02*
X149725000Y-115475000D01*
X151950000Y-113250000D02*
X156825000Y-113250000D01*
X149725000Y-115475000D02*
X151950000Y-113250000D01*
X138700000Y-113250000D02*
X133550000Y-113250000D01*
X133550000Y-113250000D02*
X131600000Y-115200000D01*
X131600000Y-115200000D02*
X126900000Y-115200000D01*
X124950000Y-113250000D02*
X119300000Y-113250000D01*
X126900000Y-115200000D02*
X124950000Y-113250000D01*
X119300000Y-113250000D02*
X113575000Y-113250000D01*
X113575000Y-113250000D02*
X111725000Y-115100000D01*
X111725000Y-115100000D02*
X107300000Y-115100000D01*
X105450000Y-113250000D02*
X100050000Y-113250000D01*
X107300000Y-115100000D02*
X105450000Y-113250000D01*
X138700000Y-113250000D02*
X140100000Y-113250000D01*
X140100000Y-113250000D02*
X144400000Y-113250000D01*
%TO.N,Net-(D14-Pad2)*%
X116850000Y-148650000D02*
X114700000Y-146500000D01*
X119350000Y-148650000D02*
X116850000Y-148650000D01*
X114000000Y-145800000D02*
X114700000Y-146500000D01*
X112200000Y-145800000D02*
X114000000Y-145800000D01*
%TO.N,Net-(D15-Pad2)*%
X136150000Y-148650000D02*
X134000000Y-146500000D01*
X138650000Y-148650000D02*
X136150000Y-148650000D01*
X132720000Y-145220000D02*
X131540000Y-145220000D01*
X134000000Y-146500000D02*
X132720000Y-145220000D01*
%TO.N,Net-(D16-Pad2)*%
X152600000Y-145800000D02*
X153300000Y-146500000D01*
X150800000Y-145800000D02*
X152600000Y-145800000D01*
X155450000Y-148650000D02*
X153300000Y-146500000D01*
X156825000Y-148650000D02*
X155450000Y-148650000D01*
%TO.N,Row5*%
X156825000Y-171150000D02*
X152025000Y-171150000D01*
X152025000Y-171150000D02*
X150300000Y-172875000D01*
X150300000Y-172875000D02*
X146450000Y-172875000D01*
X146450000Y-172875000D02*
X144725000Y-171150000D01*
X138650000Y-171150000D02*
X132600000Y-171150000D01*
X132600000Y-171150000D02*
X130750000Y-173000000D01*
X130750000Y-173000000D02*
X127175000Y-173000000D01*
X125325000Y-171150000D02*
X119350000Y-171150000D01*
X127175000Y-173000000D02*
X125325000Y-171150000D01*
X119350000Y-171150000D02*
X112525000Y-171150000D01*
X112525000Y-171150000D02*
X110575000Y-173100000D01*
X110575000Y-173100000D02*
X108100000Y-173100000D01*
X106150000Y-171150000D02*
X100050000Y-171150000D01*
X108100000Y-173100000D02*
X106150000Y-171150000D01*
X144725000Y-171150000D02*
X140360000Y-171150000D01*
X140360000Y-171150000D02*
X138650000Y-171150000D01*
%TO.N,Net-(D17-Pad2)*%
X97550000Y-167850000D02*
X95400000Y-165700000D01*
X100050000Y-167850000D02*
X97550000Y-167850000D01*
X94700000Y-165000000D02*
X95400000Y-165700000D01*
X92900000Y-165000000D02*
X94700000Y-165000000D01*
%TO.N,Net-(D18-Pad2)*%
X114000000Y-165000000D02*
X114700000Y-165700000D01*
X112200000Y-165000000D02*
X114000000Y-165000000D01*
X116850000Y-167850000D02*
X114700000Y-165700000D01*
X119350000Y-167850000D02*
X116850000Y-167850000D01*
%TO.N,Net-(D19-Pad2)*%
X133300000Y-165000000D02*
X134000000Y-165700000D01*
X131500000Y-165000000D02*
X133300000Y-165000000D01*
X136150000Y-167850000D02*
X134000000Y-165700000D01*
X138650000Y-167850000D02*
X136150000Y-167850000D01*
%TO.N,Net-(D20-Pad2)*%
X155450000Y-167850000D02*
X153300000Y-165700000D01*
X156825000Y-167850000D02*
X155450000Y-167850000D01*
X152600000Y-165000000D02*
X153300000Y-165700000D01*
X150800000Y-165000000D02*
X152600000Y-165000000D01*
%TO.N,Net-(J1-PadA5)*%
X120600000Y-43800000D02*
X120600000Y-45140000D01*
X120600000Y-45140000D02*
X121750000Y-46290000D01*
X121750000Y-46290000D02*
X124690000Y-46290000D01*
X124690000Y-46290000D02*
X125750000Y-45230000D01*
X125750000Y-45230000D02*
X125750000Y-44310000D01*
%TO.N,USB_D-*%
X118900000Y-43650998D02*
X118900000Y-43800000D01*
X119575001Y-42474999D02*
X119575001Y-42975997D01*
X119575001Y-42975997D02*
X118900000Y-43650998D01*
X119600000Y-42450000D02*
X119575001Y-42474999D01*
X119750000Y-42450000D02*
X119600000Y-42450000D01*
%TO.N,Net-(J1-PadB5)*%
X116804974Y-40710000D02*
X113150000Y-40710000D01*
X118050000Y-42450000D02*
X118050000Y-41955026D01*
X118050000Y-41955026D02*
X116804974Y-40710000D01*
D24*
%TO.N,SWDIO*%
X129856780Y-67408220D02*
X129785000Y-67480000D01*
X131359424Y-67408220D02*
X129856780Y-67408220D01*
%TO.N,SWCLK*%
X131102453Y-69117549D02*
X131090001Y-69130001D01*
X131512451Y-69117549D02*
X131102453Y-69117549D01*
X133227451Y-67402549D02*
X131512451Y-69117549D01*
X114120000Y-53690000D02*
X127920002Y-53690000D01*
X130674999Y-69130001D02*
X129785000Y-70020000D01*
X130850000Y-61824572D02*
X133227451Y-64202023D01*
X131090001Y-69130001D02*
X130674999Y-69130001D01*
X127920002Y-53690000D02*
X130850000Y-56619998D01*
X130850000Y-56619998D02*
X130850000Y-61824572D01*
X133227451Y-64202023D02*
X133227451Y-67402549D01*
%TO.N,SWO*%
X128152954Y-71290000D02*
X128515000Y-71290000D01*
X126222954Y-73220000D02*
X128152954Y-71290000D01*
X118660000Y-73220000D02*
X126222954Y-73220000D01*
D26*
%TO.N,UART_RX*%
X110620000Y-66540000D02*
X122490000Y-66540000D01*
X122490000Y-66540000D02*
X123960000Y-68010000D01*
X126505000Y-68010000D02*
X128515000Y-70020000D01*
X123960000Y-68010000D02*
X126505000Y-68010000D01*
%TO.N,UART_TX*%
X110660000Y-65300000D02*
X122360000Y-65300000D01*
X122360000Y-65300000D02*
X124190000Y-67130000D01*
X126895000Y-67130000D02*
X128515000Y-68750000D01*
X124190000Y-67130000D02*
X126895000Y-67130000D01*
%TO.N,NRST*%
X108240000Y-64330000D02*
X122520000Y-64330000D01*
X128272549Y-66452451D02*
X128515000Y-66210000D01*
X124642451Y-66452451D02*
X128272549Y-66452451D01*
X122520000Y-64330000D02*
X124642451Y-66452451D01*
D24*
%TO.N,TS_BSY*%
X104520000Y-62680000D02*
X103310000Y-63890000D01*
X103310000Y-63890000D02*
X90510000Y-63890000D01*
%TO.N,TS_CS*%
X105220000Y-60080000D02*
X103950000Y-61350000D01*
X103950000Y-61350000D02*
X90510000Y-61350000D01*
%TO.N,SPI_MOSI*%
X106790000Y-54490000D02*
X85570000Y-54490000D01*
X83790000Y-56270000D02*
X81900000Y-56270000D01*
X85570000Y-54490000D02*
X83790000Y-56270000D01*
%TO.N,SPI_SCK*%
X99489998Y-53730000D02*
X81900000Y-53730000D01*
X101099998Y-52120000D02*
X99489998Y-53730000D01*
X107810000Y-52120000D02*
X101099998Y-52120000D01*
D26*
%TO.N,Net-(JP1-Pad2)*%
X109955000Y-42470000D02*
X108605000Y-42470000D01*
D24*
X106430000Y-56090000D02*
X111840000Y-50680000D01*
X111840000Y-45705000D02*
X108605000Y-42470000D01*
X111840000Y-50680000D02*
X111840000Y-45705000D01*
D26*
%TO.N,Col1*%
X87040000Y-89860000D02*
X90400000Y-86500000D01*
X86590000Y-89860000D02*
X87040000Y-89860000D01*
X88500000Y-107700000D02*
X87900000Y-107700000D01*
X90400000Y-105800000D02*
X88500000Y-107700000D01*
X88500000Y-127000000D02*
X87900000Y-127000000D01*
X90400000Y-125100000D02*
X88500000Y-127000000D01*
X88500000Y-146300000D02*
X87900000Y-146300000D01*
X90400000Y-144400000D02*
X88500000Y-146300000D01*
X87040000Y-166960000D02*
X86590000Y-166960000D01*
X90400000Y-163600000D02*
X87040000Y-166960000D01*
%TO.N,Col2*%
X106340000Y-89860000D02*
X109700000Y-86500000D01*
X105890000Y-89860000D02*
X106340000Y-89860000D01*
X107800000Y-107700000D02*
X107200000Y-107700000D01*
X109700000Y-105800000D02*
X107800000Y-107700000D01*
X107800000Y-127000000D02*
X107200000Y-127000000D01*
X109700000Y-125100000D02*
X107800000Y-127000000D01*
X107800000Y-146300000D02*
X107200000Y-146300000D01*
X109700000Y-144400000D02*
X107800000Y-146300000D01*
X107800000Y-165500000D02*
X107200000Y-165500000D01*
X109700000Y-163600000D02*
X107800000Y-165500000D01*
%TO.N,Col3*%
X125640000Y-89860000D02*
X129000000Y-86500000D01*
X125190000Y-89860000D02*
X125640000Y-89860000D01*
X125640000Y-109160000D02*
X129000000Y-105800000D01*
X125190000Y-109160000D02*
X125640000Y-109160000D01*
X127100000Y-127000000D02*
X126500000Y-127000000D01*
X129000000Y-125100000D02*
X127100000Y-127000000D01*
X127100000Y-146300000D02*
X126500000Y-146300000D01*
X129000000Y-144400000D02*
X127100000Y-146300000D01*
X125640000Y-166960000D02*
X125190000Y-166960000D01*
X129000000Y-163600000D02*
X125640000Y-166960000D01*
%TO.N,Col4*%
X144940000Y-89860000D02*
X148300000Y-86500000D01*
X144490000Y-89860000D02*
X144940000Y-89860000D01*
X146400000Y-107700000D02*
X145800000Y-107700000D01*
X148300000Y-105800000D02*
X146400000Y-107700000D01*
X144940000Y-128460000D02*
X148300000Y-125100000D01*
X144490000Y-128460000D02*
X144940000Y-128460000D01*
X144940000Y-147760000D02*
X148300000Y-144400000D01*
X144490000Y-147760000D02*
X144940000Y-147760000D01*
X144940000Y-166960000D02*
X144490000Y-166960000D01*
X148300000Y-163600000D02*
X144940000Y-166960000D01*
X142820000Y-81020000D02*
X148300000Y-86500000D01*
X134150000Y-81020000D02*
X142820000Y-81020000D01*
D24*
%TO.N,TS_IQR*%
X81900000Y-66430000D02*
X98180000Y-66430000D01*
X98180000Y-66430000D02*
X99150000Y-67400000D01*
%TD*%
M02*
