%TF.GenerationSoftware,KiCad,Pcbnew,(5.1.6)-1*%
%TF.CreationDate,2020-12-15T22:49:58+02:00*%
%TF.ProjectId,macropad,6d616372-6f70-4616-942e-6b696361645f,rev?*%
%TF.SameCoordinates,Original*%
%TF.FileFunction,Legend,Bot*%
%TF.FilePolarity,Positive*%
%FSLAX46Y46*%
G04 Gerber Fmt 4.6, Leading zero omitted, Abs format (unit mm)*
G04 Created by KiCad (PCBNEW (5.1.6)-1) date 2020-12-15 22:49:58*
%MOMM*%
%LPD*%
G01*
G04 APERTURE LIST*
%ADD10C,0.150000*%
%ADD11C,0.120000*%
G04 APERTURE END LIST*
D10*
X148862857Y-43974761D02*
X148720000Y-44022380D01*
X148481904Y-44022380D01*
X148386666Y-43974761D01*
X148339047Y-43927142D01*
X148291428Y-43831904D01*
X148291428Y-43736666D01*
X148339047Y-43641428D01*
X148386666Y-43593809D01*
X148481904Y-43546190D01*
X148672380Y-43498571D01*
X148767619Y-43450952D01*
X148815238Y-43403333D01*
X148862857Y-43308095D01*
X148862857Y-43212857D01*
X148815238Y-43117619D01*
X148767619Y-43070000D01*
X148672380Y-43022380D01*
X148434285Y-43022380D01*
X148291428Y-43070000D01*
X148005714Y-43022380D02*
X147434285Y-43022380D01*
X147720000Y-44022380D02*
X147720000Y-43022380D01*
X147100952Y-44022380D02*
X147100952Y-43022380D01*
X146767619Y-43736666D01*
X146434285Y-43022380D01*
X146434285Y-44022380D01*
X146053333Y-43022380D02*
X145434285Y-43022380D01*
X145767619Y-43403333D01*
X145624761Y-43403333D01*
X145529523Y-43450952D01*
X145481904Y-43498571D01*
X145434285Y-43593809D01*
X145434285Y-43831904D01*
X145481904Y-43927142D01*
X145529523Y-43974761D01*
X145624761Y-44022380D01*
X145910476Y-44022380D01*
X146005714Y-43974761D01*
X146053333Y-43927142D01*
X145053333Y-43117619D02*
X145005714Y-43070000D01*
X144910476Y-43022380D01*
X144672380Y-43022380D01*
X144577142Y-43070000D01*
X144529523Y-43117619D01*
X144481904Y-43212857D01*
X144481904Y-43308095D01*
X144529523Y-43450952D01*
X145100952Y-44022380D01*
X144481904Y-44022380D01*
X143291428Y-44022380D02*
X143291428Y-43022380D01*
X142958095Y-43736666D01*
X142624761Y-43022380D01*
X142624761Y-44022380D01*
X141720000Y-44022380D02*
X141720000Y-43498571D01*
X141767619Y-43403333D01*
X141862857Y-43355714D01*
X142053333Y-43355714D01*
X142148571Y-43403333D01*
X141720000Y-43974761D02*
X141815238Y-44022380D01*
X142053333Y-44022380D01*
X142148571Y-43974761D01*
X142196190Y-43879523D01*
X142196190Y-43784285D01*
X142148571Y-43689047D01*
X142053333Y-43641428D01*
X141815238Y-43641428D01*
X141720000Y-43593809D01*
X140815238Y-43974761D02*
X140910476Y-44022380D01*
X141100952Y-44022380D01*
X141196190Y-43974761D01*
X141243809Y-43927142D01*
X141291428Y-43831904D01*
X141291428Y-43546190D01*
X141243809Y-43450952D01*
X141196190Y-43403333D01*
X141100952Y-43355714D01*
X140910476Y-43355714D01*
X140815238Y-43403333D01*
X140386666Y-44022380D02*
X140386666Y-43355714D01*
X140386666Y-43546190D02*
X140339047Y-43450952D01*
X140291428Y-43403333D01*
X140196190Y-43355714D01*
X140100952Y-43355714D01*
X139624761Y-44022380D02*
X139720000Y-43974761D01*
X139767619Y-43927142D01*
X139815238Y-43831904D01*
X139815238Y-43546190D01*
X139767619Y-43450952D01*
X139720000Y-43403333D01*
X139624761Y-43355714D01*
X139481904Y-43355714D01*
X139386666Y-43403333D01*
X139339047Y-43450952D01*
X139291428Y-43546190D01*
X139291428Y-43831904D01*
X139339047Y-43927142D01*
X139386666Y-43974761D01*
X139481904Y-44022380D01*
X139624761Y-44022380D01*
X138862857Y-43355714D02*
X138862857Y-44355714D01*
X138862857Y-43403333D02*
X138767619Y-43355714D01*
X138577142Y-43355714D01*
X138481904Y-43403333D01*
X138434285Y-43450952D01*
X138386666Y-43546190D01*
X138386666Y-43831904D01*
X138434285Y-43927142D01*
X138481904Y-43974761D01*
X138577142Y-44022380D01*
X138767619Y-44022380D01*
X138862857Y-43974761D01*
X137529523Y-44022380D02*
X137529523Y-43498571D01*
X137577142Y-43403333D01*
X137672380Y-43355714D01*
X137862857Y-43355714D01*
X137958095Y-43403333D01*
X137529523Y-43974761D02*
X137624761Y-44022380D01*
X137862857Y-44022380D01*
X137958095Y-43974761D01*
X138005714Y-43879523D01*
X138005714Y-43784285D01*
X137958095Y-43689047D01*
X137862857Y-43641428D01*
X137624761Y-43641428D01*
X137529523Y-43593809D01*
X136624761Y-44022380D02*
X136624761Y-43022380D01*
X136624761Y-43974761D02*
X136720000Y-44022380D01*
X136910476Y-44022380D01*
X137005714Y-43974761D01*
X137053333Y-43927142D01*
X137100952Y-43831904D01*
X137100952Y-43546190D01*
X137053333Y-43450952D01*
X137005714Y-43403333D01*
X136910476Y-43355714D01*
X136720000Y-43355714D01*
X136624761Y-43403333D01*
X135386666Y-44022380D02*
X135386666Y-43022380D01*
X135386666Y-43403333D02*
X135291428Y-43355714D01*
X135100952Y-43355714D01*
X135005714Y-43403333D01*
X134958095Y-43450952D01*
X134910476Y-43546190D01*
X134910476Y-43831904D01*
X134958095Y-43927142D01*
X135005714Y-43974761D01*
X135100952Y-44022380D01*
X135291428Y-44022380D01*
X135386666Y-43974761D01*
X134577142Y-43355714D02*
X134339047Y-44022380D01*
X134100952Y-43355714D02*
X134339047Y-44022380D01*
X134434285Y-44260476D01*
X134481904Y-44308095D01*
X134577142Y-44355714D01*
X133053333Y-43022380D02*
X132815238Y-44022380D01*
X132624761Y-43308095D01*
X132434285Y-44022380D01*
X132196190Y-43022380D01*
X131386666Y-44022380D02*
X131386666Y-43498571D01*
X131434285Y-43403333D01*
X131529523Y-43355714D01*
X131720000Y-43355714D01*
X131815238Y-43403333D01*
X131386666Y-43974761D02*
X131481904Y-44022380D01*
X131720000Y-44022380D01*
X131815238Y-43974761D01*
X131862857Y-43879523D01*
X131862857Y-43784285D01*
X131815238Y-43689047D01*
X131720000Y-43641428D01*
X131481904Y-43641428D01*
X131386666Y-43593809D01*
X130910476Y-44022380D02*
X130910476Y-43355714D01*
X130910476Y-43022380D02*
X130958095Y-43070000D01*
X130910476Y-43117619D01*
X130862857Y-43070000D01*
X130910476Y-43022380D01*
X130910476Y-43117619D01*
X130577142Y-43355714D02*
X130196190Y-43355714D01*
X130434285Y-43022380D02*
X130434285Y-43879523D01*
X130386666Y-43974761D01*
X130291428Y-44022380D01*
X130196190Y-44022380D01*
X129481904Y-43974761D02*
X129577142Y-44022380D01*
X129767619Y-44022380D01*
X129862857Y-43974761D01*
X129910476Y-43879523D01*
X129910476Y-43498571D01*
X129862857Y-43403333D01*
X129767619Y-43355714D01*
X129577142Y-43355714D01*
X129481904Y-43403333D01*
X129434285Y-43498571D01*
X129434285Y-43593809D01*
X129910476Y-43689047D01*
X128624761Y-43974761D02*
X128720000Y-44022380D01*
X128910476Y-44022380D01*
X129005714Y-43974761D01*
X129053333Y-43879523D01*
X129053333Y-43498571D01*
X129005714Y-43403333D01*
X128910476Y-43355714D01*
X128720000Y-43355714D01*
X128624761Y-43403333D01*
X128577142Y-43498571D01*
X128577142Y-43593809D01*
X129053333Y-43689047D01*
X142243809Y-45672380D02*
X142815238Y-45672380D01*
X142529523Y-45672380D02*
X142529523Y-44672380D01*
X142624761Y-44815238D01*
X142720000Y-44910476D01*
X142815238Y-44958095D01*
X141339047Y-44672380D02*
X141815238Y-44672380D01*
X141862857Y-45148571D01*
X141815238Y-45100952D01*
X141720000Y-45053333D01*
X141481904Y-45053333D01*
X141386666Y-45100952D01*
X141339047Y-45148571D01*
X141291428Y-45243809D01*
X141291428Y-45481904D01*
X141339047Y-45577142D01*
X141386666Y-45624761D01*
X141481904Y-45672380D01*
X141720000Y-45672380D01*
X141815238Y-45624761D01*
X141862857Y-45577142D01*
X140862857Y-45577142D02*
X140815238Y-45624761D01*
X140862857Y-45672380D01*
X140910476Y-45624761D01*
X140862857Y-45577142D01*
X140862857Y-45672380D01*
X139862857Y-45672380D02*
X140434285Y-45672380D01*
X140148571Y-45672380D02*
X140148571Y-44672380D01*
X140243809Y-44815238D01*
X140339047Y-44910476D01*
X140434285Y-44958095D01*
X139481904Y-44767619D02*
X139434285Y-44720000D01*
X139339047Y-44672380D01*
X139100952Y-44672380D01*
X139005714Y-44720000D01*
X138958095Y-44767619D01*
X138910476Y-44862857D01*
X138910476Y-44958095D01*
X138958095Y-45100952D01*
X139529523Y-45672380D01*
X138910476Y-45672380D01*
X138481904Y-45577142D02*
X138434285Y-45624761D01*
X138481904Y-45672380D01*
X138529523Y-45624761D01*
X138481904Y-45577142D01*
X138481904Y-45672380D01*
X138053333Y-44767619D02*
X138005714Y-44720000D01*
X137910476Y-44672380D01*
X137672380Y-44672380D01*
X137577142Y-44720000D01*
X137529523Y-44767619D01*
X137481904Y-44862857D01*
X137481904Y-44958095D01*
X137529523Y-45100952D01*
X138100952Y-45672380D01*
X137481904Y-45672380D01*
X136862857Y-44672380D02*
X136767619Y-44672380D01*
X136672380Y-44720000D01*
X136624761Y-44767619D01*
X136577142Y-44862857D01*
X136529523Y-45053333D01*
X136529523Y-45291428D01*
X136577142Y-45481904D01*
X136624761Y-45577142D01*
X136672380Y-45624761D01*
X136767619Y-45672380D01*
X136862857Y-45672380D01*
X136958095Y-45624761D01*
X137005714Y-45577142D01*
X137053333Y-45481904D01*
X137100952Y-45291428D01*
X137100952Y-45053333D01*
X137053333Y-44862857D01*
X137005714Y-44767619D01*
X136958095Y-44720000D01*
X136862857Y-44672380D01*
X136148571Y-44767619D02*
X136100952Y-44720000D01*
X136005714Y-44672380D01*
X135767619Y-44672380D01*
X135672380Y-44720000D01*
X135624761Y-44767619D01*
X135577142Y-44862857D01*
X135577142Y-44958095D01*
X135624761Y-45100952D01*
X136196190Y-45672380D01*
X135577142Y-45672380D01*
X134958095Y-44672380D02*
X134862857Y-44672380D01*
X134767619Y-44720000D01*
X134720000Y-44767619D01*
X134672380Y-44862857D01*
X134624761Y-45053333D01*
X134624761Y-45291428D01*
X134672380Y-45481904D01*
X134720000Y-45577142D01*
X134767619Y-45624761D01*
X134862857Y-45672380D01*
X134958095Y-45672380D01*
X135053333Y-45624761D01*
X135100952Y-45577142D01*
X135148571Y-45481904D01*
X135196190Y-45291428D01*
X135196190Y-45053333D01*
X135148571Y-44862857D01*
X135100952Y-44767619D01*
X135053333Y-44720000D01*
X134958095Y-44672380D01*
X140243809Y-46322380D02*
X139910476Y-47322380D01*
X139577142Y-46322380D01*
X139053333Y-46322380D02*
X138958095Y-46322380D01*
X138862857Y-46370000D01*
X138815238Y-46417619D01*
X138767619Y-46512857D01*
X138720000Y-46703333D01*
X138720000Y-46941428D01*
X138767619Y-47131904D01*
X138815238Y-47227142D01*
X138862857Y-47274761D01*
X138958095Y-47322380D01*
X139053333Y-47322380D01*
X139148571Y-47274761D01*
X139196190Y-47227142D01*
X139243809Y-47131904D01*
X139291428Y-46941428D01*
X139291428Y-46703333D01*
X139243809Y-46512857D01*
X139196190Y-46417619D01*
X139148571Y-46370000D01*
X139053333Y-46322380D01*
X138291428Y-47227142D02*
X138243809Y-47274761D01*
X138291428Y-47322380D01*
X138339047Y-47274761D01*
X138291428Y-47227142D01*
X138291428Y-47322380D01*
X137291428Y-47322380D02*
X137862857Y-47322380D01*
X137577142Y-47322380D02*
X137577142Y-46322380D01*
X137672380Y-46465238D01*
X137767619Y-46560476D01*
X137862857Y-46608095D01*
X156439047Y-166561428D02*
X157200952Y-166561428D01*
X156820000Y-166942380D02*
X156820000Y-166180476D01*
X138249047Y-166631428D02*
X139010952Y-166631428D01*
X138630000Y-167012380D02*
X138630000Y-166250476D01*
X118959047Y-166451428D02*
X119720952Y-166451428D01*
X119340000Y-166832380D02*
X119340000Y-166070476D01*
X99669047Y-166531428D02*
X100430952Y-166531428D01*
X100050000Y-166912380D02*
X100050000Y-166150476D01*
X99669047Y-147321428D02*
X100430952Y-147321428D01*
X100050000Y-147702380D02*
X100050000Y-146940476D01*
X118979047Y-147371428D02*
X119740952Y-147371428D01*
X119360000Y-147752380D02*
X119360000Y-146990476D01*
X138299047Y-147271428D02*
X139060952Y-147271428D01*
X138680000Y-147652380D02*
X138680000Y-146890476D01*
X156419047Y-147471428D02*
X157180952Y-147471428D01*
X156800000Y-147852380D02*
X156800000Y-147090476D01*
X156479047Y-127911428D02*
X157240952Y-127911428D01*
X156860000Y-128292380D02*
X156860000Y-127530476D01*
X138249047Y-127951428D02*
X139010952Y-127951428D01*
X138630000Y-128332380D02*
X138630000Y-127570476D01*
X118929047Y-128101428D02*
X119690952Y-128101428D01*
X119310000Y-128482380D02*
X119310000Y-127720476D01*
X99669047Y-128101428D02*
X100430952Y-128101428D01*
X100050000Y-128482380D02*
X100050000Y-127720476D01*
X99699047Y-108601428D02*
X100460952Y-108601428D01*
X100080000Y-108982380D02*
X100080000Y-108220476D01*
X118999047Y-108661428D02*
X119760952Y-108661428D01*
X119380000Y-109042380D02*
X119380000Y-108280476D01*
X138409047Y-108621428D02*
X139170952Y-108621428D01*
X138790000Y-109002380D02*
X138790000Y-108240476D01*
X156549047Y-108701428D02*
X157310952Y-108701428D01*
X156930000Y-109082380D02*
X156930000Y-108320476D01*
X156459047Y-89431428D02*
X157220952Y-89431428D01*
X156840000Y-89812380D02*
X156840000Y-89050476D01*
X138289047Y-89531428D02*
X139050952Y-89531428D01*
X138670000Y-89912380D02*
X138670000Y-89150476D01*
X118989047Y-89471428D02*
X119750952Y-89471428D01*
X119370000Y-89852380D02*
X119370000Y-89090476D01*
X99679047Y-89451428D02*
X100440952Y-89451428D01*
X100060000Y-89832380D02*
X100060000Y-89070476D01*
X130497142Y-75214761D02*
X130354285Y-75262380D01*
X130116190Y-75262380D01*
X130020952Y-75214761D01*
X129973333Y-75167142D01*
X129925714Y-75071904D01*
X129925714Y-74976666D01*
X129973333Y-74881428D01*
X130020952Y-74833809D01*
X130116190Y-74786190D01*
X130306666Y-74738571D01*
X130401904Y-74690952D01*
X130449523Y-74643333D01*
X130497142Y-74548095D01*
X130497142Y-74452857D01*
X130449523Y-74357619D01*
X130401904Y-74310000D01*
X130306666Y-74262380D01*
X130068571Y-74262380D01*
X129925714Y-74310000D01*
X129592380Y-74262380D02*
X129354285Y-75262380D01*
X129163809Y-74548095D01*
X128973333Y-75262380D01*
X128735238Y-74262380D01*
X128354285Y-75262380D02*
X128354285Y-74262380D01*
X128116190Y-74262380D01*
X127973333Y-74310000D01*
X127878095Y-74405238D01*
X127830476Y-74500476D01*
X127782857Y-74690952D01*
X127782857Y-74833809D01*
X127830476Y-75024285D01*
X127878095Y-75119523D01*
X127973333Y-75214761D01*
X128116190Y-75262380D01*
X128354285Y-75262380D01*
X108829047Y-40068571D02*
X108686190Y-40116190D01*
X108638571Y-40163809D01*
X108590952Y-40259047D01*
X108590952Y-40401904D01*
X108638571Y-40497142D01*
X108686190Y-40544761D01*
X108781428Y-40592380D01*
X109162380Y-40592380D01*
X109162380Y-39592380D01*
X108829047Y-39592380D01*
X108733809Y-39640000D01*
X108686190Y-39687619D01*
X108638571Y-39782857D01*
X108638571Y-39878095D01*
X108686190Y-39973333D01*
X108733809Y-40020952D01*
X108829047Y-40068571D01*
X109162380Y-40068571D01*
X108019523Y-40592380D02*
X108114761Y-40544761D01*
X108162380Y-40497142D01*
X108210000Y-40401904D01*
X108210000Y-40116190D01*
X108162380Y-40020952D01*
X108114761Y-39973333D01*
X108019523Y-39925714D01*
X107876666Y-39925714D01*
X107781428Y-39973333D01*
X107733809Y-40020952D01*
X107686190Y-40116190D01*
X107686190Y-40401904D01*
X107733809Y-40497142D01*
X107781428Y-40544761D01*
X107876666Y-40592380D01*
X108019523Y-40592380D01*
X107114761Y-40592380D02*
X107210000Y-40544761D01*
X107257619Y-40497142D01*
X107305238Y-40401904D01*
X107305238Y-40116190D01*
X107257619Y-40020952D01*
X107210000Y-39973333D01*
X107114761Y-39925714D01*
X106971904Y-39925714D01*
X106876666Y-39973333D01*
X106829047Y-40020952D01*
X106781428Y-40116190D01*
X106781428Y-40401904D01*
X106829047Y-40497142D01*
X106876666Y-40544761D01*
X106971904Y-40592380D01*
X107114761Y-40592380D01*
X106495714Y-39925714D02*
X106114761Y-39925714D01*
X106352857Y-39592380D02*
X106352857Y-40449523D01*
X106305238Y-40544761D01*
X106210000Y-40592380D01*
X106114761Y-40592380D01*
D11*
%TO.C,D1*%
X101050000Y-94750000D02*
X101050000Y-90850000D01*
X99050000Y-94750000D02*
X99050000Y-90850000D01*
X101050000Y-94750000D02*
X99050000Y-94750000D01*
%TO.C,D2*%
X120350000Y-94750000D02*
X120350000Y-90850000D01*
X118350000Y-94750000D02*
X118350000Y-90850000D01*
X120350000Y-94750000D02*
X118350000Y-94750000D01*
%TO.C,D3*%
X139650000Y-94750000D02*
X137650000Y-94750000D01*
X137650000Y-94750000D02*
X137650000Y-90850000D01*
X139650000Y-94750000D02*
X139650000Y-90850000D01*
%TO.C,D4*%
X157825000Y-94750000D02*
X157825000Y-90850000D01*
X155825000Y-94750000D02*
X155825000Y-90850000D01*
X157825000Y-94750000D02*
X155825000Y-94750000D01*
%TO.C,D5*%
X101050000Y-113850000D02*
X99050000Y-113850000D01*
X99050000Y-113850000D02*
X99050000Y-109950000D01*
X101050000Y-113850000D02*
X101050000Y-109950000D01*
%TO.C,D6*%
X120300000Y-113850000D02*
X118300000Y-113850000D01*
X118300000Y-113850000D02*
X118300000Y-109950000D01*
X120300000Y-113850000D02*
X120300000Y-109950000D01*
%TO.C,D7*%
X139700000Y-113850000D02*
X139700000Y-109950000D01*
X137700000Y-113850000D02*
X137700000Y-109950000D01*
X139700000Y-113850000D02*
X137700000Y-113850000D01*
%TO.C,D8*%
X157825000Y-113850000D02*
X155825000Y-113850000D01*
X155825000Y-113850000D02*
X155825000Y-109950000D01*
X157825000Y-113850000D02*
X157825000Y-109950000D01*
%TO.C,D9*%
X101050000Y-133250000D02*
X101050000Y-129350000D01*
X99050000Y-133250000D02*
X99050000Y-129350000D01*
X101050000Y-133250000D02*
X99050000Y-133250000D01*
%TO.C,D10*%
X120350000Y-133250000D02*
X120350000Y-129350000D01*
X118350000Y-133250000D02*
X118350000Y-129350000D01*
X120350000Y-133250000D02*
X118350000Y-133250000D01*
%TO.C,D11*%
X139650000Y-133250000D02*
X137650000Y-133250000D01*
X137650000Y-133250000D02*
X137650000Y-129350000D01*
X139650000Y-133250000D02*
X139650000Y-129350000D01*
%TO.C,D12*%
X157825000Y-133225000D02*
X157825000Y-129325000D01*
X155825000Y-133225000D02*
X155825000Y-129325000D01*
X157825000Y-133225000D02*
X155825000Y-133225000D01*
%TO.C,D13*%
X101050000Y-152550000D02*
X99050000Y-152550000D01*
X99050000Y-152550000D02*
X99050000Y-148650000D01*
X101050000Y-152550000D02*
X101050000Y-148650000D01*
%TO.C,D14*%
X120350000Y-152550000D02*
X118350000Y-152550000D01*
X118350000Y-152550000D02*
X118350000Y-148650000D01*
X120350000Y-152550000D02*
X120350000Y-148650000D01*
%TO.C,D15*%
X139650000Y-152550000D02*
X139650000Y-148650000D01*
X137650000Y-152550000D02*
X137650000Y-148650000D01*
X139650000Y-152550000D02*
X137650000Y-152550000D01*
%TO.C,D16*%
X157825000Y-152550000D02*
X155825000Y-152550000D01*
X155825000Y-152550000D02*
X155825000Y-148650000D01*
X157825000Y-152550000D02*
X157825000Y-148650000D01*
%TO.C,D17*%
X101050000Y-171750000D02*
X101050000Y-167850000D01*
X99050000Y-171750000D02*
X99050000Y-167850000D01*
X101050000Y-171750000D02*
X99050000Y-171750000D01*
%TO.C,D18*%
X120350000Y-171750000D02*
X120350000Y-167850000D01*
X118350000Y-171750000D02*
X118350000Y-167850000D01*
X120350000Y-171750000D02*
X118350000Y-171750000D01*
%TO.C,D19*%
X139650000Y-171750000D02*
X137650000Y-171750000D01*
X137650000Y-171750000D02*
X137650000Y-167850000D01*
X139650000Y-171750000D02*
X139650000Y-167850000D01*
%TO.C,D20*%
X157825000Y-171750000D02*
X155825000Y-171750000D01*
X155825000Y-171750000D02*
X155825000Y-167850000D01*
X157825000Y-171750000D02*
X157825000Y-167850000D01*
%TO.C,J2*%
X130420000Y-66210000D02*
X130420000Y-65575000D01*
X130420000Y-65575000D02*
X129785000Y-65575000D01*
%TO.C,JP1*%
X106480000Y-41470000D02*
X106480000Y-43470000D01*
X109280000Y-41470000D02*
X106480000Y-41470000D01*
X109280000Y-43470000D02*
X109280000Y-41470000D01*
X106480000Y-43470000D02*
X109280000Y-43470000D01*
%TO.C,SW2*%
D10*
X111033333Y-95979761D02*
X110890476Y-96027380D01*
X110652380Y-96027380D01*
X110557142Y-95979761D01*
X110509523Y-95932142D01*
X110461904Y-95836904D01*
X110461904Y-95741666D01*
X110509523Y-95646428D01*
X110557142Y-95598809D01*
X110652380Y-95551190D01*
X110842857Y-95503571D01*
X110938095Y-95455952D01*
X110985714Y-95408333D01*
X111033333Y-95313095D01*
X111033333Y-95217857D01*
X110985714Y-95122619D01*
X110938095Y-95075000D01*
X110842857Y-95027380D01*
X110604761Y-95027380D01*
X110461904Y-95075000D01*
X110128571Y-95027380D02*
X109890476Y-96027380D01*
X109700000Y-95313095D01*
X109509523Y-96027380D01*
X109271428Y-95027380D01*
X108938095Y-95122619D02*
X108890476Y-95075000D01*
X108795238Y-95027380D01*
X108557142Y-95027380D01*
X108461904Y-95075000D01*
X108414285Y-95122619D01*
X108366666Y-95217857D01*
X108366666Y-95313095D01*
X108414285Y-95455952D01*
X108985714Y-96027380D01*
X108366666Y-96027380D01*
%TO.C,D1*%
X102502380Y-91761904D02*
X101502380Y-91761904D01*
X101502380Y-92000000D01*
X101550000Y-92142857D01*
X101645238Y-92238095D01*
X101740476Y-92285714D01*
X101930952Y-92333333D01*
X102073809Y-92333333D01*
X102264285Y-92285714D01*
X102359523Y-92238095D01*
X102454761Y-92142857D01*
X102502380Y-92000000D01*
X102502380Y-91761904D01*
X102502380Y-93285714D02*
X102502380Y-92714285D01*
X102502380Y-93000000D02*
X101502380Y-93000000D01*
X101645238Y-92904761D01*
X101740476Y-92809523D01*
X101788095Y-92714285D01*
%TO.C,D2*%
X121802380Y-91761904D02*
X120802380Y-91761904D01*
X120802380Y-92000000D01*
X120850000Y-92142857D01*
X120945238Y-92238095D01*
X121040476Y-92285714D01*
X121230952Y-92333333D01*
X121373809Y-92333333D01*
X121564285Y-92285714D01*
X121659523Y-92238095D01*
X121754761Y-92142857D01*
X121802380Y-92000000D01*
X121802380Y-91761904D01*
X120897619Y-92714285D02*
X120850000Y-92761904D01*
X120802380Y-92857142D01*
X120802380Y-93095238D01*
X120850000Y-93190476D01*
X120897619Y-93238095D01*
X120992857Y-93285714D01*
X121088095Y-93285714D01*
X121230952Y-93238095D01*
X121802380Y-92666666D01*
X121802380Y-93285714D01*
%TO.C,D3*%
X141102380Y-91761904D02*
X140102380Y-91761904D01*
X140102380Y-92000000D01*
X140150000Y-92142857D01*
X140245238Y-92238095D01*
X140340476Y-92285714D01*
X140530952Y-92333333D01*
X140673809Y-92333333D01*
X140864285Y-92285714D01*
X140959523Y-92238095D01*
X141054761Y-92142857D01*
X141102380Y-92000000D01*
X141102380Y-91761904D01*
X140102380Y-92666666D02*
X140102380Y-93285714D01*
X140483333Y-92952380D01*
X140483333Y-93095238D01*
X140530952Y-93190476D01*
X140578571Y-93238095D01*
X140673809Y-93285714D01*
X140911904Y-93285714D01*
X141007142Y-93238095D01*
X141054761Y-93190476D01*
X141102380Y-93095238D01*
X141102380Y-92809523D01*
X141054761Y-92714285D01*
X141007142Y-92666666D01*
%TO.C,D4*%
X159277380Y-91761904D02*
X158277380Y-91761904D01*
X158277380Y-92000000D01*
X158325000Y-92142857D01*
X158420238Y-92238095D01*
X158515476Y-92285714D01*
X158705952Y-92333333D01*
X158848809Y-92333333D01*
X159039285Y-92285714D01*
X159134523Y-92238095D01*
X159229761Y-92142857D01*
X159277380Y-92000000D01*
X159277380Y-91761904D01*
X158610714Y-93190476D02*
X159277380Y-93190476D01*
X158229761Y-92952380D02*
X158944047Y-92714285D01*
X158944047Y-93333333D01*
%TO.C,D5*%
X102502380Y-110861904D02*
X101502380Y-110861904D01*
X101502380Y-111100000D01*
X101550000Y-111242857D01*
X101645238Y-111338095D01*
X101740476Y-111385714D01*
X101930952Y-111433333D01*
X102073809Y-111433333D01*
X102264285Y-111385714D01*
X102359523Y-111338095D01*
X102454761Y-111242857D01*
X102502380Y-111100000D01*
X102502380Y-110861904D01*
X101502380Y-112338095D02*
X101502380Y-111861904D01*
X101978571Y-111814285D01*
X101930952Y-111861904D01*
X101883333Y-111957142D01*
X101883333Y-112195238D01*
X101930952Y-112290476D01*
X101978571Y-112338095D01*
X102073809Y-112385714D01*
X102311904Y-112385714D01*
X102407142Y-112338095D01*
X102454761Y-112290476D01*
X102502380Y-112195238D01*
X102502380Y-111957142D01*
X102454761Y-111861904D01*
X102407142Y-111814285D01*
%TO.C,D6*%
X121752380Y-110861904D02*
X120752380Y-110861904D01*
X120752380Y-111100000D01*
X120800000Y-111242857D01*
X120895238Y-111338095D01*
X120990476Y-111385714D01*
X121180952Y-111433333D01*
X121323809Y-111433333D01*
X121514285Y-111385714D01*
X121609523Y-111338095D01*
X121704761Y-111242857D01*
X121752380Y-111100000D01*
X121752380Y-110861904D01*
X120752380Y-112290476D02*
X120752380Y-112100000D01*
X120800000Y-112004761D01*
X120847619Y-111957142D01*
X120990476Y-111861904D01*
X121180952Y-111814285D01*
X121561904Y-111814285D01*
X121657142Y-111861904D01*
X121704761Y-111909523D01*
X121752380Y-112004761D01*
X121752380Y-112195238D01*
X121704761Y-112290476D01*
X121657142Y-112338095D01*
X121561904Y-112385714D01*
X121323809Y-112385714D01*
X121228571Y-112338095D01*
X121180952Y-112290476D01*
X121133333Y-112195238D01*
X121133333Y-112004761D01*
X121180952Y-111909523D01*
X121228571Y-111861904D01*
X121323809Y-111814285D01*
%TO.C,D7*%
X141152380Y-110861904D02*
X140152380Y-110861904D01*
X140152380Y-111100000D01*
X140200000Y-111242857D01*
X140295238Y-111338095D01*
X140390476Y-111385714D01*
X140580952Y-111433333D01*
X140723809Y-111433333D01*
X140914285Y-111385714D01*
X141009523Y-111338095D01*
X141104761Y-111242857D01*
X141152380Y-111100000D01*
X141152380Y-110861904D01*
X140152380Y-111766666D02*
X140152380Y-112433333D01*
X141152380Y-112004761D01*
%TO.C,D8*%
X159277380Y-110861904D02*
X158277380Y-110861904D01*
X158277380Y-111100000D01*
X158325000Y-111242857D01*
X158420238Y-111338095D01*
X158515476Y-111385714D01*
X158705952Y-111433333D01*
X158848809Y-111433333D01*
X159039285Y-111385714D01*
X159134523Y-111338095D01*
X159229761Y-111242857D01*
X159277380Y-111100000D01*
X159277380Y-110861904D01*
X158705952Y-112004761D02*
X158658333Y-111909523D01*
X158610714Y-111861904D01*
X158515476Y-111814285D01*
X158467857Y-111814285D01*
X158372619Y-111861904D01*
X158325000Y-111909523D01*
X158277380Y-112004761D01*
X158277380Y-112195238D01*
X158325000Y-112290476D01*
X158372619Y-112338095D01*
X158467857Y-112385714D01*
X158515476Y-112385714D01*
X158610714Y-112338095D01*
X158658333Y-112290476D01*
X158705952Y-112195238D01*
X158705952Y-112004761D01*
X158753571Y-111909523D01*
X158801190Y-111861904D01*
X158896428Y-111814285D01*
X159086904Y-111814285D01*
X159182142Y-111861904D01*
X159229761Y-111909523D01*
X159277380Y-112004761D01*
X159277380Y-112195238D01*
X159229761Y-112290476D01*
X159182142Y-112338095D01*
X159086904Y-112385714D01*
X158896428Y-112385714D01*
X158801190Y-112338095D01*
X158753571Y-112290476D01*
X158705952Y-112195238D01*
%TO.C,D9*%
X102502380Y-130261904D02*
X101502380Y-130261904D01*
X101502380Y-130500000D01*
X101550000Y-130642857D01*
X101645238Y-130738095D01*
X101740476Y-130785714D01*
X101930952Y-130833333D01*
X102073809Y-130833333D01*
X102264285Y-130785714D01*
X102359523Y-130738095D01*
X102454761Y-130642857D01*
X102502380Y-130500000D01*
X102502380Y-130261904D01*
X102502380Y-131309523D02*
X102502380Y-131500000D01*
X102454761Y-131595238D01*
X102407142Y-131642857D01*
X102264285Y-131738095D01*
X102073809Y-131785714D01*
X101692857Y-131785714D01*
X101597619Y-131738095D01*
X101550000Y-131690476D01*
X101502380Y-131595238D01*
X101502380Y-131404761D01*
X101550000Y-131309523D01*
X101597619Y-131261904D01*
X101692857Y-131214285D01*
X101930952Y-131214285D01*
X102026190Y-131261904D01*
X102073809Y-131309523D01*
X102121428Y-131404761D01*
X102121428Y-131595238D01*
X102073809Y-131690476D01*
X102026190Y-131738095D01*
X101930952Y-131785714D01*
%TO.C,D10*%
X121802380Y-129785714D02*
X120802380Y-129785714D01*
X120802380Y-130023809D01*
X120850000Y-130166666D01*
X120945238Y-130261904D01*
X121040476Y-130309523D01*
X121230952Y-130357142D01*
X121373809Y-130357142D01*
X121564285Y-130309523D01*
X121659523Y-130261904D01*
X121754761Y-130166666D01*
X121802380Y-130023809D01*
X121802380Y-129785714D01*
X121802380Y-131309523D02*
X121802380Y-130738095D01*
X121802380Y-131023809D02*
X120802380Y-131023809D01*
X120945238Y-130928571D01*
X121040476Y-130833333D01*
X121088095Y-130738095D01*
X120802380Y-131928571D02*
X120802380Y-132023809D01*
X120850000Y-132119047D01*
X120897619Y-132166666D01*
X120992857Y-132214285D01*
X121183333Y-132261904D01*
X121421428Y-132261904D01*
X121611904Y-132214285D01*
X121707142Y-132166666D01*
X121754761Y-132119047D01*
X121802380Y-132023809D01*
X121802380Y-131928571D01*
X121754761Y-131833333D01*
X121707142Y-131785714D01*
X121611904Y-131738095D01*
X121421428Y-131690476D01*
X121183333Y-131690476D01*
X120992857Y-131738095D01*
X120897619Y-131785714D01*
X120850000Y-131833333D01*
X120802380Y-131928571D01*
%TO.C,D11*%
X141102380Y-129785714D02*
X140102380Y-129785714D01*
X140102380Y-130023809D01*
X140150000Y-130166666D01*
X140245238Y-130261904D01*
X140340476Y-130309523D01*
X140530952Y-130357142D01*
X140673809Y-130357142D01*
X140864285Y-130309523D01*
X140959523Y-130261904D01*
X141054761Y-130166666D01*
X141102380Y-130023809D01*
X141102380Y-129785714D01*
X141102380Y-131309523D02*
X141102380Y-130738095D01*
X141102380Y-131023809D02*
X140102380Y-131023809D01*
X140245238Y-130928571D01*
X140340476Y-130833333D01*
X140388095Y-130738095D01*
X141102380Y-132261904D02*
X141102380Y-131690476D01*
X141102380Y-131976190D02*
X140102380Y-131976190D01*
X140245238Y-131880952D01*
X140340476Y-131785714D01*
X140388095Y-131690476D01*
%TO.C,D12*%
X159277380Y-129760714D02*
X158277380Y-129760714D01*
X158277380Y-129998809D01*
X158325000Y-130141666D01*
X158420238Y-130236904D01*
X158515476Y-130284523D01*
X158705952Y-130332142D01*
X158848809Y-130332142D01*
X159039285Y-130284523D01*
X159134523Y-130236904D01*
X159229761Y-130141666D01*
X159277380Y-129998809D01*
X159277380Y-129760714D01*
X159277380Y-131284523D02*
X159277380Y-130713095D01*
X159277380Y-130998809D02*
X158277380Y-130998809D01*
X158420238Y-130903571D01*
X158515476Y-130808333D01*
X158563095Y-130713095D01*
X158372619Y-131665476D02*
X158325000Y-131713095D01*
X158277380Y-131808333D01*
X158277380Y-132046428D01*
X158325000Y-132141666D01*
X158372619Y-132189285D01*
X158467857Y-132236904D01*
X158563095Y-132236904D01*
X158705952Y-132189285D01*
X159277380Y-131617857D01*
X159277380Y-132236904D01*
%TO.C,D13*%
X102502380Y-149085714D02*
X101502380Y-149085714D01*
X101502380Y-149323809D01*
X101550000Y-149466666D01*
X101645238Y-149561904D01*
X101740476Y-149609523D01*
X101930952Y-149657142D01*
X102073809Y-149657142D01*
X102264285Y-149609523D01*
X102359523Y-149561904D01*
X102454761Y-149466666D01*
X102502380Y-149323809D01*
X102502380Y-149085714D01*
X102502380Y-150609523D02*
X102502380Y-150038095D01*
X102502380Y-150323809D02*
X101502380Y-150323809D01*
X101645238Y-150228571D01*
X101740476Y-150133333D01*
X101788095Y-150038095D01*
X101502380Y-150942857D02*
X101502380Y-151561904D01*
X101883333Y-151228571D01*
X101883333Y-151371428D01*
X101930952Y-151466666D01*
X101978571Y-151514285D01*
X102073809Y-151561904D01*
X102311904Y-151561904D01*
X102407142Y-151514285D01*
X102454761Y-151466666D01*
X102502380Y-151371428D01*
X102502380Y-151085714D01*
X102454761Y-150990476D01*
X102407142Y-150942857D01*
%TO.C,D14*%
X121802380Y-149085714D02*
X120802380Y-149085714D01*
X120802380Y-149323809D01*
X120850000Y-149466666D01*
X120945238Y-149561904D01*
X121040476Y-149609523D01*
X121230952Y-149657142D01*
X121373809Y-149657142D01*
X121564285Y-149609523D01*
X121659523Y-149561904D01*
X121754761Y-149466666D01*
X121802380Y-149323809D01*
X121802380Y-149085714D01*
X121802380Y-150609523D02*
X121802380Y-150038095D01*
X121802380Y-150323809D02*
X120802380Y-150323809D01*
X120945238Y-150228571D01*
X121040476Y-150133333D01*
X121088095Y-150038095D01*
X121135714Y-151466666D02*
X121802380Y-151466666D01*
X120754761Y-151228571D02*
X121469047Y-150990476D01*
X121469047Y-151609523D01*
%TO.C,D15*%
X141102380Y-149085714D02*
X140102380Y-149085714D01*
X140102380Y-149323809D01*
X140150000Y-149466666D01*
X140245238Y-149561904D01*
X140340476Y-149609523D01*
X140530952Y-149657142D01*
X140673809Y-149657142D01*
X140864285Y-149609523D01*
X140959523Y-149561904D01*
X141054761Y-149466666D01*
X141102380Y-149323809D01*
X141102380Y-149085714D01*
X141102380Y-150609523D02*
X141102380Y-150038095D01*
X141102380Y-150323809D02*
X140102380Y-150323809D01*
X140245238Y-150228571D01*
X140340476Y-150133333D01*
X140388095Y-150038095D01*
X140102380Y-151514285D02*
X140102380Y-151038095D01*
X140578571Y-150990476D01*
X140530952Y-151038095D01*
X140483333Y-151133333D01*
X140483333Y-151371428D01*
X140530952Y-151466666D01*
X140578571Y-151514285D01*
X140673809Y-151561904D01*
X140911904Y-151561904D01*
X141007142Y-151514285D01*
X141054761Y-151466666D01*
X141102380Y-151371428D01*
X141102380Y-151133333D01*
X141054761Y-151038095D01*
X141007142Y-150990476D01*
%TO.C,D16*%
X158372619Y-151514285D02*
X159372619Y-151514285D01*
X159372619Y-151276190D01*
X159325000Y-151133333D01*
X159229761Y-151038095D01*
X159134523Y-150990476D01*
X158944047Y-150942857D01*
X158801190Y-150942857D01*
X158610714Y-150990476D01*
X158515476Y-151038095D01*
X158420238Y-151133333D01*
X158372619Y-151276190D01*
X158372619Y-151514285D01*
X158372619Y-149990476D02*
X158372619Y-150561904D01*
X158372619Y-150276190D02*
X159372619Y-150276190D01*
X159229761Y-150371428D01*
X159134523Y-150466666D01*
X159086904Y-150561904D01*
X159372619Y-149133333D02*
X159372619Y-149323809D01*
X159325000Y-149419047D01*
X159277380Y-149466666D01*
X159134523Y-149561904D01*
X158944047Y-149609523D01*
X158563095Y-149609523D01*
X158467857Y-149561904D01*
X158420238Y-149514285D01*
X158372619Y-149419047D01*
X158372619Y-149228571D01*
X158420238Y-149133333D01*
X158467857Y-149085714D01*
X158563095Y-149038095D01*
X158801190Y-149038095D01*
X158896428Y-149085714D01*
X158944047Y-149133333D01*
X158991666Y-149228571D01*
X158991666Y-149419047D01*
X158944047Y-149514285D01*
X158896428Y-149561904D01*
X158801190Y-149609523D01*
%TO.C,D17*%
X102502380Y-168285714D02*
X101502380Y-168285714D01*
X101502380Y-168523809D01*
X101550000Y-168666666D01*
X101645238Y-168761904D01*
X101740476Y-168809523D01*
X101930952Y-168857142D01*
X102073809Y-168857142D01*
X102264285Y-168809523D01*
X102359523Y-168761904D01*
X102454761Y-168666666D01*
X102502380Y-168523809D01*
X102502380Y-168285714D01*
X102502380Y-169809523D02*
X102502380Y-169238095D01*
X102502380Y-169523809D02*
X101502380Y-169523809D01*
X101645238Y-169428571D01*
X101740476Y-169333333D01*
X101788095Y-169238095D01*
X101502380Y-170142857D02*
X101502380Y-170809523D01*
X102502380Y-170380952D01*
%TO.C,D18*%
X121802380Y-168285714D02*
X120802380Y-168285714D01*
X120802380Y-168523809D01*
X120850000Y-168666666D01*
X120945238Y-168761904D01*
X121040476Y-168809523D01*
X121230952Y-168857142D01*
X121373809Y-168857142D01*
X121564285Y-168809523D01*
X121659523Y-168761904D01*
X121754761Y-168666666D01*
X121802380Y-168523809D01*
X121802380Y-168285714D01*
X121802380Y-169809523D02*
X121802380Y-169238095D01*
X121802380Y-169523809D02*
X120802380Y-169523809D01*
X120945238Y-169428571D01*
X121040476Y-169333333D01*
X121088095Y-169238095D01*
X121230952Y-170380952D02*
X121183333Y-170285714D01*
X121135714Y-170238095D01*
X121040476Y-170190476D01*
X120992857Y-170190476D01*
X120897619Y-170238095D01*
X120850000Y-170285714D01*
X120802380Y-170380952D01*
X120802380Y-170571428D01*
X120850000Y-170666666D01*
X120897619Y-170714285D01*
X120992857Y-170761904D01*
X121040476Y-170761904D01*
X121135714Y-170714285D01*
X121183333Y-170666666D01*
X121230952Y-170571428D01*
X121230952Y-170380952D01*
X121278571Y-170285714D01*
X121326190Y-170238095D01*
X121421428Y-170190476D01*
X121611904Y-170190476D01*
X121707142Y-170238095D01*
X121754761Y-170285714D01*
X121802380Y-170380952D01*
X121802380Y-170571428D01*
X121754761Y-170666666D01*
X121707142Y-170714285D01*
X121611904Y-170761904D01*
X121421428Y-170761904D01*
X121326190Y-170714285D01*
X121278571Y-170666666D01*
X121230952Y-170571428D01*
%TO.C,D19*%
X141102380Y-168285714D02*
X140102380Y-168285714D01*
X140102380Y-168523809D01*
X140150000Y-168666666D01*
X140245238Y-168761904D01*
X140340476Y-168809523D01*
X140530952Y-168857142D01*
X140673809Y-168857142D01*
X140864285Y-168809523D01*
X140959523Y-168761904D01*
X141054761Y-168666666D01*
X141102380Y-168523809D01*
X141102380Y-168285714D01*
X141102380Y-169809523D02*
X141102380Y-169238095D01*
X141102380Y-169523809D02*
X140102380Y-169523809D01*
X140245238Y-169428571D01*
X140340476Y-169333333D01*
X140388095Y-169238095D01*
X141102380Y-170285714D02*
X141102380Y-170476190D01*
X141054761Y-170571428D01*
X141007142Y-170619047D01*
X140864285Y-170714285D01*
X140673809Y-170761904D01*
X140292857Y-170761904D01*
X140197619Y-170714285D01*
X140150000Y-170666666D01*
X140102380Y-170571428D01*
X140102380Y-170380952D01*
X140150000Y-170285714D01*
X140197619Y-170238095D01*
X140292857Y-170190476D01*
X140530952Y-170190476D01*
X140626190Y-170238095D01*
X140673809Y-170285714D01*
X140721428Y-170380952D01*
X140721428Y-170571428D01*
X140673809Y-170666666D01*
X140626190Y-170714285D01*
X140530952Y-170761904D01*
%TO.C,D20*%
X159277380Y-168285714D02*
X158277380Y-168285714D01*
X158277380Y-168523809D01*
X158325000Y-168666666D01*
X158420238Y-168761904D01*
X158515476Y-168809523D01*
X158705952Y-168857142D01*
X158848809Y-168857142D01*
X159039285Y-168809523D01*
X159134523Y-168761904D01*
X159229761Y-168666666D01*
X159277380Y-168523809D01*
X159277380Y-168285714D01*
X158372619Y-169238095D02*
X158325000Y-169285714D01*
X158277380Y-169380952D01*
X158277380Y-169619047D01*
X158325000Y-169714285D01*
X158372619Y-169761904D01*
X158467857Y-169809523D01*
X158563095Y-169809523D01*
X158705952Y-169761904D01*
X159277380Y-169190476D01*
X159277380Y-169809523D01*
X158277380Y-170428571D02*
X158277380Y-170523809D01*
X158325000Y-170619047D01*
X158372619Y-170666666D01*
X158467857Y-170714285D01*
X158658333Y-170761904D01*
X158896428Y-170761904D01*
X159086904Y-170714285D01*
X159182142Y-170666666D01*
X159229761Y-170619047D01*
X159277380Y-170523809D01*
X159277380Y-170428571D01*
X159229761Y-170333333D01*
X159182142Y-170285714D01*
X159086904Y-170238095D01*
X158896428Y-170190476D01*
X158658333Y-170190476D01*
X158467857Y-170238095D01*
X158372619Y-170285714D01*
X158325000Y-170333333D01*
X158277380Y-170428571D01*
%TO.C,J2*%
X133602380Y-68416666D02*
X134316666Y-68416666D01*
X134459523Y-68369047D01*
X134554761Y-68273809D01*
X134602380Y-68130952D01*
X134602380Y-68035714D01*
X133697619Y-68845238D02*
X133650000Y-68892857D01*
X133602380Y-68988095D01*
X133602380Y-69226190D01*
X133650000Y-69321428D01*
X133697619Y-69369047D01*
X133792857Y-69416666D01*
X133888095Y-69416666D01*
X134030952Y-69369047D01*
X134602380Y-68797619D01*
X134602380Y-69416666D01*
%TO.C,SW1*%
X91733333Y-95979761D02*
X91590476Y-96027380D01*
X91352380Y-96027380D01*
X91257142Y-95979761D01*
X91209523Y-95932142D01*
X91161904Y-95836904D01*
X91161904Y-95741666D01*
X91209523Y-95646428D01*
X91257142Y-95598809D01*
X91352380Y-95551190D01*
X91542857Y-95503571D01*
X91638095Y-95455952D01*
X91685714Y-95408333D01*
X91733333Y-95313095D01*
X91733333Y-95217857D01*
X91685714Y-95122619D01*
X91638095Y-95075000D01*
X91542857Y-95027380D01*
X91304761Y-95027380D01*
X91161904Y-95075000D01*
X90828571Y-95027380D02*
X90590476Y-96027380D01*
X90400000Y-95313095D01*
X90209523Y-96027380D01*
X89971428Y-95027380D01*
X89066666Y-96027380D02*
X89638095Y-96027380D01*
X89352380Y-96027380D02*
X89352380Y-95027380D01*
X89447619Y-95170238D01*
X89542857Y-95265476D01*
X89638095Y-95313095D01*
%TO.C,SW3*%
X130333333Y-95979761D02*
X130190476Y-96027380D01*
X129952380Y-96027380D01*
X129857142Y-95979761D01*
X129809523Y-95932142D01*
X129761904Y-95836904D01*
X129761904Y-95741666D01*
X129809523Y-95646428D01*
X129857142Y-95598809D01*
X129952380Y-95551190D01*
X130142857Y-95503571D01*
X130238095Y-95455952D01*
X130285714Y-95408333D01*
X130333333Y-95313095D01*
X130333333Y-95217857D01*
X130285714Y-95122619D01*
X130238095Y-95075000D01*
X130142857Y-95027380D01*
X129904761Y-95027380D01*
X129761904Y-95075000D01*
X129428571Y-95027380D02*
X129190476Y-96027380D01*
X129000000Y-95313095D01*
X128809523Y-96027380D01*
X128571428Y-95027380D01*
X128285714Y-95027380D02*
X127666666Y-95027380D01*
X128000000Y-95408333D01*
X127857142Y-95408333D01*
X127761904Y-95455952D01*
X127714285Y-95503571D01*
X127666666Y-95598809D01*
X127666666Y-95836904D01*
X127714285Y-95932142D01*
X127761904Y-95979761D01*
X127857142Y-96027380D01*
X128142857Y-96027380D01*
X128238095Y-95979761D01*
X128285714Y-95932142D01*
%TO.C,SW4*%
X149633333Y-95979761D02*
X149490476Y-96027380D01*
X149252380Y-96027380D01*
X149157142Y-95979761D01*
X149109523Y-95932142D01*
X149061904Y-95836904D01*
X149061904Y-95741666D01*
X149109523Y-95646428D01*
X149157142Y-95598809D01*
X149252380Y-95551190D01*
X149442857Y-95503571D01*
X149538095Y-95455952D01*
X149585714Y-95408333D01*
X149633333Y-95313095D01*
X149633333Y-95217857D01*
X149585714Y-95122619D01*
X149538095Y-95075000D01*
X149442857Y-95027380D01*
X149204761Y-95027380D01*
X149061904Y-95075000D01*
X148728571Y-95027380D02*
X148490476Y-96027380D01*
X148300000Y-95313095D01*
X148109523Y-96027380D01*
X147871428Y-95027380D01*
X147061904Y-95360714D02*
X147061904Y-96027380D01*
X147300000Y-94979761D02*
X147538095Y-95694047D01*
X146919047Y-95694047D01*
%TO.C,SW5*%
X91733333Y-115279761D02*
X91590476Y-115327380D01*
X91352380Y-115327380D01*
X91257142Y-115279761D01*
X91209523Y-115232142D01*
X91161904Y-115136904D01*
X91161904Y-115041666D01*
X91209523Y-114946428D01*
X91257142Y-114898809D01*
X91352380Y-114851190D01*
X91542857Y-114803571D01*
X91638095Y-114755952D01*
X91685714Y-114708333D01*
X91733333Y-114613095D01*
X91733333Y-114517857D01*
X91685714Y-114422619D01*
X91638095Y-114375000D01*
X91542857Y-114327380D01*
X91304761Y-114327380D01*
X91161904Y-114375000D01*
X90828571Y-114327380D02*
X90590476Y-115327380D01*
X90400000Y-114613095D01*
X90209523Y-115327380D01*
X89971428Y-114327380D01*
X89114285Y-114327380D02*
X89590476Y-114327380D01*
X89638095Y-114803571D01*
X89590476Y-114755952D01*
X89495238Y-114708333D01*
X89257142Y-114708333D01*
X89161904Y-114755952D01*
X89114285Y-114803571D01*
X89066666Y-114898809D01*
X89066666Y-115136904D01*
X89114285Y-115232142D01*
X89161904Y-115279761D01*
X89257142Y-115327380D01*
X89495238Y-115327380D01*
X89590476Y-115279761D01*
X89638095Y-115232142D01*
%TO.C,SW6*%
X111033333Y-115279761D02*
X110890476Y-115327380D01*
X110652380Y-115327380D01*
X110557142Y-115279761D01*
X110509523Y-115232142D01*
X110461904Y-115136904D01*
X110461904Y-115041666D01*
X110509523Y-114946428D01*
X110557142Y-114898809D01*
X110652380Y-114851190D01*
X110842857Y-114803571D01*
X110938095Y-114755952D01*
X110985714Y-114708333D01*
X111033333Y-114613095D01*
X111033333Y-114517857D01*
X110985714Y-114422619D01*
X110938095Y-114375000D01*
X110842857Y-114327380D01*
X110604761Y-114327380D01*
X110461904Y-114375000D01*
X110128571Y-114327380D02*
X109890476Y-115327380D01*
X109700000Y-114613095D01*
X109509523Y-115327380D01*
X109271428Y-114327380D01*
X108461904Y-114327380D02*
X108652380Y-114327380D01*
X108747619Y-114375000D01*
X108795238Y-114422619D01*
X108890476Y-114565476D01*
X108938095Y-114755952D01*
X108938095Y-115136904D01*
X108890476Y-115232142D01*
X108842857Y-115279761D01*
X108747619Y-115327380D01*
X108557142Y-115327380D01*
X108461904Y-115279761D01*
X108414285Y-115232142D01*
X108366666Y-115136904D01*
X108366666Y-114898809D01*
X108414285Y-114803571D01*
X108461904Y-114755952D01*
X108557142Y-114708333D01*
X108747619Y-114708333D01*
X108842857Y-114755952D01*
X108890476Y-114803571D01*
X108938095Y-114898809D01*
%TO.C,SW7*%
X130333333Y-115279761D02*
X130190476Y-115327380D01*
X129952380Y-115327380D01*
X129857142Y-115279761D01*
X129809523Y-115232142D01*
X129761904Y-115136904D01*
X129761904Y-115041666D01*
X129809523Y-114946428D01*
X129857142Y-114898809D01*
X129952380Y-114851190D01*
X130142857Y-114803571D01*
X130238095Y-114755952D01*
X130285714Y-114708333D01*
X130333333Y-114613095D01*
X130333333Y-114517857D01*
X130285714Y-114422619D01*
X130238095Y-114375000D01*
X130142857Y-114327380D01*
X129904761Y-114327380D01*
X129761904Y-114375000D01*
X129428571Y-114327380D02*
X129190476Y-115327380D01*
X129000000Y-114613095D01*
X128809523Y-115327380D01*
X128571428Y-114327380D01*
X128285714Y-114327380D02*
X127619047Y-114327380D01*
X128047619Y-115327380D01*
%TO.C,SW8*%
X149633333Y-115279761D02*
X149490476Y-115327380D01*
X149252380Y-115327380D01*
X149157142Y-115279761D01*
X149109523Y-115232142D01*
X149061904Y-115136904D01*
X149061904Y-115041666D01*
X149109523Y-114946428D01*
X149157142Y-114898809D01*
X149252380Y-114851190D01*
X149442857Y-114803571D01*
X149538095Y-114755952D01*
X149585714Y-114708333D01*
X149633333Y-114613095D01*
X149633333Y-114517857D01*
X149585714Y-114422619D01*
X149538095Y-114375000D01*
X149442857Y-114327380D01*
X149204761Y-114327380D01*
X149061904Y-114375000D01*
X148728571Y-114327380D02*
X148490476Y-115327380D01*
X148300000Y-114613095D01*
X148109523Y-115327380D01*
X147871428Y-114327380D01*
X147347619Y-114755952D02*
X147442857Y-114708333D01*
X147490476Y-114660714D01*
X147538095Y-114565476D01*
X147538095Y-114517857D01*
X147490476Y-114422619D01*
X147442857Y-114375000D01*
X147347619Y-114327380D01*
X147157142Y-114327380D01*
X147061904Y-114375000D01*
X147014285Y-114422619D01*
X146966666Y-114517857D01*
X146966666Y-114565476D01*
X147014285Y-114660714D01*
X147061904Y-114708333D01*
X147157142Y-114755952D01*
X147347619Y-114755952D01*
X147442857Y-114803571D01*
X147490476Y-114851190D01*
X147538095Y-114946428D01*
X147538095Y-115136904D01*
X147490476Y-115232142D01*
X147442857Y-115279761D01*
X147347619Y-115327380D01*
X147157142Y-115327380D01*
X147061904Y-115279761D01*
X147014285Y-115232142D01*
X146966666Y-115136904D01*
X146966666Y-114946428D01*
X147014285Y-114851190D01*
X147061904Y-114803571D01*
X147157142Y-114755952D01*
%TO.C,SW9*%
X91733333Y-134579761D02*
X91590476Y-134627380D01*
X91352380Y-134627380D01*
X91257142Y-134579761D01*
X91209523Y-134532142D01*
X91161904Y-134436904D01*
X91161904Y-134341666D01*
X91209523Y-134246428D01*
X91257142Y-134198809D01*
X91352380Y-134151190D01*
X91542857Y-134103571D01*
X91638095Y-134055952D01*
X91685714Y-134008333D01*
X91733333Y-133913095D01*
X91733333Y-133817857D01*
X91685714Y-133722619D01*
X91638095Y-133675000D01*
X91542857Y-133627380D01*
X91304761Y-133627380D01*
X91161904Y-133675000D01*
X90828571Y-133627380D02*
X90590476Y-134627380D01*
X90400000Y-133913095D01*
X90209523Y-134627380D01*
X89971428Y-133627380D01*
X89542857Y-134627380D02*
X89352380Y-134627380D01*
X89257142Y-134579761D01*
X89209523Y-134532142D01*
X89114285Y-134389285D01*
X89066666Y-134198809D01*
X89066666Y-133817857D01*
X89114285Y-133722619D01*
X89161904Y-133675000D01*
X89257142Y-133627380D01*
X89447619Y-133627380D01*
X89542857Y-133675000D01*
X89590476Y-133722619D01*
X89638095Y-133817857D01*
X89638095Y-134055952D01*
X89590476Y-134151190D01*
X89542857Y-134198809D01*
X89447619Y-134246428D01*
X89257142Y-134246428D01*
X89161904Y-134198809D01*
X89114285Y-134151190D01*
X89066666Y-134055952D01*
%TO.C,SW10*%
X111509523Y-134579761D02*
X111366666Y-134627380D01*
X111128571Y-134627380D01*
X111033333Y-134579761D01*
X110985714Y-134532142D01*
X110938095Y-134436904D01*
X110938095Y-134341666D01*
X110985714Y-134246428D01*
X111033333Y-134198809D01*
X111128571Y-134151190D01*
X111319047Y-134103571D01*
X111414285Y-134055952D01*
X111461904Y-134008333D01*
X111509523Y-133913095D01*
X111509523Y-133817857D01*
X111461904Y-133722619D01*
X111414285Y-133675000D01*
X111319047Y-133627380D01*
X111080952Y-133627380D01*
X110938095Y-133675000D01*
X110604761Y-133627380D02*
X110366666Y-134627380D01*
X110176190Y-133913095D01*
X109985714Y-134627380D01*
X109747619Y-133627380D01*
X108842857Y-134627380D02*
X109414285Y-134627380D01*
X109128571Y-134627380D02*
X109128571Y-133627380D01*
X109223809Y-133770238D01*
X109319047Y-133865476D01*
X109414285Y-133913095D01*
X108223809Y-133627380D02*
X108128571Y-133627380D01*
X108033333Y-133675000D01*
X107985714Y-133722619D01*
X107938095Y-133817857D01*
X107890476Y-134008333D01*
X107890476Y-134246428D01*
X107938095Y-134436904D01*
X107985714Y-134532142D01*
X108033333Y-134579761D01*
X108128571Y-134627380D01*
X108223809Y-134627380D01*
X108319047Y-134579761D01*
X108366666Y-134532142D01*
X108414285Y-134436904D01*
X108461904Y-134246428D01*
X108461904Y-134008333D01*
X108414285Y-133817857D01*
X108366666Y-133722619D01*
X108319047Y-133675000D01*
X108223809Y-133627380D01*
%TO.C,SW11*%
X130809523Y-134579761D02*
X130666666Y-134627380D01*
X130428571Y-134627380D01*
X130333333Y-134579761D01*
X130285714Y-134532142D01*
X130238095Y-134436904D01*
X130238095Y-134341666D01*
X130285714Y-134246428D01*
X130333333Y-134198809D01*
X130428571Y-134151190D01*
X130619047Y-134103571D01*
X130714285Y-134055952D01*
X130761904Y-134008333D01*
X130809523Y-133913095D01*
X130809523Y-133817857D01*
X130761904Y-133722619D01*
X130714285Y-133675000D01*
X130619047Y-133627380D01*
X130380952Y-133627380D01*
X130238095Y-133675000D01*
X129904761Y-133627380D02*
X129666666Y-134627380D01*
X129476190Y-133913095D01*
X129285714Y-134627380D01*
X129047619Y-133627380D01*
X128142857Y-134627380D02*
X128714285Y-134627380D01*
X128428571Y-134627380D02*
X128428571Y-133627380D01*
X128523809Y-133770238D01*
X128619047Y-133865476D01*
X128714285Y-133913095D01*
X127190476Y-134627380D02*
X127761904Y-134627380D01*
X127476190Y-134627380D02*
X127476190Y-133627380D01*
X127571428Y-133770238D01*
X127666666Y-133865476D01*
X127761904Y-133913095D01*
%TO.C,SW12*%
X150109523Y-134579761D02*
X149966666Y-134627380D01*
X149728571Y-134627380D01*
X149633333Y-134579761D01*
X149585714Y-134532142D01*
X149538095Y-134436904D01*
X149538095Y-134341666D01*
X149585714Y-134246428D01*
X149633333Y-134198809D01*
X149728571Y-134151190D01*
X149919047Y-134103571D01*
X150014285Y-134055952D01*
X150061904Y-134008333D01*
X150109523Y-133913095D01*
X150109523Y-133817857D01*
X150061904Y-133722619D01*
X150014285Y-133675000D01*
X149919047Y-133627380D01*
X149680952Y-133627380D01*
X149538095Y-133675000D01*
X149204761Y-133627380D02*
X148966666Y-134627380D01*
X148776190Y-133913095D01*
X148585714Y-134627380D01*
X148347619Y-133627380D01*
X147442857Y-134627380D02*
X148014285Y-134627380D01*
X147728571Y-134627380D02*
X147728571Y-133627380D01*
X147823809Y-133770238D01*
X147919047Y-133865476D01*
X148014285Y-133913095D01*
X147061904Y-133722619D02*
X147014285Y-133675000D01*
X146919047Y-133627380D01*
X146680952Y-133627380D01*
X146585714Y-133675000D01*
X146538095Y-133722619D01*
X146490476Y-133817857D01*
X146490476Y-133913095D01*
X146538095Y-134055952D01*
X147109523Y-134627380D01*
X146490476Y-134627380D01*
%TO.C,SW13*%
X92209523Y-153879761D02*
X92066666Y-153927380D01*
X91828571Y-153927380D01*
X91733333Y-153879761D01*
X91685714Y-153832142D01*
X91638095Y-153736904D01*
X91638095Y-153641666D01*
X91685714Y-153546428D01*
X91733333Y-153498809D01*
X91828571Y-153451190D01*
X92019047Y-153403571D01*
X92114285Y-153355952D01*
X92161904Y-153308333D01*
X92209523Y-153213095D01*
X92209523Y-153117857D01*
X92161904Y-153022619D01*
X92114285Y-152975000D01*
X92019047Y-152927380D01*
X91780952Y-152927380D01*
X91638095Y-152975000D01*
X91304761Y-152927380D02*
X91066666Y-153927380D01*
X90876190Y-153213095D01*
X90685714Y-153927380D01*
X90447619Y-152927380D01*
X89542857Y-153927380D02*
X90114285Y-153927380D01*
X89828571Y-153927380D02*
X89828571Y-152927380D01*
X89923809Y-153070238D01*
X90019047Y-153165476D01*
X90114285Y-153213095D01*
X89209523Y-152927380D02*
X88590476Y-152927380D01*
X88923809Y-153308333D01*
X88780952Y-153308333D01*
X88685714Y-153355952D01*
X88638095Y-153403571D01*
X88590476Y-153498809D01*
X88590476Y-153736904D01*
X88638095Y-153832142D01*
X88685714Y-153879761D01*
X88780952Y-153927380D01*
X89066666Y-153927380D01*
X89161904Y-153879761D01*
X89209523Y-153832142D01*
%TO.C,SW14*%
X111509523Y-153879761D02*
X111366666Y-153927380D01*
X111128571Y-153927380D01*
X111033333Y-153879761D01*
X110985714Y-153832142D01*
X110938095Y-153736904D01*
X110938095Y-153641666D01*
X110985714Y-153546428D01*
X111033333Y-153498809D01*
X111128571Y-153451190D01*
X111319047Y-153403571D01*
X111414285Y-153355952D01*
X111461904Y-153308333D01*
X111509523Y-153213095D01*
X111509523Y-153117857D01*
X111461904Y-153022619D01*
X111414285Y-152975000D01*
X111319047Y-152927380D01*
X111080952Y-152927380D01*
X110938095Y-152975000D01*
X110604761Y-152927380D02*
X110366666Y-153927380D01*
X110176190Y-153213095D01*
X109985714Y-153927380D01*
X109747619Y-152927380D01*
X108842857Y-153927380D02*
X109414285Y-153927380D01*
X109128571Y-153927380D02*
X109128571Y-152927380D01*
X109223809Y-153070238D01*
X109319047Y-153165476D01*
X109414285Y-153213095D01*
X107985714Y-153260714D02*
X107985714Y-153927380D01*
X108223809Y-152879761D02*
X108461904Y-153594047D01*
X107842857Y-153594047D01*
%TO.C,SW15*%
X130809523Y-153879761D02*
X130666666Y-153927380D01*
X130428571Y-153927380D01*
X130333333Y-153879761D01*
X130285714Y-153832142D01*
X130238095Y-153736904D01*
X130238095Y-153641666D01*
X130285714Y-153546428D01*
X130333333Y-153498809D01*
X130428571Y-153451190D01*
X130619047Y-153403571D01*
X130714285Y-153355952D01*
X130761904Y-153308333D01*
X130809523Y-153213095D01*
X130809523Y-153117857D01*
X130761904Y-153022619D01*
X130714285Y-152975000D01*
X130619047Y-152927380D01*
X130380952Y-152927380D01*
X130238095Y-152975000D01*
X129904761Y-152927380D02*
X129666666Y-153927380D01*
X129476190Y-153213095D01*
X129285714Y-153927380D01*
X129047619Y-152927380D01*
X128142857Y-153927380D02*
X128714285Y-153927380D01*
X128428571Y-153927380D02*
X128428571Y-152927380D01*
X128523809Y-153070238D01*
X128619047Y-153165476D01*
X128714285Y-153213095D01*
X127238095Y-152927380D02*
X127714285Y-152927380D01*
X127761904Y-153403571D01*
X127714285Y-153355952D01*
X127619047Y-153308333D01*
X127380952Y-153308333D01*
X127285714Y-153355952D01*
X127238095Y-153403571D01*
X127190476Y-153498809D01*
X127190476Y-153736904D01*
X127238095Y-153832142D01*
X127285714Y-153879761D01*
X127380952Y-153927380D01*
X127619047Y-153927380D01*
X127714285Y-153879761D01*
X127761904Y-153832142D01*
%TO.C,SW16*%
X150109523Y-153879761D02*
X149966666Y-153927380D01*
X149728571Y-153927380D01*
X149633333Y-153879761D01*
X149585714Y-153832142D01*
X149538095Y-153736904D01*
X149538095Y-153641666D01*
X149585714Y-153546428D01*
X149633333Y-153498809D01*
X149728571Y-153451190D01*
X149919047Y-153403571D01*
X150014285Y-153355952D01*
X150061904Y-153308333D01*
X150109523Y-153213095D01*
X150109523Y-153117857D01*
X150061904Y-153022619D01*
X150014285Y-152975000D01*
X149919047Y-152927380D01*
X149680952Y-152927380D01*
X149538095Y-152975000D01*
X149204761Y-152927380D02*
X148966666Y-153927380D01*
X148776190Y-153213095D01*
X148585714Y-153927380D01*
X148347619Y-152927380D01*
X147442857Y-153927380D02*
X148014285Y-153927380D01*
X147728571Y-153927380D02*
X147728571Y-152927380D01*
X147823809Y-153070238D01*
X147919047Y-153165476D01*
X148014285Y-153213095D01*
X146585714Y-152927380D02*
X146776190Y-152927380D01*
X146871428Y-152975000D01*
X146919047Y-153022619D01*
X147014285Y-153165476D01*
X147061904Y-153355952D01*
X147061904Y-153736904D01*
X147014285Y-153832142D01*
X146966666Y-153879761D01*
X146871428Y-153927380D01*
X146680952Y-153927380D01*
X146585714Y-153879761D01*
X146538095Y-153832142D01*
X146490476Y-153736904D01*
X146490476Y-153498809D01*
X146538095Y-153403571D01*
X146585714Y-153355952D01*
X146680952Y-153308333D01*
X146871428Y-153308333D01*
X146966666Y-153355952D01*
X147014285Y-153403571D01*
X147061904Y-153498809D01*
%TO.C,SW17*%
X92209523Y-173079761D02*
X92066666Y-173127380D01*
X91828571Y-173127380D01*
X91733333Y-173079761D01*
X91685714Y-173032142D01*
X91638095Y-172936904D01*
X91638095Y-172841666D01*
X91685714Y-172746428D01*
X91733333Y-172698809D01*
X91828571Y-172651190D01*
X92019047Y-172603571D01*
X92114285Y-172555952D01*
X92161904Y-172508333D01*
X92209523Y-172413095D01*
X92209523Y-172317857D01*
X92161904Y-172222619D01*
X92114285Y-172175000D01*
X92019047Y-172127380D01*
X91780952Y-172127380D01*
X91638095Y-172175000D01*
X91304761Y-172127380D02*
X91066666Y-173127380D01*
X90876190Y-172413095D01*
X90685714Y-173127380D01*
X90447619Y-172127380D01*
X89542857Y-173127380D02*
X90114285Y-173127380D01*
X89828571Y-173127380D02*
X89828571Y-172127380D01*
X89923809Y-172270238D01*
X90019047Y-172365476D01*
X90114285Y-172413095D01*
X89209523Y-172127380D02*
X88542857Y-172127380D01*
X88971428Y-173127380D01*
%TO.C,SW18*%
X111509523Y-173079761D02*
X111366666Y-173127380D01*
X111128571Y-173127380D01*
X111033333Y-173079761D01*
X110985714Y-173032142D01*
X110938095Y-172936904D01*
X110938095Y-172841666D01*
X110985714Y-172746428D01*
X111033333Y-172698809D01*
X111128571Y-172651190D01*
X111319047Y-172603571D01*
X111414285Y-172555952D01*
X111461904Y-172508333D01*
X111509523Y-172413095D01*
X111509523Y-172317857D01*
X111461904Y-172222619D01*
X111414285Y-172175000D01*
X111319047Y-172127380D01*
X111080952Y-172127380D01*
X110938095Y-172175000D01*
X110604761Y-172127380D02*
X110366666Y-173127380D01*
X110176190Y-172413095D01*
X109985714Y-173127380D01*
X109747619Y-172127380D01*
X108842857Y-173127380D02*
X109414285Y-173127380D01*
X109128571Y-173127380D02*
X109128571Y-172127380D01*
X109223809Y-172270238D01*
X109319047Y-172365476D01*
X109414285Y-172413095D01*
X108271428Y-172555952D02*
X108366666Y-172508333D01*
X108414285Y-172460714D01*
X108461904Y-172365476D01*
X108461904Y-172317857D01*
X108414285Y-172222619D01*
X108366666Y-172175000D01*
X108271428Y-172127380D01*
X108080952Y-172127380D01*
X107985714Y-172175000D01*
X107938095Y-172222619D01*
X107890476Y-172317857D01*
X107890476Y-172365476D01*
X107938095Y-172460714D01*
X107985714Y-172508333D01*
X108080952Y-172555952D01*
X108271428Y-172555952D01*
X108366666Y-172603571D01*
X108414285Y-172651190D01*
X108461904Y-172746428D01*
X108461904Y-172936904D01*
X108414285Y-173032142D01*
X108366666Y-173079761D01*
X108271428Y-173127380D01*
X108080952Y-173127380D01*
X107985714Y-173079761D01*
X107938095Y-173032142D01*
X107890476Y-172936904D01*
X107890476Y-172746428D01*
X107938095Y-172651190D01*
X107985714Y-172603571D01*
X108080952Y-172555952D01*
%TO.C,SW19*%
X130809523Y-173079761D02*
X130666666Y-173127380D01*
X130428571Y-173127380D01*
X130333333Y-173079761D01*
X130285714Y-173032142D01*
X130238095Y-172936904D01*
X130238095Y-172841666D01*
X130285714Y-172746428D01*
X130333333Y-172698809D01*
X130428571Y-172651190D01*
X130619047Y-172603571D01*
X130714285Y-172555952D01*
X130761904Y-172508333D01*
X130809523Y-172413095D01*
X130809523Y-172317857D01*
X130761904Y-172222619D01*
X130714285Y-172175000D01*
X130619047Y-172127380D01*
X130380952Y-172127380D01*
X130238095Y-172175000D01*
X129904761Y-172127380D02*
X129666666Y-173127380D01*
X129476190Y-172413095D01*
X129285714Y-173127380D01*
X129047619Y-172127380D01*
X128142857Y-173127380D02*
X128714285Y-173127380D01*
X128428571Y-173127380D02*
X128428571Y-172127380D01*
X128523809Y-172270238D01*
X128619047Y-172365476D01*
X128714285Y-172413095D01*
X127666666Y-173127380D02*
X127476190Y-173127380D01*
X127380952Y-173079761D01*
X127333333Y-173032142D01*
X127238095Y-172889285D01*
X127190476Y-172698809D01*
X127190476Y-172317857D01*
X127238095Y-172222619D01*
X127285714Y-172175000D01*
X127380952Y-172127380D01*
X127571428Y-172127380D01*
X127666666Y-172175000D01*
X127714285Y-172222619D01*
X127761904Y-172317857D01*
X127761904Y-172555952D01*
X127714285Y-172651190D01*
X127666666Y-172698809D01*
X127571428Y-172746428D01*
X127380952Y-172746428D01*
X127285714Y-172698809D01*
X127238095Y-172651190D01*
X127190476Y-172555952D01*
%TO.C,SW20*%
X150109523Y-173079761D02*
X149966666Y-173127380D01*
X149728571Y-173127380D01*
X149633333Y-173079761D01*
X149585714Y-173032142D01*
X149538095Y-172936904D01*
X149538095Y-172841666D01*
X149585714Y-172746428D01*
X149633333Y-172698809D01*
X149728571Y-172651190D01*
X149919047Y-172603571D01*
X150014285Y-172555952D01*
X150061904Y-172508333D01*
X150109523Y-172413095D01*
X150109523Y-172317857D01*
X150061904Y-172222619D01*
X150014285Y-172175000D01*
X149919047Y-172127380D01*
X149680952Y-172127380D01*
X149538095Y-172175000D01*
X149204761Y-172127380D02*
X148966666Y-173127380D01*
X148776190Y-172413095D01*
X148585714Y-173127380D01*
X148347619Y-172127380D01*
X148014285Y-172222619D02*
X147966666Y-172175000D01*
X147871428Y-172127380D01*
X147633333Y-172127380D01*
X147538095Y-172175000D01*
X147490476Y-172222619D01*
X147442857Y-172317857D01*
X147442857Y-172413095D01*
X147490476Y-172555952D01*
X148061904Y-173127380D01*
X147442857Y-173127380D01*
X146823809Y-172127380D02*
X146728571Y-172127380D01*
X146633333Y-172175000D01*
X146585714Y-172222619D01*
X146538095Y-172317857D01*
X146490476Y-172508333D01*
X146490476Y-172746428D01*
X146538095Y-172936904D01*
X146585714Y-173032142D01*
X146633333Y-173079761D01*
X146728571Y-173127380D01*
X146823809Y-173127380D01*
X146919047Y-173079761D01*
X146966666Y-173032142D01*
X147014285Y-172936904D01*
X147061904Y-172746428D01*
X147061904Y-172508333D01*
X147014285Y-172317857D01*
X146966666Y-172222619D01*
X146919047Y-172175000D01*
X146823809Y-172127380D01*
%TO.C,JP1*%
X108713333Y-43722380D02*
X108713333Y-44436666D01*
X108760952Y-44579523D01*
X108856190Y-44674761D01*
X108999047Y-44722380D01*
X109094285Y-44722380D01*
X108237142Y-44722380D02*
X108237142Y-43722380D01*
X107856190Y-43722380D01*
X107760952Y-43770000D01*
X107713333Y-43817619D01*
X107665714Y-43912857D01*
X107665714Y-44055714D01*
X107713333Y-44150952D01*
X107760952Y-44198571D01*
X107856190Y-44246190D01*
X108237142Y-44246190D01*
X106713333Y-44722380D02*
X107284761Y-44722380D01*
X106999047Y-44722380D02*
X106999047Y-43722380D01*
X107094285Y-43865238D01*
X107189523Y-43960476D01*
X107284761Y-44008095D01*
%TD*%
M02*
