M48
; DRILL file {KiCad (5.1.6)-1} date 12/15/20 22:49:53
; FORMAT={-:-/ absolute / inch / decimal}
; #@! TF.CreationDate,2020-12-15T22:49:53+02:00
; #@! TF.GenerationSoftware,Kicad,Pcbnew,(5.1.6)-1
; #@! TF.FileFunction,NonPlated,1,4,NPTH
FMAT,2
INCH
T1C0.0390
T2C0.0472
T3C0.0669
T4C0.0689
T5C0.0935
T6C0.1570
%
G90
G05
T1
X5.0446Y-2.8567
X5.0846Y-2.5567
X5.1246Y-2.8567
T2
X4.8732Y-6.8386
X5.6331Y-5.3228
X3.3535Y-5.3228
X4.8732Y-5.3228
X3.3535Y-3.8031
X4.1134Y-3.8031
X4.8732Y-6.0827
X4.1134Y-6.0827
X5.6331Y-4.563
X3.3535Y-6.8386
X4.1134Y-6.8386
X4.1134Y-5.3228
X4.1134Y-4.563
X5.6331Y-6.0827
X4.8732Y-4.563
X3.3535Y-4.563
X5.6331Y-3.8031
X5.6331Y-6.8386
X3.3535Y-6.0827
X4.8732Y-3.8031
T3
X5.622Y-6.6732
X6.0551Y-6.6732
X3.3425Y-5.9173
X3.7756Y-5.9173
X4.8622Y-3.6378
X5.2953Y-3.6378
X4.8622Y-6.6732
X5.2953Y-6.6732
X5.622Y-5.1575
X6.0551Y-5.1575
X3.3425Y-5.1575
X3.7756Y-5.1575
X4.8622Y-5.1575
X5.2953Y-5.1575
X3.3425Y-3.6378
X3.7756Y-3.6378
X4.1024Y-3.6378
X4.5354Y-3.6378
X4.8622Y-5.9173
X5.2953Y-5.9173
X4.1024Y-5.9173
X4.5354Y-5.9173
X5.622Y-4.3976
X6.0551Y-4.3976
X3.3425Y-6.6732
X3.7756Y-6.6732
X4.1024Y-6.6732
X4.5354Y-6.6732
X4.1024Y-5.1575
X4.5354Y-5.1575
X4.1024Y-4.3976
X4.5354Y-4.3976
X5.622Y-5.9173
X6.0551Y-5.9173
X4.8622Y-4.3976
X5.2953Y-4.3976
X3.3425Y-4.3976
X3.7756Y-4.3976
X5.622Y-3.6378
X6.0551Y-3.6378
T4
X3.3591Y-6.6732
X3.7591Y-6.6732
X4.1189Y-6.6732
X4.5189Y-6.6732
X4.1189Y-5.1575
X4.5189Y-5.1575
X4.1189Y-4.3976
X4.5189Y-4.3976
X5.6386Y-5.9173
X6.0386Y-5.9173
X4.8787Y-4.3976
X5.2787Y-4.3976
X3.3591Y-4.3976
X3.7591Y-4.3976
X5.6386Y-3.6378
X6.0386Y-3.6378
X5.6386Y-6.6732
X6.0386Y-6.6732
X3.3591Y-5.9173
X3.7591Y-5.9173
X4.8787Y-3.6378
X5.2787Y-3.6378
X4.8787Y-6.6732
X5.2787Y-6.6732
X5.6386Y-5.1575
X6.0386Y-5.1575
X3.3591Y-5.1575
X3.7591Y-5.1575
X4.8787Y-5.1575
X5.2787Y-5.1575
X3.3591Y-3.6378
X3.7591Y-3.6378
X4.1189Y-3.6378
X4.5189Y-3.6378
X4.8787Y-5.9173
X5.2787Y-5.9173
X4.1189Y-5.9173
X4.5189Y-5.9173
X5.6386Y-4.3976
X6.0386Y-4.3976
T5
X4.9846Y-2.5567
X4.9846Y-2.7817
X5.1846Y-2.5567
X5.1846Y-2.7817
T6
X5.8386Y-3.6378
X5.8386Y-6.6732
X3.5591Y-5.9173
X5.0787Y-3.6378
X5.0787Y-6.6732
X5.8386Y-5.1575
X3.5591Y-5.1575
X5.0787Y-5.1575
X3.5591Y-3.6378
X4.3189Y-3.6378
X5.0787Y-5.9173
X4.3189Y-5.9173
X5.8386Y-4.3976
X3.5591Y-6.6732
X4.3189Y-6.6732
X4.3189Y-5.1575
X4.3189Y-4.3976
X5.8386Y-5.9173
X5.0787Y-4.3976
X3.5591Y-4.3976
T0
M30
